<svg width="497" height="497" viewBox="0 0 497 497" fill="none" xmlns="http://www.w3.org/2000/svg">
<g filter="url(#filter0_d_43_1410)">
<circle cx="248.5" cy="244.5" r="244.5" fill="#182238"/>
<g opacity="0.8">
<path d="M309.593 191.359C309.593 187.786 311.499 184.485 314.592 182.699L320.032 179.558C323.127 177.771 326.939 177.771 330.033 179.558L335.473 182.699C338.567 184.485 340.473 187.786 340.473 191.359V197.635C340.473 201.208 338.567 204.509 335.473 206.295L330.033 209.436C326.939 211.223 323.127 211.223 320.032 209.436L314.592 206.295C311.499 204.509 309.593 201.208 309.593 197.635V191.359Z" fill="#212D42"/>
<path d="M291.47 223.462C291.47 219.89 293.376 216.589 296.47 214.802L301.91 211.661C305.004 209.874 308.816 209.874 311.911 211.661L317.351 214.802C320.444 216.589 322.35 219.89 322.35 223.462V229.747C322.35 233.319 320.444 236.62 317.351 238.407L311.911 241.548C308.816 243.335 305.004 243.335 301.91 241.548L296.47 238.407C293.376 236.62 291.47 233.319 291.47 229.747V223.462Z" fill="#212D42"/>
<path d="M291.47 285.281C291.47 281.707 293.378 278.405 296.473 276.619L301.913 273.481C305.006 271.697 308.815 271.697 311.907 273.481L317.347 276.619C320.443 278.405 322.35 281.707 322.35 285.281V291.56C322.35 295.134 320.443 298.436 317.347 300.222L311.907 303.361C308.815 305.145 305.006 305.145 301.913 303.361L296.473 300.222C293.378 298.436 291.47 295.134 291.47 291.56V285.281Z" fill="#212D42"/>
<path d="M291.47 346.527C291.47 342.955 293.376 339.654 296.47 337.867L301.91 334.726C305.004 332.939 308.816 332.939 311.911 334.726L317.351 337.867C320.444 339.654 322.35 342.955 322.35 346.527V352.804C322.35 356.376 320.444 359.677 317.351 361.464L311.911 364.605C308.816 366.391 305.004 366.391 301.91 364.605L296.47 361.464C293.376 359.677 291.47 356.376 291.47 352.804V346.527Z" fill="#212D42"/>
<path d="M309.593 254.318C309.593 250.745 311.499 247.444 314.592 245.658L320.032 242.517C323.127 240.73 326.939 240.73 330.033 242.517L335.473 245.658C338.567 247.444 340.473 250.745 340.473 254.318V260.6C340.473 264.173 338.565 267.476 335.47 269.262L330.03 272.4C326.937 274.184 323.128 274.184 320.036 272.4L314.596 269.262C311.5 267.476 309.593 264.173 309.593 260.6V254.318Z" fill="#2D3F54"/>
<path d="M309.593 376.807C309.593 373.235 311.499 369.934 314.592 368.147L320.032 365.006C323.127 363.219 326.939 363.219 330.033 365.006L335.473 368.147C338.567 369.934 340.473 373.235 340.473 376.807V383.084C340.473 386.656 338.567 389.957 335.473 391.744L330.033 394.885C326.939 396.672 323.127 396.672 320.032 394.885L314.592 391.744C311.499 389.957 309.593 386.656 309.593 383.084V376.807Z" fill="#2D3F54"/>
<path d="M309.593 315.566C309.593 311.994 311.499 308.693 314.592 306.906L320.032 303.765C323.127 301.979 326.939 301.979 330.033 303.765L335.473 306.906C338.567 308.693 340.473 311.994 340.473 315.566V321.843C340.473 325.415 338.567 328.716 335.473 330.503L330.033 333.644C326.939 335.431 323.127 335.431 320.032 333.644L314.592 330.503C311.499 328.716 309.593 325.415 309.593 321.843V315.566Z" fill="#2D3F54"/>
<path d="M327.716 223.462C327.716 219.89 329.621 216.589 332.715 214.802L338.154 211.662C341.249 209.875 345.062 209.875 348.157 211.663L353.59 214.802C356.682 216.589 358.587 219.889 358.587 223.461V229.748C358.587 233.32 356.682 236.62 353.59 238.407L348.157 241.546C345.062 243.334 341.249 243.334 338.154 241.547L332.715 238.407C329.621 236.62 327.716 233.319 327.716 229.747V223.462Z" fill="#2D3F54"/>
<path d="M327.716 285.281C327.716 281.707 329.623 278.405 332.718 276.619L338.157 273.482C341.25 271.697 345.06 271.698 348.153 273.483L353.586 276.619C356.681 278.405 358.587 281.706 358.587 285.28V291.555C358.587 295.127 356.681 298.428 353.588 300.215L348.147 303.357C345.053 305.143 341.241 305.143 338.147 303.357L332.717 300.223C329.622 298.437 327.716 295.135 327.716 291.562V285.281Z" fill="#2D3F54"/>
</g>
<g opacity="0.8">
<path d="M136.683 122.783C136.683 119.21 138.588 115.909 141.682 114.123L145.916 111.678C149.009 109.892 152.821 109.891 155.915 111.677L160.154 114.123C163.249 115.91 165.155 119.211 165.155 122.785V127.672C165.155 131.245 163.249 134.547 160.154 136.333L155.915 138.779C152.821 140.565 149.009 140.565 145.916 138.778L141.682 136.334C138.588 134.547 136.683 131.246 136.683 127.674V122.783Z" fill="#212D42"/>
<path d="M119.97 152.392C119.97 148.819 121.877 145.517 124.972 143.731L129.211 141.284C132.305 139.499 136.116 139.499 139.21 141.286L143.444 143.73C146.537 145.517 148.443 148.818 148.443 152.39V157.281C148.443 160.853 146.537 164.154 143.444 165.941L139.21 168.386C136.116 170.172 132.305 170.172 129.211 168.387L124.972 165.94C121.877 164.154 119.97 160.853 119.97 157.279V152.392Z" fill="#212D42"/>
<path d="M119.97 209.385C119.97 205.812 121.877 202.51 124.972 200.724L129.211 198.278C132.305 196.492 136.116 196.493 139.21 198.279L143.444 200.724C146.537 202.51 148.443 205.811 148.443 209.384V214.275C148.443 217.847 146.537 221.148 143.444 222.934L139.21 225.379C136.116 227.166 132.305 227.166 129.211 225.38L124.972 222.934C121.877 221.148 119.97 217.846 119.97 214.273V209.385Z" fill="#212D42"/>
<path d="M119.97 265.861C119.97 262.287 121.877 258.986 124.972 257.199L129.211 254.753C132.305 252.967 136.116 252.968 139.21 254.754L143.444 257.199C146.537 258.985 148.443 262.287 148.443 265.859V270.75C148.443 274.322 146.537 277.623 143.444 279.41L139.21 281.854C136.116 283.641 132.305 283.641 129.211 281.856L124.972 279.409C121.877 277.623 119.97 274.321 119.97 270.748V265.861Z" fill="#212D42"/>
<path d="M136.683 180.838C136.683 177.266 138.588 173.965 141.682 172.179L145.916 169.734C149.009 167.947 152.821 167.947 155.915 169.733L160.154 172.179C163.249 173.965 165.155 177.267 165.155 180.84V185.728C165.155 189.301 163.249 192.603 160.154 194.389L155.915 196.835C152.821 198.621 149.009 198.62 145.916 196.834L141.682 194.389C138.588 192.603 136.683 189.302 136.683 185.729V180.838Z" fill="#2D3F54"/>
<path d="M136.683 293.78C136.683 290.208 138.588 286.907 141.682 285.12L145.916 282.676C149.009 280.889 152.821 280.889 155.915 282.675L160.154 285.121C163.249 286.907 165.155 290.209 165.155 293.782V298.669C165.155 302.243 163.249 305.544 160.154 307.331L155.915 309.777C152.821 311.563 149.009 311.562 145.916 309.776L141.682 307.331C138.588 305.545 136.683 302.243 136.683 298.671V293.78Z" fill="#2D3F54"/>
<path d="M136.683 237.311C136.683 233.74 138.587 230.44 141.678 228.653L145.912 226.206C149.008 224.417 152.823 224.416 155.919 226.205L160.157 228.653C163.25 230.44 165.155 233.741 165.155 237.312V242.2C165.155 245.775 163.247 249.077 160.15 250.863L155.911 253.307C152.819 255.09 149.011 255.089 145.919 253.306L141.686 250.863C138.59 249.078 136.683 245.775 136.683 242.201V237.311Z" fill="#2D3F54"/>
<path d="M153.387 152.392C153.387 148.819 155.294 145.517 158.388 143.731L162.627 141.284C165.721 139.499 169.533 139.499 172.627 141.286L176.86 143.73C179.954 145.517 181.86 148.818 181.86 152.39V157.281C181.86 160.853 179.954 164.154 176.86 165.941L172.627 168.386C169.533 170.172 165.721 170.172 162.627 168.387L158.388 165.94C155.294 164.154 153.387 160.853 153.387 157.279V152.392Z" fill="#2D3F54"/>
<path d="M153.387 209.385C153.387 205.812 155.294 202.51 158.388 200.724L162.627 198.278C165.721 196.492 169.533 196.493 172.627 198.279L176.86 200.724C179.954 202.51 181.86 205.811 181.86 209.384V214.275C181.86 217.847 179.954 221.148 176.86 222.934L172.627 225.379C169.533 227.166 165.721 227.166 162.627 225.38L158.388 222.934C155.294 221.148 153.387 217.846 153.387 214.273V209.385Z" fill="#2D3F54"/>
</g>
<g opacity="0.8">
<path d="M190.483 296.465C190.483 293.018 192.322 289.831 195.307 288.108C198.29 286.386 201.968 286.386 204.952 288.107C207.939 289.83 209.781 293.017 209.781 296.465C209.781 299.913 207.939 303.1 204.952 304.822C201.968 306.544 198.29 306.544 195.307 304.822C192.322 303.099 190.483 299.912 190.483 296.465Z" fill="#212D42"/>
<path d="M179.161 316.524C179.161 313.078 180.999 309.891 183.984 308.168C186.968 306.445 190.646 306.446 193.63 308.167C196.616 309.89 198.458 313.077 198.458 316.524C198.458 319.972 196.616 323.159 193.63 324.882C190.646 326.603 186.968 326.604 183.984 324.881C180.999 323.158 179.161 319.971 179.161 316.524Z" fill="#212D42"/>
<path d="M179.161 355.153C179.161 351.706 180.999 348.519 183.984 346.796C186.968 345.073 190.646 345.074 193.63 346.795C196.616 348.518 198.458 351.705 198.458 355.153C198.458 358.6 196.616 361.787 193.63 363.51C190.646 365.231 186.968 365.232 183.984 363.509C180.999 361.786 179.161 358.599 179.161 355.153Z" fill="#212D42"/>
<path d="M179.161 393.424C179.161 389.977 180.999 386.79 183.984 385.067C186.968 383.345 190.646 383.345 193.63 385.066C196.616 386.789 198.458 389.976 198.458 393.424C198.458 396.872 196.616 400.059 193.63 401.781C190.646 403.503 186.968 403.503 183.984 401.781C180.999 400.058 179.161 396.87 179.161 393.424Z" fill="#212D42"/>
<path d="M190.483 335.806C190.483 332.36 192.322 329.173 195.307 327.449C198.29 325.727 201.968 325.727 204.952 327.449C207.939 329.172 209.781 332.358 209.781 335.806C209.781 339.254 207.939 342.441 204.952 344.164C201.968 345.885 198.29 345.886 195.307 344.163C192.322 342.44 190.483 339.253 190.483 335.806Z" fill="#2D3F54"/>
<path d="M190.483 412.347C190.483 408.9 192.322 405.715 195.307 403.992C198.29 402.27 201.969 402.271 204.953 403.992C207.939 405.714 209.781 408.9 209.781 412.347C209.781 415.791 207.941 418.976 204.958 420.699C201.972 422.424 198.288 422.425 195.302 420.699C192.32 418.975 190.483 415.791 190.483 412.347Z" fill="#2D3F54"/>
<path d="M190.483 374.078C190.483 370.631 192.322 367.444 195.307 365.721C198.29 363.998 201.968 363.999 204.952 365.72C207.939 367.443 209.781 370.63 209.781 374.078C209.781 377.525 207.939 380.712 204.952 382.435C201.968 384.156 198.29 384.157 195.307 382.434C192.322 380.711 190.483 377.524 190.483 374.078Z" fill="#2D3F54"/>
<path d="M201.806 316.524C201.806 313.077 203.648 309.89 206.635 308.167C209.619 306.446 213.296 306.445 216.28 308.168C219.265 309.891 221.104 313.078 221.104 316.524C221.104 319.971 219.265 323.158 216.28 324.881C213.296 326.604 209.619 326.603 206.635 324.882C203.648 323.159 201.806 319.972 201.806 316.524Z" fill="#2D3F54"/>
<path d="M201.806 355.156C201.806 351.711 203.648 348.524 206.632 346.801C209.615 345.077 213.297 345.074 216.282 346.797C219.265 348.519 221.104 351.704 221.104 355.15C221.104 358.598 219.262 361.787 216.274 363.51C213.29 365.232 209.613 365.232 206.629 363.509C203.645 361.786 201.806 358.602 201.806 355.156Z" fill="#2D3F54"/>
</g>
<path d="M266.236 292.935C264.339 295.336 261.448 296.736 258.389 296.736H236.857C233.798 296.736 230.906 295.336 229.01 292.935L57.7964 76.1988C52.6164 69.6415 57.2869 60 65.6434 60H429.602C437.959 60 442.629 69.6415 437.449 76.1988L266.236 292.935Z" fill="url(#paint0_linear_43_1410)"/>
<path d="M263.533 296.736L396.123 63.25C397.264 61.2411 399.396 60 401.706 60C406.765 60 409.837 65.5791 407.131 69.854L263.533 296.736Z" fill="url(#paint1_linear_43_1410)"/>
<path d="M232.621 296.736L100.03 63.25C98.8892 61.2411 96.7572 60 94.447 60C89.3878 60 86.3163 65.5791 89.0219 69.854L232.621 296.736Z" fill="url(#paint2_linear_43_1410)"/>
<path d="M297.711 391.321C296.136 367.042 281.28 355.53 270.533 350.786C266.157 348.854 262.722 344.783 262.722 339.999V313.889C262.722 308.298 258.139 303.794 252.55 303.89L247.688 303.974L242.826 303.89C237.236 303.794 232.653 308.298 232.653 313.889V339.984C232.653 344.775 229.205 348.826 224.813 350.739C214.317 355.311 200.029 366.453 197.664 391.321C194.972 419.741 215.321 432.796 221.594 436.119C222.769 436.741 224.082 437 225.412 437H269.686C271.194 437 272.676 436.668 273.969 435.89C280.3 432.08 299.459 418.254 297.711 391.321Z" fill="#85C3B8"/>
<path d="M289.047 391.402C287.75 371.486 275.577 362.022 264.903 358.119C260.171 356.389 256.36 352.236 256.36 347.197V313.93C256.36 309.327 252.565 305.629 247.963 305.749C243.075 305.629 239.048 309.559 239.048 314.448V347.254C239.048 352.269 235.269 356.391 230.574 358.152C220.431 361.955 208.844 371.118 206.92 391.402C204.751 414.305 220.784 425.048 226.26 428.023C227.427 428.657 228.733 428.911 230.061 428.911H265.596C267.102 428.911 268.588 428.579 269.87 427.788C275.394 424.381 290.453 413.045 289.047 391.402Z" fill="url(#paint3_linear_43_1410)"/>
<path d="M206.888 391.402C204.718 414.305 220.751 425.048 226.228 428.023C227.394 428.657 228.701 428.911 230.029 428.911H265.594C267.102 428.911 268.588 428.578 269.871 427.786C275.392 424.376 290.428 413.04 289.023 391.402C289.023 391.263 288.91 391.151 288.771 391.151H207.183C207.035 391.151 206.901 391.255 206.888 391.402Z" fill="url(#paint4_linear_43_1410)"/>
<g style="mix-blend-mode:multiply" opacity="0.6">
<path d="M297.711 391.321C296.136 367.042 281.28 355.53 270.533 350.786C266.157 348.854 262.722 344.783 262.722 339.999V313.889C262.722 308.298 258.139 303.794 252.55 303.89L247.688 303.974L241.136 303.861C240.621 303.852 240.204 304.668 240.231 305.182C240.254 305.636 240.583 305.598 241.031 305.678C243.926 306.193 254.154 309.072 258.37 324.342C260.328 331.404 259.333 340.949 258.155 347.709C257.313 352.54 259.649 357.556 263.583 360.484C272.498 367.119 285.615 381.293 278.138 403.997C270.962 425.786 248.259 433.416 228.027 429.508C222.928 428.523 218.596 434.922 223.362 436.985C223.911 437.222 223.705 437 224.303 437H269.686C271.194 437 272.676 436.668 273.969 435.89C280.3 432.08 299.459 418.254 297.711 391.321Z" fill="#BABCBE"/>
</g>
<path d="M265.185 301.476C264.979 303.87 262.976 305.709 260.574 305.709H234.802C232.399 305.709 230.396 303.87 230.191 301.476C229.959 298.774 232.09 296.453 234.802 296.453H260.574C263.286 296.453 265.417 298.774 265.185 301.476Z" fill="#85C3B8"/>
<path opacity="0.3" d="M-nan -nanL229.792 296.72C229.792 296.72 231.297 296.698 233.694 296.668C238.305 296.61 238.34 297.499 233.746 297.106C232.427 296.994 231.109 296.865 229.792 296.72L-nan -nanZ" fill="white"/>
<g style="mix-blend-mode:multiply" opacity="0.3">
<path d="M260.581 305.709C262.981 305.709 264.982 303.875 265.191 301.484L265.527 297.647C265.584 297.005 265.077 296.453 264.433 296.453C263.147 296.453 262.943 299.242 262.963 300.527C262.993 302.507 258.262 304.171 249.811 304.306C241.318 304.438 236.159 303.347 233.269 302.366C232.033 301.947 230.329 303.054 230.443 304.354C230.51 305.121 231.152 305.709 231.921 305.709H260.581Z" fill="#85C3B8"/>
</g>
<path d="M265.616 296.453C265.616 296.834 257.592 297.142 247.688 297.142C237.783 297.142 229.76 296.834 229.76 296.453C229.76 296.072 237.792 295.772 247.688 295.772C257.584 295.772 265.616 296.08 265.616 296.453Z" fill="#61AB9C"/>
<path d="M260.169 296.736C260.169 296.963 254.585 297.15 247.688 297.15C240.79 297.15 235.206 296.963 235.206 296.736C235.206 296.509 240.798 296.323 247.688 296.323C254.577 296.323 260.169 296.501 260.169 296.736Z" fill="#508C7F"/>
<g style="mix-blend-mode:overlay" opacity="0.5">
<path d="M294.542 389.554C294.431 387.59 292.68 389.047 292.767 391.013C292.958 395.392 294.688 396.523 294.632 392.141C294.622 391.293 294.592 390.431 294.542 389.554Z" fill="white"/>
</g>
<g style="mix-blend-mode:overlay" opacity="0.5">
<path d="M204.699 376.035C204.03 377.422 205.665 377.064 206.353 375.686C208.119 372.145 207.38 370.849 205.545 374.356C205.259 374.903 204.977 375.463 204.699 376.035Z" fill="white"/>
</g>
<path opacity="0.4" d="M-nan -nanL238.278 398.899C238.276 399.647 238.053 400.378 237.636 400.999C237.219 401.621 236.627 402.105 235.936 402.39C235.244 402.675 234.483 402.749 233.75 402.602C233.016 402.455 232.342 402.094 231.814 401.564C231.285 401.035 230.925 400.36 230.78 399.626C230.635 398.892 230.71 398.132 230.997 397.44C231.283 396.749 231.769 396.159 232.391 395.743C233.013 395.327 233.745 395.106 234.493 395.106C234.991 395.106 235.483 395.204 235.943 395.395C236.403 395.585 236.821 395.865 237.172 396.217C237.524 396.57 237.802 396.988 237.992 397.448C238.182 397.908 238.279 398.401 238.278 398.899L-nan -nanZ" fill="white"/>
<path opacity="0.2" d="M260.275 410.586C260.275 411.227 260.084 411.854 259.728 412.387C259.372 412.92 258.866 413.336 258.273 413.581C257.681 413.827 257.029 413.891 256.4 413.766C255.771 413.641 255.194 413.332 254.74 412.879C254.287 412.425 253.978 411.848 253.853 411.219C253.728 410.59 253.792 409.938 254.037 409.346C254.283 408.753 254.698 408.247 255.231 407.891C255.765 407.534 256.391 407.344 257.033 407.344C257.892 407.344 258.717 407.686 259.325 408.294C259.933 408.902 260.275 409.726 260.275 410.586Z" fill="white"/>
<path opacity="0.4" d="M-nan -nanL232.223 407.871C232.223 408.442 232.054 408.999 231.737 409.474C231.42 409.948 230.97 410.318 230.442 410.537C229.915 410.755 229.335 410.812 228.775 410.701C228.216 410.59 227.701 410.315 227.298 409.911C226.894 409.508 226.62 408.994 226.508 408.434C226.397 407.874 226.454 407.294 226.672 406.767C226.891 406.24 227.261 405.789 227.735 405.472C228.21 405.155 228.767 404.986 229.338 404.986C230.103 404.986 230.837 405.29 231.378 405.831C231.919 406.372 232.223 407.106 232.223 407.871L-nan -nanZ" fill="white"/>
<path opacity="0.2" d="M-nan -nanL244.551 416.503C244.551 417.074 244.382 417.632 244.064 418.107C243.747 418.581 243.296 418.951 242.768 419.169C242.24 419.387 241.66 419.444 241.1 419.332C240.54 419.22 240.026 418.945 239.623 418.54C239.219 418.136 238.945 417.621 238.835 417.061C238.724 416.5 238.783 415.92 239.002 415.393C239.222 414.866 239.593 414.416 240.069 414.1C240.544 413.784 241.103 413.616 241.674 413.617C242.052 413.617 242.427 413.692 242.777 413.837C243.126 413.982 243.444 414.195 243.711 414.463C243.978 414.731 244.19 415.049 244.334 415.399C244.478 415.749 244.552 416.124 244.551 416.503L-nan -nanZ" fill="white"/>
<path opacity="0.2" d="M273.769 404.086C273.769 404.657 273.6 405.215 273.282 405.69C272.965 406.164 272.514 406.534 271.986 406.752C271.458 406.971 270.878 407.027 270.318 406.915C269.758 406.803 269.244 406.528 268.841 406.123C268.438 405.719 268.163 405.204 268.053 404.644C267.943 404.084 268.001 403.503 268.221 402.976C268.44 402.449 268.811 401.999 269.287 401.683C269.762 401.367 270.321 401.199 270.892 401.201C271.271 401.201 271.645 401.275 271.995 401.42C272.345 401.565 272.662 401.778 272.929 402.046C273.197 402.314 273.408 402.632 273.553 402.982C273.697 403.332 273.77 403.707 273.769 404.086Z" fill="white"/>
<path opacity="0.2" d="M259.278 401.776C259.278 402.347 259.108 402.905 258.791 403.38C258.473 403.855 258.022 404.224 257.495 404.443C256.967 404.661 256.386 404.717 255.826 404.605C255.267 404.493 254.752 404.218 254.349 403.813C253.946 403.409 253.672 402.894 253.561 402.334C253.451 401.774 253.509 401.193 253.729 400.666C253.949 400.139 254.32 399.689 254.795 399.373C255.271 399.057 255.829 398.889 256.4 398.891C257.164 398.893 257.896 399.198 258.435 399.739C258.975 400.28 259.278 401.012 259.278 401.776Z" fill="white"/>
<path opacity="0.4" d="M-nan -nanL244.592 406.161C244.592 406.51 244.488 406.852 244.294 407.143C244.1 407.433 243.824 407.66 243.501 407.793C243.178 407.927 242.823 407.962 242.48 407.894C242.137 407.826 241.822 407.657 241.575 407.41C241.328 407.163 241.16 406.848 241.092 406.506C241.024 406.163 241.059 405.808 241.192 405.485C241.326 405.162 241.553 404.886 241.843 404.692C242.134 404.498 242.475 404.394 242.825 404.394C243.057 404.394 243.287 404.44 243.501 404.529C243.715 404.617 243.91 404.747 244.074 404.912C244.238 405.076 244.368 405.27 244.457 405.485C244.546 405.699 244.592 405.929 244.592 406.161L-nan -nanZ" fill="white"/>
<path opacity="0.2" d="M-nan -nanL250.97 359.371C250.972 360.122 250.751 360.856 250.335 361.481C249.919 362.106 249.327 362.593 248.634 362.881C247.941 363.17 247.178 363.246 246.442 363.1C245.706 362.955 245.029 362.594 244.498 362.064C243.967 361.534 243.604 360.858 243.457 360.122C243.31 359.386 243.385 358.623 243.672 357.93C243.959 357.236 244.445 356.643 245.069 356.226C245.693 355.809 246.427 355.586 247.177 355.586C248.182 355.586 249.145 355.985 249.856 356.694C250.567 357.404 250.968 358.367 250.97 359.371L-nan -nanZ" fill="white"/>
<path opacity="0.4" d="M-nan -nanL236.884 371.723C236.885 372.294 236.717 372.853 236.401 373.329C236.084 373.805 235.634 374.176 235.106 374.395C234.579 374.615 233.998 374.673 233.438 374.561C232.877 374.45 232.362 374.175 231.958 373.771C231.554 373.367 231.279 372.853 231.168 372.292C231.057 371.732 231.115 371.151 231.334 370.623C231.554 370.096 231.925 369.645 232.4 369.329C232.876 369.012 233.435 368.844 234.007 368.846C234.769 368.848 235.5 369.152 236.039 369.691C236.578 370.23 236.882 370.961 236.884 371.723L-nan -nanZ" fill="white"/>
<path opacity="0.4" d="M-nan -nanL245.653 379.18C245.653 379.529 245.55 379.871 245.356 380.161C245.161 380.452 244.885 380.678 244.563 380.812C244.24 380.946 243.885 380.981 243.542 380.913C243.199 380.844 242.884 380.676 242.637 380.429C242.39 380.182 242.222 379.867 242.154 379.524C242.085 379.182 242.12 378.826 242.254 378.503C242.388 378.181 242.614 377.905 242.905 377.71C243.195 377.516 243.537 377.413 243.886 377.413C244.354 377.415 244.803 377.602 245.134 377.933C245.464 378.263 245.651 378.712 245.653 379.18L-nan -nanZ" fill="white"/>
<path opacity="0.5" d="M240.255 389.659C236.43 404.297 227.361 414.606 220.066 412.693C212.772 410.781 209.886 397.359 213.712 382.705C217.537 368.052 226.55 357.775 233.893 359.687C241.236 361.6 244.081 375.022 240.255 389.659Z" fill="url(#paint5_linear_43_1410)"/>
<path opacity="0.3" d="M236.948 307.067C236.962 306.118 237.735 305.368 238.683 305.368H238.906C239.78 305.368 240.477 306.077 240.433 306.95C240.207 311.338 239.569 324.101 239.167 335.6C239.139 336.42 236.641 336.574 236.641 335.753C236.641 328.459 236.87 312.332 236.948 307.067Z" fill="white"/>
<path d="M337.514 191.567C336.192 189.481 334.695 188.859 333.446 188.806C331.926 188.742 330.11 188.387 329.374 187.055C329.02 186.414 328.957 185.654 329.159 184.95C329.726 182.972 330.691 178.814 329.531 176.622C327.975 173.68 324.287 168.849 323.704 174.263C323.59 175.326 323.673 176.398 323.869 177.419C324.658 181.521 324.601 186.057 323.898 190.174C323.599 191.92 323.658 193.819 324.506 195.587C325.726 198.131 327.42 199.627 329.285 200.231C332.778 201.36 338.421 201.498 338.301 205.167C338.255 206.566 336.544 208.022 335.072 207.986C334.64 207.975 334.66 207.427 334.947 207.104C335.182 206.84 335.345 206.52 335.419 206.175C335.494 205.829 335.477 205.47 335.371 205.133C335.338 205.028 335.297 204.926 335.248 204.829C335.031 204.397 334.69 204.019 334.277 203.769C332.348 202.602 329.575 205.985 332.741 208.198C335.983 210.46 338.73 206.999 339.022 206.107C339.184 205.613 339.186 204.669 338.654 203.219C337.537 200.176 338.252 197.38 338.276 194.139C338.282 193.32 338.074 192.447 337.514 191.567ZM325.341 178.397C325.349 178.397 325.356 178.389 325.354 178.381C324.912 176.098 326.9 173.151 328.024 176.16C328.528 177.509 328.365 179.02 328.031 180.279C327.711 181.485 326.236 181.464 325.848 180.278C325.648 179.664 325.474 179.042 325.328 178.413C325.326 178.404 325.333 178.397 325.341 178.397ZM326.346 196.276C326.353 196.276 326.358 196.268 326.355 196.261C325.409 194.244 326.415 191.208 327.312 189.199C327.74 188.242 329.013 188.227 329.547 189.128C329.867 189.668 329.783 190.356 329.425 190.871C328.677 191.947 327.707 193.902 328.858 195.717C329.554 196.813 330.346 197.347 331.041 197.596C331.481 197.754 331.571 197.225 331.224 196.911C330.768 196.498 330.434 195.967 330.26 195.376C330.062 194.813 330.055 194.199 330.243 193.631C330.545 192.717 331.708 192.944 332.193 193.776L333.696 196.357C334.428 197.613 334.081 199.306 332.652 199.572C331.809 199.729 330.942 199.697 330.113 199.477C329.285 199.258 328.515 198.857 327.861 198.303C327.21 197.753 326.69 197.066 326.336 196.291C326.333 196.284 326.338 196.276 326.346 196.276ZM335.741 198.067C335.747 198.067 335.751 198.06 335.748 198.054L333.248 193.789C332.64 192.75 333.198 191.377 334.343 191.75C335.08 191.99 335.712 192.475 336.137 193.123C337.724 195.348 335.883 197.857 335.733 198.055C335.728 198.06 335.734 198.067 335.741 198.067Z" fill="#ADA67F"/>
<path d="M124.962 97.1933C122.496 98.0143 120.877 100.24 120.745 102.836C120.467 108.302 121.501 118.202 131.066 125.172C140.091 131.748 149.367 130.993 154.74 129.666C157.747 128.924 159.763 126.281 159.603 123.188C159.34 118.134 157.533 110.022 149.699 103.029C139.776 94.1684 130.07 95.4934 124.962 97.1933Z" fill="#CF8C2C"/>
<path d="M132.738 100.666C134.996 99.3278 134.998 95.9689 132.373 95.9973C132.004 96.0013 131.639 96.0922 131.312 96.2629C126.6 98.7214 122.929 102.803 120.984 107.762C120.953 107.86 120.933 107.962 120.946 108.064C121.018 108.634 121.109 109.201 121.219 109.764C121.614 111.791 124.543 111.369 125.279 109.44C126.737 105.672 129.233 102.744 132.738 100.666Z" fill="#F6DF5C"/>
<path d="M158.283 116.046C157.9 114.816 156.568 114.167 155.385 114.681C153.519 115.492 151.796 116.609 150.289 117.99C148.221 119.885 146.614 122.228 145.59 124.839C145.187 125.795 144.843 126.775 144.56 127.771C144.164 129.166 145.174 130.529 146.623 130.569C147.792 130.602 148.759 129.742 149.098 128.624C149.316 127.903 149.573 127.194 149.869 126.501C150.646 124.538 151.863 122.779 153.427 121.361C154.407 120.473 155.507 119.733 156.691 119.162C157.883 118.586 158.677 117.31 158.283 116.046Z" fill="#F6DF5C"/>
<path d="M151.243 116.278C150.354 115.175 143.208 110.47 144.269 111.409C145.273 112.296 152.725 118.162 151.901 117.106C151.687 116.832 151.468 116.556 151.243 116.278Z" fill="#5C3A0D"/>
<path d="M-nan -nanL135.718 108.07C135.578 108.109 135.429 108.109 135.289 108.07C135.196 108.042 135.111 107.995 135.037 107.933C134.963 107.871 134.902 107.794 134.858 107.708C134.814 107.622 134.788 107.528 134.781 107.431C134.774 107.335 134.787 107.238 134.819 107.146C135.719 104.66 137.521 102.603 139.868 101.384C139.956 101.343 140.051 101.319 140.148 101.315C140.244 101.311 140.341 101.326 140.432 101.359C140.523 101.392 140.607 101.443 140.678 101.508C140.75 101.574 140.808 101.652 140.849 101.74C140.889 101.828 140.912 101.923 140.916 102.019C140.919 102.116 140.904 102.212 140.87 102.303C140.836 102.393 140.784 102.476 140.718 102.547C140.652 102.617 140.572 102.673 140.484 102.713C138.512 103.753 136.994 105.485 136.221 107.576C136.183 107.693 136.118 107.799 136.03 107.885C135.943 107.971 135.836 108.034 135.718 108.07L-nan -nanZ" fill="#5C3A0D"/>
<path d="M-nan -nanL138.62 110.121C138.479 110.159 138.331 110.159 138.19 110.121C138.006 110.06 137.854 109.928 137.766 109.755C137.678 109.582 137.661 109.382 137.72 109.197C138.621 106.71 140.423 104.653 142.77 103.434C142.856 103.393 142.95 103.37 143.046 103.365C143.142 103.36 143.238 103.375 143.328 103.407C143.418 103.439 143.501 103.489 143.572 103.554C143.644 103.618 143.701 103.696 143.742 103.783C143.783 103.87 143.807 103.963 143.811 104.059C143.816 104.155 143.802 104.251 143.769 104.341C143.737 104.432 143.687 104.515 143.623 104.586C143.558 104.657 143.48 104.714 143.394 104.755C141.42 105.795 139.899 107.527 139.122 109.618C139.088 109.738 139.024 109.847 138.936 109.935C138.849 110.023 138.74 110.087 138.62 110.121L-nan -nanZ" fill="#5C3A0D"/>
<path d="M-nan -nanL141.927 113.144C141.787 113.189 141.637 113.189 141.497 113.144C141.313 113.083 141.16 112.951 141.072 112.778C140.984 112.605 140.968 112.405 141.027 112.22C141.927 109.733 143.73 107.676 146.076 106.457C146.163 106.416 146.257 106.393 146.353 106.388C146.449 106.383 146.545 106.397 146.635 106.43C146.725 106.462 146.808 106.512 146.879 106.577C146.951 106.641 147.008 106.719 147.049 106.806C147.091 106.893 147.115 106.987 147.12 107.084C147.125 107.18 147.11 107.277 147.077 107.368C147.043 107.458 146.992 107.541 146.926 107.612C146.86 107.683 146.781 107.739 146.692 107.778C144.722 108.82 143.204 110.552 142.429 112.641C142.395 112.761 142.33 112.869 142.242 112.957C142.155 113.045 142.046 113.109 141.927 113.144L-nan -nanZ" fill="#5C3A0D"/>
<path d="M-nan -nanL235.044 250.303C235.125 254.011 234.105 257.658 232.112 260.786C230.12 263.913 227.245 266.379 223.85 267.872C220.456 269.365 216.695 269.818 213.044 269.174C209.392 268.529 206.014 266.817 203.336 264.252C200.658 261.687 198.8 258.386 197.999 254.765C197.197 251.145 197.487 247.368 198.832 243.913C200.177 240.457 202.516 237.478 205.554 235.352C208.593 233.227 212.193 232.049 215.9 231.97C218.361 231.916 220.809 232.348 223.103 233.24C225.397 234.133 227.493 235.468 229.27 237.171C231.048 238.873 232.473 240.909 233.464 243.163C234.454 245.416 234.991 247.842 235.044 250.303L-nan -nanZ" fill="#CA1E49"/>
<g style="mix-blend-mode:multiply" opacity="0.4">
<path d="M216.711 269.447C219.172 269.394 221.598 268.857 223.851 267.867C226.105 266.876 228.141 265.451 229.843 263.673C231.546 261.896 232.882 259.8 233.774 257.506C234.666 255.212 235.098 252.764 235.044 250.303C235.033 249.753 233.436 249.471 232.993 249.798C230.994 251.275 227.5 251.618 224.459 252.37C219.969 253.48 227.142 256.341 224.256 260.272C221.371 264.203 212.099 265.573 211.831 261.691C211.564 257.808 206.879 256.56 204.27 255.45C201.66 254.34 204.172 251.56 206.701 249.136C209.23 246.713 206.442 243.852 204.407 241.615C203.67 240.804 201.339 239.403 200.731 240.315C199.751 241.784 198.977 243.393 198.442 245.099C197.248 248.899 197.297 252.981 198.581 256.752C199.864 260.523 202.317 263.787 205.581 266.07C208.845 268.352 212.752 269.535 216.735 269.447H216.711Z" fill="#910E36"/>
</g>
<g style="mix-blend-mode:multiply" opacity="0.4">
<path d="M220.347 235.295C219.698 235.06 219.005 234.952 218.326 234.831C217.069 234.608 215.142 234.526 215.592 236.266C216.192 238.551 219.645 238.965 220.455 238.178C222.21 236.403 221.258 235.625 220.347 235.295Z" fill="#910E36"/>
</g>
<g style="mix-blend-mode:multiply" opacity="0.4">
<path d="M226.412 236.711C225.693 236.873 225.162 237.499 224.668 238.046C224.203 238.562 223.863 239.221 224.686 239.581C226.023 240.14 227.515 238.624 227.417 237.96C227.261 236.829 226.828 236.617 226.412 236.711Z" fill="#910E36"/>
</g>
<g style="mix-blend-mode:multiply" opacity="0.4">
<path d="M209.672 249.581C208.919 249.708 208.37 250.382 207.865 250.954C207.413 251.465 207.101 252.106 207.909 252.459C209.246 253.019 210.737 251.495 210.64 250.838C210.479 249.75 210.07 249.513 209.672 249.581Z" fill="#910E36"/>
</g>
<path d="M248.652 241.915C247.789 239.156 242.027 238.27 233.802 239.166C232.671 239.289 232.116 240.608 232.673 241.6C232.951 242.094 233.466 242.413 234.033 242.432C237.318 242.543 239.485 243.266 239.923 244.662C240.977 248.042 231.437 254.032 218.607 258.035C205.777 262.039 194.528 262.534 193.482 259.146C193.117 257.968 194.034 256.476 195.926 254.873C197.01 253.955 197.604 252.575 197.583 251.154C197.583 250.641 197.041 250.309 196.586 250.546C188.601 254.702 183.842 258.997 184.745 261.901C186.196 266.554 201.684 265.873 219.337 260.362C236.989 254.85 250.103 246.567 248.652 241.915Z" fill="#EBB941"/>
<g style="mix-blend-mode:multiply" opacity="0.4">
<path d="M248.652 241.915C247.747 239.021 241.448 238.188 232.571 239.31C231.996 239.383 231.717 240.053 232.033 240.539C232.146 240.713 232.322 240.836 232.526 240.878L232.531 240.88C232.628 240.9 232.72 240.902 232.817 240.886C234.374 240.622 248.412 238.357 246.383 242.936C244.657 246.835 234.018 254.383 219.264 259.475C216.466 260.441 216.504 261.219 219.329 260.337C236.973 254.81 250.103 246.567 248.652 241.915Z" fill="#EBB941"/>
</g>
<path opacity="0.4" d="M-nan -nanL187.014 263.936C181.403 259.096 195.127 252.26 197.273 251.236C197.448 251.153 197.551 251.145 197.551 250.951C197.551 250.583 197.163 250.182 196.836 250.351C188.681 254.552 183.799 258.915 184.712 261.853C184.918 262.349 185.231 262.793 185.629 263.153C186.027 263.514 186.5 263.781 187.014 263.936L-nan -nanZ" fill="white"/>
<path d="M-nan -nanL273.056 258.214C272.908 258.212 272.763 258.173 272.635 258.1C272.499 258.025 272.384 257.917 272.299 257.787C272.215 257.658 272.163 257.509 272.148 257.355L269.628 229.474C269.621 229.318 269.652 229.163 269.718 229.022C269.785 228.88 269.884 228.757 270.009 228.663C270.138 228.567 270.29 228.505 270.451 228.483C270.611 228.462 270.774 228.482 270.925 228.542L290.811 237.683C297.859 240.922 305.751 235.254 304.932 227.541L303.312 212.283C303.292 212.033 303.372 211.785 303.534 211.593C303.697 211.402 303.929 211.283 304.179 211.262C304.429 211.248 304.675 211.332 304.865 211.495C305.056 211.658 305.176 211.888 305.2 212.137L308.791 246.413C308.798 246.569 308.767 246.724 308.701 246.866C308.635 247.007 308.535 247.13 308.41 247.223C308.279 247.318 308.127 247.379 307.967 247.4C307.807 247.421 307.645 247.402 307.494 247.345L285.435 237.184C279.304 234.359 272.411 239.223 273.018 245.947C273.491 251.188 278.436 254.838 283.583 253.747L304.09 249.399C304.352 249.343 304.597 249.21 304.862 249.168C304.996 249.146 305.133 249.154 305.264 249.19C305.395 249.226 305.516 249.29 305.621 249.377C305.725 249.464 305.809 249.572 305.867 249.695C305.926 249.817 305.958 249.951 305.96 250.087C305.963 250.222 305.936 250.357 305.882 250.482C305.828 250.606 305.748 250.718 305.647 250.809C305.546 250.899 305.427 250.968 305.297 251.008L273.616 258.104C273.578 258.112 273.541 258.126 273.506 258.142C273.364 258.203 273.21 258.228 273.056 258.214L-nan -nanZ" fill="#C6D644"/>
<path d="M-nan -nanL278.616 229.693C278.557 231.283 278.028 232.821 277.096 234.11C276.163 235.4 274.869 236.385 273.377 236.939C271.885 237.494 270.262 237.594 268.714 237.226C267.165 236.858 265.76 236.039 264.677 234.873C263.594 233.707 262.88 232.246 262.627 230.675C262.374 229.103 262.593 227.492 263.256 226.045C263.918 224.598 264.995 223.379 266.35 222.544C267.705 221.709 269.277 221.294 270.868 221.353C271.924 221.391 272.963 221.638 273.924 222.078C274.885 222.518 275.75 223.143 276.47 223.917C277.189 224.692 277.749 225.601 278.117 226.591C278.486 227.582 278.655 228.636 278.616 229.693L-nan -nanZ" fill="#CA1E49"/>
<path opacity="0.3" d="M-nan -nanL269.506 226.037C269.49 226.47 269.346 226.887 269.092 227.238C268.838 227.588 268.486 227.856 268.081 228.006C267.675 228.157 267.234 228.184 266.813 228.084C266.392 227.983 266.01 227.761 265.716 227.444C265.421 227.127 265.227 226.729 265.159 226.302C265.09 225.875 265.149 225.437 265.33 225.044C265.51 224.65 265.802 224.319 266.171 224.092C266.539 223.865 266.966 223.752 267.399 223.768C267.686 223.778 267.969 223.845 268.23 223.965C268.492 224.085 268.727 224.255 268.923 224.466C269.119 224.676 269.271 224.924 269.371 225.193C269.471 225.463 269.517 225.75 269.506 226.037L-nan -nanZ" fill="white"/>
<g style="mix-blend-mode:multiply">
<path d="M-nan -nanL275.236 222.844C275.895 224.009 276.22 225.332 276.176 226.67C276.121 228.237 275.568 229.745 274.597 230.977C273.627 232.208 272.289 233.099 270.779 233.52C269.268 233.94 267.663 233.869 266.196 233.317C265.983 233.237 265.775 233.147 265.572 233.049C264.702 232.626 263.505 233.329 264.072 234.114C264.854 235.196 265.894 236.067 267.097 236.647C268.3 237.227 269.628 237.499 270.962 237.437C272.297 237.375 273.594 236.981 274.738 236.292C275.882 235.603 276.837 234.639 277.515 233.489C278.193 232.339 278.574 231.037 278.624 229.703C278.673 228.368 278.389 227.042 277.798 225.845C277.207 224.647 276.326 223.616 275.236 222.844L-nan -nanZ" fill="#B21943"/>
</g>
<path d="M-nan -nanL282.701 261.091C282.64 262.974 282.021 264.798 280.923 266.329C279.825 267.86 278.297 269.031 276.532 269.693C274.768 270.355 272.846 270.478 271.012 270.046C269.178 269.615 267.513 268.648 266.228 267.269C264.944 265.89 264.098 264.161 263.797 262.301C263.497 260.44 263.756 258.533 264.541 256.819C265.326 255.106 266.602 253.665 268.208 252.678C269.813 251.691 271.675 251.203 273.559 251.276C276.07 251.373 278.44 252.46 280.153 254.299C281.866 256.137 282.782 258.579 282.701 261.091L-nan -nanZ" fill="#68B752"/>
<path opacity="0.3" d="M-nan -nanL271.938 256.779C271.92 257.292 271.75 257.788 271.45 258.204C271.15 258.621 270.733 258.939 270.252 259.118C269.772 259.297 269.248 259.33 268.749 259.212C268.25 259.094 267.796 258.831 267.447 258.455C267.097 258.079 266.867 257.608 266.785 257.102C266.703 256.595 266.774 256.076 266.987 255.609C267.201 255.142 267.548 254.75 267.985 254.48C268.421 254.211 268.928 254.077 269.441 254.096C269.782 254.108 270.116 254.186 270.426 254.328C270.736 254.469 271.015 254.67 271.247 254.919C271.479 255.168 271.659 255.461 271.778 255.78C271.896 256.099 271.951 256.439 271.938 256.779L-nan -nanZ" fill="white"/>
<g style="mix-blend-mode:multiply" opacity="0.4">
<path d="M278.747 253.002C278.732 253.002 278.722 253.019 278.729 253.033C279.725 254.989 279.946 257.25 279.346 259.362C278.744 261.486 277.358 263.302 275.469 264.443C273.579 265.584 271.327 265.966 269.167 265.511C268.563 265.383 267.978 265.193 267.421 264.945C266.32 264.455 264.85 265.341 265.557 266.317C266.482 267.593 267.71 268.62 269.131 269.303C270.551 269.987 272.119 270.306 273.694 270.232C275.269 270.159 276.801 269.694 278.151 268.881C279.501 268.067 280.628 266.93 281.429 265.573C282.231 264.215 282.682 262.68 282.742 261.104C282.801 259.529 282.468 257.964 281.772 256.549C281.077 255.137 280.041 253.919 278.759 253.006C278.756 253.004 278.751 253.002 278.747 253.002Z" fill="#68B752"/>
</g>
<path d="M312.122 251.195C311.148 252.385 309.843 253.259 308.372 253.707C306.901 254.155 305.33 254.157 303.859 253.712C302.387 253.267 301.08 252.396 300.103 251.208C299.127 250.021 298.525 248.57 298.373 247.04C298.221 245.51 298.526 243.969 299.25 242.613C299.973 241.256 301.083 240.145 302.439 239.419C303.794 238.693 305.335 238.386 306.865 238.536C308.395 238.686 309.847 239.286 311.036 240.261C312.625 241.57 313.631 243.455 313.835 245.504C314.038 247.553 313.422 249.599 312.122 251.195Z" fill="#F1CD30"/>
<path opacity="0.3" d="M-nan -nanL307.251 243.074C306.986 243.398 306.631 243.637 306.231 243.759C305.831 243.882 305.404 243.883 305.003 243.763C304.602 243.642 304.246 243.405 303.98 243.083C303.713 242.76 303.549 242.365 303.507 241.949C303.465 241.532 303.547 241.113 303.744 240.743C303.94 240.374 304.242 240.071 304.611 239.873C304.979 239.675 305.398 239.591 305.815 239.631C306.232 239.671 306.627 239.834 306.951 240.099C307.383 240.455 307.657 240.968 307.713 241.525C307.769 242.082 307.603 242.639 307.251 243.074L-nan -nanZ" fill="white"/>
<g style="mix-blend-mode:multiply" opacity="0.4">
<path d="M-nan -nanL313.524 243.982C313.348 245.263 312.824 246.471 312.008 247.475C311.052 248.653 309.745 249.496 308.276 249.88C306.808 250.264 305.256 250.17 303.845 249.612C302.434 249.053 301.238 248.059 300.43 246.774C300.311 246.584 300.201 246.388 300.1 246.189C299.685 245.364 298.368 245.211 298.349 246.134C298.322 247.421 298.616 248.695 299.204 249.84C299.792 250.986 300.656 251.967 301.718 252.696C302.779 253.424 304.005 253.878 305.286 254.014C306.566 254.151 307.86 253.968 309.052 253.48C310.244 252.993 311.295 252.216 312.112 251.221C312.93 250.226 313.486 249.044 313.733 247.78C313.979 246.516 313.907 245.211 313.524 243.982L-nan -nanZ" fill="#F1CD30"/>
</g>
<path d="M-nan -nanL308.62 209.179C308.447 210.682 307.688 212.056 306.507 213.001C305.326 213.947 303.819 214.388 302.315 214.228C301.204 214.098 300.156 213.641 299.303 212.917C298.451 212.193 297.832 211.232 297.523 210.157C297.215 209.081 297.232 207.939 297.571 206.872C297.911 205.806 298.558 204.865 299.431 204.165C300.304 203.466 301.365 203.04 302.479 202.942C303.594 202.844 304.712 203.078 305.695 203.613C306.677 204.149 307.478 204.963 307.999 205.954C308.52 206.944 308.736 208.066 308.62 209.179L-nan -nanZ" fill="#7D76DE"/>
<path opacity="0.3" d="M-nan -nanL302.38 206.14C302.347 206.446 302.224 206.736 302.027 206.973C301.829 207.21 301.565 207.382 301.269 207.469C300.973 207.556 300.658 207.552 300.364 207.46C300.07 207.367 299.81 207.189 299.618 206.948C299.425 206.708 299.308 206.415 299.282 206.108C299.255 205.801 299.321 205.493 299.47 205.223C299.619 204.953 299.845 204.733 300.12 204.592C300.394 204.451 300.704 204.394 301.01 204.43C301.418 204.476 301.79 204.682 302.047 205.003C302.303 205.323 302.423 205.732 302.38 206.14L-nan -nanZ" fill="white"/>
<g style="mix-blend-mode:multiply" opacity="0.4">
<path d="M-nan -nanL306.594 204.17C307.164 205.4 307.234 206.803 306.79 208.084C306.347 209.365 305.423 210.423 304.215 211.037C303.007 211.652 301.607 211.773 300.311 211.377C299.385 211.093 298.148 211.792 298.816 212.495C299.74 213.469 300.98 214.083 302.315 214.228C303.819 214.388 305.326 213.947 306.507 213.001C307.687 212.056 308.447 210.682 308.62 209.179C308.726 208.241 308.596 207.292 308.242 206.418C307.888 205.543 307.322 204.771 306.594 204.17L-nan -nanZ" fill="#7D76DE"/>
</g>
<path d="M-nan -nanL204.61 95.9858C208.898 92.3467 220.877 101.335 230.003 112.042C238.918 122.578 244.292 133.584 242.711 138.172C242.512 138.768 242.156 139.3 241.682 139.712C237.394 143.351 225.407 134.403 216.297 123.656C207.382 113.12 202 102.113 203.589 97.5257C203.782 96.9288 204.135 96.3962 204.61 95.9858L-nan -nanZM229.087 112.82C218.445 100.289 208.249 94.4702 205.388 96.9016C205.079 97.1726 204.849 97.5229 204.724 97.9148C203.289 102.064 208.654 112.795 217.205 122.878C227.831 135.408 238.043 141.227 240.904 138.796C241.216 138.524 241.446 138.17 241.568 137.775C243.003 133.633 237.638 122.902 229.087 112.82Z" fill="#D4D4D5"/>
<path d="M221.347 109.043C235.125 106.222 250.103 106.611 251.229 112.115C251.349 112.73 251.299 113.366 251.084 113.954C249.463 118.542 238.505 123.883 224.945 126.647C211.167 129.467 196.189 129.078 195.062 123.583C194.942 122.968 194.993 122.332 195.208 121.743L-nan -nanL195.208 121.743C196.797 117.148 207.787 111.815 221.347 109.043ZM-nan -nanL250.054 112.35C249.3 108.67 237.686 106.936 221.59 110.218C208.622 112.868 197.778 117.991 196.343 122.132C196.202 122.518 196.165 122.935 196.238 123.34C196.991 127.02 208.614 128.762 224.702 125.471C237.67 122.829 248.514 117.707 249.949 113.565C250.094 113.177 250.13 112.757 250.054 112.35L-nan -nanZ" fill="#D4D4D5"/>
<path d="M214.693 114.789C219.483 101.546 227.596 88.9751 232.888 90.8878C237.621 92.598 237.095 105.655 231.599 120.876C226.809 134.128 218.696 146.69 213.412 144.786C208.8 143.116 209.165 130.74 214.263 115.997C214.393 115.608 214.547 115.203 214.693 114.789ZM-nan -nanL232.475 92.0144C228.982 90.742 221.403 99.7141 215.827 115.203C215.681 115.608 215.536 116.013 215.398 116.41C210.275 131.202 210.446 142.451 213.777 143.667C217.31 144.948 224.848 135.935 230.424 120.479C230.578 120.074 230.716 119.668 230.854 119.263C236.017 104.48 235.846 93.2302 232.475 92.0144L-nan -nanZ" fill="#D4D4D5"/>
<path d="M-nan -nanL233.844 133.187C233.06 132.91 232.212 132.871 231.406 133.076C230.599 133.281 229.872 133.72 229.316 134.338C228.759 134.957 228.398 135.726 228.279 136.549C228.16 137.372 228.287 138.212 228.645 138.963C229.002 139.714 229.575 140.341 230.289 140.767C231.004 141.193 231.829 141.397 232.659 141.354C233.49 141.311 234.289 141.022 234.956 140.525C235.623 140.028 236.127 139.345 236.406 138.561C236.592 138.04 236.673 137.487 236.645 136.935C236.617 136.383 236.48 135.841 236.242 135.342C236.004 134.842 235.67 134.395 235.258 134.025C234.847 133.656 234.366 133.371 233.844 133.187L-nan -nanZ" fill="#CA1E49"/>
<path opacity="0.3" d="M-nan -nanL233.845 138.318C233.631 138.243 233.401 138.232 233.182 138.288C232.963 138.344 232.765 138.463 232.614 138.632C232.463 138.8 232.365 139.009 232.333 139.232C232.301 139.456 232.336 139.684 232.433 139.888C232.53 140.092 232.686 140.262 232.88 140.378C233.075 140.493 233.299 140.549 233.525 140.537C233.75 140.525 233.967 140.446 234.148 140.311C234.329 140.176 234.466 139.99 234.542 139.777C234.593 139.635 234.615 139.485 234.608 139.335C234.6 139.184 234.563 139.037 234.498 138.901C234.434 138.766 234.342 138.644 234.23 138.544C234.118 138.444 233.987 138.367 233.845 138.318L-nan -nanZ" fill="white"/>
<g style="mix-blend-mode:multiply">
<path d="M235.54 134.364C235.871 134.731 235.29 135.153 234.825 134.987C234.053 134.713 233.215 134.692 232.43 134.927C231.646 135.162 230.956 135.64 230.462 136.293C229.967 136.945 229.693 137.738 229.679 138.557C229.677 138.675 229.68 138.793 229.689 138.911C229.727 139.415 229.155 139.86 228.883 139.434C228.508 138.846 228.286 138.174 228.236 137.478C228.186 136.782 228.31 136.085 228.597 135.449C228.884 134.814 229.324 134.259 229.879 133.837C230.434 133.414 231.086 133.136 231.775 133.029C232.464 132.921 233.169 132.987 233.827 133.22C234.484 133.453 235.073 133.846 235.54 134.364Z" fill="#B21943"/>
</g>
<path d="M-nan -nanL233.164 88.4402C232.409 88.2326 231.611 88.2533 230.868 88.4997C230.126 88.7461 229.473 89.2071 228.993 89.8245C228.512 90.4419 228.226 91.1878 228.169 91.9681C228.113 92.7483 228.289 93.5277 228.675 94.2078C229.062 94.8879 229.641 95.4381 230.341 95.7889C231.04 96.1396 231.827 96.2751 232.604 96.1783C233.38 96.0815 234.11 95.7566 234.702 95.2448C235.293 94.733 235.72 94.0573 235.927 93.3031C236.07 92.8023 236.111 92.2782 236.049 91.7613C235.986 91.2444 235.822 90.7451 235.565 90.2925C235.307 89.8399 234.963 89.443 234.55 89.125C234.138 88.8069 233.667 88.5741 233.164 88.4402L-nan -nanZ" fill="#7D76DE"/>
<path opacity="0.3" d="M233.528 93.2302C233.389 93.1966 233.245 93.1909 233.104 93.2136C232.963 93.2363 232.828 93.2868 232.706 93.3622C232.585 93.4376 232.48 93.5365 232.397 93.6529C232.314 93.7694 232.255 93.9012 232.223 94.0406C232.174 94.307 232.227 94.5821 232.372 94.8113C232.516 95.0404 232.741 95.2068 233.003 95.2772C233.265 95.3477 233.543 95.3172 233.783 95.1917C234.023 95.0662 234.207 94.8549 234.298 94.5999C234.344 94.4595 234.36 94.3112 234.345 94.1643C234.33 94.0175 234.285 93.8753 234.213 93.7466C234.141 93.618 234.042 93.5057 233.925 93.4168C233.807 93.3279 233.672 93.2644 233.528 93.2302Z" fill="white"/>
<g style="mix-blend-mode:multiply" opacity="0.4">
<path d="M-nan -nanL235.879 91.0257C235.241 90.3034 234.343 89.8639 233.382 89.8039C232.421 89.7438 231.475 90.0682 230.752 90.7055C230.03 91.3429 229.591 92.241 229.531 93.2024C229.491 93.8398 228.745 94.412 228.492 93.8258C228.481 93.8011 228.471 93.7762 228.46 93.7511C228.086 92.8354 228.069 91.8127 228.412 90.8848C228.755 89.9569 229.433 89.1912 230.313 88.7387C231.192 88.2862 232.209 88.1797 233.164 88.4402C233.797 88.6089 234.377 88.9341 234.852 89.3859C235.326 89.8377 235.679 90.4016 235.879 91.0257L-nan -nanZ" fill="#7D76DE"/>
</g>
<path d="M-nan -nanL208.517 110.469C207.761 110.202 206.942 110.165 206.165 110.362C205.388 110.56 204.687 110.984 204.151 111.581C203.615 112.177 203.268 112.919 203.154 113.713C203.04 114.507 203.164 115.316 203.51 116.04C203.856 116.763 204.409 117.367 205.099 117.776C205.789 118.185 206.585 118.38 207.386 118.336C208.186 118.292 208.956 118.012 209.597 117.531C210.239 117.05 210.723 116.389 210.989 115.632C211.344 114.62 211.283 113.507 210.82 112.54C210.357 111.572 209.528 110.827 208.517 110.469L-nan -nanZ" fill="#68B752"/>
<path opacity="0.3" d="M-nan -nanL208.541 115.405C208.335 115.332 208.113 115.322 207.901 115.376C207.69 115.43 207.499 115.545 207.353 115.708C207.207 115.87 207.113 116.072 207.082 116.288C207.051 116.504 207.085 116.724 207.179 116.921C207.274 117.118 207.424 117.282 207.612 117.393C207.8 117.504 208.017 117.557 208.234 117.545C208.452 117.533 208.662 117.456 208.836 117.325C209.01 117.193 209.142 117.013 209.214 116.807C209.31 116.532 209.293 116.23 209.167 115.967C209.041 115.705 208.816 115.502 208.541 115.405L-nan -nanZ" fill="white"/>
<g style="mix-blend-mode:multiply" opacity="0.4">
<path d="M210.166 111.553C210.493 111.916 209.93 112.335 209.469 112.171C209.208 112.078 208.934 112.013 208.654 111.981C207.699 111.869 206.738 112.132 205.973 112.715C205.208 113.299 204.699 114.156 204.554 115.106C204.511 115.385 204.501 115.666 204.521 115.943C204.558 116.43 204.005 116.862 203.742 116.451C203.378 115.883 203.162 115.234 203.113 114.562C203.064 113.89 203.183 113.216 203.46 112.602C203.737 111.988 204.162 111.452 204.698 111.043C205.234 110.635 205.863 110.366 206.529 110.262C207.195 110.158 207.876 110.222 208.511 110.447C209.146 110.673 209.714 111.053 210.166 111.553Z" fill="#68B752"/>
</g>
<path d="M188.214 221.288C188.442 221.446 188.698 221.557 188.969 221.615C189.24 221.674 189.519 221.678 189.792 221.629C190.064 221.579 190.324 221.476 190.557 221.326C190.79 221.176 190.99 220.981 191.148 220.753L199.804 208.247C200.123 207.786 200.246 207.217 200.145 206.665C200.045 206.114 199.73 205.624 199.269 205.305L165.99 182.287C165.762 182.129 165.506 182.018 165.235 181.959C164.964 181.901 164.685 181.896 164.412 181.946C164.14 181.996 163.88 182.099 163.647 182.249C163.414 182.399 163.214 182.594 163.056 182.822L154.416 195.352C154.259 195.58 154.147 195.836 154.089 196.107C154.03 196.378 154.026 196.657 154.076 196.93C154.125 197.202 154.228 197.463 154.378 197.695C154.529 197.928 154.723 198.129 154.951 198.286L188.214 221.288Z" fill="#F2D031"/>
<path d="M158.048 200.418C158.278 200.59 158.605 200.538 158.769 200.301L165.577 190.489C165.616 190.432 165.644 190.368 165.659 190.3C165.673 190.233 165.674 190.163 165.662 190.095C165.649 190.027 165.624 189.962 165.586 189.903C165.549 189.845 165.5 189.795 165.443 189.756C165.386 189.716 165.322 189.688 165.254 189.674C165.187 189.659 165.117 189.658 165.049 189.671C164.98 189.683 164.915 189.709 164.857 189.746C164.799 189.784 164.749 189.832 164.71 189.889L157.935 199.725C157.78 199.949 157.83 200.255 158.048 200.418Z" fill="#C7792A"/>
<path d="M168.45 207.623C168.689 207.789 169.018 207.729 169.183 207.489L175.975 197.67C176.017 197.614 176.046 197.551 176.062 197.483C176.078 197.416 176.079 197.346 176.067 197.277C176.055 197.209 176.029 197.144 175.991 197.086C175.953 197.028 175.904 196.979 175.846 196.941C175.73 196.861 175.588 196.831 175.45 196.855C175.313 196.879 175.19 196.956 175.108 197.07L168.316 206.889C168.151 207.129 168.211 207.457 168.45 207.623Z" fill="#C7792A"/>
<path d="M155.974 198.992C156.215 199.157 156.544 199.097 156.711 198.856L160.195 193.82C160.274 193.704 160.303 193.561 160.277 193.423C160.251 193.285 160.172 193.163 160.057 193.083C159.942 193.003 159.8 192.973 159.662 192.997C159.524 193.021 159.401 193.098 159.32 193.212L155.838 198.253C155.671 198.495 155.732 198.826 155.974 198.992Z" fill="#C7792A"/>
<path d="M162.212 203.306C162.454 203.474 162.787 203.414 162.954 203.172L166.436 198.132C166.514 198.017 166.543 197.876 166.517 197.739C166.492 197.602 166.413 197.481 166.298 197.403C166.183 197.323 166.041 197.293 165.903 197.317C165.765 197.341 165.642 197.418 165.561 197.532L162.078 202.566C161.911 202.807 161.971 203.139 162.212 203.306Z" fill="#C7792A"/>
<path d="M164.292 204.778C164.532 204.944 164.86 204.884 165.026 204.644L168.511 199.607C168.59 199.492 168.621 199.35 168.596 199.213C168.571 199.075 168.492 198.953 168.377 198.874C168.262 198.794 168.12 198.764 167.983 198.789C167.845 198.814 167.723 198.892 167.644 199.007L164.159 204.045C163.993 204.284 164.053 204.612 164.292 204.778Z" fill="#C7792A"/>
<path d="M166.377 206.19C166.616 206.355 166.943 206.296 167.109 206.058L170.626 201.025C170.706 200.91 170.736 200.769 170.711 200.631C170.686 200.493 170.607 200.371 170.492 200.292C170.377 200.212 170.235 200.182 170.098 200.207C169.96 200.232 169.838 200.311 169.759 200.426L166.245 205.454C166.078 205.694 166.137 206.024 166.377 206.19Z" fill="#C7792A"/>
<path d="M160.134 201.868C160.374 202.034 160.702 201.974 160.868 201.735L164.353 196.698C164.431 196.581 164.461 196.438 164.435 196.301C164.409 196.163 164.33 196.04 164.215 195.96C164.1 195.882 163.959 195.853 163.822 195.879C163.685 195.904 163.565 195.983 163.486 196.098L160.001 201.135C159.835 201.374 159.895 201.703 160.134 201.868Z" fill="#C7792A"/>
<path d="M178.857 214.82C179.096 214.986 179.425 214.926 179.59 214.686L186.374 204.867C186.414 204.81 186.443 204.746 186.458 204.678C186.473 204.61 186.475 204.54 186.463 204.471C186.451 204.403 186.425 204.337 186.388 204.279C186.35 204.22 186.302 204.169 186.244 204.13C186.128 204.051 185.985 204.022 185.847 204.048C185.709 204.073 185.587 204.152 185.507 204.267L178.723 214.087C178.557 214.326 178.617 214.654 178.857 214.82Z" fill="#C7792A"/>
<path d="M172.622 210.502C172.863 210.667 173.192 210.606 173.358 210.366L176.843 205.329C176.921 205.213 176.95 205.07 176.925 204.932C176.899 204.794 176.82 204.672 176.705 204.592C176.59 204.514 176.448 204.484 176.312 204.51C176.175 204.536 176.054 204.615 175.975 204.729L172.486 209.762C172.319 210.004 172.38 210.335 172.622 210.502Z" fill="#C7792A"/>
<path d="M174.688 211.937C174.929 212.105 175.26 212.046 175.427 211.804L178.909 206.772C178.95 206.715 178.978 206.651 178.994 206.583C179.009 206.515 179.01 206.445 178.998 206.376C178.986 206.307 178.961 206.242 178.923 206.183C178.886 206.125 178.837 206.074 178.78 206.034C178.664 205.955 178.522 205.924 178.384 205.949C178.247 205.973 178.124 206.05 178.042 206.164L174.557 211.202C174.391 211.441 174.45 211.77 174.688 211.937Z" fill="#C7792A"/>
<path d="M176.774 213.377C177.013 213.543 177.342 213.483 177.507 213.244L180.992 208.206C181.032 208.149 181.059 208.085 181.074 208.018C181.089 207.95 181.09 207.88 181.077 207.812C181.065 207.744 181.039 207.679 181.002 207.621C180.964 207.562 180.916 207.512 180.859 207.473C180.802 207.433 180.737 207.406 180.67 207.391C180.602 207.377 180.532 207.375 180.464 207.388C180.396 207.4 180.331 207.426 180.273 207.463C180.215 207.501 180.164 207.55 180.125 207.607L176.64 212.644C176.474 212.883 176.534 213.212 176.774 213.377Z" fill="#C7792A"/>
<path d="M170.533 209.065C170.772 209.231 171.101 209.171 171.266 208.931L174.752 203.887C174.792 203.83 174.82 203.767 174.835 203.699C174.85 203.632 174.852 203.562 174.84 203.495C174.828 203.427 174.802 203.362 174.765 203.304C174.727 203.246 174.679 203.196 174.622 203.157C174.506 203.078 174.364 203.047 174.227 203.071C174.089 203.096 173.966 203.173 173.884 203.287L170.399 208.332C170.233 208.572 170.293 208.9 170.533 209.065Z" fill="#C7792A"/>
<path d="M183.014 217.697C183.254 217.863 183.582 217.803 183.748 217.563L187.233 212.518C187.273 212.462 187.302 212.399 187.317 212.331C187.332 212.264 187.334 212.194 187.321 212.126C187.309 212.058 187.284 211.994 187.246 211.936C187.209 211.878 187.16 211.828 187.103 211.789C187.047 211.749 186.982 211.72 186.914 211.705C186.846 211.689 186.776 211.688 186.708 211.7C186.639 211.712 186.573 211.737 186.515 211.775C186.456 211.813 186.406 211.861 186.366 211.919L182.88 216.964C182.715 217.203 182.775 217.532 183.014 217.697Z" fill="#C7792A"/>
<path d="M185.103 219.151C185.341 219.307 185.66 219.245 185.822 219.011L189.316 213.961C189.396 213.845 189.426 213.702 189.4 213.564C189.374 213.425 189.294 213.303 189.178 213.223C189.062 213.144 188.919 213.114 188.781 213.14C188.643 213.165 188.52 213.245 188.441 213.361L184.96 218.415C184.793 218.657 184.858 218.989 185.103 219.151Z" fill="#C7792A"/>
<path d="M187.213 220.574C187.452 220.74 187.781 220.68 187.946 220.44L191.431 215.396C191.472 215.339 191.5 215.276 191.515 215.208C191.53 215.141 191.532 215.072 191.52 215.004C191.508 214.936 191.482 214.871 191.445 214.813C191.407 214.755 191.359 214.705 191.302 214.666C191.186 214.587 191.044 214.556 190.907 214.58C190.769 214.605 190.646 214.682 190.564 214.796L187.079 219.841C186.913 220.081 186.973 220.409 187.213 220.574Z" fill="#C7792A"/>
<path d="M180.932 216.255C181.171 216.42 181.499 216.36 181.665 216.121L185.15 211.084C185.19 211.027 185.219 210.963 185.234 210.895C185.25 210.827 185.251 210.756 185.239 210.688C185.227 210.619 185.202 210.554 185.164 210.495C185.126 210.436 185.078 210.386 185.02 210.346C184.904 210.268 184.761 210.238 184.623 210.264C184.486 210.29 184.363 210.369 184.283 210.484L180.798 215.521C180.632 215.761 180.692 216.089 180.932 216.255Z" fill="#C7792A"/>
<path opacity="0.3" d="M-nan -nanL163.721 183.454L196.94 206.434C198.176 207.289 199.623 206.553 198.385 205.702L165.893 183.195C165.568 182.948 165.16 182.836 164.754 182.885C164.349 182.933 163.978 183.137 163.721 183.454L-nan -nanZ" fill="white"/>
<path d="M222.254 181.241C222.67 181.255 223.031 180.955 223.093 180.544C223.155 180.129 222.895 179.734 222.49 179.628L222.33 179.586C221.867 179.465 221.56 179.032 221.546 178.554C221.544 178.468 221.54 178.383 221.535 178.298C221.508 177.821 221.777 177.366 222.227 177.206L222.379 177.152C222.774 177.011 223 176.596 222.903 176.189C222.806 175.781 222.417 175.511 222 175.564L221.836 175.585C221.362 175.646 220.917 175.363 220.725 174.926C220.663 174.784 220.597 174.644 220.528 174.506C220.315 174.077 220.385 173.552 220.738 173.228L220.861 173.115C221.17 172.832 221.215 172.363 220.966 172.027C220.717 171.69 220.254 171.596 219.894 171.809L219.747 171.895C219.338 172.137 218.819 172.055 218.47 171.732C218.406 171.672 218.34 171.613 218.274 171.555C217.915 171.239 217.782 170.726 217.987 170.293L218.059 170.142C218.237 169.766 218.104 169.316 217.749 169.097C217.394 168.878 216.93 168.962 216.674 169.292L216.57 169.427C216.279 169.803 215.765 169.919 215.322 169.745C215.175 169.688 215.026 169.633 214.876 169.583C214.426 169.43 214.107 169.011 214.127 168.535L214.134 168.369C214.152 167.951 213.852 167.586 213.438 167.524C213.022 167.462 212.627 167.723 212.523 168.13L212.482 168.287C212.363 168.75 211.932 169.057 211.454 169.071C211.366 169.073 211.278 169.077 211.19 169.082C210.713 169.109 210.258 168.841 210.098 168.391L210.042 168.235C209.903 167.842 209.49 167.617 209.084 167.714C208.678 167.811 208.411 168.198 208.464 168.612L208.485 168.777C208.546 169.248 208.265 169.692 207.829 169.883C207.683 169.947 207.538 170.014 207.395 170.085C206.968 170.296 206.446 170.225 206.125 169.873L206.015 169.752C205.733 169.442 205.261 169.395 204.924 169.645C204.588 169.893 204.493 170.354 204.703 170.714L204.789 170.863C205.03 171.276 204.943 171.798 204.615 172.146C204.555 172.209 204.497 172.273 204.439 172.337C204.118 172.695 203.602 172.824 203.169 172.616L203.024 172.546C202.648 172.365 202.195 172.492 201.968 172.844C201.734 173.206 201.818 173.687 202.16 173.95L202.275 174.038C202.648 174.324 202.761 174.832 202.589 175.27C202.531 175.419 202.476 175.569 202.425 175.72C202.272 176.173 201.852 176.494 201.374 176.473L201.207 176.466C200.788 176.449 200.423 176.752 200.363 177.167C200.303 177.581 200.564 177.973 200.969 178.077L201.129 178.118C201.593 178.238 201.902 178.669 201.914 179.148C201.916 179.237 201.919 179.326 201.924 179.415C201.949 179.891 201.679 180.342 201.231 180.502L201.07 180.558C200.677 180.698 200.453 181.111 200.549 181.517C200.646 181.923 201.033 182.19 201.447 182.137L201.614 182.116C202.089 182.055 202.535 182.34 202.726 182.778C202.789 182.922 202.855 183.064 202.925 183.205C203.137 183.632 203.067 184.156 202.714 184.477L202.595 184.586C202.285 184.868 202.239 185.339 202.488 185.677C202.736 186.012 203.197 186.107 203.558 185.896L203.702 185.812C204.113 185.572 204.632 185.657 204.978 185.984C205.042 186.044 205.107 186.104 205.173 186.163C205.531 186.484 205.661 186.999 205.454 187.433L205.384 187.582C205.205 187.956 205.332 188.405 205.68 188.631C206.041 188.865 206.523 188.783 206.786 188.441L206.878 188.321C207.166 187.947 207.677 187.833 208.117 188.006C208.264 188.064 208.412 188.118 208.562 188.169C209.015 188.322 209.337 188.742 209.317 189.22L209.31 189.388C209.292 189.806 209.594 190.17 210.008 190.23C210.419 190.29 210.809 190.032 210.915 189.63L210.958 189.466C211.08 189.005 211.509 188.698 211.986 188.684C212.077 188.681 212.167 188.677 212.258 188.672C212.733 188.645 213.185 188.916 213.342 189.364L213.395 189.517C213.534 189.913 213.949 190.14 214.357 190.043C214.764 189.947 215.033 189.558 214.98 189.143L214.959 188.977C214.898 188.503 215.182 188.057 215.62 187.867C215.784 187.796 215.946 187.721 216.106 187.641C216.533 187.429 217.056 187.499 217.38 187.849L217.493 187.972C217.777 188.279 218.246 188.323 218.581 188.075C218.919 187.826 219.013 187.362 218.8 187.001L218.718 186.862C218.475 186.45 218.563 185.928 218.891 185.581C218.948 185.52 219.005 185.459 219.061 185.396C219.384 185.036 219.903 184.902 220.34 185.111L220.484 185.18C220.861 185.361 221.314 185.233 221.541 184.881C221.775 184.519 221.692 184.037 221.351 183.773L221.235 183.684C220.862 183.395 220.75 182.884 220.923 182.444C220.984 182.29 221.041 182.133 221.094 181.976C221.241 181.535 221.647 181.22 222.112 181.236L222.254 181.241ZM-nan -nanL212.699 172.577C213.489 172.695 214.244 172.962 214.927 173.357C215.726 173.819 215.685 174.907 214.995 175.519C214.373 176.071 213.434 176.007 212.636 175.772C212.503 175.733 212.367 175.703 212.229 175.681C212.095 175.661 211.96 175.649 211.826 175.646C210.995 175.627 210.077 175.41 209.649 174.698C209.178 173.914 209.46 172.873 210.351 172.668C211.116 172.492 211.913 172.459 212.699 172.577L-nan -nanZM205.481 177.91C205.484 177.91 205.486 177.909 205.486 177.906C205.603 177.115 205.869 176.359 206.265 175.676C206.731 174.874 207.824 174.917 208.44 175.611C208.99 176.232 208.932 177.168 208.702 177.966C208.664 178.099 208.634 178.235 208.613 178.373C208.593 178.51 208.581 178.648 208.579 178.785C208.562 179.616 208.339 180.53 207.627 180.957C206.839 181.431 205.792 181.151 205.58 180.257C205.4 179.494 205.363 178.7 205.477 177.914C205.477 177.912 205.479 177.91 205.481 177.91ZM-nan -nanL210.818 185.116C210.03 184.998 209.277 184.732 208.596 184.338C207.792 183.872 207.836 182.776 208.532 182.161C209.151 181.614 210.082 181.67 210.876 181.898C211.01 181.937 211.148 181.966 211.287 181.987C211.423 182.007 211.56 182.019 211.697 182.021C212.526 182.037 213.437 182.26 213.864 182.971C214.338 183.76 214.056 184.808 213.159 185.017C212.397 185.195 211.603 185.23 210.818 185.116L-nan -nanZM216.21 183.352C216.209 183.35 216.207 183.348 216.206 183.346L215.359 182.392C214.651 181.593 214.759 180.368 214.919 179.312C214.94 179.176 214.952 179.038 214.954 178.901C214.971 178.074 215.191 177.164 215.9 176.737C216.686 176.263 217.731 176.544 217.941 177.437C218.123 178.211 218.158 179.016 218.04 179.811C217.84 181.156 217.211 182.4 216.248 183.358C216.236 183.369 216.217 183.366 216.21 183.352Z" fill="#A0FFFF"/>
<path d="M308.814 173.982C309.428 173.916 309.893 173.398 309.893 172.781C309.893 172.163 309.426 171.644 308.812 171.579L308.569 171.554C307.868 171.48 307.325 170.92 307.202 170.226C307.179 170.098 307.155 169.971 307.129 169.844C306.987 169.154 307.282 168.433 307.904 168.101L308.128 167.981C308.671 167.691 308.908 167.039 308.678 166.468C308.447 165.896 307.821 165.59 307.228 165.76L306.999 165.826C306.325 166.019 305.616 165.705 305.244 165.111C305.122 164.916 304.995 164.724 304.864 164.534C304.461 163.953 304.453 163.171 304.901 162.624L305.065 162.425C305.454 161.949 305.42 161.256 304.985 160.821C304.551 160.386 303.857 160.352 303.382 160.742L303.183 160.905C302.636 161.353 301.853 161.344 301.272 160.941C301.164 160.865 301.054 160.792 300.944 160.719C300.361 160.337 300.063 159.625 300.267 158.958L300.339 158.723C300.521 158.128 300.219 157.493 299.643 157.26C299.081 157.033 298.439 157.26 298.145 157.79L298.019 158.016C297.675 158.637 296.943 158.92 296.251 158.764C296.029 158.713 295.805 158.668 295.581 158.628C294.887 158.505 294.327 157.962 294.253 157.261L294.227 157.016C294.162 156.403 293.645 155.938 293.029 155.938C292.414 155.938 291.898 156.401 291.832 157.012L291.804 157.262C291.728 157.963 291.167 158.506 290.473 158.629C290.343 158.652 290.214 158.677 290.085 158.704C289.398 158.845 288.681 158.55 288.352 157.931L288.236 157.713C287.946 157.169 287.292 156.931 286.72 157.162C286.149 157.392 285.843 158.016 286.011 158.609L286.077 158.841C286.268 159.515 285.954 160.223 285.361 160.595C285.167 160.717 284.976 160.843 284.789 160.973C284.208 161.376 283.425 161.385 282.878 160.937L282.679 160.774C282.204 160.385 281.511 160.419 281.076 160.853C280.641 161.288 280.607 161.982 280.997 162.457L281.158 162.654C281.607 163.201 281.596 163.986 281.192 164.567C281.12 164.671 281.049 164.777 280.979 164.883C280.592 165.472 279.874 165.776 279.199 165.571L278.961 165.499C278.373 165.321 277.744 165.614 277.503 166.18C277.26 166.748 277.487 167.407 278.027 167.707L278.24 167.825C278.854 168.166 279.135 168.892 278.978 169.577C278.925 169.805 278.878 170.034 278.837 170.264C278.713 170.955 278.171 171.512 277.473 171.586L277.232 171.612C276.618 171.677 276.152 172.195 276.152 172.812C276.152 173.43 276.618 173.948 277.232 174.013L277.474 174.039C278.171 174.113 278.713 174.669 278.837 175.36C278.861 175.49 278.886 175.62 278.913 175.749C279.056 176.438 278.761 177.159 278.139 177.488L277.921 177.604C277.376 177.893 277.138 178.547 277.368 179.119C277.599 179.69 278.222 179.996 278.814 179.828L279.047 179.762C279.721 179.571 280.429 179.885 280.801 180.478C280.923 180.672 281.049 180.862 281.179 181.05C281.583 181.631 281.591 182.414 281.143 182.961L280.98 183.159C280.591 183.635 280.625 184.328 281.06 184.763C281.494 185.198 282.188 185.232 282.663 184.842L282.861 184.68C283.408 184.232 284.192 184.241 284.772 184.646C284.879 184.721 284.986 184.794 285.095 184.865C285.682 185.253 285.981 185.971 285.775 186.643L285.702 186.88C285.521 187.471 285.816 188.104 286.385 188.345C286.954 188.587 287.613 188.36 287.913 187.82L288.029 187.611C288.371 186.995 289.099 186.715 289.786 186.873C290.008 186.925 290.231 186.971 290.455 187.011C291.15 187.136 291.712 187.678 291.788 188.38L291.815 188.629C291.882 189.24 292.398 189.703 293.013 189.703C293.629 189.703 294.146 189.238 294.21 188.625L294.237 188.377C294.311 187.677 294.869 187.134 295.562 187.009C295.694 186.986 295.825 186.96 295.955 186.933C296.644 186.79 297.364 187.086 297.694 187.707L297.811 187.927C298.1 188.471 298.753 188.709 299.324 188.479C299.895 188.249 300.2 187.624 300.03 187.032L299.965 186.804C299.772 186.129 300.088 185.419 300.684 185.048C300.877 184.927 301.068 184.801 301.255 184.671C301.837 184.267 302.621 184.257 303.169 184.706L303.365 184.867C303.841 185.256 304.534 185.222 304.969 184.787C305.404 184.353 305.438 183.659 305.048 183.184L304.887 182.987C304.438 182.439 304.448 181.655 304.853 181.074C304.925 180.97 304.996 180.865 305.065 180.759C305.452 180.169 306.172 179.867 306.846 180.073L307.067 180.141C307.665 180.324 308.304 180.027 308.549 179.453C308.79 178.89 308.576 178.236 308.05 177.923L307.825 177.789C307.218 177.428 306.948 176.698 307.105 176.009C307.157 175.779 307.204 175.547 307.245 175.314C307.366 174.631 307.9 174.08 308.59 174.006L308.814 173.982ZM-nan -nanL292.945 161.474H293.027C293.233 161.458 293.441 161.486 293.636 161.555C293.832 161.623 294.011 161.732 294.163 161.873C294.315 162.014 294.436 162.185 294.519 162.375C294.602 162.565 294.644 162.77 294.644 162.977C294.644 163.184 294.602 163.389 294.519 163.579C294.436 163.769 294.315 163.94 294.163 164.081C294.011 164.222 293.832 164.331 293.636 164.399C293.441 164.468 293.233 164.496 293.027 164.48C292.627 164.48 292.243 164.323 291.958 164.043C291.673 163.762 291.509 163.381 291.503 162.981C291.498 162.591 291.647 162.215 291.917 161.933C292.186 161.651 292.556 161.486 292.945 161.474L-nan -nanZM-nan -nanL283.746 176.46C283.644 176.471 283.541 176.471 283.438 176.46C283.155 176.459 282.878 176.38 282.638 176.229C282.398 176.079 282.205 175.864 282.082 175.609C281.958 175.354 281.909 175.07 281.94 174.788C281.971 174.506 282.08 174.239 282.256 174.017C282.432 173.795 282.666 173.627 282.933 173.532C283.2 173.437 283.488 173.419 283.764 173.48C284.041 173.541 284.295 173.679 284.496 173.878C284.692 174.071 284.832 174.313 284.899 174.579C284.904 174.595 284.905 174.612 284.905 174.628C284.905 174.644 284.907 174.66 284.91 174.675C284.95 174.863 284.953 175.056 284.92 175.245C284.885 175.442 284.812 175.63 284.704 175.798C284.596 175.966 284.456 176.111 284.292 176.225C284.127 176.339 283.942 176.418 283.746 176.46L-nan -nanZM-nan -nanL286.526 167.593L286.453 167.682C286.185 167.986 285.808 168.173 285.404 168.202C284.999 168.231 284.599 168.1 284.29 167.837C283.981 167.575 283.788 167.201 283.751 166.797C283.714 166.393 283.838 165.991 284.095 165.677C284.351 165.364 284.721 165.163 285.124 165.119C285.527 165.075 285.932 165.191 286.25 165.442C286.569 165.692 286.776 166.058 286.828 166.461C286.88 166.863 286.771 167.269 286.526 167.593L-nan -nanZM289.412 180.261C289.592 180.341 289.754 180.455 289.889 180.598C290.024 180.741 290.13 180.909 290.2 181.093C290.27 181.276 290.303 181.472 290.297 181.669C290.291 181.866 290.247 182.059 290.165 182.238C290.045 182.504 289.849 182.729 289.603 182.886C289.357 183.042 289.071 183.124 288.78 183.122C288.567 183.122 288.358 183.077 288.164 182.992L288.066 182.943C287.89 182.855 287.733 182.733 287.604 182.584C287.475 182.435 287.377 182.262 287.315 182.075C287.253 181.888 287.228 181.69 287.242 181.494C287.257 181.297 287.309 181.106 287.398 180.929C287.486 180.753 287.608 180.596 287.757 180.467C287.906 180.338 288.079 180.24 288.266 180.178C288.453 180.116 288.651 180.091 288.847 180.105C289.044 180.12 289.236 180.172 289.412 180.261ZM293.002 178.226C291.923 178.226 290.868 177.906 289.971 177.307C289.074 176.707 288.375 175.854 287.962 174.857C287.549 173.86 287.442 172.763 287.653 171.705C287.864 170.646 288.384 169.674 289.148 168.912C289.912 168.149 290.884 167.631 291.943 167.421C293.002 167.211 294.099 167.321 295.095 167.735C296.092 168.149 296.943 168.849 297.541 169.747C298.14 170.645 298.458 171.701 298.457 172.78C298.457 173.495 298.316 174.203 298.042 174.864C297.769 175.525 297.367 176.125 296.862 176.631C296.356 177.137 295.755 177.538 295.095 177.812C294.434 178.085 293.726 178.226 293.01 178.226H293.002ZM-nan -nanL294.275 185.01C294.068 185.111 293.84 185.163 293.61 185.164C293.269 185.167 292.937 185.053 292.669 184.841C292.402 184.63 292.214 184.334 292.137 184.001C292.061 183.669 292.1 183.32 292.248 183.013C292.381 182.738 292.594 182.512 292.857 182.362C292.92 182.326 292.982 182.285 293.051 182.263C293.409 182.132 293.804 182.142 294.156 182.291C294.507 182.44 294.789 182.717 294.945 183.065C295.1 183.414 295.117 183.809 294.993 184.17C294.868 184.531 294.612 184.831 294.275 185.01L-nan -nanZM296.922 169.071C296.332 169.405 295.506 169.217 295.589 168.544C295.638 168.149 295.841 167.789 296.155 167.544C296.469 167.299 296.867 167.189 297.262 167.237C297.658 167.286 298.017 167.49 298.262 167.803C298.511 168.118 298.624 168.517 298.579 168.915C298.533 169.313 298.332 169.677 298.019 169.927C297.512 170.329 296.74 170.028 296.57 169.404C296.535 169.278 296.514 169.147 296.508 169.014C296.487 168.542 296.654 168.08 296.974 167.731C297.293 167.381 297.738 167.173 298.21 167.152C298.901 167.121 298.876 167.967 298.274 168.307L296.922 169.071ZM299.488 178.346C299.316 178.443 299.124 178.518 298.927 178.494C298.558 178.485 298.206 178.341 297.936 178.091C297.665 177.841 297.495 177.501 297.457 177.134C297.42 176.767 297.517 176.4 297.731 176.099C297.944 175.799 298.26 175.587 298.619 175.503C298.81 175.46 299.007 175.456 299.199 175.49C299.391 175.524 299.575 175.596 299.74 175.701C299.904 175.807 300.046 175.944 300.157 176.105C300.267 176.265 300.345 176.446 300.386 176.637C300.386 176.637 300.386 176.638 300.386 176.639C300.386 176.652 300.403 176.657 300.41 176.646C300.528 176.457 300.687 176.296 300.875 176.176C301.076 176.047 301.305 175.969 301.543 175.947C301.781 175.924 302.021 175.959 302.242 176.049C302.585 176.186 302.518 176.629 302.197 176.811L299.488 178.346Z" fill="#E384FA"/>
<path d="M271.526 140.704C271.169 137.404 267.343 135.76 264.703 137.775L261.774 140.011C260.491 140.99 260.737 142.988 262.22 143.627L268.996 146.536C270.477 147.174 272.096 145.978 271.923 144.375L271.526 140.704Z" fill="#E8B88F"/>
<path d="M269.466 142.879C269.824 140.1 266.315 138.594 264.546 140.767C263.38 142.2 263.909 144.352 265.607 145.081C267.306 145.811 269.23 144.712 269.466 142.879Z" fill="#E8B88F"/>
<path d="M-nan -nanL271.127 137.037L270.967 135.548C270.856 134.516 269.657 134.006 268.838 134.642C268.182 135.15 268.153 136.141 268.902 136.497C269.594 136.826 270.35 137.012 271.127 137.037L-nan -nanZ" fill="#353535"/>
<path opacity="0.3" d="M260.895 140.682C262.273 139.63 264.012 141.424 262.918 142.769C262.505 143.276 261.805 143.448 261.204 143.189C260.176 142.747 260.005 141.361 260.895 140.682Z" fill="white"/>
<g style="mix-blend-mode:multiply" opacity="0.3">
<path d="M270.009 146.972C269.409 146.714 269.053 146.09 269.136 145.442C269.358 143.723 271.855 143.749 272.041 145.472C272.161 146.585 271.037 147.415 270.009 146.972Z" fill="#E8B88F"/>
</g>
<path d="M240.604 203.1L234.78 200.593C234.295 200.384 233.732 200.609 233.524 201.094C233.409 201.363 233.421 201.671 233.571 201.922C234.841 204.057 236.756 205.74 239.046 206.723C241.337 207.706 243.877 207.936 246.3 207.385C246.584 207.321 246.815 207.119 246.931 206.852C247.143 206.365 246.918 205.8 246.43 205.591L240.604 203.1Z" fill="#81796B"/>
<path d="M271.973 147.324C271.095 145.97 268.287 145.614 266.912 144.769C266.365 144.432 265.721 144.117 264.994 143.898C263.419 143.422 262.315 142.648 260.787 142.039C259.986 141.72 258.717 142.636 258.376 143.427L235.33 196.901C234.541 198.731 235.386 200.854 237.216 201.642L243.992 204.543C245.815 205.323 247.925 204.48 248.71 202.659L271.747 149.189C272.094 148.384 272.45 148.059 271.973 147.324Z" fill="#7BB752"/>
<path d="M267.111 144.898C265.148 143.619 261.637 144.96 260.71 147.112L238.674 198.247C237.865 200.125 238.733 202.304 240.613 203.111C242.489 203.916 244.662 203.049 245.47 201.175L267.472 150.117C268.419 147.919 269.117 146.205 267.111 144.898Z" fill="#9DC44D"/>
<path opacity="0.3" d="M261.431 142.454C260.469 141.567 258.619 142.862 258.102 144.064L234.616 198.557C234.221 199.473 234.644 200.535 235.559 200.929C236.475 201.322 237.536 200.9 237.93 199.985L261.378 145.561C261.914 144.317 262.428 143.372 261.431 142.454Z" fill="#6FA64B"/>
<g style="mix-blend-mode:multiply" opacity="0.5">
<path d="M271.528 146.786C270.564 145.898 268.709 147.2 268.19 148.404L244.708 202.888C244.313 203.806 244.737 204.871 245.656 205.265C246.572 205.659 247.635 205.236 248.029 204.319L271.474 149.903C272.012 148.655 272.528 147.707 271.528 146.786Z" fill="#8DBF6C"/>
</g>
<path d="M247.255 204.773L234.847 199.448C234.569 199.328 234.248 199.457 234.129 199.735C234.009 200.012 234.138 200.334 234.416 200.453L246.824 205.779C247.101 205.898 247.423 205.77 247.542 205.492C247.661 205.214 247.533 204.893 247.255 204.773Z" fill="#CFD1D2"/>
<g style="mix-blend-mode:multiply" opacity="0.4">
<path d="M-nan -nanL239.048 206.699C241.344 207.646 243.87 207.873 246.293 207.356C246.581 207.295 246.816 207.092 246.934 206.822C247.144 206.338 246.921 205.776 246.436 205.568L240.604 203.068C240.565 203.051 240.526 203.118 240.561 203.142C241.481 203.786 243.504 205.405 241.536 205.977C239.056 206.699 235.133 204.583 233.342 201.495C234.637 203.797 236.637 205.621 239.048 206.699L-nan -nanZ" fill="#81796B"/>
</g>
<path d="M315.656 143.486C315.087 140.623 312.305 138.763 309.442 139.332L307.793 139.66C305.667 140.082 303.601 138.702 303.178 136.576C302.755 134.449 304.136 132.383 306.263 131.96L307.825 131.649C310.736 131.071 312.626 128.243 312.049 125.333L311.77 123.929C311.346 121.795 312.732 119.721 314.867 119.296C317.003 118.871 319.079 120.258 319.503 122.395L319.781 123.797C320.359 126.705 323.184 128.595 326.092 128.019L327.66 127.709C329.786 127.288 331.851 128.669 332.274 130.794C332.697 132.922 331.316 134.989 329.188 135.412L327.539 135.74C324.678 136.309 322.819 139.089 323.387 141.951L323.649 143.268C324.073 145.404 322.685 147.479 320.549 147.902C318.415 148.325 316.341 146.938 315.917 144.804L315.656 143.486Z" fill="#6DBAB7"/>
<path d="M141.579 172.797L134.767 154.503L145.808 150.392L146.54 152.357L137.714 155.643L140.016 161.824L148.27 158.751L149.001 160.716L140.748 163.79L143.063 170.007L152.031 166.667L152.763 168.633L141.579 172.797ZM153.898 158.161L153.18 156.231L164.185 152.134L164.903 154.063L153.898 158.161ZM155.867 163.449L155.149 161.52L166.154 157.422L166.872 159.351L155.867 163.449ZM172.908 161.132L167.799 147.411L169.836 146.653L170.634 148.797L170.813 148.73C170.826 147.891 171.076 147.151 171.562 146.508C172.046 145.86 172.735 145.37 173.628 145.037C174.534 144.7 175.363 144.625 176.118 144.812C176.876 144.991 177.561 145.383 178.173 145.99L178.316 145.936C178.404 145.097 178.721 144.338 179.269 143.659C179.814 142.975 180.578 142.45 181.561 142.084C182.787 141.627 183.934 141.638 185 142.115C186.064 142.587 186.896 143.63 187.497 145.244L190.916 154.427L188.808 155.211L185.389 146.029C185.012 145.016 184.466 144.396 183.75 144.167C183.034 143.939 182.301 143.964 181.551 144.244C180.586 144.603 179.948 145.173 179.635 145.954C179.32 146.729 179.328 147.56 179.658 148.447L182.984 157.38L180.84 158.178L177.341 148.781C177.051 148.001 176.564 147.467 175.88 147.179C175.194 146.885 174.453 146.887 173.655 147.184C173.107 147.388 172.649 147.724 172.281 148.194C171.919 148.661 171.689 149.207 171.59 149.834C171.495 150.453 171.573 151.098 171.823 151.771L175.016 160.347L172.908 161.132ZM158.14 201.102C156.853 201.581 155.632 201.69 154.477 201.428C153.322 201.167 152.296 200.596 151.399 199.717C150.502 198.837 149.798 197.712 149.288 196.343C148.769 194.949 148.568 193.624 148.683 192.367C148.802 191.103 149.211 189.998 149.91 189.052C150.613 188.099 151.583 187.392 152.822 186.931C153.787 186.571 154.723 186.426 155.63 186.495C156.537 186.564 157.358 186.828 158.091 187.288C158.825 187.747 159.411 188.383 159.85 189.196L157.742 189.981C157.348 189.416 156.784 188.995 156.051 188.719C155.321 188.434 154.492 188.465 153.563 188.811C152.741 189.117 152.1 189.6 151.641 190.259C151.185 190.91 150.928 191.687 150.871 192.59C150.818 193.485 150.984 194.45 151.37 195.486C151.764 196.546 152.275 197.407 152.901 198.069C153.533 198.729 154.237 199.162 155.012 199.368C155.793 199.572 156.601 199.519 157.434 199.209C157.982 199.005 158.444 198.724 158.82 198.367C159.195 198.01 159.472 197.596 159.648 197.123C159.825 196.651 159.885 196.14 159.83 195.591L161.938 194.806C162.121 195.66 162.098 196.499 161.869 197.324C161.644 198.14 161.218 198.881 160.592 199.548C159.969 200.207 159.152 200.725 158.14 201.102Z" fill="white"/>
<path d="M185.409 146.657L185.061 145.728L187.114 140.6C187.355 139.999 187.546 139.483 187.687 139.054C187.827 138.621 187.905 138.234 187.923 137.894C187.942 137.549 187.891 137.215 187.77 136.891C187.63 136.52 187.42 136.232 187.139 136.027C186.862 135.821 186.542 135.702 186.18 135.669C185.819 135.636 185.447 135.692 185.065 135.835C184.659 135.987 184.336 136.205 184.097 136.487C183.86 136.765 183.715 137.084 183.662 137.445C183.613 137.805 183.664 138.186 183.815 138.589L182.597 139.046C182.365 138.427 182.303 137.83 182.413 137.255C182.523 136.68 182.775 136.169 183.168 135.723C183.565 135.276 184.072 134.936 184.688 134.705C185.307 134.472 185.904 134.397 186.481 134.479C187.057 134.561 187.564 134.772 188.003 135.114C188.441 135.456 188.763 135.898 188.967 136.442C189.113 136.83 189.185 137.237 189.184 137.661C189.184 138.081 189.098 138.583 188.925 139.166C188.753 139.744 188.487 140.472 188.126 141.35L186.706 144.78L186.737 144.863L191.649 143.017L192.076 144.152L185.409 146.657Z" fill="white"/>
<path d="M266.55 111.095L270.22 91.9825L272.534 92.4269L270.9 100.938L281.091 102.895L282.725 94.3838L285.04 94.8283L281.369 113.941L279.055 113.496L280.697 104.948L270.506 102.991L268.864 111.54L266.55 111.095ZM285.667 114.766L285.99 113.086L293.624 107.392C294.52 106.725 295.265 106.139 295.859 105.634C296.453 105.122 296.917 104.624 297.249 104.14C297.588 103.65 297.813 103.113 297.926 102.528C298.055 101.856 298.005 101.243 297.776 100.69C297.553 100.137 297.19 99.6741 296.688 99.3003C296.185 98.9264 295.589 98.6732 294.898 98.5406C294.164 98.3996 293.494 98.429 292.888 98.6287C292.289 98.8234 291.789 99.1627 291.386 99.6466C290.99 100.132 290.722 100.738 290.582 101.466L288.38 101.043C288.595 99.9234 289.042 98.99 289.72 98.243C290.399 97.496 291.229 96.9715 292.209 96.6696C293.196 96.3688 294.246 96.3253 295.36 96.5391C296.48 96.7542 297.427 97.1812 298.201 97.8201C298.975 98.459 299.531 99.2269 299.868 100.124C300.205 101.021 300.28 101.961 300.091 102.944C299.956 103.647 299.696 104.31 299.312 104.933C298.935 105.551 298.357 106.211 297.577 106.912C296.805 107.609 295.758 108.44 294.438 109.406L289.263 113.173L289.234 113.322L298.119 115.028L297.724 117.081L285.667 114.766ZM278.476 136.061C278.089 138.077 277.391 139.749 276.381 141.078C275.371 142.406 274.155 143.347 272.733 143.899C271.311 144.452 269.785 144.572 268.155 144.259C266.525 143.946 265.152 143.269 264.035 142.229C262.919 141.189 262.138 139.865 261.692 138.257C261.246 136.649 261.217 134.837 261.604 132.821C261.991 130.805 262.689 129.133 263.699 127.805C264.709 126.476 265.925 125.536 267.347 124.983C268.769 124.43 270.295 124.311 271.925 124.624C273.555 124.937 274.929 125.613 276.045 126.653C277.161 127.693 277.942 129.017 278.388 130.626C278.834 132.234 278.864 134.046 278.476 136.061ZM276.237 135.631C276.555 133.976 276.546 132.526 276.211 131.282C275.882 130.038 275.304 129.033 274.477 128.268C273.656 127.504 272.667 127.011 271.51 126.789C270.352 126.567 269.248 126.658 268.196 127.062C267.151 127.468 266.242 128.187 265.469 129.219C264.703 130.252 264.161 131.596 263.843 133.251C263.526 134.906 263.531 136.356 263.86 137.599C264.195 138.844 264.773 139.849 265.594 140.613C266.421 141.378 267.413 141.872 268.571 142.094C269.728 142.316 270.829 142.224 271.875 141.819C272.926 141.414 273.835 140.695 274.602 139.662C275.374 138.63 275.919 137.286 276.237 135.631Z" fill="white"/>
<path d="M188.244 93.737L168.477 85.6945C166.999 85.0931 165.313 85.8038 164.712 87.2819C164.111 88.76 164.821 90.4458 166.299 91.0472L186.066 99.0897C187.544 99.6911 189.23 98.9804 189.831 97.5023C190.433 96.0242 189.722 94.3384 188.244 93.737Z" fill="#F2D031"/>
<path d="M-nan -nanL184.007 85.3035C183.742 85.9554 183.29 86.514 182.707 86.9086C182.124 87.3033 181.437 87.5162 180.734 87.5206C180.03 87.5249 179.341 87.3205 178.753 86.933C178.166 86.5456 177.706 85.9927 177.433 85.3441C177.16 84.6955 177.085 83.9805 177.218 83.2894C177.351 82.5983 177.686 81.9623 178.181 81.4617C178.676 80.9611 179.308 80.6184 179.997 80.4771C180.686 80.3357 181.402 80.402 182.054 80.6675C182.926 81.0252 183.621 81.7136 183.988 82.5824C184.354 83.4512 184.361 84.4295 184.007 85.3035L-nan -nanZ" fill="#F2D031"/>
<path d="M-nan -nanL176.964 102.599C176.699 103.251 176.246 103.81 175.664 104.205C175.081 104.599 174.394 104.812 173.69 104.816C172.987 104.821 172.297 104.616 171.71 104.229C171.122 103.842 170.663 103.289 170.389 102.64C170.116 101.991 170.041 101.276 170.175 100.585C170.308 99.8942 170.643 99.2582 171.138 98.7576C171.632 98.257 172.264 97.9143 172.954 97.773C173.643 97.6316 174.359 97.6979 175.011 97.9634C175.444 98.1388 175.838 98.398 176.171 98.7261C176.504 99.0543 176.769 99.4449 176.95 99.8757C177.132 100.306 177.227 100.769 177.229 101.236C177.231 101.704 177.141 102.167 176.964 102.599L-nan -nanZ" fill="#F2D031"/>
<path d="M382.116 149.227C382.602 140.73 376.559 136.229 374.815 135.112C374.508 134.916 374.206 134.731 373.89 134.548C372.098 133.51 365.326 130.201 357.996 134.533C348.983 139.858 350.328 148.741 350.101 151.043C349.874 153.344 350.028 158.134 348.942 159.958C348.553 160.612 348.191 161.206 347.921 161.768C347.074 163.528 348.591 165.184 350.259 166.2L353.903 168.419L357.572 170.655C359.224 171.661 361.371 172.256 362.547 170.72C362.934 170.213 363.301 169.608 363.701 168.954C364.787 167.179 369.115 165.113 371.053 163.856C372.99 162.6 381.508 159.69 382.116 149.227Z" fill="#F6DF5C"/>
<path d="M381.208 148.619C381.208 148.514 381.208 148.408 381.208 148.295C380.235 158.102 372.106 160.874 370.218 162.073C368.329 163.273 363.953 165.396 362.867 167.171C362.72 167.419 362.572 167.665 362.421 167.909C361.792 168.928 362.173 169.313 362.794 168.29C363.872 166.507 368.2 164.448 370.145 163.192C372.09 161.935 380.608 159.074 381.208 148.619Z" fill="url(#paint6_linear_43_1410)"/>
<path d="M352.14 167.305C352.048 167.262 352.008 167.154 352.05 167.062L356.02 158.48C356.39 157.68 357.312 157.296 358.14 157.598C359.059 157.933 360.07 157.423 360.348 156.486L360.685 155.348C360.808 154.934 361.049 154.567 361.38 154.29L361.602 154.105C361.888 153.866 362.073 153.527 362.116 153.157L362.881 146.707C362.92 146.377 363.389 146.349 363.467 146.673L363.538 146.969C363.574 147.119 363.775 147.15 363.854 147.018C363.904 146.935 364.011 146.909 364.093 146.96L364.104 146.966C364.191 147.02 364.218 147.133 364.165 147.22L363.686 148.006C363.614 148.125 363.435 148.097 363.403 147.962C363.362 147.794 363.118 147.808 363.097 147.98L362.45 153.468C362.416 153.758 362.272 154.024 362.048 154.212L361.714 154.491C361.377 154.774 361.13 155.149 361.005 155.571L360.6 156.932C360.317 157.884 359.292 158.401 358.358 158.064C357.515 157.76 356.58 158.15 356.204 158.963L352.383 167.216C352.34 167.307 352.231 167.347 352.14 167.305Z" fill="#434244"/>
<path d="M357.896 157.644C357.799 157.624 357.735 157.529 357.754 157.431L359.572 148.036C359.614 147.815 359.311 147.71 359.207 147.909C359.138 148.044 358.948 148.051 358.869 147.922L357.442 145.62C357.39 145.535 357.415 145.423 357.5 145.37C357.585 145.316 357.699 145.342 357.752 145.428L358.633 146.856C358.802 147.129 359.205 147.114 359.353 146.829C359.573 146.405 360.217 146.629 360.126 147.098L358.112 157.5C358.092 157.599 357.996 157.664 357.896 157.644Z" fill="#434244"/>
<path d="M355.929 169.424C355.866 169.505 355.75 169.519 355.669 169.457C355.589 169.394 355.574 169.278 355.637 169.198L361.221 162.019C361.771 161.312 361.689 160.301 361.031 159.692C360.303 159.018 360.292 157.87 361.007 157.182L362.034 156.194C362.35 155.889 362.57 155.499 362.668 155.071L362.766 154.644C362.831 154.361 363.001 154.113 363.242 153.95L367.818 150.86C367.961 150.763 367.863 150.541 367.695 150.581C367.561 150.614 367.455 150.468 367.527 150.351L368.009 149.559C368.061 149.474 368.172 149.446 368.258 149.497L368.265 149.501C368.349 149.551 368.376 149.66 368.325 149.743C368.243 149.875 368.362 150.04 368.513 150.003L368.813 149.931C369.138 149.853 369.329 150.286 369.051 150.473L363.677 154.102C363.365 154.313 363.145 154.635 363.063 155.003L363.002 155.278C362.908 155.698 362.693 156.08 362.383 156.378L361.522 157.204C360.818 157.88 360.829 159.009 361.546 159.672C362.192 160.269 362.273 161.262 361.733 161.956L355.929 169.424Z" fill="#434244"/>
<path d="M361.873 159.936C361.794 159.998 361.681 159.986 361.617 159.909C361.551 159.829 361.564 159.711 361.645 159.647L369.968 153.099C370.341 152.806 370.832 153.274 370.557 153.661C370.372 153.921 370.542 154.284 370.86 154.309L372.538 154.44C372.639 154.448 372.715 154.537 372.706 154.639C372.697 154.739 372.609 154.813 372.509 154.805L369.815 154.595C369.664 154.583 369.583 154.411 369.67 154.287C369.801 154.103 369.567 153.881 369.39 154.021L361.873 159.936Z" fill="#434244"/>
<path opacity="0.3" d="M380.162 149.089C377.731 153.085 371.19 153.555 365.574 150.143C359.957 146.731 357.388 140.701 359.827 136.705C362.267 132.709 368.791 132.231 374.416 135.643C380.041 139.055 382.594 145.102 380.162 149.089Z" fill="white"/>
<path d="M349.388 165.637C348.663 165.195 347.717 165.424 347.274 166.149L347.256 166.178C347.103 166.429 347.031 166.721 347.05 167.014C347.068 167.306 346.996 167.597 346.844 167.848L346.15 168.986C344.523 171.659 345.37 175.145 348.042 176.773L349.236 177.5C351.85 179.092 355.26 178.266 356.855 175.654L357.718 174.242C357.85 174.025 358.055 173.863 358.296 173.785C358.536 173.706 358.741 173.545 358.873 173.33L358.953 173.201C359.381 172.504 359.162 171.591 358.463 171.165L349.388 165.637Z" fill="#9E9E9E"/>
<path d="M351.306 178.766C352.473 179.475 352.416 181.188 351.204 181.817C350.899 181.946 350.569 182.004 350.239 181.985C349.909 181.967 349.587 181.873 349.299 181.711L344.177 178.591C343.906 178.41 343.679 178.17 343.514 177.89C343.348 177.609 343.248 177.295 343.22 176.97C343.22 175.605 344.713 174.764 345.881 175.473L351.306 178.766Z" fill="#6D6E70"/>
<path d="M357.72 174.749C357.574 175.001 357.096 175.017 356.674 174.806L346.503 169.595C346.081 169.376 345.854 168.995 346.008 168.744C346.162 168.492 346.624 168.476 347.054 168.695L357.25 173.906C357.647 174.125 357.85 174.506 357.72 174.749Z" fill="#D4D4D5"/>
<path d="M358.701 173.258C358.915 173.44 358.61 173.731 358.328 173.731C358.186 173.731 358.046 173.694 357.923 173.623L347.386 168.022C347.103 167.876 346.908 167.601 346.949 167.406C346.989 167.212 347.248 167.188 347.532 167.341L358.522 173.153C358.594 173.182 358.654 173.218 358.701 173.258Z" fill="#D4D4D5"/>
<path d="M356.893 176.111C356.739 176.362 356.269 176.387 355.848 176.168L345.692 170.956C345.263 170.737 345.044 170.357 345.19 170.105C345.336 169.854 345.814 169.838 346.243 170.057L356.431 175.268C356.82 175.487 357.039 175.9 356.893 176.111Z" fill="#D4D4D5"/>
<path d="M356.067 177.473C355.913 177.724 355.442 177.748 355.013 177.529L344.817 172.318C344.395 172.099 344.169 171.718 344.323 171.467C344.477 171.216 344.947 171.199 345.368 171.418L355.564 176.63C355.985 176.849 356.229 177.23 356.067 177.473Z" fill="#D4D4D5"/>
<path d="M355.232 178.834C355.086 179.086 354.608 179.11 354.186 178.891L343.99 173.68C343.569 173.461 343.342 173.08 343.496 172.869C343.65 172.658 344.112 172.602 344.541 172.82L354.737 178.032C355.159 178.21 355.418 178.591 355.232 178.834Z" fill="#D4D4D5"/>
<path d="M-nan -nanL358.66 117.091L358.871 116.864C360.074 115.543 360.705 113.799 360.624 112.014C360.544 110.229 359.759 108.548 358.441 107.341L354.678 103.901C351.862 101.327 347.491 101.529 344.925 104.353C342.37 107.165 342.571 111.514 345.376 114.077L349.169 117.545C350.491 118.737 352.23 119.359 354.008 119.274C355.786 119.189 357.458 118.404 358.66 117.091L-nan -nanZ" fill="#BBDEEC"/>
<path d="M-nan -nanL329.304 90.2556L329.515 90.0286C330.721 88.7126 332.399 87.9278 334.182 87.8458C335.965 87.7637 337.708 88.3912 339.03 89.591L344.509 94.6102C347.305 97.1724 347.504 101.514 344.954 104.321C342.388 107.145 338.016 107.345 335.203 104.768L329.766 99.787C328.442 98.5837 327.649 96.904 327.563 95.1169C327.476 93.3297 328.102 91.5812 329.304 90.2556L-nan -nanZ" fill="#4E89FA"/>
<path style="mix-blend-mode:multiply" opacity="0.5" d="M-nan -nanL358.263 117.545L332.602 94.0809C330.628 92.276 327.341 92.7367 327.58 95.4008C327.73 97.0746 328.497 98.6326 329.734 99.7708L340.27 109.424L349.137 117.529C350.38 118.673 352.007 119.309 353.697 119.312C355.386 119.315 357.016 118.685 358.263 117.545L-nan -nanZ" fill="url(#paint7_linear_43_1410)"/>
<path opacity="0.3" d="M329.871 96.1479C329.76 96.0466 329.669 95.9241 329.605 95.7876C329.541 95.6511 329.504 95.5033 329.497 95.3526C329.491 95.2019 329.514 95.0513 329.565 94.9096C329.617 94.7679 329.696 94.6378 329.799 94.5269L330.139 94.1541C330.24 94.0423 330.363 93.9517 330.499 93.8875C330.636 93.8233 330.784 93.7867 330.934 93.78C331.085 93.7732 331.235 93.7963 331.377 93.848C331.519 93.8997 331.649 93.9789 331.76 94.0811L354.608 114.976C354.831 115.181 354.965 115.467 354.978 115.771C354.992 116.075 354.885 116.372 354.681 116.597L354.34 116.969C354.133 117.191 353.848 117.323 353.545 117.337C353.242 117.35 352.945 117.245 352.719 117.042L329.871 96.1479Z" fill="white"/>
</g>
<defs>
<filter id="filter0_d_43_1410" x="0" y="0" width="497" height="497" filterUnits="userSpaceOnUse" color-interpolation-filters="sRGB">
<feFlood flood-opacity="0" result="BackgroundImageFix"/>
<feColorMatrix in="SourceAlpha" type="matrix" values="0 0 0 0 0 0 0 0 0 0 0 0 0 0 0 0 0 0 127 0" result="hardAlpha"/>
<feOffset dy="4"/>
<feGaussianBlur stdDeviation="2"/>
<feComposite in2="hardAlpha" operator="out"/>
<feColorMatrix type="matrix" values="0 0 0 0 0.188854 0 0 0 0 0.226191 0 0 0 0 0.308333 0 0 0 1 0"/>
<feBlend mode="normal" in2="BackgroundImageFix" result="effect1_dropShadow_43_1410"/>
<feBlend mode="normal" in="SourceGraphic" in2="effect1_dropShadow_43_1410" result="shape"/>
</filter>
<linearGradient id="paint0_linear_43_1410" x1="247.623" y1="360.692" x2="247.623" y2="73.519" gradientUnits="userSpaceOnUse">
<stop stop-color="#A0FFFF"/>
<stop offset="0.05" stop-color="#96F0F0" stop-opacity="0.94"/>
<stop offset="0.41" stop-color="#578A8A" stop-opacity="0.54"/>
<stop offset="0.69" stop-color="#284040" stop-opacity="0.25"/>
<stop offset="0.9" stop-color="#0B1212" stop-opacity="0.07"/>
<stop offset="1" stop-opacity="0"/>
</linearGradient>
<linearGradient id="paint1_linear_43_1410" x1="303.96" y1="360.692" x2="303.96" y2="73.519" gradientUnits="userSpaceOnUse">
<stop stop-color="#A0FFFF" stop-opacity="0.9"/>
<stop offset="0.03" stop-color="#9AF6F6" stop-opacity="0.87"/>
<stop offset="0.3" stop-color="#64A0A0" stop-opacity="0.56"/>
<stop offset="0.54" stop-color="#395B5B" stop-opacity="0.32"/>
<stop offset="0.75" stop-color="#1A2A2A" stop-opacity="0.15"/>
<stop offset="0.91" stop-color="#070B0B" stop-opacity="0.04"/>
<stop offset="1" stop-opacity="0"/>
</linearGradient>
<linearGradient id="paint2_linear_43_1410" x1="192.185" y1="360.692" x2="192.185" y2="73.519" gradientUnits="userSpaceOnUse">
<stop stop-color="#A0FFFF" stop-opacity="0.9"/>
<stop offset="0.03" stop-color="#9AF6F6" stop-opacity="0.87"/>
<stop offset="0.3" stop-color="#64A0A0" stop-opacity="0.56"/>
<stop offset="0.54" stop-color="#395B5B" stop-opacity="0.32"/>
<stop offset="0.75" stop-color="#1A2A2A" stop-opacity="0.15"/>
<stop offset="0.91" stop-color="#070B0B" stop-opacity="0.04"/>
<stop offset="1" stop-opacity="0"/>
</linearGradient>
<linearGradient id="paint3_linear_43_1410" x1="206.685" y1="367.225" x2="289.136" y2="367.225" gradientUnits="userSpaceOnUse">
<stop stop-color="white"/>
<stop offset="1" stop-color="#6DBAB7"/>
</linearGradient>
<linearGradient id="paint4_linear_43_1410" x1="206.685" y1="410.035" x2="289.136" y2="410.035" gradientUnits="userSpaceOnUse">
<stop stop-color="#9754FA"/>
<stop offset="1" stop-color="#503B95"/>
</linearGradient>
<linearGradient id="paint5_linear_43_1410" x1="213.616" y1="386.305" x2="243.241" y2="386.844" gradientUnits="userSpaceOnUse">
<stop stop-color="white"/>
<stop offset="1" stop-color="white" stop-opacity="0"/>
</linearGradient>
<linearGradient id="paint6_linear_43_1410" x1="361.198" y1="164.319" x2="377.494" y2="137.731" gradientUnits="userSpaceOnUse">
<stop stop-color="white"/>
<stop offset="0.12" stop-color="white" stop-opacity="0.95"/>
<stop offset="0.34" stop-color="white" stop-opacity="0.83"/>
<stop offset="0.53" stop-color="white" stop-opacity="0.7"/>
<stop offset="1" stop-color="white"/>
</linearGradient>
<linearGradient id="paint7_linear_43_1410" x1="345.498" y1="105.99" x2="341.382" y2="110.537" gradientUnits="userSpaceOnUse">
<stop stop-color="white" stop-opacity="0"/>
<stop offset="0.17" stop-color="#B4BBC9" stop-opacity="0.33"/>
<stop offset="0.37" stop-color="#717E99" stop-opacity="0.62"/>
<stop offset="0.57" stop-color="#415276" stop-opacity="0.83"/>
<stop offset="0.78" stop-color="#243862" stop-opacity="0.96"/>
<stop offset="1" stop-color="#1B2F5B"/>
</linearGradient>
</defs>
</svg>
