<svg width="1956" height="647" viewBox="0 0 1956 647" fill="none" xmlns="http://www.w3.org/2000/svg">
<g filter="url(#filter0_d_5_9527)">
<rect x="32" width="1920" height="639" fill="white"/>
</g>
<path opacity="0.5" d="M32.2822 146.549L51.9188 62.5883L125.176 82.5719L97.2014 159.435L32.2822 146.549Z" fill="#606E3B"/>
<path opacity="0.5" d="M52.9161 63.2573L124.288 82.7749L96.8773 158.265L33.6829 145.692L52.9161 63.2599M51.5969 61.2706L51.2089 62.943L31.9757 145.373L31.6235 146.877L33.3039 147.213L96.4952 159.785L98.0473 160.094L98.5368 158.744L125.948 83.2569L126.494 81.7496L124.799 81.2862L53.4295 61.7713L51.5969 61.2706Z" fill="#323232"/>
<path opacity="0.5" d="M57.1258 71.8118L55.3413 82.067L110.858 95.5294L114.635 86.7461L57.1258 71.8118Z" fill="#7AD0E3"/>
<path opacity="0.5" d="M54.0899 88.9412L108.047 100.169L91.215 151.529L39.5293 142.092L54.0899 88.9412Z" fill="white"/>
<path opacity="0.5" d="M50.0708 96.1882L106.73 107.388" stroke="#606E3B" stroke-width="9.75" stroke-miterlimit="10"/>
<path opacity="0.5" d="M48.0942 104.753L104.094 115.294" stroke="#606E3B" stroke-width="9.75" stroke-miterlimit="10"/>
<path opacity="0.5" d="M44.1411 113.976L100.8 123.859" stroke="#606E3B" stroke-width="9.75" stroke-miterlimit="10"/>
<path opacity="0.5" d="M43.4824 121.224L99.4824 132.424" stroke="#606E3B" stroke-width="9.75" stroke-miterlimit="10"/>
<path opacity="0.5" d="M41.5059 131.765L95.5294 141.647" stroke="#606E3B" stroke-width="9.75" stroke-miterlimit="10"/>
<path opacity="0.5" d="M64.5646 89.6L49.4116 145.6" stroke="#606E3B" stroke-width="9.75" stroke-miterlimit="10"/>
<path opacity="0.5" d="M79.0588 92.2354L63.2471 148.894" stroke="#606E3B" stroke-width="9.75" stroke-miterlimit="10"/>
<path opacity="0.5" d="M93.5529 95.5294L75.7646 150.871" stroke="#606E3B" stroke-width="9.75" stroke-miterlimit="10"/>
<path opacity="0.5" d="M77.0825 148.979L82.8825 130.447L97.506 133.01L91.3182 151.529L77.0825 148.979Z" fill="#FF896B"/>
<path opacity="0.5" d="M54.4736 88.9412L52.7061 95.3988L60.9873 96.847L62.5884 90.6304L54.4736 88.9412Z" fill="#FFDA95"/>
<path opacity="0.5" d="M65.6216 73.7882L60.6118 83.2273L67.8942 84.9882L73.7883 75.9013L65.6216 73.7882Z" fill="white"/>
<path opacity="0.5" d="M79.0373 77.7412L74.4473 86.8174L78.0264 87.6236L83.012 78.7013L79.0373 77.7412Z" fill="white"/>
<path opacity="0.5" d="M0 167.358L2.70899 171.294C2.70899 171.294 20.3088 160.363 35.5641 167.358C36.1065 167.541 18.7764 155.37 0 167.358Z" fill="white"/>
<path opacity="0.5" d="M115.953 176.588L127.97 123.443C128.308 121.94 128.995 120.517 129.987 119.266C130.979 118.014 132.254 116.963 133.73 116.179C135.206 115.394 136.85 114.895 138.555 114.713C140.26 114.531 141.99 114.67 143.631 115.121L166.683 121.425L150.319 181.835L115.953 176.588Z" fill="#FF896B"/>
<path opacity="0.5" d="M140.34 115.532C141.477 115.533 142.607 115.685 143.693 115.981L165.918 122.041L149.975 180.727L117.352 175.766L129.173 123.676C129.694 121.381 131.091 119.316 133.128 117.832C135.165 116.348 137.716 115.535 140.349 115.532M140.349 113.987C137.317 113.995 134.38 114.932 132.034 116.641C129.688 118.351 128.076 120.727 127.471 123.37L115.65 175.46L115.294 177.021L117.076 177.285L149.678 182.251L151.279 182.494L151.659 181.091L167.614 122.403L168 120.99L166.435 120.565L144.207 114.505C142.957 114.159 141.655 113.981 140.346 113.976L140.349 113.987Z" fill="#323232"/>
<path opacity="0.5" d="M118.624 170.547L146.609 174.986L160.934 120.565L164.047 121.424L148.282 178.541L117.929 173.65L118.624 170.547Z" fill="white"/>
<path opacity="0.5" d="M133.693 221.412L127.812 208.692L143.35 201.6L151.595 214.162L159.435 216.339L130.11 229.271L133.693 221.412Z" fill="#FF896B"/>
<path opacity="0.5" d="M142.747 202.372L150.717 214.826L156.79 216.555L131.551 227.972L134.395 221.572L128.704 208.945L142.747 202.372ZM143.417 200.282L141.956 200.966L127.91 207.541L126.494 208.202L127.087 209.553L132.508 221.585L129.928 227.386L128.212 231.247L132.307 229.395L157.546 217.98L161.412 216.23L157.291 215.056L151.86 213.509L144.228 201.584L143.402 200.29L143.417 200.282Z" fill="#323232"/>
<path opacity="0.5" d="M142.965 223.173L146.975 221.365L158.118 243.765L142.965 223.173Z" fill="white"/>
<path opacity="0.5" d="M137.035 206.871L131.106 209.391L135.739 219.388L137.035 206.871Z" fill="white"/>
<path opacity="0.5" d="M142.735 202.353L150.704 214.695L156.776 216.407L146.814 220.873L158.148 243.546L142.744 222.703L131.547 227.721L134.394 221.379L128.704 208.867L142.744 202.353M143.414 200.282L141.954 200.959L127.91 207.475L126.494 208.131L127.087 209.469L132.507 221.392L129.927 227.14L128.212 230.967L132.306 229.131L142.134 224.724L156.702 244.424L159.72 242.909L149.08 221.62L157.546 217.825L161.412 216.091L157.291 214.927L151.862 213.394L144.231 201.577L143.405 200.296L143.414 200.282Z" fill="#323232"/>
<path opacity="0.5" d="M12.3157 124.137C12.5625 124.755 12.5836 125.421 12.3766 126.049C12.1695 126.677 11.7435 127.24 11.1524 127.667C10.5612 128.093 9.83156 128.364 9.05569 128.445C8.27981 128.526 7.49257 128.413 6.79353 128.121C6.09449 127.829 5.51507 127.371 5.12854 126.805C4.74202 126.239 4.56577 125.589 4.62208 124.94C4.67839 124.29 4.96476 123.668 5.44493 123.154C5.92509 122.64 6.57746 122.256 7.31959 122.051C7.81204 121.914 8.33195 121.86 8.84961 121.891C9.36727 121.922 9.87258 122.037 10.3366 122.231C10.8005 122.425 11.2141 122.693 11.5537 123.02C11.8933 123.347 12.1522 123.727 12.3157 124.137Z" fill="white"/>
<path opacity="0.5" d="M142.678 59.6073C143.028 60.5965 143.058 61.6611 142.765 62.6664C142.471 63.6716 141.868 64.5725 141.031 65.2549C140.193 65.9374 139.16 66.3708 138.061 66.5003C136.962 66.6299 135.846 66.4498 134.856 65.9828C133.866 65.5158 133.045 64.7829 132.497 63.8767C131.949 62.9706 131.7 61.932 131.779 60.8922C131.859 59.8524 132.264 58.8581 132.944 58.0351C133.624 57.2122 134.548 56.5975 135.599 56.2688C137.008 55.8282 138.546 55.9323 139.873 56.5584C141.201 57.1845 142.21 58.2812 142.678 59.6073Z" fill="white"/>
<path opacity="0.6" d="M182 599.458L176.691 620L53 572.328L59.5084 562L182 599.458Z" fill="#606E3B"/>
<path opacity="0.6" d="M180.778 602L201 609.236L196.858 622L177 616.456L180.778 602Z" fill="#FFB87F"/>
<path opacity="0.6" d="M167 609.301L158.439 606.234L156.887 615.363L108.406 597L108 601.178L161.265 622L167 609.301Z" fill="#FF896B"/>
<path opacity="0.6" d="M174.759 606L176 600.189L77 571L79.0903 573.23L174.759 606Z" fill="white"/>
<path opacity="0.6" d="M41.4258 561.542L59.5778 562.165L181.968 599.132L181.128 602.324L200.801 609.356L196.762 621.779L177.444 616.392L176.654 619.405L164.478 614.772L161.261 621.883L108.321 601.239L108.724 597.096L156.909 615.302L157.458 612.11L53.084 572.369L41.444 561.554M35.0363 559L39.5153 563.162L51.1553 573.974L51.5274 574.321L52.0266 574.512L106.269 595.161L106.097 596.909L105.698 601.051L105.534 602.711L107.263 603.386L160.186 624.014L162.709 625L163.73 622.745L165.935 617.868L175.597 621.548L178.524 622.661L179.241 619.928L179.381 619.381L195.963 624.006L198.568 624.733L199.317 622.422L203.347 610.019L204 608.023L201.795 607.225L184.214 600.939L184.546 599.666L185.081 597.615L182.812 596.933L60.4219 559.966L60.0498 559.858H59.6595L41.5075 559.239L35 559.016L35.0363 559Z" fill="#323232"/>
<defs>
<filter id="filter0_d_5_9527" x="28" y="0" width="1928" height="647" filterUnits="userSpaceOnUse" color-interpolation-filters="sRGB">
<feFlood flood-opacity="0" result="BackgroundImageFix"/>
<feColorMatrix in="SourceAlpha" type="matrix" values="0 0 0 0 0 0 0 0 0 0 0 0 0 0 0 0 0 0 127 0" result="hardAlpha"/>
<feOffset dy="4"/>
<feGaussianBlur stdDeviation="2"/>
<feComposite in2="hardAlpha" operator="out"/>
<feColorMatrix type="matrix" values="0 0 0 0 0.666667 0 0 0 0 0.666667 0 0 0 0 0.666667 0 0 0 0.25 0"/>
<feBlend mode="normal" in2="BackgroundImageFix" result="effect1_dropShadow_5_9527"/>
<feBlend mode="normal" in="SourceGraphic" in2="effect1_dropShadow_5_9527" result="shape"/>
</filter>
</defs>
</svg>
