<svg width="56" height="57" viewBox="0 0 56 57" fill="none" xmlns="http://www.w3.org/2000/svg">
<g clip-path="url(#clip0_360_2128)">
<path d="M12.7205 37.8796C13.2342 37.0506 13.4976 36.1137 13.8545 35.2187C14.2341 34.2674 14.6843 33.37 15.3669 32.6023C15.6626 31.6641 16.5092 31.3774 17.2816 31.0451C17.9007 30.7787 18.5737 30.6408 19.2562 30.6468C20.5663 30.6564 21.8775 30.5712 23.1851 30.6972C23.5132 30.8783 23.712 31.1902 23.8809 31.4962C24.458 32.5435 25.0472 33.5848 25.5897 34.6501C26.4446 36.2037 27.2937 37.7609 28.1427 39.318C28.3343 39.6683 28.5079 40.0282 28.7067 40.3738C28.9509 40.7984 29.0647 40.8044 29.2958 40.3702C29.7461 39.5244 30.2191 38.6918 30.6681 37.846C31.2381 36.7723 31.8392 35.7166 32.414 34.6465C33.0978 33.4432 33.6414 32.1608 34.4629 31.0355C34.5683 30.8903 34.6641 30.7392 34.8521 30.6852C36.477 30.6348 38.1044 30.522 39.7222 30.7668C40.1317 30.8291 40.5472 30.9119 40.8706 31.213C41.0621 31.4386 41.0442 31.6929 40.9448 31.9424C40.4778 33.1241 39.988 34.2974 39.3857 35.4191C39.2815 35.6122 39.121 35.7646 38.933 35.8846C38.666 36.0081 38.3918 35.9673 38.1152 35.9218C36.7058 35.6926 35.2987 35.4431 33.8869 35.2235C33.2259 35.1204 33.1301 35.2055 33.1086 35.8894C33.0894 36.5048 33.1529 37.1226 33.0654 37.7369C33.1493 40.3905 33.1241 43.043 33.0834 45.6943C32.7134 46.5425 32.0871 47.2119 31.5016 47.9053C30.5112 49.0774 29.4263 50.1619 28.3211 51.2236C26.3093 53.1575 24.0916 54.8382 21.7937 56.4146C21.4728 56.6341 21.092 56.6821 20.7387 56.8069C20.2801 56.9173 20.3807 56.5814 20.3807 56.345C20.3771 54.1268 20.3747 51.9074 20.3831 49.6892C20.3843 49.3377 20.3076 49.0558 20.0921 48.7571C18.8359 47.02 18.4132 45.0813 18.7856 42.9686C18.806 42.8523 18.8156 42.7347 18.8311 42.6111C18.6132 42.5824 18.6084 42.7599 18.5533 42.8631C16.5224 46.6612 14.4963 50.463 12.4666 54.2612C12.0523 55.0362 11.4547 55.5832 10.5602 55.7416C10.4932 55.4369 10.7111 55.3109 10.9159 55.1873C12.0163 54.5215 12.4462 53.515 12.4414 52.2625C12.4319 49.8452 12.4391 47.4278 12.4379 45.0117C12.4379 44.4526 12.4379 43.8936 12.475 43.3345C12.4127 42.0749 12.4175 40.814 12.4726 39.5544C12.4534 39.1801 12.4223 38.807 12.4558 38.4327C12.475 38.2155 12.4881 37.9948 12.7205 37.8796Z" fill="#EB8B8B"/>
<path d="M23.2691 30.9347C21.8788 30.9299 20.4862 30.8832 19.0983 30.9335C17.6494 30.9863 16.4292 31.6353 15.3682 32.6011C15.1167 30.5604 14.8102 28.5234 15.1 26.4563C15.2532 25.3634 15.4329 24.2657 15.8927 23.27C17.3608 20.0933 17.5284 16.7654 17.2063 13.3583C16.6699 7.68503 19.9701 2.59001 25.324 0.800091C25.6245 0.699318 25.9371 0.634535 26.2448 0.551758C27.6518 0.555357 28.7403 1.33395 29.7714 2.12693C32.8141 4.4687 34.1745 7.62384 34.0607 11.4436C34.0571 11.5828 34.0607 11.7231 33.9805 11.8479C33.9398 11.8983 33.8895 11.9355 33.8296 11.9607C32.9662 11.9547 32.2286 11.5288 31.4622 11.2169C29.4349 10.3939 27.6135 9.21821 25.8975 7.87098C25.2844 7.38991 25.2617 7.4007 24.906 8.07612C24.0367 9.72568 22.8236 11.0897 21.3867 12.2558C20.8909 12.6577 20.6011 13.0752 20.6335 13.7638C20.691 14.9994 20.6215 16.2399 20.655 17.478C20.7389 20.5312 22.0501 22.9089 24.6175 24.5813C24.9228 24.7804 25.324 24.9124 25.3515 25.379C25.4748 25.9057 25.4689 26.4372 25.4198 26.971C25.4341 27.8264 25.4653 28.6805 25.4377 29.5347C25.4198 30.0866 25.2174 30.5472 24.7635 30.8664C24.2882 31.1999 23.7852 31.2958 23.2691 30.9347Z" fill="#8E4D2E"/>
<path d="M33.9132 11.8082C33.748 11.5335 33.7935 11.2276 33.7935 10.9312C33.7851 7.86727 32.7193 5.23878 30.5148 3.10816C29.4443 2.07404 28.1893 1.30505 26.7823 0.798782C26.5979 0.731601 26.4231 0.635627 26.2446 0.551649C28.612 -0.100974 30.9399 0.10417 33.2091 0.958339C37.8361 2.70147 40.8549 7.11987 40.8597 12.0697C40.8609 13.8465 40.6526 15.6148 40.7113 17.3951C40.7663 19.0698 41.0956 20.6858 41.7495 22.2178C42.7481 24.5572 43.1852 26.9829 43.002 29.5142C42.9278 30.5459 42.7637 31.5717 42.6416 32.5998C41.8512 32.5014 41.3124 32.0215 40.8526 31.4205C40.0622 31.0666 39.2336 30.9046 38.3666 30.913C37.1572 30.9262 35.9477 30.9286 34.7371 30.9358C33.7384 31.4445 32.6655 30.8159 32.5792 29.6534C32.5134 28.7596 32.5733 27.8647 32.5864 26.9709C32.5325 26.4263 32.5361 25.884 32.6523 25.3465C32.6714 25.019 32.9205 24.8847 33.16 24.7359C35.9286 23.0072 37.3679 20.5322 37.3524 17.2403C37.3464 16.0239 37.344 14.8086 37.3547 13.5921C37.3583 13.1135 37.1883 12.8759 36.6925 12.7859C35.9896 12.6576 35.2879 12.5052 34.6018 12.3001C34.3263 12.2149 33.9994 12.1717 33.9132 11.8082Z" fill="#81462A"/>
<path d="M32.8187 45.9102C32.8283 43.1546 32.8379 40.4001 32.8474 37.6445C33.0953 37.3757 33.4066 37.4705 33.6904 37.5269C36.4063 38.068 39.1234 38.6042 41.8356 39.1609C42.1314 39.2208 42.4248 39.288 42.5745 39.5999C42.7038 39.9047 42.693 40.2262 42.693 40.5453C42.6978 44.3015 42.6966 48.0565 42.6942 51.8126C42.6942 52.0322 42.693 52.2529 42.6607 52.4701C42.6056 52.8384 42.4164 53.0051 42.0368 52.878C40.5699 52.596 39.1042 52.3141 37.6373 52.0322C37.3799 52.2745 37.0721 52.1941 36.7859 52.139C35.6531 51.9194 34.5191 51.7035 33.3923 51.4563C32.754 51.316 32.5912 51.13 32.572 50.4786C32.5385 49.3029 32.5564 48.126 32.5624 46.9492C32.5648 46.5821 32.6906 46.2449 32.8187 45.9102Z" fill="#A26548"/>
<path d="M55.808 37.6277C55.8139 41.9729 55.8175 46.3169 55.8307 50.6622C55.8319 50.9525 55.7397 51.1036 55.4523 51.1516C55.2583 51.184 55.0703 51.2488 54.8799 51.2992C54.5782 51.1624 54.6141 50.8805 54.6033 50.6274C54.5782 49.9891 54.6105 49.3497 54.5853 48.7115C54.5494 47.8297 54.0884 47.4542 53.2214 47.5802C52.3341 47.7086 51.4528 47.8645 50.569 48.0157C49.6877 48.1668 49.4219 48.492 49.4015 49.3905C49.3835 50.1487 49.4075 50.9081 49.3895 51.6663C49.3835 51.941 49.4243 52.2313 49.2183 52.4665C48.3717 52.9679 47.4376 53.0855 46.4773 53.0915C46.1276 52.9715 45.9887 52.7148 45.9827 52.3573C45.9791 52.0982 45.9684 51.839 45.9684 51.5799C45.9672 47.9689 45.966 44.3579 45.9708 40.7469C45.9708 40.3702 45.9384 39.9863 46.0785 39.6228C46.1863 39.3216 46.4318 39.2209 46.7204 39.1609C49.4877 38.5862 52.2599 38.0416 55.032 37.4945C55.2954 37.4429 55.5864 37.3602 55.808 37.6277Z" fill="#8E4D2E"/>
<path d="M12.7207 37.8797C12.7147 38.4399 12.7075 39.0001 12.7015 39.5592C12.5099 39.8171 12.2249 39.8195 11.9471 39.8231C10.5389 39.8387 9.13185 39.8387 7.72362 39.8243C7.44341 39.8219 7.1644 39.8051 6.96323 39.5652C6.22559 39.5484 5.48436 39.5796 4.7527 39.504C3.38998 39.3637 2.23562 38.6546 1.08007 37.996C0.531624 37.6805 0.277761 37.1167 0.268181 36.476C0.256206 35.5775 0.247824 34.6777 0.268181 33.7792C0.288538 32.8674 1.12198 32.2544 1.8692 32.7163C4.045 34.0587 6.42437 33.7936 8.8684 33.7732C8.59777 33.2285 8.34271 32.721 8.09364 32.2112C7.55238 31.1015 7.88169 29.9798 8.88397 29.5095C9.90541 29.0296 11.0035 29.5227 11.4825 30.6912C11.8609 31.6125 12.2153 32.5423 12.5925 33.4648C12.6931 33.712 12.7207 33.9603 12.7195 34.2218C12.7159 35.4419 12.7195 36.6608 12.7207 37.8797Z" fill="#FDC8A2"/>
<path d="M32.8191 45.9103C32.8251 47.4291 32.8466 48.9491 32.8251 50.4678C32.8191 50.9237 32.9891 51.1037 33.4142 51.1841C34.8249 51.4516 36.2295 51.7467 37.6365 52.031C37.6329 53.4898 37.6233 54.9474 37.6293 56.4062C37.6305 56.6882 37.5946 56.8345 37.2497 56.8333C31.7462 56.8165 26.2438 56.8141 20.7402 56.8081C22.7304 55.4561 24.6883 54.0609 26.5168 52.4905C27.9825 51.232 29.3452 49.8716 30.6457 48.4428C31.3953 47.6174 32.0803 46.7417 32.8191 45.9103Z" fill="#DF7F7F"/>
<path d="M12.71 43.3765C12.7124 46.4645 12.7315 49.5525 12.7088 52.6404C12.7004 53.8629 12.14 54.8119 11.0682 55.4333C10.897 55.5329 10.7305 55.6396 10.5617 55.7428C8.34399 56.4302 6.13346 54.7243 6.27715 52.3969C6.41247 50.2063 6.60526 48.0193 6.7777 45.8323C6.84116 45.0165 6.9178 44.2031 6.98845 43.3885C7.17526 43.1234 7.46025 43.1222 7.73687 43.1186C9.1415 43.1018 10.5473 43.103 11.9532 43.1174C12.231 43.121 12.5124 43.1294 12.71 43.3765Z" fill="#F49797"/>
<path d="M55.8079 37.6277C52.6214 38.2743 49.435 38.9197 46.2485 39.5663C46.0928 39.7391 45.8965 39.8075 45.6677 39.8147C44.778 39.8411 43.8895 39.8399 42.9998 39.8147C42.7723 39.8087 42.5735 39.7427 42.4178 39.5687C39.2277 38.9269 36.0365 38.2863 32.8464 37.6445C32.8428 36.8647 32.8524 36.0849 32.8285 35.3063C32.8153 34.8708 32.9554 34.7652 33.3937 34.8444C34.9803 35.1311 36.5754 35.3795 38.168 35.6362C38.423 35.677 38.6817 35.6914 38.938 35.7178C39.2613 35.5942 39.5786 35.5834 39.9271 35.6554C40.2947 35.731 40.6695 35.7934 41.0455 35.8377C42.51 36.0129 43.6237 36.7219 44.3158 38.0763C44.5265 37.7908 44.6487 37.4405 45.0462 37.4045C45.9276 36.3596 47.167 36.1761 48.4111 35.9793C50.7438 35.6098 53.0753 35.2247 55.402 34.818C55.7744 34.7532 55.8378 34.842 55.8283 35.1791C55.8079 35.9949 55.8139 36.8119 55.8079 37.6277Z" fill="#D3BC80"/>
<path d="M42.4191 39.5688C43.6956 39.5676 44.9721 39.5676 46.2486 39.5664C46.2474 43.7569 46.245 47.9473 46.251 52.1378C46.251 52.4305 46.1229 52.8192 46.621 52.8756C46.3791 53.2475 45.7313 53.3891 45.1709 53.1851C45.0428 53.1383 44.929 53.0556 44.8092 52.9896C43.886 52.9248 42.9532 53.1143 42.0371 52.8768C42.4886 52.8348 42.4143 52.4905 42.4143 52.2014C42.4167 49.2082 42.4155 46.2138 42.4167 43.2206C42.4143 42.0041 42.4167 40.7865 42.4191 39.5688Z" fill="#94573A"/>
<path d="M49.1103 52.3848C49.1139 51.3279 49.1127 50.271 49.1223 49.2153C49.1294 48.3479 49.4647 47.9256 50.3137 47.7685C51.3304 47.5789 52.3494 47.405 53.3721 47.255C54.2211 47.1302 54.8438 47.6761 54.8641 48.5506C54.8845 49.4672 54.8761 50.3838 54.8797 51.3003C54.8761 51.4395 54.8713 51.5798 54.8689 51.719C54.8569 52.5012 54.627 52.7855 53.8451 52.9331C52.8679 53.1178 51.8884 53.2882 50.9101 53.4645C50.1892 53.9696 49.6839 53.9372 49.1845 53.3517C48.9247 53.0482 48.8241 52.7315 49.1103 52.3848Z" fill="#FDC8A2"/>
<path d="M12.7098 43.3764C10.8022 43.38 8.89587 43.3848 6.9883 43.3884C6.97992 42.1132 6.97274 40.8391 6.96436 39.5639C8.87671 39.5627 10.7903 39.5603 12.7026 39.5591C12.705 40.8319 12.7074 42.1036 12.7098 43.3764Z" fill="#DFDFDD"/>
<path d="M45.0484 37.4045C44.7599 37.8507 44.5275 38.3246 44.3479 38.9617C44.0941 38.369 43.9432 37.8639 43.6043 37.4477C42.8762 36.5503 41.8871 36.2252 40.7974 36.0704C40.1736 35.9817 39.5401 35.9325 38.939 35.7165C39.6455 34.3153 40.3029 32.8913 40.8513 31.4181C41.5482 31.658 42.0883 32.1367 42.6403 32.5974C43.7743 33.7874 44.1539 35.3626 44.785 36.8094C44.8712 37.0098 44.961 37.2065 45.0484 37.4045Z" fill="#DF7F7E"/>
<path d="M49.1106 52.3849C49.2112 53.3206 49.5872 53.617 50.5009 53.4874C50.6362 53.4682 50.7739 53.4718 50.9104 53.4646C50.6122 54.795 49.6339 55.7428 48.4376 55.8615C47.0414 56.0007 45.9062 55.3421 45.3218 54.0596C45.1578 53.6997 44.9805 53.347 44.8081 52.9907C45.4104 52.9331 46.0283 53.1047 46.6199 52.8768C47.4497 52.7124 48.2808 52.548 49.1106 52.3849Z" fill="#DF7E7E"/>
<path d="M32.8167 26.9541C32.8227 27.7051 32.8311 28.4573 32.8335 29.2083C32.8383 30.4296 33.2802 30.8819 34.5016 30.9155C34.5806 30.9179 34.6584 30.9287 34.7375 30.9359C34.0178 32.2039 33.3951 33.5272 32.6072 34.7568C32.3557 34.9932 32.0432 35.028 31.7186 35.0292C29.9093 35.0364 28.0999 35.0364 26.2905 35.0292C25.9672 35.028 25.6535 34.9944 25.402 34.7556C24.6105 33.5272 23.989 32.2039 23.2705 30.9347C23.4693 30.9263 23.6693 30.9239 23.868 30.9083C24.6392 30.8483 25.1433 30.33 25.1661 29.5335C25.1901 28.6745 25.1829 27.8143 25.1901 26.9553C25.4487 26.737 25.6738 26.9062 25.9001 27.0213C27.9706 28.0674 30.0386 28.095 32.109 27.0225C32.333 26.905 32.5581 26.737 32.8167 26.9541Z" fill="#FDC8A2"/>
<path d="M25.4004 34.7556C27.8025 34.7556 30.2034 34.7556 32.6056 34.7556C31.7805 36.3056 30.9566 37.8556 30.128 39.4044C29.8454 39.9322 29.5388 40.4481 29.267 40.9819C29.0718 41.3646 28.9413 41.3622 28.7377 40.9819C27.878 39.3804 26.993 37.7932 26.1344 36.1916C25.8818 35.7178 25.5561 35.2799 25.4004 34.7556Z" fill="#DFDFDD"/>
<path d="M25.1863 25.271C23.9553 24.5476 22.8368 23.697 22.001 22.5142C20.9568 21.035 20.4048 19.3938 20.3856 17.5835C20.3701 16.1043 20.388 14.6251 20.376 13.1459C20.3736 12.8436 20.4383 12.6264 20.7041 12.4393C22.5542 11.134 23.9421 9.4341 24.9324 7.40065C25.0498 7.15951 25.1048 6.844 25.4988 7.17991C27.9225 9.25655 30.6635 10.7753 33.6931 11.7723C33.7302 11.7843 33.7613 11.8143 33.7949 11.8347C34.2403 12.4081 34.099 13.0235 33.9218 13.6402C33.7458 13.8633 33.4811 13.8741 33.2309 13.9305C32.5962 14.0744 32.1903 14.5159 32.1771 15.0558C32.1639 15.6124 32.5878 16.0815 33.2452 16.2291C33.4368 16.2723 33.6416 16.2687 33.808 16.4006C33.9637 16.517 34.0272 16.6777 34.0404 16.8661C34.2487 19.8881 33.7206 22.7049 31.7556 25.1223C31.4155 25.5409 31.0227 25.902 30.5833 26.214C28.987 26.5691 27.4351 26.3795 25.906 25.8457C25.5862 25.7353 25.3443 25.5661 25.1863 25.271Z" fill="#FDC8A2"/>
<path d="M30.5571 25.992C32.3186 24.3652 33.3077 22.3414 33.6765 19.984C33.825 19.0339 33.7807 18.0825 33.7915 17.13C33.7939 16.9128 33.8154 16.6885 33.655 16.5061C33.5915 16.2242 33.8406 16.1402 33.9843 15.9963C34.613 15.3676 34.6118 14.787 33.9831 14.156C33.8406 14.0132 33.5891 13.928 33.6574 13.6461C33.934 13.0595 33.7268 12.4368 33.7939 11.8346C33.8334 11.825 33.8741 11.8166 33.9136 11.807C34.9961 12.1369 36.0882 12.42 37.2115 12.5736C37.4402 12.6048 37.6342 12.6576 37.6246 12.9647C37.5647 14.9154 37.797 16.878 37.5108 18.8155C37.0965 21.618 35.5673 23.6838 33.1221 25.0826C33.0191 25.1414 32.9233 25.211 32.8239 25.2758C32.3653 25.9644 31.1571 26.3459 30.5571 25.992Z" fill="#FDBF92"/>
<path d="M30.5567 25.992C31.3566 25.8948 32.087 25.5769 32.8247 25.277C32.8223 25.836 32.8199 26.3951 32.8175 26.9541C32.0859 27.3428 31.3937 27.8167 30.5411 27.9283C28.7377 28.1634 26.9763 28.1706 25.4088 27.0393C25.3465 26.9949 25.2627 26.9817 25.1884 26.9541C25.1872 26.3927 25.1872 25.8312 25.186 25.271C26.9104 26.0064 28.691 26.3135 30.5567 25.992Z" fill="#FDB684"/>
<path d="M27.2087 18.4365C27.6122 18.3705 27.9774 18.4521 28.2601 18.9967C28.5774 19.6062 29.4659 19.5042 29.8419 18.8888C30.0742 18.5097 31.4106 18.2325 31.7459 18.5013C31.9411 18.6584 31.8501 18.8648 31.8046 19.0555C31.4896 20.3632 30.352 21.2953 29.054 21.3133C27.7439 21.3313 26.5968 20.4531 26.2279 19.1503C26.0531 18.5325 26.1154 18.4473 26.7465 18.4365C26.8662 18.4353 26.9859 18.4365 27.2087 18.4365Z" fill="#F6A368"/>
<path d="M24.6977 16.5134C23.9133 16.5206 23.2535 15.8595 23.2583 15.0702C23.2619 14.306 23.8918 13.6605 24.6534 13.6413C25.4401 13.6209 26.1143 14.2676 26.1251 15.0534C26.1346 15.8403 25.4844 16.5062 24.6977 16.5134Z" fill="#7A432A"/>
<path d="M33.6571 13.6461C34.2774 13.9124 34.73 14.3215 34.7408 15.0473C34.7527 15.7995 34.2965 16.229 33.6547 16.5061C32.3075 16.7029 31.5112 15.4036 32.0441 14.4163C32.3901 13.7769 32.9673 13.5837 33.6571 13.6461Z" fill="#7A432A"/>
</g>
<defs>
<clipPath id="clip0_360_2128">
<rect x="0.256348" y="0.166626" width="55.5769" height="56.6667" fill="white"/>
</clipPath>
</defs>
</svg>
