<svg width="51" height="49" viewBox="0 0 51 49" fill="none" xmlns="http://www.w3.org/2000/svg">
<g clip-path="url(#clip0_360_2041)">
<path d="M6.58378 14.94C3.39476 14.0803 1.34082 12.1292 0.80522 8.81765C0.125486 4.61371 3.4095 0.68057 7.67791 0.670782C21.6919 0.638156 35.7059 0.659363 49.7215 0.659363C50.1146 0.659363 50.4193 0.620211 50.4783 1.21075C50.5602 2.03784 50.113 2.10146 49.5168 2.0982C49.0336 2.48645 48.4603 2.48156 47.8822 2.48156C43.0257 2.48156 38.1693 2.48156 33.3129 2.48156C25.3461 2.48156 17.3793 2.5256 9.4141 2.45219C7.2455 2.43262 5.29147 2.71647 3.71088 4.31191C3.52743 4.49299 3.39149 4.70832 3.26864 4.93345C3.20313 5.18794 2.93778 5.32497 2.8821 5.58598C2.82968 5.71322 2.7658 5.83557 2.7527 5.97587C2.74779 6.19284 2.62494 6.37065 2.55779 6.56804C2.49719 6.7377 2.46934 6.90899 2.51193 7.0868C2.52012 7.27767 2.44641 7.45712 2.43495 7.64472C2.42676 7.75891 2.42676 7.87147 2.43331 7.98567C2.45951 8.17164 2.49391 8.35598 2.46115 8.54521C2.43986 8.72955 2.52339 8.89432 2.56106 9.06887C2.56598 9.28584 2.72813 9.45386 2.74942 9.66594C2.77072 9.8046 2.8346 9.93021 2.88701 10.0591C2.98692 10.3837 3.31287 10.5664 3.4095 10.8943C3.4914 11.0493 3.59786 11.1847 3.71088 11.3185C4.80173 12.4196 6.13827 13.0412 7.64187 13.3511C7.88592 13.4017 8.11687 13.4474 8.3642 13.3903C8.76712 13.2973 9.17824 13.3169 9.58608 13.3169C22.352 13.3152 35.1179 13.3152 47.8854 13.3169C48.4849 13.3169 49.0926 13.2744 49.6216 13.6431C50.0295 13.7165 50.5618 13.5257 50.5192 14.3152C50.4881 14.8944 50.3194 15.0379 49.7625 15.0314C48.0476 15.0085 46.3311 15.0412 44.6162 15.0526C44.4032 15.3087 44.1068 15.343 43.8021 15.3576C43.4745 15.374 43.1486 15.374 42.821 15.374C31.3687 15.3756 19.918 15.3756 8.46575 15.374C8.08411 15.374 7.70248 15.3789 7.32084 15.3462C7.01783 15.3152 6.71318 15.2842 6.58378 14.94Z" fill="#FECF5B"/>
<path d="M6.58384 14.9401C7.18331 14.9645 7.78115 15.0118 8.38063 15.0118C20.1048 15.0167 31.829 15.0151 43.5532 15.0167C43.907 15.0167 44.2608 15.0379 44.6146 15.0494C47.5104 15.7851 49.5103 17.5013 50.2768 20.4213C51.3169 24.3855 48.8437 28.2566 44.726 29.2321C44.4213 29.6579 43.9627 29.591 43.5319 29.591C39.2226 29.5943 34.9132 29.5927 30.6039 29.5927C23.1301 29.5927 15.6562 29.5943 8.18408 29.5878C7.75822 29.5878 7.30288 29.6971 6.92289 29.3855C5.18014 29.3806 3.43904 29.3855 1.6963 29.3627C1.2688 29.3561 0.711914 29.6041 0.67588 28.7476C0.638207 27.8781 1.19674 28.0478 1.67337 27.9923C2.25974 27.6073 2.92637 27.6693 3.57826 27.6693C16.4359 27.6677 29.2919 27.6498 42.1495 27.6873C44.2248 27.6938 46.0232 27.1962 47.5153 25.7378C47.6185 25.5486 47.7479 25.3741 47.8495 25.1832C47.9166 24.8863 48.2638 24.7493 48.2835 24.4246C48.3277 24.2925 48.3998 24.1701 48.4227 24.0298C48.4506 23.8178 48.5931 23.6448 48.6258 23.4344C48.6897 23.2647 48.7241 23.0902 48.7094 22.9075C48.6684 22.7182 48.6979 22.5323 48.7274 22.3447C48.7339 22.2305 48.7339 22.1163 48.7257 22.0021C48.7126 21.8145 48.6406 21.6334 48.6488 21.4425C48.6881 21.2647 48.6619 21.0918 48.5996 20.9222C48.5341 20.7264 48.4129 20.5486 48.408 20.3332C48.3916 20.1995 48.3359 20.0771 48.2835 19.9531C48.2393 19.7068 48.0132 19.5714 47.9199 19.3544C47.8429 19.1538 47.7184 18.9809 47.5939 18.8079C46.6292 17.945 45.6415 17.1212 44.3279 16.8242C44.1183 16.7769 43.9234 16.6627 43.8906 16.4066C43.5565 16.2353 43.1945 16.3039 42.8456 16.3039C29.0511 16.3039 15.255 16.3087 1.46044 16.3185C1.01001 16.3185 0.682431 16.3185 0.684069 15.7003C0.685707 15.1293 0.86424 14.9564 1.4326 14.9629C3.14913 14.9825 4.8673 14.9515 6.58384 14.9401Z" fill="#324A5E"/>
<path d="M49.6657 30.8406C49.2939 31.653 48.9221 32.467 48.5503 33.2794C48.2538 33.5356 47.8918 33.5062 47.5381 33.5062C33.0998 33.5078 18.6633 33.5095 4.22505 33.5029C3.8598 33.5029 3.43885 33.6041 3.20463 33.1718C3.08506 32.7672 3.32092 32.4964 3.57152 32.2403C4.62798 31.1669 5.92029 30.5926 7.41571 30.4572C7.71381 30.4295 8.01519 30.4409 8.31492 30.4409C21.546 30.4377 34.7771 30.436 48.0081 30.4507C48.5732 30.4523 49.2284 30.2354 49.6657 30.8406Z" fill="#F0F2F6"/>
<path d="M3.29639 4.37874C4.33319 2.93991 5.7549 2.19439 7.51729 2.07531C7.70729 2.06226 7.89893 2.06226 8.09056 2.06226C21.6541 2.06226 35.2177 2.06226 48.7813 2.06226C49.027 2.06226 49.271 2.08346 49.5167 2.09651C49.1695 2.86324 48.8239 3.62833 48.4766 4.39506C48.2375 4.84857 47.8018 4.79147 47.3989 4.7931C44.6717 4.79963 41.9446 4.79637 39.2175 4.79637C31.0361 4.79637 22.8531 4.79637 14.6717 4.79637C12.4032 4.74743 10.1347 4.74579 7.86617 4.79637C6.61808 4.79473 5.36999 4.81105 4.12353 4.78658C3.80414 4.78005 3.36845 4.91545 3.29639 4.37874Z" fill="#F0F2F6"/>
<path d="M47.9133 25.6121C46.7225 27.3201 45.0273 28.02 42.9996 28.0216C32.2794 28.0265 21.5576 28.0265 10.8375 28.0216C7.78276 28.02 4.72805 28.0004 1.67334 27.9906C2.04842 27.1896 2.4235 26.3903 2.79695 25.5893C3.03445 25.3576 3.33582 25.3528 3.6372 25.3528C14.5736 25.3576 25.5083 25.3315 36.4414 25.3658C37.0621 25.4392 36.9901 25.9873 37.1342 26.4262C37.7943 26.0934 38.1087 25.2092 38.9981 25.3152C39.7974 25.2255 40.5951 25.2092 41.3879 25.3462C42.1134 25.2288 42.4197 25.9971 43.0274 26.1113C43.2813 25.8944 43.1879 25.3805 43.6711 25.3674C44.816 25.3315 45.9576 25.3528 47.0993 25.356C47.3941 25.356 47.7135 25.3087 47.9133 25.6121Z" fill="#F0F2F6"/>
<path d="M43.8889 16.4066C45.535 16.6383 46.8912 17.3609 47.8576 18.7394C47.8068 19.2337 47.4105 19.1407 47.1124 19.144C45.9396 19.1554 44.7669 19.1734 43.5941 19.1358C43.3501 19.1032 43.1339 18.9857 42.9078 18.9009C41.1045 18.6807 39.2979 18.8079 37.4929 18.8324C37.1882 18.8357 36.9655 19.1016 36.6608 19.1309C34.0991 19.1799 31.5391 19.1489 28.979 19.1505C20.6715 19.1554 12.364 19.1538 4.05814 19.1473C3.63392 19.1473 3.1753 19.2566 2.81496 18.9074C2.5054 18.2435 2.20893 17.5746 1.87971 16.9205C1.71265 16.5877 1.72084 16.4131 2.14833 16.4246C2.39402 16.4311 2.63971 16.4229 2.88539 16.4229C16.4719 16.4262 30.06 16.4295 43.6465 16.4311C43.7268 16.4311 43.8087 16.4148 43.8889 16.4066Z" fill="#F0F2F6"/>
<path d="M49.6214 13.6382C49.3496 13.6496 49.0777 13.6724 48.8058 13.6724C35.3306 13.6741 21.8572 13.6724 8.38204 13.6757C6.29206 13.6757 4.54932 12.971 3.29468 11.2434C3.49942 10.9546 3.8139 11.0003 4.10217 11.0003C5.28147 10.9987 6.46077 10.9758 7.63679 11.0117C8.39351 11.1471 8.11015 11.8665 8.3542 12.3249C8.81117 12.17 9.12402 11.8437 9.4516 11.537C9.74479 11.263 10.0232 10.9563 10.4835 10.9905C11.0387 10.9383 11.5924 10.9432 12.146 10.9922C12.7929 10.9514 13.1844 11.3984 13.6103 11.7703C13.9264 12.046 14.1983 12.2466 14.2965 11.6023C14.344 11.2858 14.5209 11.0492 14.8813 11.0101C25.7718 10.9775 36.659 11.0036 47.5462 10.997C47.8787 10.997 48.2014 11.0231 48.4733 11.245C48.7992 12.0688 49.1677 12.8731 49.6214 13.6382Z" fill="#F0F2F6"/>
<path d="M48.6502 40.1098C49.0057 40.8683 49.3594 41.6253 49.7149 42.3839C49.556 42.7069 49.2513 42.7281 48.9483 42.7525C48.5945 42.7803 48.2391 42.777 47.8837 42.777C37.3748 42.7786 26.866 42.7803 16.3571 42.7721C15.738 42.7721 15.0926 42.8765 14.5243 42.5046C14.0804 41.6367 14.1066 40.7639 14.4948 39.8879C14.8044 39.6497 15.1696 39.7117 15.5185 39.7117C26.1748 39.7068 36.831 39.7068 47.4873 39.7117C47.9164 39.7101 48.3816 39.6351 48.6502 40.1098Z" fill="#F0F2F6"/>
<path d="M49.6658 30.8406C49.4201 30.8308 49.1761 30.8145 48.9304 30.8145C35.3242 30.8129 21.7181 30.8145 8.11189 30.8129C6.13985 30.8129 4.50029 31.4981 3.31444 33.118C3.24237 33.3186 3.31608 33.5454 3.20962 33.7411C3.13591 33.9434 2.93608 34.069 2.88695 34.286C2.83617 34.4149 2.77065 34.5389 2.75428 34.6792C2.74936 34.8994 2.62488 35.0788 2.55445 35.2778C2.49057 35.4459 2.43816 35.6155 2.4529 35.7999C2.49221 35.9891 2.45617 36.1751 2.43161 36.3611C2.42505 36.4752 2.42505 36.5894 2.43488 36.7036C2.46928 36.9255 2.50531 37.149 2.47911 37.3757C2.47583 37.5177 2.51678 37.6547 2.55281 37.7901C2.56755 37.9956 2.69859 38.1669 2.73134 38.366C2.751 38.4948 2.80669 38.6123 2.86565 38.7281C2.90824 38.8505 2.97867 38.9598 3.03436 39.0772C3.08841 39.2387 3.24237 39.3431 3.28824 39.5095C3.34392 39.6841 3.48806 39.8064 3.55849 39.9728C4.56417 41.0364 5.75657 41.7738 7.21595 42.0348C7.56483 42.0968 7.91371 42.1474 8.12664 42.4834C8.24293 42.9647 8.39689 43.4541 7.8875 43.8228C3.91392 43.7151 1.49144 40.994 0.859208 38.3252C-0.0760412 34.379 2.27109 30.609 6.24959 29.6449C6.46088 29.5943 6.67217 29.547 6.8851 29.498C7.20285 29.3757 7.53371 29.4377 7.85638 29.4377C19.6625 29.4344 31.4686 29.4344 43.273 29.4344C45.3974 29.4344 47.5218 29.4312 49.6461 29.4393C49.9098 29.441 50.1932 29.348 50.4356 29.5388C50.4405 29.7003 50.4274 29.8651 50.4553 30.0233C50.5634 30.653 50.2898 30.9108 49.6658 30.8406Z" fill="#FD7058"/>
<path d="M14.5997 42.4231C25.9226 42.4214 37.2471 42.4198 48.57 42.4165C48.9517 42.4165 49.3333 42.3953 49.7149 42.3839C50.4471 42.2844 50.4586 42.733 50.4635 43.2762C50.47 43.9728 49.9885 43.8097 49.6167 43.8113C38.297 43.8162 26.9758 43.8162 15.6562 43.8162C15.3024 43.8162 14.9469 43.8227 14.5931 43.826C14.1362 43.3545 14.1329 42.888 14.5997 42.4231Z" fill="#FD7159"/>
<path d="M14.5997 42.423C14.5146 42.8896 14.5326 43.3578 14.5915 43.826C14.5915 45.0397 14.5915 46.2518 14.5915 47.7265C13.5597 46.8554 12.6916 46.1816 11.8988 45.4312C11.4484 45.0038 11.1814 45.0723 10.767 45.4655C9.90547 46.2811 8.98987 47.0381 7.88592 48.0022C7.88592 46.4459 7.88592 45.1327 7.88592 43.8195C7.95471 43.3545 7.95799 42.888 7.89247 42.423C7.26351 41.6938 7.56325 40.8504 7.59601 40.0397C7.61566 39.8831 7.62877 39.7248 7.63696 39.5666C7.62549 39.3349 7.6992 39.1424 7.89247 39.0038C8.66229 38.7852 9.45013 38.9124 10.2281 38.8994C11.4713 38.8782 12.7145 38.888 13.9577 38.8977C14.3917 38.901 14.7897 38.9565 14.8012 39.5242C14.7865 39.6938 14.7046 39.8309 14.5899 39.9516C14.5211 40.7738 14.508 41.5992 14.5997 42.423Z" fill="#324A5E"/>
<path d="M2.31358 35.211C2.2972 34.9744 2.36926 34.7623 2.50357 34.5682C2.79348 34.3023 3.15546 34.3252 3.50925 34.3252C18.072 34.3219 32.6347 34.3219 47.1973 34.3317C47.5626 34.3317 48.0458 34.1702 48.1948 34.7428C48.1801 34.9043 48.167 35.0641 48.1523 35.2256C48.0278 35.5144 47.7886 35.609 47.4938 35.6172C47.3022 35.6237 47.1122 35.6253 46.9205 35.6253C32.4381 35.6253 17.9573 35.6286 3.47486 35.6123C3.07521 35.6139 2.51176 35.8733 2.31358 35.211Z" fill="#F0F2F6"/>
<path d="M14.5947 39.6253C14.539 39.3659 14.5308 39.113 14.1246 39.1196C12.056 39.1555 9.98563 39.1636 7.9153 39.1799C6.20368 39.3838 4.49042 39.3529 2.77717 39.193C2.7182 39.069 2.6576 38.9434 2.59863 38.8194C2.97208 38.4099 3.46837 38.5714 3.9106 38.5714C16.5193 38.5617 29.1263 38.5633 41.735 38.5633C43.5629 38.5633 45.3924 38.56 47.2203 38.5666C47.5971 38.5682 47.9934 38.5046 48.303 38.8129C48.3259 38.9581 48.3489 39.1016 48.3718 39.2468C48.5077 39.6171 48.3046 39.746 47.982 39.777C47.7658 39.7982 47.5463 39.7884 47.3284 39.7884C36.759 39.7884 26.1895 39.79 15.6201 39.7852C15.2745 39.7852 14.9092 39.8618 14.5947 39.6253Z" fill="#EFF1F6"/>
<path d="M2.47264 38.4899C2.29739 38.3055 2.30394 38.0673 2.28101 37.839C2.65936 37.4393 3.15401 37.5943 3.59789 37.5943C14.5948 37.5845 25.5934 37.5877 36.5904 37.5877C40.0841 37.5877 43.5761 37.5845 47.0698 37.5926C47.4416 37.5926 47.8462 37.5062 48.1492 37.8341C48.1705 38.0494 48.1918 38.2647 48.213 38.4801C47.9641 38.7215 47.648 38.6432 47.3564 38.6432C32.684 38.6481 18.0115 38.6481 3.3391 38.6448C3.04264 38.6448 2.73471 38.6889 2.47264 38.4899Z" fill="#EFF1F5"/>
<path d="M2.64771 34.2419C2.68046 33.9826 2.80167 33.7705 2.98839 33.591C3.27666 33.3822 3.61244 33.4279 3.93674 33.4279C18.4438 33.4263 32.9491 33.423 47.4561 33.4426C47.7821 33.4426 48.4323 33.1147 48.3603 33.9385C48.3472 34.0397 48.3357 34.1392 48.3226 34.2403C48.0409 34.4801 47.6985 34.4018 47.3792 34.4018C32.7821 34.4051 18.185 34.4067 3.58787 34.4018C3.27175 34.4002 2.92779 34.4899 2.64771 34.2419Z" fill="#EFF1F5"/>
<path d="M2.9541 25.0804C2.9672 24.8585 2.9672 24.6334 3.10807 24.4409C3.40125 24.1782 3.76323 24.2109 4.11538 24.2109C14.6832 24.2092 25.2494 24.2076 35.8172 24.2125C36.1399 24.2125 36.4757 24.1684 36.7656 24.3773C37.0162 24.6823 37.0211 24.9923 36.7819 25.3055C36.4838 25.5012 36.1464 25.4295 35.8254 25.4295C25.2084 25.4344 14.5915 25.436 3.97288 25.4197C3.62728 25.4197 3.131 25.6676 2.9541 25.0804Z" fill="#F0F2F6"/>
<path d="M48.1556 10.1015C48.2178 10.3723 48.2784 10.6431 48.3406 10.9139C48.0589 11.1504 47.7182 11.0737 47.3988 11.0737C36.7508 11.077 26.101 11.077 15.453 11.0754C15.1565 11.0754 14.8518 11.1259 14.5718 10.9726C14.3064 10.6757 14.3048 10.3657 14.5275 10.046C14.8027 9.8062 15.1418 9.86004 15.4628 9.86004C26.029 9.85514 36.5952 9.85514 47.1614 9.86004C47.5086 9.85677 47.8804 9.79478 48.1556 10.1015Z" fill="#F0F2F6"/>
<path d="M3.16868 20.5469C3.16049 20.436 3.15394 20.3234 3.14575 20.2125C3.39308 19.9189 3.73704 19.9711 4.05807 19.9711C14.6718 19.9662 25.2854 19.9662 35.8991 19.9711C36.1972 19.9711 36.5035 19.9417 36.7672 20.1375C37.0195 20.4425 37.0244 20.7557 36.8033 21.0771C36.5297 21.3235 36.1907 21.2696 35.868 21.2696C25.3411 21.2745 14.8126 21.2729 4.28574 21.2729C3.75178 21.2729 3.21127 21.2941 3.16868 20.5469Z" fill="#F0F2F6"/>
<path d="M3.31942 22.0053C3.31123 21.7345 3.3014 21.4637 3.29321 21.1929C3.51925 21.0493 3.77148 21.1129 4.01226 21.1129C14.7013 21.1097 25.392 21.1097 36.081 21.1113C36.2972 21.1113 36.5183 21.0852 36.7312 21.1586C37.0162 21.4441 37.013 21.7491 36.7902 22.0673C36.5118 22.3005 36.1711 22.2483 35.85 22.2483C25.3395 22.2532 14.8307 22.2532 4.32019 22.2483C3.96803 22.2483 3.59786 22.3038 3.31942 22.0053Z" fill="#F0F2F6"/>
<path d="M3.30298 23.1489C3.30789 22.8781 3.31444 22.6056 3.31936 22.3348C3.60272 22.0999 3.9434 22.1733 4.26443 22.1733C14.7995 22.1701 25.3346 22.1701 35.8713 22.1733C36.1677 22.1733 36.474 22.1228 36.7541 22.2777C37.0195 22.5763 37.0211 22.8862 36.7967 23.206C36.5215 23.4458 36.1808 23.3919 35.8598 23.3919C25.3395 23.3968 14.8192 23.3968 4.29719 23.3919C3.95159 23.3903 3.57651 23.4621 3.30298 23.1489Z" fill="#EFF1F5"/>
<path d="M48.036 6.0379C48.0212 6.19614 48.0065 6.35601 47.9918 6.51425C47.8689 6.803 47.6314 6.90251 47.3366 6.90903C47.145 6.91229 46.955 6.91719 46.7633 6.91719C36.3953 6.91719 26.029 6.91882 15.661 6.91393C15.2859 6.91393 14.8911 6.98897 14.5488 6.7459C14.2999 6.43921 14.2966 6.12436 14.5226 5.80462C14.7978 5.56318 15.1385 5.61539 15.4595 5.61539C25.988 5.61049 36.5165 5.60886 47.045 5.62028C47.4103 5.62191 47.8984 5.45552 48.036 6.0379Z" fill="#F0F2F6"/>
<path d="M3.01318 19.7296C2.99516 19.6235 2.97878 19.5191 2.96077 19.4131C2.94603 19.1472 3.13602 19.1064 3.33421 19.0868C3.6061 19.0591 3.87964 19.0722 4.15153 19.0722C14.6309 19.0722 25.1086 19.0705 35.588 19.0754C35.9647 19.0754 36.3529 19.0036 36.7182 19.1717C36.936 19.4164 36.936 19.6692 36.7509 19.9302C36.4496 20.1162 36.1138 20.0477 35.7928 20.0477C25.2348 20.051 14.6768 20.0526 4.11713 20.0444C3.73222 20.0428 3.27688 20.1945 3.01318 19.7296Z" fill="#F0F2F6"/>
<path d="M48.2015 5.23683C48.1851 5.33308 48.1703 5.42933 48.154 5.52721C47.8739 5.77028 47.5316 5.69034 47.2138 5.69034C36.6378 5.69523 26.0618 5.69523 15.4874 5.69197C15.1909 5.69197 14.8863 5.74091 14.6029 5.59409C14.3867 5.34776 14.3884 5.0949 14.5751 4.83389C14.8765 4.65281 15.2139 4.7197 15.5349 4.7197C26.0978 4.71644 36.6607 4.71317 47.2236 4.73275C47.5741 4.73275 48.2457 4.37549 48.2015 5.23683Z" fill="#F0F2F6"/>
<path d="M3.15552 24.126C3.15879 24.0689 3.16207 24.0118 3.16535 23.9547C3.18828 23.4865 3.43233 23.2744 3.90404 23.3103C4.0662 23.3218 4.23163 23.3103 4.39542 23.3103C14.8224 23.3103 25.2493 23.3103 35.6747 23.3136C36.0252 23.3136 36.3855 23.2467 36.7229 23.4115C36.9375 23.6578 36.9359 23.9107 36.7491 24.17C36.4478 24.3528 36.112 24.2842 35.7893 24.2842C25.2543 24.2875 14.7176 24.2875 4.18249 24.2842C3.83525 24.2875 3.46672 24.374 3.15552 24.126Z" fill="#F0F2F6"/>
<path d="M47.9951 9.12109C48.0098 9.27606 48.0262 9.43104 48.0409 9.58601C48.0573 9.85029 47.8722 9.89597 47.6724 9.91717C47.4005 9.94654 47.1286 9.93349 46.8551 9.93349C36.4756 9.93349 26.0961 9.93512 15.7167 9.93023C15.3399 9.93023 14.9518 10.0053 14.5898 9.82908C14.3769 9.58438 14.3769 9.32826 14.5472 9.06399C14.8224 8.81929 15.1631 8.87639 15.4841 8.87639C25.988 8.87149 36.4936 8.87149 46.9976 8.87639C47.3448 8.87802 47.7166 8.81603 47.9951 9.12109Z" fill="#EFF1F5"/>
<path d="M2.31367 35.2109C2.59703 35.4393 2.93444 35.3806 3.25711 35.3806C17.8755 35.3822 32.4955 35.3822 47.1139 35.3822C47.4677 35.3822 47.8264 35.4083 48.1523 35.2256C48.1736 35.6171 48.1818 36.0087 48.0475 36.3855C47.9984 36.3643 47.9492 36.3414 47.9001 36.3202C47.566 35.9157 47.1008 36.0397 46.6782 36.0397C34.7575 36.0348 22.8384 36.0364 10.9176 36.0348C8.3543 36.0348 5.78933 36.0348 3.22599 36.0348C2.846 36.0348 2.44962 36.087 2.18755 35.7101C2.1679 35.529 2.19411 35.3594 2.31367 35.2109Z" fill="#E6E9EE"/>
<path d="M48.1474 37.8325C32.8574 37.8342 17.5691 37.8358 2.27919 37.8391C2.24971 37.7281 2.22023 37.6156 2.19238 37.5046C2.40204 37.1931 2.72634 37.1588 3.06048 37.1441C3.52401 37.1229 3.98918 37.1278 4.45271 37.1278C18.2914 37.1278 32.1318 37.1294 45.9706 37.1196C46.5831 37.1196 47.2334 37.2567 47.7903 36.844C47.8574 36.7608 47.9426 36.7004 48.0442 36.6661C48.1785 37.0462 48.1686 37.4394 48.1474 37.8325Z" fill="#E5E8ED"/>
<path d="M2.6478 34.2419C17.8722 34.2403 33.0983 34.2403 48.3227 34.2386C48.3473 34.423 48.3047 34.591 48.1949 34.7427C47.8592 34.4801 47.4628 34.5698 47.0893 34.5698C32.2269 34.5665 17.3645 34.5665 2.50366 34.5682C2.55116 34.4605 2.6003 34.3512 2.6478 34.2419Z" fill="#E5E8ED"/>
<path d="M2.47266 38.4899C17.72 38.4867 32.9657 38.4834 48.2131 38.4785C48.2442 38.5894 48.2753 38.702 48.3048 38.8129C33.0689 38.8146 17.8347 38.8178 2.59878 38.8195C2.55619 38.7102 2.5136 38.5992 2.47266 38.4899Z" fill="#E5E8ED"/>
<path d="M2.15161 36.6889C2.15161 36.5812 2.15161 36.4719 2.15325 36.3643C2.49721 35.9238 2.99022 36.0396 3.44065 36.0396C17.0157 36.0364 30.5907 36.0364 44.1658 36.0364C45.1469 36.0364 46.128 36.0396 47.1091 36.0347C47.4449 36.0331 47.7659 36.0494 47.9968 36.3398L48.0476 36.3871C48.0476 36.4801 48.046 36.5731 48.046 36.6661L47.9952 36.7101C47.8085 36.9336 47.5644 37.0282 47.2762 37.0396C47.0305 37.0494 46.7864 37.0625 46.5407 37.0625C32.227 37.0657 17.9116 37.0674 3.59789 37.0576C3.09341 37.0592 2.54307 37.1604 2.15161 36.6889Z" fill="#E6E9EE"/>
<path d="M48.3604 33.9385C48.267 33.6563 48.0459 33.5894 47.7806 33.591C47.5349 33.5926 47.2892 33.5877 47.0435 33.5877C32.358 33.5894 17.6741 33.5894 2.98853 33.591C3.0393 33.3936 3.15395 33.2403 3.31447 33.1179C3.66335 33.3463 4.05645 33.2582 4.43153 33.2582C18.701 33.2631 32.9722 33.2615 47.2417 33.2631C47.6774 33.2631 48.1147 33.2745 48.5504 33.2794C48.5324 33.5127 48.5144 33.7444 48.3604 33.9385Z" fill="#E5E8ED"/>
<path d="M14.5931 6.67411C25.2985 6.67411 36.0055 6.67411 46.7109 6.67085C47.1434 6.67085 47.5872 6.7361 47.9934 6.51587C47.9902 7.32664 47.9869 8.13741 47.9836 8.94818C47.8018 8.95634 47.6986 8.84704 47.6134 8.70675C47.43 8.40332 47.1155 8.40332 46.819 8.37885C46.3834 8.34296 45.946 8.35601 45.5103 8.35601C35.7664 8.35438 26.0224 8.35927 16.2785 8.34785C15.7216 8.34785 15.1205 8.49141 14.6291 8.06563C14.5587 7.97265 14.5505 7.87477 14.6045 7.77036C14.9829 7.45062 15.4382 7.57623 15.8608 7.57623C25.5818 7.56808 35.3045 7.57134 45.0255 7.56971C45.566 7.56971 46.1164 7.61049 46.5946 7.32501C46.2507 7.1162 45.8887 7.21897 45.5464 7.21897C35.8041 7.21082 26.0618 7.21734 16.3194 7.20592C15.7593 7.20592 15.1647 7.3348 14.6553 6.95959C14.5751 6.87639 14.5538 6.78178 14.5931 6.67411Z" fill="#E5E8ED"/>
<path d="M14.5948 39.6253C25.4754 39.6253 36.3561 39.627 47.2368 39.6155C47.6364 39.6155 48.1425 39.8146 48.3735 39.2452C48.5405 39.5095 48.6142 39.8032 48.6503 40.1082C48.2441 39.888 47.8002 39.9516 47.3678 39.9516C36.4413 39.9483 25.5164 39.9483 14.5898 39.9483C14.5915 39.8423 14.5931 39.7346 14.5948 39.6253Z" fill="#E6E9EE"/>
<path d="M48.2015 5.23691C48.0115 4.74261 47.5758 4.88291 47.2187 4.88128C43.1305 4.87312 39.0406 4.87638 34.9524 4.87638C28.1649 4.87638 21.3774 4.87475 14.5898 4.87475C14.5112 4.77361 14.4981 4.66757 14.5767 4.55991C25.4476 4.55664 36.3201 4.55338 47.1909 4.54849C47.6233 4.54849 48.0672 4.617 48.4734 4.39514C48.3833 4.67573 48.2932 4.95632 48.2015 5.23691Z" fill="#E5E8ED"/>
<path d="M36.7051 19.2337C25.7982 19.2337 14.8897 19.232 3.98282 19.2353C3.63558 19.2353 3.26705 19.1619 2.96076 19.4131C2.83791 19.2647 2.81007 19.0917 2.81498 18.9074C14.11 18.9074 25.4067 18.9058 36.7018 18.9058C36.8017 19.0151 36.8017 19.1244 36.7051 19.2337Z" fill="#E5E8ED"/>
<path d="M2.95419 25.0803C3.28504 25.3544 3.68142 25.2647 4.05486 25.2663C14.9372 25.2696 25.8195 25.2696 36.7018 25.2679C36.8017 25.3772 36.8017 25.4865 36.7034 25.5975C25.4018 25.5958 14.1002 25.5926 2.79858 25.5909C2.79858 25.4033 2.82643 25.2271 2.95419 25.0803Z" fill="#E6E9EE"/>
<path d="M14.5931 10.9139C25.8423 10.9139 37.0915 10.9122 48.3407 10.9122C48.3849 11.0215 48.4291 11.1325 48.4717 11.2418C37.1783 11.2418 25.8849 11.2401 14.5915 11.2385C14.5145 11.1308 14.5145 11.0215 14.5931 10.9139Z" fill="#E6E9EE"/>
<path d="M3.01318 19.7296C3.36534 19.9286 3.75352 19.8862 4.13352 19.8862C14.9896 19.8862 25.8473 19.8862 36.7034 19.8862C36.8017 19.9955 36.8017 20.1048 36.7034 20.2141C25.5181 20.2141 14.3328 20.2141 3.14585 20.2125C3.10163 20.051 3.05741 19.8911 3.01318 19.7296Z" fill="#E5E8ED"/>
<path d="M36.7066 23.4752C25.9177 23.4752 15.1287 23.4735 4.33816 23.4735C3.88118 23.4735 3.38326 23.3805 3.16378 23.9548C3.13757 23.6742 3.18179 23.405 3.30136 23.1473C14.4343 23.1473 25.5672 23.1456 36.7001 23.1456C36.8016 23.2549 36.8016 23.3642 36.7066 23.4752Z" fill="#E5E8ED"/>
<path d="M14.5898 9.77362C25.3443 9.77362 36.0988 9.77362 46.8534 9.76872C47.253 9.76872 47.6789 9.87313 48.0392 9.58765C48.1539 9.74262 48.1719 9.91881 48.1555 10.1015C36.9669 10.0999 25.78 10.0983 14.5914 10.0966C14.5144 9.98895 14.5144 9.88129 14.5898 9.77362Z" fill="#E5E8ED"/>
<path d="M14.5914 5.53212C25.7784 5.53048 36.967 5.52885 48.1539 5.52722C48.1769 5.71156 48.1457 5.88448 48.036 6.03946C47.6757 5.75724 47.2498 5.86164 46.8501 5.86164C36.0972 5.85512 25.3443 5.85675 14.5914 5.85675C14.5144 5.74745 14.5144 5.63978 14.5914 5.53212Z" fill="#E6E8ED"/>
<path d="M3.15548 24.1261C14.3392 24.1261 25.5212 24.1261 36.7049 24.1261C36.8015 24.2354 36.8015 24.3447 36.7032 24.454C25.5048 24.4491 14.3064 24.4442 3.10962 24.4393C3.12436 24.3365 3.1391 24.2321 3.15548 24.1261Z" fill="#E8EAEF"/>
<path d="M36.7016 22.3349C25.5736 22.3349 14.4456 22.3349 3.31763 22.3349C3.31763 22.2256 3.31763 22.1163 3.31763 22.007C14.4456 22.007 25.5752 22.007 36.7032 22.007C36.8015 22.1163 36.8015 22.2256 36.7016 22.3349Z" fill="#E6E9EE"/>
<path d="M47.846 8.78344C47.8919 8.83727 47.9377 8.89274 47.9836 8.94657C47.9869 9.0053 47.9918 9.0624 47.9951 9.12113C36.8605 9.11949 25.726 9.11786 14.5914 9.11623C14.5046 8.9531 14.5161 8.80138 14.6471 8.66435C14.996 8.38376 15.4186 8.42128 15.8215 8.42128C26.0683 8.40986 36.3151 8.40986 46.5635 8.42128C47.0156 8.42292 47.5037 8.35929 47.846 8.78344Z" fill="#E5E8ED"/>
<path d="M50.434 29.5323C48.005 29.5176 45.5776 29.4899 43.1485 29.4883C31.5505 29.4834 19.9524 29.4866 8.35432 29.4866C7.86295 29.4866 7.37321 29.4899 6.88184 29.4915C6.89003 29.454 6.90477 29.4181 6.92278 29.3839C7.33226 29.3741 7.7401 29.3529 8.14794 29.3529C19.7444 29.3512 31.3392 29.3529 42.9356 29.3463C43.5334 29.3463 44.1296 29.2697 44.7258 29.2289C46.3179 29.4834 47.9198 29.2697 49.5167 29.3463C49.8296 29.3627 50.1785 29.2289 50.434 29.5323Z" fill="#7A96A6"/>
<path d="M36.7016 21.1929C25.5654 21.1929 14.4292 21.1929 3.29305 21.1929C3.16202 20.9939 3.15219 20.7736 3.17021 20.5469C3.37003 21.0738 3.82046 21.0297 4.26106 21.0297C9.60066 21.0265 14.9386 21.0281 20.2782 21.0281C25.7538 21.0281 31.2293 21.0281 36.7032 21.0265C36.7393 21.064 36.7507 21.1015 36.7376 21.1374C36.7245 21.1749 36.7131 21.1929 36.7016 21.1929Z" fill="#E5E8ED"/>
<path d="M2.1499 7.65282C2.15973 7.43259 2.16956 7.21399 2.18102 6.99376C2.30878 6.71643 2.543 6.60387 2.83291 6.60224C4.42169 6.59245 6.01047 6.56309 7.59761 6.61855C7.73519 6.62345 7.8564 6.68544 7.96286 6.77353C8.19872 7.08511 8.19708 7.3967 7.96941 7.70991C7.822 7.84694 7.63692 7.88283 7.44364 7.8861C5.90236 7.9073 4.36109 7.89915 2.81817 7.89099C2.56757 7.88773 2.33662 7.83389 2.1499 7.65282Z" fill="#F0F2F6"/>
<path d="M2.30221 6.48811C2.30057 6.2581 2.34644 6.04276 2.49057 5.85679C2.55609 5.80948 2.61505 5.73607 2.69531 5.72791C4.4446 5.56804 6.1939 5.47506 7.93991 5.77848C8.1856 6.08191 8.19051 6.38371 7.93991 6.6855C6.13821 6.83722 4.33323 6.72139 2.53152 6.74423C2.36609 6.74586 2.28911 6.65125 2.30221 6.48811Z" fill="#F0F1F5"/>
<path d="M3.08341 10.9367C2.8541 10.7002 2.69523 10.4277 2.63135 10.1015C2.77057 9.9008 2.98514 9.86491 3.20462 9.86328C4.63452 9.85023 6.06278 9.83881 7.49268 9.86818C7.65647 9.87144 7.81043 9.92038 7.94474 10.0232C8.19207 10.3298 8.19698 10.6382 7.95457 10.9481C6.3314 11.152 4.70658 11.1749 3.08341 10.9367Z" fill="#F0F2F6"/>
<path d="M2.18099 8.62836C2.1728 8.41139 2.16297 8.19443 2.15479 7.97583C2.28582 7.86979 2.43814 7.82085 2.60357 7.82085C4.27425 7.81107 5.94328 7.80291 7.61232 7.82575C7.72206 7.82738 7.82197 7.86653 7.91697 7.922C8.12171 8.1667 8.12335 8.42118 7.95464 8.68383C7.91205 8.71808 7.87111 8.77681 7.82524 8.78171C6.03173 8.95137 4.23494 8.88611 2.43978 8.8176C2.33987 8.81596 2.2547 8.70993 2.18099 8.62836Z" fill="#F0F2F6"/>
<path d="M2.48887 9.77193C2.34309 9.57943 2.29723 9.35757 2.29887 9.12266C2.43318 8.91874 2.63956 8.87796 2.86395 8.87633C4.40031 8.87306 5.93668 8.86817 7.47468 8.87959C7.64175 8.88122 7.7908 8.93669 7.92347 9.03783C8.12002 9.28742 8.12493 9.54191 7.94312 9.80129C6.90796 10.0851 5.85151 9.90896 4.80488 9.91712C4.0367 9.92527 3.24231 10.1047 2.48887 9.77193Z" fill="#F0F2F6"/>
<path d="M2.62646 5.52726C2.66577 5.27277 2.77552 5.05254 2.9606 4.87147C3.38482 4.62514 3.8549 4.7067 4.30369 4.72301C5.50756 4.7638 6.71798 4.58272 7.91529 4.82416C8.11839 5.06886 8.11839 5.32008 7.93167 5.57294C6.67211 5.83721 5.39618 5.65124 4.12843 5.68224C3.63051 5.69366 3.09818 5.84374 2.62646 5.52726Z" fill="#F0F2F6"/>
<path d="M7.89415 9.1194C6.0302 9.12104 4.16462 9.12267 2.30067 9.1243C2.18274 8.97911 2.16308 8.80945 2.1811 8.63C4.086 8.63 5.99089 8.63164 7.89415 8.63164C8.03501 8.79314 8.03501 8.95627 7.89415 9.1194Z" fill="#E9EBEF"/>
<path d="M7.89243 7.97747C5.97935 7.97747 4.0679 7.97747 2.15482 7.97747C2.15318 7.8698 2.15154 7.7605 2.1499 7.65283C4.06462 7.65283 5.97935 7.65283 7.89243 7.65283C7.9776 7.7605 7.9776 7.8698 7.89243 7.97747Z" fill="#E6E9EE"/>
<path d="M2.48901 9.77197C4.29072 9.77197 6.09243 9.77197 7.89249 9.77197C7.97603 9.88127 7.97603 9.98894 7.89086 10.0982C6.13665 10.0999 4.38408 10.0999 2.62987 10.1015C2.58401 9.9922 2.53651 9.88127 2.48901 9.77197Z" fill="#E7EAEE"/>
<path d="M2.6266 5.52722C4.38244 5.52885 6.13665 5.53048 7.89249 5.53212C7.97767 5.63978 7.97767 5.74908 7.89249 5.85675C6.09079 5.85675 4.29072 5.85675 2.48901 5.85675C2.53488 5.74582 2.58074 5.63652 2.6266 5.52722Z" fill="#E6E8ED"/>
<path d="M7.89409 4.87797C6.24963 4.87634 4.60516 4.87308 2.96069 4.87145C3.07207 4.70668 3.18345 4.54355 3.29647 4.37878C3.91068 4.71484 4.57568 4.51582 5.2161 4.54192C6.11204 4.57781 7.00962 4.55334 7.90719 4.5566C7.994 4.66753 7.97926 4.77357 7.89409 4.87797Z" fill="#E7EAEE"/>
<path d="M3.0835 10.9368C4.68538 10.9286 6.28889 10.9221 7.89077 10.9139C7.97595 11.0216 7.97595 11.1309 7.89241 11.2402C6.35933 11.2418 4.82624 11.2418 3.29479 11.2435C3.22436 11.1407 3.15393 11.0379 3.0835 10.9368Z" fill="#E6E9EE"/>
<path d="M2.30212 6.48816C2.58056 6.7247 2.91797 6.66924 3.239 6.67087C4.79011 6.67413 6.34121 6.6725 7.89232 6.6725C7.92835 6.72796 7.92999 6.7818 7.89068 6.83563C6.32975 6.83563 4.76718 6.83563 3.20625 6.83563C2.85573 6.83563 2.50358 6.81606 2.18091 6.99224C2.16126 6.81116 2.18582 6.63824 2.30212 6.48816Z" fill="#E5E8ED"/>
<path d="M48.973 21.3544C48.9829 21.5714 48.9943 21.79 49.0041 22.0069C48.8404 22.1684 48.6389 22.2402 48.4129 22.2418C46.8863 22.2549 45.3598 22.263 43.8333 22.2369C43.6678 22.2337 43.5106 22.1864 43.3779 22.0787C43.0962 21.2271 43.2469 20.971 44.1051 20.9547C45.4564 20.9302 46.8093 20.9417 48.1623 20.9515C48.4964 20.9531 48.8174 20.9922 48.973 21.3544Z" fill="#F0F2F6"/>
<path d="M48.6618 20.2141C48.8092 20.4017 48.8632 20.6154 48.8485 20.8503C48.8108 21.25 48.4931 21.0999 48.2916 21.1032C46.8584 21.1162 45.4236 21.1162 43.9905 21.108C43.2141 21.1032 43.1453 20.9906 43.3533 20.1668C43.5187 19.9987 43.7349 19.9792 43.9511 19.9759C45.2713 19.9612 46.5915 19.9661 47.91 19.9726C48.1868 19.9743 48.4472 20.0216 48.6618 20.2141Z" fill="#F0F2F6"/>
<path d="M48.5668 24.4687C48.5045 24.7737 48.3653 25.0396 48.1524 25.268C47.8101 25.5111 47.4153 25.4426 47.0419 25.4279C45.8233 25.3757 44.5948 25.5812 43.3828 25.3153C43.1584 25.0086 43.1633 24.7003 43.3729 24.3904C43.6285 24.1816 43.9364 24.2174 44.2329 24.2142C45.3778 24.2077 46.521 24.2044 47.6659 24.2158C47.9837 24.2174 48.3326 24.1506 48.5668 24.4687Z" fill="#F0F2F6"/>
<path d="M49.0058 22.3332C48.9976 22.5501 48.9877 22.7671 48.9796 22.9841C48.9058 23.0607 48.8207 23.1227 48.7257 23.1684C47.0927 23.3005 45.458 23.2108 43.8234 23.2157C43.658 23.2157 43.5007 23.1668 43.3746 23.0477C43.1993 22.7916 43.201 22.5403 43.3877 22.2924C44.5343 22.0314 45.6972 22.1961 46.8519 22.1863C47.5677 22.1782 48.308 22.0053 49.0058 22.3332Z" fill="#F0F2F6"/>
<path d="M48.873 23.4899C48.85 23.715 48.8746 23.9532 48.6863 24.131C48.5028 24.2778 48.285 24.2941 48.0655 24.286C46.516 24.2354 44.9616 24.4067 43.4154 24.1897C43.2009 23.9597 43.1943 23.7085 43.3434 23.4442C43.4777 23.2892 43.6611 23.2403 43.8544 23.2419C45.4497 23.2484 47.0451 23.162 48.6388 23.2892C48.7387 23.3333 48.8157 23.3985 48.873 23.4899Z" fill="#F0F2F6"/>
<path d="M43.4564 23.4849C43.4564 23.6954 43.4547 23.9058 43.4547 24.1163C43.5317 24.2321 43.5317 24.3495 43.4564 24.4654C43.4564 24.728 43.4564 24.9906 43.4564 25.2549C43.5334 25.374 43.5334 25.4915 43.4547 25.6105C43.3368 26.0282 43.6382 26.5061 43.268 26.8862C43.0534 26.5355 42.9109 26.1603 42.906 25.7443C42.8831 23.6138 42.8815 21.4849 42.9077 19.3544C42.9126 18.9955 42.9617 18.6529 43.2811 18.4164C43.422 18.5453 43.4433 18.7182 43.4597 18.8944C43.5432 18.9988 43.6185 19.1064 43.6595 19.2369C43.7365 19.4539 43.7365 19.6709 43.6578 19.8878C43.6169 20.0167 43.5399 20.1244 43.4547 20.2288C43.4138 20.6807 43.458 21.0396 44.064 21.033C45.4808 21.0167 46.8993 21.0265 48.3161 21.0265C48.5126 21.0265 48.6944 20.9808 48.8467 20.852C48.9712 20.9988 49.004 21.1701 48.9729 21.356C48.2162 21.0396 47.4234 21.2321 46.647 21.2011C45.8379 21.1684 45.0239 21.219 44.2147 21.1864C43.6021 21.1603 43.3614 21.405 43.4531 21.9972C43.5317 22.1146 43.5317 22.2321 43.4547 22.3511C43.4547 22.56 43.4547 22.7704 43.4547 22.9792C45.2483 23.1358 47.0434 23.1162 48.8369 22.9923C48.8844 22.9906 48.9303 22.989 48.9778 22.9874C49.0056 23.1701 49.0073 23.3463 48.8713 23.4947L48.7993 23.4735C47.0188 23.3561 45.2368 23.3218 43.4564 23.4849Z" fill="#E3E6EB"/>
<path d="M43.4531 19.8715C43.4531 19.6627 43.4531 19.4556 43.4531 19.2467C43.648 19.0542 43.9003 19.0755 44.1427 19.0738C45.2565 19.0689 46.3686 19.0706 47.4824 19.0722C47.7297 19.0722 47.9721 19.0885 48.1851 19.2337C48.3751 19.4115 48.493 19.6236 48.5192 19.8846C48.3505 20.0673 48.1228 20.0461 47.9083 20.0461C46.6274 20.051 45.3449 20.051 44.0641 20.0461C43.8446 20.0461 43.6235 20.0428 43.4531 19.8715Z" fill="#F0F2F6"/>
<path d="M43.4565 22.3479C43.4565 22.2304 43.4548 22.1129 43.4548 21.9955C45.3057 22.0004 47.1549 22.0036 49.0057 22.0085C49.0057 22.1178 49.0057 22.2255 49.0057 22.3348C47.1549 22.3381 45.3057 22.343 43.4565 22.3479Z" fill="#E6E9EE"/>
<path d="M43.4565 24.4653C43.4565 24.3495 43.4565 24.232 43.4548 24.1162C45.1992 24.1211 46.9436 24.1276 48.6863 24.1325C48.6454 24.2451 48.6061 24.356 48.5651 24.4686C46.8633 24.4669 45.1599 24.4669 43.4565 24.4653Z" fill="#E7E9EE"/>
<path d="M43.4531 19.8716C45.1418 19.8765 46.8305 19.8797 48.5192 19.8846C48.6453 19.9613 48.6732 20.0788 48.6617 20.2142C46.9255 20.2191 45.1893 20.2239 43.4531 20.2272C43.4531 20.1081 43.4531 19.989 43.4531 19.8716Z" fill="#E5E8ED"/>
<path d="M48.1851 19.2337C46.6078 19.2386 45.0305 19.2419 43.4548 19.2468C43.4565 19.1293 43.4565 19.0119 43.4581 18.8944C44.6685 18.8993 45.8789 18.9042 47.0894 18.9058C47.358 18.9058 47.6315 18.927 47.8592 18.7378C48.0361 18.8585 48.1458 19.0216 48.1851 19.2337Z" fill="#E7E9EE"/>
<path d="M43.4531 25.6089C43.4531 25.4915 43.4548 25.3724 43.4548 25.2533C45.0206 25.2566 46.5848 25.2615 48.1507 25.2663C48.072 25.3822 47.9918 25.4964 47.9132 25.6122C46.4276 25.6122 44.9404 25.6106 43.4531 25.6089Z" fill="#E6E9EE"/>
<path d="M7.89087 6.83555C7.89087 6.78172 7.89251 6.72626 7.89251 6.67242C7.89251 6.39999 7.89251 6.12756 7.89251 5.85676C7.89251 5.74909 7.89251 5.63979 7.89251 5.53212C7.89251 5.31352 7.89251 5.09656 7.89251 4.87796C7.89742 4.77029 7.9007 4.66425 7.90561 4.55659C8.25121 4.3282 8.64103 4.42771 9.01284 4.42608C10.5803 4.41466 12.1478 4.41955 13.7169 4.42445C14.0085 4.42608 14.3164 4.36246 14.5785 4.56311C14.5834 4.66752 14.5867 4.77355 14.5916 4.87796C14.5916 5.09656 14.5916 5.31515 14.5932 5.53375C14.5932 5.64142 14.5932 5.74909 14.5932 5.85676C14.5932 6.12919 14.5932 6.40162 14.5932 6.67568C14.5949 6.72952 14.5949 6.78335 14.5965 6.83719C14.8258 7.05089 14.9339 7.29396 14.7734 7.59739C14.7193 7.67569 14.6587 7.74747 14.5932 7.81598C14.5932 7.86982 14.5932 7.92365 14.5949 7.97749C14.8438 8.24992 14.8471 8.52235 14.5965 8.79478C14.5949 8.90245 14.5932 9.01012 14.5916 9.11778C14.5916 9.33638 14.5916 9.55661 14.5916 9.77521C14.5916 9.88288 14.5932 9.99055 14.5932 10.0982C14.5932 10.3706 14.5949 10.6431 14.5949 10.9155C14.5949 11.0232 14.5932 11.1308 14.5932 11.2401C14.4671 11.754 14.662 12.3005 14.4327 12.8911C13.7022 12.3152 13.0175 11.7736 12.3313 11.2336C11.6777 10.8339 11.0275 10.8747 10.3821 11.2532C9.62215 11.8943 8.86379 12.5354 8.0432 13.2287C7.82371 12.5191 8.01863 11.8649 7.89578 11.2418C7.89578 11.1325 7.89415 11.0248 7.89415 10.9155C7.89415 10.6431 7.89415 10.3723 7.89415 10.0998C7.89415 9.99055 7.89415 9.88288 7.89578 9.77358C7.89578 9.55498 7.89578 9.33802 7.89578 9.11942C7.89578 8.95628 7.89578 8.79315 7.89578 8.63165C7.89578 8.41468 7.89415 8.19608 7.89415 7.97912C7.89415 7.86982 7.89578 7.76215 7.89578 7.65285C7.89251 7.38042 7.89251 7.10799 7.89087 6.83555Z" fill="#FE7058"/>
<path d="M43.278 18.4164C43.2747 21.2403 43.2698 24.0625 43.2665 26.8863C42.7162 26.4589 42.1642 26.0298 41.6139 25.6024C41.5598 25.5355 41.4615 25.5437 41.4058 25.5013C40.5099 24.8275 39.6434 25.0347 38.7835 25.5731C38.0727 25.9972 37.6026 26.7264 36.7738 27.1669C36.7476 26.591 36.7263 26.0935 36.7034 25.5975C36.7034 25.4882 36.7017 25.3789 36.7017 25.268C36.7017 24.9972 36.7017 24.7264 36.7034 24.4556C36.7034 24.3463 36.705 24.237 36.705 24.1277C36.705 23.9107 36.7067 23.6938 36.7067 23.4768C36.705 23.3675 36.7034 23.2582 36.7017 23.1489C36.7017 22.8781 36.7017 22.6073 36.7034 22.3365C36.7034 22.2272 36.705 22.1179 36.705 22.0086C36.7034 21.7378 36.7034 21.467 36.7017 21.1962C36.7017 21.1407 36.7034 21.0853 36.7034 21.0298C36.7034 20.759 36.7034 20.4882 36.7034 20.2174C36.7034 20.1081 36.7034 19.9988 36.7034 19.8895C36.7034 19.6725 36.705 19.4556 36.705 19.2386C36.7034 19.1293 36.7034 19.02 36.7017 18.9107C36.6952 18.3887 37.0572 18.4115 37.4241 18.4132C39.3765 18.4148 41.3272 18.4148 43.278 18.4164Z" fill="#4CDAC3"/>
<path d="M38.7852 25.5731C40.4051 24.0347 39.9071 24.1049 41.6138 25.6024C40.6704 25.5926 39.727 25.5829 38.7852 25.5731Z" fill="#E9F0F4"/>
<path d="M10.3804 11.2516C10.3951 11.2288 10.4066 11.2043 10.4246 11.1864C11.3697 10.2777 11.3697 10.2777 12.3295 11.2321C11.6792 11.2386 11.0306 11.2451 10.3804 11.2516Z" fill="#EAE7EB"/>
<path d="M2.15161 36.689C17.0239 36.689 31.8961 36.689 46.7668 36.6906C47.1762 36.6906 47.5857 36.7036 47.9936 36.7118C48.1344 37.5128 47.6185 37.5095 47.0518 37.5095C38.7574 37.503 30.4613 37.5046 22.1669 37.5046C15.5088 37.5046 8.85068 37.5046 2.19256 37.5046C2.17946 37.2322 2.16635 36.9598 2.15161 36.689Z" fill="#F0F2F6"/>
<path d="M47.9967 36.3398C47.5872 36.348 47.1777 36.361 46.7699 36.361C31.8976 36.3627 17.0253 36.3627 2.15308 36.3627C2.16454 36.1457 2.17601 35.9287 2.18747 35.7101C17.1154 35.7101 32.045 35.7069 46.973 35.7167C47.407 35.7183 48.0524 35.4899 47.9967 36.3398Z" fill="#F0F2F6"/>
<path d="M7.8923 39.9516C7.96109 40.7754 7.96273 41.5976 7.8923 42.4215C5.93663 42.3676 4.36914 41.583 3.2439 39.9679C3.26191 39.9467 3.27665 39.9125 3.29631 39.9076C4.83267 39.5976 6.36576 39.5389 7.8923 39.9516Z" fill="#F0F2F6"/>
<path d="M2.7771 39.193C2.96218 39.0038 3.19804 38.9728 3.44701 38.9744C4.71148 38.9744 5.97758 38.9744 7.24205 38.9744C7.48774 38.9744 7.72688 38.9956 7.91524 39.1816C7.90705 39.3301 7.89886 39.4785 7.89231 39.627C7.663 39.8211 7.38292 39.8015 7.11757 39.7852C5.74828 39.7053 4.36588 39.9793 3.00968 39.6253C2.93106 39.4801 2.85408 39.3366 2.7771 39.193Z" fill="#F0F2F6"/>
<path d="M3.00806 39.6237C4.63614 39.6237 6.26423 39.6253 7.89232 39.6253C7.89232 39.7346 7.89396 39.8423 7.89396 39.9516C6.34449 39.9564 4.79502 39.963 3.24555 39.9679C3.1653 39.8537 3.08668 39.7379 3.00806 39.6237Z" fill="#E6E9EE"/>
<path d="M14.5916 7.65287C14.5932 7.38044 14.5932 7.10801 14.5948 6.83558C25.3346 6.83558 36.0761 6.83721 46.8159 6.83395C47.381 6.83395 47.9772 6.76217 47.833 7.63656C47.6135 7.80133 47.358 7.72792 47.1205 7.72792C36.5167 7.73118 25.9145 7.73118 15.3106 7.72792C15.0715 7.72955 14.8192 7.78991 14.5916 7.65287Z" fill="#F0F2F6"/>
<path d="M14.5947 8.79315C14.5947 8.52072 14.593 8.24829 14.593 7.97585C25.3361 7.97585 36.0792 7.97749 46.8206 7.97422C47.3972 7.97422 47.9704 7.92691 47.846 8.78336C36.7622 8.78663 25.6784 8.78989 14.5947 8.79315Z" fill="#EFF1F5"/>
<path d="M14.5916 7.65287C25.672 7.64797 36.7525 7.64308 47.833 7.63818C47.5022 7.92204 47.1025 7.80947 46.7323 7.80947C36.0204 7.816 25.3052 7.81437 14.5916 7.81437C14.5916 7.76053 14.5916 7.7067 14.5916 7.65287Z" fill="#E6E9EE"/>
<path d="M48.8387 22.9874C47.8068 23.3397 46.7422 23.113 45.6939 23.1309C44.952 23.144 44.1789 23.33 43.4565 22.976C45.2501 22.9792 47.0436 22.9841 48.8387 22.9874Z" fill="#E8EBF0"/>
<path d="M43.4565 23.485C43.676 23.2713 43.9577 23.3006 44.2215 23.3153C45.7463 23.4002 47.2844 23.1212 48.7994 23.4687C47.019 23.4736 45.2386 23.4801 43.4565 23.485Z" fill="#E8EBF0"/>
</g>
<defs>
<clipPath id="clip0_360_2041">
<rect width="49.8679" height="47.3494" fill="white" transform="translate(0.652832 0.652832)"/>
</clipPath>
</defs>
</svg>
