<svg width="33" height="70" viewBox="0 0 33 70" fill="none" xmlns="http://www.w3.org/2000/svg">
<g clip-path="url(#clip0_360_2154)">
<path d="M19.4486 0.083374C19.9433 0.258952 20.472 0.272512 20.9783 0.40027C24.4979 1.28672 27.2747 3.25805 29.4665 6.08156C30.681 7.64606 31.6136 9.35116 31.9555 11.3196C32.3045 13.3309 31.954 15.198 30.702 16.8596C30.6241 16.9631 30.5289 17.0544 30.4416 17.1515C30.1935 17.2529 30.0262 17.0901 29.8639 16.9602C29.5372 16.6976 29.2371 16.4057 29.0244 16.0381C28.9508 15.9118 28.8686 15.7854 28.6876 15.839C28.3861 15.9282 28.0738 15.926 27.7637 15.9496C26.596 15.6291 25.7572 14.874 25.0396 13.9511C24.3804 13.1047 23.7962 12.2039 23.0908 11.391C22.6479 10.88 22.1272 10.5017 21.4745 10.3133C20.3631 9.9928 19.2279 9.98995 18.0847 10.062C17.0072 10.1298 15.9232 10.2141 14.9026 9.73015C14.6596 9.57813 14.3934 9.45608 14.1944 9.2441C14.0177 9.05639 13.9239 9.12776 13.8309 9.32261C13.5128 9.99209 13.1219 10.6202 12.6625 11.2019C11.6152 12.5273 10.3423 13.5993 8.8832 14.46C7.50276 15.2751 6.01342 15.8383 4.49666 16.3407C4.36107 16.3857 4.22043 16.4392 4.07474 16.4185C3.96656 16.4028 4.04228 16.4927 4.00334 16.5113C3.71268 16.6733 3.38596 16.5541 3.08449 16.6298C2.84648 16.5977 2.60991 16.6341 2.37768 16.6697C2.09207 16.714 1.85839 16.8403 1.81223 17.1644C1.7603 17.2671 1.68746 17.3285 1.5634 17.2836C1.32179 16.709 1.11552 16.1252 1.05854 15.4992C1.091 14.9575 0.943144 14.4258 0.976321 13.8812C0.988582 13.6864 1.06359 13.4865 0.987139 13.2881C1.01022 12.6514 1.13427 12.0341 1.34126 11.4317C1.62904 10.78 1.93268 10.1377 2.31926 9.53387C2.90634 8.61816 3.57781 7.76596 4.32429 6.97801C5.74007 5.48274 7.26548 4.11024 9.0664 3.07248C9.77248 2.66565 10.5125 2.32591 11.2755 2.034C11.4717 1.95906 11.6794 2.00759 11.8742 1.94764C12.4663 1.9248 13.0411 2.01544 13.5921 2.22742C13.8626 2.33162 14.071 2.33305 14.1929 2.03114C14.2023 1.95335 14.2412 1.89696 14.3155 1.86556C15.0901 0.927003 16.0934 0.385996 17.2928 0.18401C17.3671 0.171163 17.4688 0.192575 17.4998 0.083374C17.7162 0.083374 17.9325 0.083374 18.1489 0.083374C18.4374 0.144041 18.7259 0.144041 19.0144 0.083374C19.1601 0.083374 19.3043 0.083374 19.4486 0.083374Z" fill="#8A542D"/>
<path d="M19.0159 0.083374C18.7274 0.197571 18.4389 0.196143 18.1504 0.083374C18.4389 0.083374 18.7274 0.083374 19.0159 0.083374Z" fill="#96623D"/>
<path d="M23.5624 48.2523C23.5732 48.4057 23.4758 48.4471 23.346 48.4707C23.0792 48.5192 22.8145 48.5777 22.5491 48.632C22.5152 48.6598 22.482 48.6876 22.4488 48.7162C21.7954 48.9303 21.1116 48.991 20.4351 49.0738C19.3641 49.2051 18.2887 49.2658 17.2091 49.31C14.7734 49.4106 12.3753 49.1444 9.98373 48.7447C9.80631 48.7147 9.63249 48.6676 9.4594 48.6184C9.42045 48.5977 9.38439 48.5727 9.35121 48.5442C9.17162 48.4435 8.96607 48.4414 8.77134 48.4014C8.22176 48.2879 8.22104 48.2915 8.19724 47.7576C8.01765 47.4928 8.11862 47.2002 8.11069 46.9183C8.11502 46.8776 8.12367 46.8384 8.13449 46.7991C8.18786 46.5828 8.17055 46.363 8.16262 46.1432C8.16911 45.8027 8.13593 45.4616 8.19147 45.1225C8.29028 44.675 8.19075 44.2183 8.25133 43.7693C8.33283 43.1576 8.3761 42.5438 8.39486 41.9272C8.48934 41.2113 8.51314 40.489 8.59608 39.771C8.78576 38.1187 9.06849 36.4864 9.60076 34.9041C9.91017 34.0554 10.2996 33.2496 10.868 32.5723C10.1402 33.0933 9.57047 33.7892 9.12114 34.5893C9.04469 34.7249 8.9603 34.857 9.00646 35.024C8.69561 35.2902 8.28306 35.3095 7.92317 35.4579C7.13702 35.782 6.33862 36.0724 5.66499 36.6142C5.39092 36.8347 5.15868 37.0867 4.9726 37.3786C4.73459 37.7526 4.69565 38.1473 4.85071 38.5705C5.10675 39.2721 5.63974 39.7532 6.18283 40.2199C6.68048 40.6482 7.21924 41.0265 7.78397 41.3655C7.92605 41.4511 8.07823 41.5332 8.12006 41.7166C8.04289 42.5574 7.77099 43.3653 7.68155 44.2047C7.66929 44.3203 7.60078 44.3724 7.48033 44.3217C6.36458 43.3297 4.99929 42.6702 3.86911 41.6938C3.30078 41.2027 2.71514 40.7303 2.29105 40.1015C2.13238 39.8666 1.95568 39.6382 1.9189 39.3435C1.83091 38.8746 1.97299 38.447 2.20451 38.0552C2.98705 36.7312 4.14318 35.782 5.43131 34.9733C6.93147 34.0312 8.52107 33.2604 10.1431 32.5509C10.9314 32.3561 11.5856 31.9464 12.1936 31.4125C12.666 30.9978 13.2531 30.7337 13.8892 30.6174C13.9628 30.6303 14.0284 30.6581 14.071 30.7216C14.4943 31.3526 15.1463 31.5738 15.8539 31.6623C16.5953 31.7551 17.3129 31.6116 18.0031 31.3426C18.4063 31.1855 18.6905 30.8772 18.9501 30.5468C19.9858 30.8058 20.8816 31.2819 21.4997 32.1769C21.6028 32.3268 21.7211 32.3982 21.8992 32.431C22.1675 32.4795 22.4293 32.563 22.694 32.6316C25.1469 33.4474 27.4102 34.62 29.4794 36.1581C29.7542 36.3629 29.9222 36.652 30.135 36.9061C30.7149 37.9167 30.5757 38.9367 30.1588 39.9509C29.8061 40.8081 29.2868 41.5546 28.5815 42.172C27.7737 42.8793 26.9746 43.5966 26.2613 44.401C26.1935 44.4773 26.1379 44.5872 26.0002 44.543C25.6475 44.5016 25.3958 44.2825 25.1484 44.0612C24.9349 43.8707 24.7495 43.6508 24.5245 43.4717C24.4344 43.3925 24.3644 43.2954 24.28 43.2105C24.2223 43.1498 24.1747 43.0806 24.1242 43.0142C23.967 42.8093 24.0074 42.6495 24.2187 42.5067C24.6753 42.1984 25.1506 41.9193 25.5992 41.5989C26.3038 41.095 26.9738 40.5561 27.4643 39.8352C28.3016 38.6041 27.9244 37.2758 26.9046 36.4257C26.0074 35.6778 24.9356 35.2517 23.8466 34.8641C23.6453 34.7927 23.4261 34.762 23.2559 34.6172C22.989 33.9577 22.5707 33.4052 22.0031 32.9006C22.2512 33.4238 22.3861 33.9405 22.5707 34.4409C22.9414 35.8583 23.1347 37.3043 23.3064 38.7539C23.4585 40.0372 23.5574 41.3248 23.6518 42.6131C23.6691 42.85 23.667 43.087 23.6619 43.3247C23.6641 43.3903 23.6713 43.456 23.6634 43.5224C23.7607 44.4431 23.7333 45.3674 23.7499 46.2902C23.76 46.8498 23.6713 47.4015 23.6655 47.9582C23.6648 48.066 23.6432 48.1702 23.5624 48.2523Z" fill="#9BBE49"/>
<path d="M1.56337 17.2835C1.63982 17.24 1.71627 17.1958 1.792 17.1522C1.94129 16.9117 2.20454 16.9024 2.44111 16.856C2.63945 16.8168 2.83418 16.7839 3.00511 16.6697C3.24601 16.5819 3.48401 16.6683 3.71769 16.6983C5.51645 16.9252 7.23298 16.5591 8.91923 15.9938C10.0249 15.6227 11.1082 15.1916 12.0826 14.5414C13.3159 13.7192 14.3386 12.6943 15.0656 11.3996C15.2913 10.9977 15.3822 10.9613 15.8445 11.0106C16.6602 11.0969 17.4752 11.0741 18.2873 10.9549C20.0854 10.6908 21.636 11.149 22.9104 12.4666C23.3432 12.9141 23.7658 13.3644 24.1293 13.8712C24.9046 14.9554 26.0161 15.5313 27.2826 15.8596C27.4881 15.9132 27.7182 15.9075 27.8689 16.0952C28.0197 16.4085 27.9937 16.7425 27.9901 17.0737C28.0463 18.1079 27.9338 19.1257 27.6857 20.1292C27.6381 20.3233 27.6013 20.5232 27.4852 20.693C27.258 20.8229 27.1643 20.678 27.0806 20.4946C27.051 20.5182 27.0683 20.5546 27.0792 20.566C27.3251 20.8322 27.2443 21.1298 27.1693 21.4282C26.9919 22.164 26.6342 22.8249 26.2649 23.4737C25.5264 24.7734 24.5368 25.8569 23.3006 26.7162C21.9231 27.674 20.3825 28.2372 18.7432 28.5541C18.239 28.6511 17.7262 28.7025 17.2177 28.7753C16.7922 28.9652 16.3378 28.9552 15.8871 28.9495C15.6534 28.9466 15.4363 28.9694 15.2596 29.1386C15.2041 28.9116 15.0685 28.8474 14.8261 28.846C12.3581 28.8303 10.0696 28.1879 7.99966 26.8482C6.97839 26.1866 6.12517 25.3416 5.39384 24.3716C4.45479 23.1261 3.85545 21.7265 3.46526 20.2334C3.40107 19.9872 3.34409 19.9172 3.06065 19.9736C1.89009 20.2077 0.989987 19.4062 1.05562 18.2364C1.07726 17.8345 1.32897 17.5669 1.56337 17.2835Z" fill="#FEC699"/>
<path d="M22.4784 48.6413C22.5008 48.6327 22.5246 48.6299 22.5484 48.632C22.5931 53.4254 23.1268 58.1646 24.1344 62.8531C24.1921 63.12 24.2455 63.3898 24.3291 63.6489C24.3976 63.8609 24.3169 63.9458 24.1301 64.0179C23.5992 64.222 23.0338 64.267 22.4857 64.3926C21.8712 64.5596 21.261 64.5996 20.6595 64.3384C20.3205 64.2884 19.9736 64.2727 19.657 64.1207C19.5726 64.0093 19.5567 63.8816 19.574 63.7488C19.7522 62.3742 19.569 61.0359 19.1514 59.7234C19.124 59.6377 19.1673 59.5285 19.0677 59.4665C18.41 56.4981 17.8373 54.8265 17.921 52.9508C17.5964 53.0293 17.2827 53.1207 16.9624 53.1799C15.9015 53.3762 14.8391 53.317 13.7789 53.1699C13.6953 53.1585 13.6152 53.1357 13.533 53.1714C13.37 53.2085 13.2286 53.1285 13.0822 53.085C12.7014 52.9715 12.6776 52.9886 12.6177 53.3619C12.5651 53.6909 12.5557 54.0207 12.5543 54.3526C12.5492 55.3218 12.5456 56.2904 12.656 57.256C12.498 59.0646 12.4086 60.8768 12.3992 62.6918C12.3985 62.8667 12.3285 62.9395 12.1713 62.9958C11.7962 63.1315 11.3996 63.1593 11.0166 63.2528C10.4172 63.4541 9.84098 63.3748 9.28059 63.1093C8.06314 62.8024 8.04655 62.791 8.12733 61.5869C8.167 60.9967 8.21027 60.4043 8.34515 59.8247C8.59902 58.899 8.89905 57.9855 8.98704 57.0198C9.04979 56.331 9.03753 55.6437 9.00796 54.9571C8.9993 54.7458 9.08946 54.5332 8.99714 54.3255C8.99426 52.8787 9.10677 51.4377 9.23298 49.9981C9.27482 49.5142 9.31088 49.0303 9.34982 48.5464C9.37507 48.5478 9.40103 48.5492 9.42627 48.5507C10.7368 49.6648 12.3408 49.8282 13.9679 49.9539C14.855 50.0224 15.7421 50.0417 16.6264 50.0053C17.8928 49.9539 19.1687 49.9574 20.4114 49.6427C21.1723 49.45 21.9224 49.2423 22.4784 48.6413Z" fill="#FD8C00"/>
<path d="M22.9069 67.1005C22.925 67.2711 23.0483 67.366 23.1781 67.446C23.5113 67.6522 23.7861 67.9142 23.9895 68.2475C23.9145 68.4552 23.7313 68.5579 23.5546 68.6536C21.8438 69.5771 20.0638 69.7677 18.216 69.1132C17.9182 69.0076 17.5979 68.9077 17.4263 68.5993C17.7443 67.76 18.4389 67.3196 19.207 66.9613C19.357 66.8914 19.5272 66.8635 19.6542 66.7458C20.5427 66.4353 21.414 66.5723 22.2766 66.8536C22.4915 66.9221 22.6999 67.0099 22.9069 67.1005Z" fill="#DBE7E5"/>
<path d="M8.48295 65.6701C8.55291 65.4246 8.7188 65.2055 8.6986 64.935C8.6885 64.7937 8.79452 64.788 8.8854 64.7744C9.01522 64.7551 9.14721 64.7487 9.27847 64.7366C9.81002 64.576 10.3423 64.5717 10.8746 64.7344C11.3592 64.693 11.5605 64.9892 11.673 65.3918C11.678 65.5224 11.5648 65.526 11.484 65.5617C10.9373 65.8008 10.8241 66.0134 10.9337 66.6008C10.9575 66.78 11.1162 66.9349 11.0311 67.1333C10.3401 67.7107 9.50782 67.9676 8.64162 68.1068C8.00694 68.2089 7.35855 68.2745 6.71665 68.1168C6.64308 68.0961 6.57673 68.0611 6.51831 68.0119C6.34305 67.7928 6.15048 67.5887 5.95359 67.3881C5.86559 67.2982 5.71486 67.2125 5.82881 67.0434C5.94421 67.0377 6.06033 67.0319 6.17573 67.0255C6.83854 66.9613 7.44149 66.7465 7.96366 66.3275C8.18725 66.1476 8.37837 65.9428 8.48295 65.6701Z" fill="#B70000"/>
<path d="M11.8757 1.94762C9.96583 2.51717 8.31132 3.52996 6.79024 4.78612C5.48841 5.86171 4.29982 7.04436 3.25908 8.36833C2.61935 9.18198 2.04164 10.0392 1.63053 10.9963C1.56274 11.154 1.52379 11.3432 1.34204 11.4324C1.54471 10.4688 1.9486 9.58096 2.42245 8.72734C3.91396 6.04086 5.95145 3.90038 8.80537 2.60853C9.77398 2.16887 10.7953 1.90765 11.8757 1.94762Z" fill="#A2704D"/>
<path d="M6.6626 68.0383C8.23777 68.2517 9.69322 67.9263 11.0369 67.0919C11.3362 67.1833 11.5461 67.4873 11.9009 67.4466C12.0163 67.4552 12.113 67.493 12.157 67.6101C12.157 67.8171 12.1562 68.0233 12.1562 68.2303C10.5573 68.65 8.93665 68.9455 7.28791 69.0882C6.94965 68.8134 6.75203 68.4573 6.6626 68.0383Z" fill="#980002"/>
<path d="M5.82816 67.0427C5.77912 67.2476 5.98755 67.2733 6.07626 67.3789C6.23349 67.5673 6.4239 67.7286 6.54651 67.9456C6.57968 68.1126 6.45347 68.189 6.3424 68.2446C5.0824 68.8734 3.80366 69.084 2.4939 68.3817C2.79249 67.9941 3.20648 67.77 3.65148 67.5952C4.35252 67.3189 5.09539 67.2012 5.82816 67.0427Z" fill="#DBE7E5"/>
<path d="M10.1426 32.5516C9.86496 32.7843 9.52093 32.8992 9.20214 33.0562C7.71135 33.7878 6.21047 34.5044 4.85166 35.4651C3.84554 36.1767 2.93534 36.9889 2.29922 38.0638C2.06337 38.4627 1.98908 38.901 1.9184 39.3442C1.5787 38.5677 1.891 37.9053 2.31725 37.283C3.0255 36.2502 4.01503 35.5143 5.05866 34.8498C6.57974 33.882 8.21622 33.1519 9.93203 32.5916C9.99911 32.5695 10.0719 32.5645 10.1426 32.5516Z" fill="#BBCF6B"/>
<path d="M18.9496 30.5468C18.9128 30.9151 18.6185 31.0835 18.3524 31.2505C17.3499 31.8793 15.4992 32.0114 14.4931 31.2898C14.237 31.1064 14.0481 30.8794 13.8887 30.6189C14.3568 30.4533 14.845 30.3862 15.334 30.3248C15.5432 30.3826 15.4927 30.5611 15.5071 30.7031C15.5468 31.0899 15.6449 31.2013 16.0358 31.2355C16.2976 31.2584 16.5623 31.2705 16.8219 31.207C17.1782 31.1199 17.272 31.0107 17.2698 30.6424C17.2684 30.3819 17.3592 30.2585 17.634 30.3248C18.0783 30.3655 18.5276 30.3776 18.9496 30.5468Z" fill="#87AA52"/>
<path d="M17.6339 30.3242C17.3879 30.3035 17.3006 30.4334 17.3706 30.6439C17.4896 31.0001 17.2776 31.1457 17.0042 31.2527C16.6378 31.3962 16.2549 31.3855 15.8762 31.3198C15.556 31.2642 15.3677 31.0893 15.4016 30.731C15.4146 30.5975 15.442 30.4448 15.3331 30.3249C15.3786 29.9709 15.2913 29.6233 15.2776 29.2721C15.4132 29.1672 15.5502 29.2372 15.6844 29.2728C15.9945 29.3549 16.3053 29.427 16.6256 29.4591C16.8802 29.4848 17.0937 29.437 17.222 29.1943C17.3367 29.4056 17.2812 29.6354 17.2805 29.8545C17.2819 30.1136 17.3641 30.2792 17.6339 30.3242Z" fill="#FEC699"/>
<path d="M8.27019 45.1218C8.26658 45.4787 8.26297 45.8348 8.25937 46.1917C8.24422 46.3794 8.15984 46.4872 7.95212 46.4986C7.63911 46.515 7.36792 46.6621 7.09313 46.7955C7.34412 46.7755 7.58718 46.7184 7.83456 46.6963C7.96799 46.6842 8.15335 46.5978 8.20023 46.8348V46.8341C8.10863 47.1424 8.01776 47.4514 7.99179 47.7741C7.5778 47.889 7.15949 47.9753 6.72747 47.9746C6.58899 47.9746 6.41517 48.021 6.34521 47.8554C6.27958 47.6998 6.2803 47.5221 6.39354 47.3822C6.53778 47.2038 6.67698 47.0832 6.44835 46.8234C6.29256 46.6464 6.49235 46.4287 6.708 46.3337C7.01452 46.1989 7.33186 46.0911 7.66651 46.049C7.9175 46.0169 8.03362 45.949 7.90741 45.6628C7.72998 45.2574 7.6932 44.8178 7.69681 44.3767C7.69536 44.2846 7.74946 44.2475 7.83456 44.2411C8.1584 44.4466 8.23557 44.7735 8.27019 45.1218Z" fill="#FDC699"/>
<path d="M12.6568 57.2546C12.4887 56.9669 12.4801 56.6308 12.4707 56.326C12.4383 55.2476 12.3971 54.1663 12.5306 53.0907C12.5529 52.9101 12.6251 52.7981 12.8393 52.8958C13.0657 52.9993 13.3304 53.01 13.5338 53.1706C13.1054 54.5039 12.8335 55.8692 12.6568 57.2546Z" fill="#D36701"/>
<path d="M2.4931 68.3824C2.5746 68.3481 2.64817 68.3538 2.73111 68.3938C3.77978 68.8963 4.82341 68.7692 5.86487 68.3667C6.11946 68.2682 6.37983 68.1832 6.54571 67.9463C6.58466 67.977 6.62288 68.0077 6.66183 68.0384C6.87027 68.3881 7.0787 68.7385 7.28714 69.0883C6.13028 69.1354 4.98208 69.0362 3.8346 68.8977C3.32901 68.837 2.82415 68.7899 2.34741 68.5965C2.35895 68.5009 2.408 68.4295 2.4931 68.3824Z" fill="#C0D4D5"/>
<path d="M22.4712 64.7488C22.4698 65.1271 22.3457 65.4989 22.4049 65.8808C22.3299 65.9735 22.2217 65.9914 22.1135 65.9957C21.7053 66.0107 21.2971 66.0114 20.8896 65.9949C20.7814 65.9907 20.6732 65.9728 20.6011 65.8758C20.6292 65.4982 20.6566 65.1206 20.6847 64.7431C20.7662 64.6745 20.8622 64.676 20.9552 64.7002C21.4132 64.8173 21.8719 64.818 22.3335 64.7245C22.3804 64.7152 22.4272 64.7274 22.4712 64.7488Z" fill="#FEC699"/>
<path d="M20.6004 65.8765C21.2019 65.8779 21.8034 65.8793 22.4049 65.8807C23.0555 65.9407 23.0569 65.9407 22.9884 66.5916C22.9776 66.6944 22.9935 66.805 22.917 66.8928C22.4251 66.5424 21.8445 66.5374 21.2784 66.4967C20.9235 66.4717 20.5651 66.4846 20.2081 66.4988C20.0422 66.5053 19.872 66.5224 19.7393 66.3875C19.7378 66.0263 19.9008 65.8479 20.2824 65.8922C20.3862 65.905 20.4944 65.8829 20.6004 65.8765Z" fill="#B70101"/>
<path d="M12.1569 67.6101C12.0833 67.5123 11.9665 67.5744 11.877 67.5359C11.4847 67.2789 11.1421 66.967 10.8377 66.6138C10.6884 65.9386 10.8904 65.6231 11.5662 65.4675C11.6059 65.4582 11.6376 65.4175 11.6729 65.3918C11.9809 66.0999 12.172 66.8329 12.1569 67.6101Z" fill="#DBE7E5"/>
<path d="M10.8739 64.7345C10.3417 64.7352 9.8101 64.7359 9.27783 64.7366C9.44011 64.3676 9.29298 63.9779 9.35212 63.6025C9.41126 63.5561 9.48194 63.5297 9.5519 63.5511C10.0294 63.6989 10.514 63.641 10.9987 63.6075C10.9872 63.9865 10.9561 64.3633 10.8739 64.7345Z" fill="#FDC699"/>
<path d="M8.99866 54.3247C9.1256 54.5388 9.09747 54.7886 9.11262 55.0127C9.22297 56.6243 9.05636 58.2031 8.43105 59.7127C8.41374 59.7541 8.3748 59.7869 8.34595 59.824C8.3784 59.1124 8.52409 58.4158 8.63228 57.7142C8.80537 56.5894 8.89481 55.4567 8.99866 54.3247Z" fill="#FCAF59"/>
<path d="M7.83749 44.2719C7.77402 44.2854 7.72426 44.3161 7.69541 44.3761C7.6067 44.4275 7.53169 44.4239 7.4812 44.3226C7.69685 44.2026 7.59588 43.9857 7.63194 43.8151C7.7834 43.1035 7.91755 42.3876 8.05891 41.6739C8.27384 41.6161 8.39717 41.7267 8.48444 41.9023C8.49526 42.5275 8.46857 43.1506 8.34163 43.7658C8.23633 43.9957 8.07406 44.1698 7.83749 44.2719Z" fill="#86AA52"/>
<path d="M19.0679 59.4664C19.4162 60.0802 19.559 60.7547 19.6651 61.4399C19.8028 62.3335 19.7437 63.2271 19.6578 64.1207C19.4184 64.0985 19.2604 64.035 19.308 63.7303C19.51 62.427 19.3535 61.1373 19.1234 59.8518C19.1003 59.7241 19.0859 59.5949 19.0679 59.4664Z" fill="#D36804"/>
<path d="M17.2237 29.1935C17.2482 29.4697 17.1479 29.5761 16.8421 29.5711C16.2983 29.5625 15.7971 29.3834 15.2785 29.272C15.272 29.2278 15.2648 29.1835 15.2583 29.14C15.2597 28.9773 15.2662 28.8281 15.5028 28.8474C16.0762 28.8945 16.6445 28.786 17.2164 28.776C17.2186 28.9152 17.2215 29.0544 17.2237 29.1935Z" fill="#DFAA80"/>
<path d="M19.7392 66.3881C20.2606 66.3881 20.7828 66.3803 21.3035 66.391C21.7781 66.401 22.2433 66.4852 22.6998 66.6144C22.8397 66.6544 22.9292 66.735 22.9162 66.892C22.9133 66.9613 22.9097 67.0298 22.9068 67.099C22.8304 67.2039 22.7496 67.1604 22.6565 67.1176C21.7355 66.6943 20.7792 66.5559 19.7803 66.78C19.7298 66.7914 19.6865 66.7878 19.6541 66.7436C19.68 66.6258 19.6642 66.4966 19.7392 66.3881Z" fill="#970304"/>
<path d="M22.4714 64.7488C21.8749 65.0228 21.2799 64.8744 20.6842 64.743C20.6763 64.6081 20.6683 64.4725 20.6597 64.3376C21.2662 64.4254 21.8771 64.3698 22.4858 64.3919C22.4815 64.5111 22.4765 64.6296 22.4714 64.7488Z" fill="#DFAA7F"/>
<path d="M10.9992 63.6081C10.6047 63.8615 10.1806 63.7495 9.76448 63.7009C9.62528 63.6845 9.48969 63.6367 9.35265 63.6032C9.32885 63.4383 9.30505 63.2734 9.28125 63.1093C9.85463 63.2213 10.4338 63.2613 11.0173 63.2527C11.0108 63.3705 11.005 63.4897 10.9992 63.6081Z" fill="#DEAA81"/>
<path d="M8.483 65.6702C8.4491 66.1469 8.08488 66.3832 7.74085 66.6059C7.27205 66.9092 6.74699 67.0684 6.17505 67.0248C6.65251 66.8878 7.12491 66.7422 7.55549 66.4824C7.91539 66.2654 8.2147 65.9863 8.483 65.6702Z" fill="#DA5A49"/>
<path d="M0.987872 13.2881C1.08524 13.3702 1.05278 13.4829 1.05639 13.5857C1.07514 14.1017 1.01312 14.6199 1.12274 15.1338C1.14726 15.2494 1.17539 15.3943 1.05927 15.4999C1.05567 15.4635 1.05206 15.4271 1.04846 15.3907C0.990757 15.2665 1.06 15.1245 0.990757 15.0018C0.896276 14.4301 0.888342 13.8591 0.987872 13.2881Z" fill="#894F29"/>
<path d="M7.99101 47.7734C7.95423 47.7491 7.88282 47.7127 7.88715 47.7013C7.98812 47.4108 7.97514 47.0789 8.19945 46.8334C8.19872 47.1417 8.198 47.45 8.19728 47.7584C8.12876 47.7634 8.05953 47.7684 7.99101 47.7734Z" fill="#E0AB80"/>
<path d="M0.98996 15.0011C1.10464 15.1167 1.04261 15.258 1.04766 15.3894C0.973372 15.2687 0.982027 15.1353 0.98996 15.0011Z" fill="#8A542D"/>
<path d="M23.5698 43.4804C23.572 43.4283 23.5742 43.3762 23.5763 43.324C23.8035 43.1178 24.0538 43.0357 24.3452 43.1899C24.4642 43.2213 24.4807 43.349 24.5622 43.4161C24.876 44.0099 25.3116 44.5103 25.7905 44.9763C25.6621 45.5844 25.3744 46.1083 24.933 46.5494C24.8983 46.6286 24.925 46.6493 25.0036 46.6229C25.2618 46.5037 25.4912 46.3281 25.7725 46.2511C25.9751 46.1954 26.1562 46.2154 26.2874 46.3824C26.4245 46.5565 26.3942 46.7485 26.2543 46.902C26.1252 47.044 26.0913 47.1332 26.2795 47.2567C26.5024 47.403 26.4937 47.6014 26.2824 47.7463C25.546 48.2516 24.7743 48.6213 23.8489 48.2581C23.7819 48.1788 23.7833 48.0861 23.7862 47.9897C23.8223 46.8099 23.8475 45.6294 23.74 44.451C23.7105 44.1227 23.5987 43.8087 23.5698 43.4804Z" fill="#FEC699"/>
<path d="M27.1681 21.4282C27.1544 21.3255 26.9849 21.2434 27.1306 21.1185C27.2315 21.0321 27.3051 20.9857 27.0851 20.9322C27.0065 20.9129 26.9921 20.6217 26.9568 20.4533C26.9416 20.3812 26.9568 20.2991 27.0274 20.2656C27.163 20.2013 27.1688 20.3148 27.1616 20.3926C27.1464 20.566 27.2323 20.6581 27.3837 20.7116C27.7018 20.6852 27.8807 20.444 28.053 20.2356C28.5947 19.5818 28.6711 18.811 28.5391 18.0087C28.498 17.7589 28.3531 17.5491 28.1619 17.3728C28.0711 17.2886 27.934 17.2122 28.0278 17.0481C28.6733 16.8518 29.5243 17.2393 29.8309 17.8696C29.9874 18.472 30.0566 19.0644 29.7912 19.6675C29.4313 20.484 28.744 20.828 27.9246 20.8929C27.5071 20.9258 27.2654 21.0321 27.1681 21.4282Z" fill="#FEC699"/>
<path d="M29.8315 17.8689C29.354 17.3343 28.7864 17.001 28.0335 17.0795C27.9794 17.1109 27.9318 17.1137 27.8986 17.0502C27.8964 16.7219 27.8661 16.3964 27.7983 16.0745C27.7709 16.0296 27.7688 15.9853 27.8034 15.9425C27.9916 15.7455 28.2592 15.9004 28.4727 15.7905C28.842 15.6006 28.9934 15.8183 29.191 16.1131C29.4954 16.567 29.8582 17.0017 30.4409 17.1501C30.2383 17.39 30.0349 17.6298 29.8315 17.8689Z" fill="#6F411F"/>
<path d="M30.1351 36.9068C29.6187 36.4208 29.1066 35.9347 28.5 35.5507C26.751 34.4423 24.9177 33.5031 22.9725 32.7808C22.8715 32.7436 22.7641 32.7237 22.6941 32.6316C23.5827 32.7922 24.4351 33.0805 25.2631 33.4238C26.6263 33.9891 27.9627 34.6129 29.1138 35.555C29.5617 35.9226 29.9338 36.353 30.1351 36.9068Z" fill="#BBCF6B"/>
<path d="M23.5697 43.4803C23.8041 44.0685 23.9036 44.6844 23.9166 45.3103C23.9325 46.0819 23.913 46.8541 23.9238 47.6257C23.9267 47.8427 23.8683 48.0468 23.8488 48.2581C23.7536 48.2566 23.6577 48.2545 23.5625 48.2523C23.6238 46.6622 23.6793 45.0713 23.5697 43.4803Z" fill="#E0AA80"/>
<path d="M25.7905 44.9755C25.1919 44.6015 24.7649 44.0948 24.5623 43.4153C24.8529 43.6737 25.1349 43.942 25.4364 44.1868C25.608 44.326 25.8122 44.4252 26.0011 44.543C25.7581 44.6051 25.9016 44.8513 25.7905 44.9755Z" fill="#DEAA7E"/>
<path d="M25.0035 46.6221C24.9581 46.6806 24.9083 46.7948 24.8304 46.712C24.7533 46.6307 24.8679 46.5871 24.9329 46.5486C24.9567 46.5736 24.9797 46.5978 25.0035 46.6221Z" fill="#F7DDC3"/>
<path d="M27.8035 15.9424C27.802 15.9867 27.7999 16.0309 27.7984 16.0745C26.9272 15.9003 26.0985 15.6298 25.3434 15.1431C24.7801 14.7805 24.338 14.3187 23.9427 13.7884C23.1753 12.7585 22.2889 11.857 21.0874 11.3053C20.708 11.1312 20.3128 11.0377 19.9132 11.0156C19.1855 10.9749 18.4592 11.0227 17.7307 11.1155C17.0939 11.1961 16.439 11.2068 15.7964 11.0919C15.5043 11.0398 15.3261 11.0976 15.1668 11.3917C14.3179 12.9555 13.068 14.1424 11.5079 14.996C10.1282 15.7512 8.64752 16.2708 7.10841 16.6012C5.8412 16.8731 4.55813 16.9802 3.26784 16.724C3.18706 16.7076 3.10052 16.7183 3.01613 16.7161C2.96709 16.6704 2.96709 16.6205 3.00315 16.5677C3.3342 16.4456 3.69625 16.5612 4.0273 16.4392C4.58842 16.2722 5.1719 16.2294 5.74528 16.1287C7.16755 15.8789 8.56314 15.5285 9.87434 14.9161C10.7463 14.5086 11.5325 13.9618 12.2486 13.3209C13.3312 12.3517 14.1931 11.224 14.7434 9.87645C14.7795 9.78866 14.8155 9.69873 14.9136 9.65662C15.9464 10.0827 17.0232 10.0463 18.1058 9.96138C19.2735 9.87073 20.4303 9.90357 21.5655 10.2362C22.5666 10.5295 23.1688 11.2868 23.7595 12.0562C24.3401 12.812 24.8572 13.6164 25.4919 14.333C26.0704 14.986 26.7188 15.5406 27.5878 15.7754C27.696 15.8047 27.7465 15.8689 27.8035 15.9424Z" fill="#DFAA80"/>
<path d="M14.9127 9.65734C13.8106 12.4994 11.7219 14.3458 8.8983 15.41C7.33467 15.9988 5.69602 16.3072 4.02637 16.4399C4.13383 16.2593 4.33794 16.3229 4.49228 16.2601C4.66899 16.188 4.84929 16.1223 5.03105 16.0616C6.31484 15.6334 7.5532 15.1109 8.73242 14.4429C10.0782 13.6806 11.2445 12.7064 12.2643 11.5666C12.8918 10.865 13.3909 10.0627 13.789 9.2084C13.9015 8.96645 14.0017 8.87295 14.2001 9.12775C14.3869 9.36756 14.6891 9.46178 14.9127 9.65734Z" fill="#6F411F"/>
<path d="M3.0024 16.5676C3.00672 16.6169 3.01105 16.6669 3.01538 16.7161C3.01826 16.886 2.887 16.8867 2.77304 16.8952C2.42974 16.9202 2.10663 17.0194 1.79217 17.1515C1.63999 16.9095 1.84842 16.8096 1.99339 16.7211C2.30208 16.532 2.64899 16.5077 3.0024 16.5676Z" fill="#714220"/>
<path d="M22.4784 48.6413C22.4857 48.8554 22.3263 48.9489 22.1777 49.0502C21.4045 49.5777 20.5109 49.764 19.6101 49.896C17.9455 50.1394 16.2643 50.1579 14.5889 50.1001C13.3007 50.0559 12.0047 49.9595 10.7858 49.4763C10.2672 49.2708 9.71838 49.0902 9.427 48.5492C10.2889 48.6798 11.1486 48.8268 12.0133 48.936C12.8312 49.0395 13.6527 49.1245 14.4756 49.1801C15.7075 49.2629 16.943 49.2465 18.1748 49.1787C19.6209 49.0988 21.0569 48.9211 22.4784 48.6413Z" fill="#D36700"/>
<path d="M9.71117 34.842C9.47533 34.8934 9.24021 34.9448 9.00436 34.9955C8.76275 34.9005 8.93585 34.7478 8.98417 34.66C9.4948 33.73 10.1324 32.9085 11.0945 32.3754C10.4908 33.1212 10.0465 33.952 9.71117 34.842Z" fill="#86AA52"/>
<path d="M23.2624 34.5644C23.0035 34.4937 22.7446 34.4224 22.4856 34.3517C22.2108 33.8435 22.1488 33.2554 21.8582 32.7401C22.156 32.8664 22.3522 33.0991 22.5505 33.3168C22.8462 33.6401 23.0821 34.0106 23.2674 34.4088C23.292 34.4609 23.3287 34.5144 23.2624 34.5644Z" fill="#87AB52"/>
<path d="M8.19941 46.8341C7.9174 46.645 7.64766 46.8684 7.36927 46.8619C7.20843 46.8584 7.04615 46.9212 6.85791 46.959C6.86368 46.762 6.99494 46.6985 7.12188 46.6564C7.4147 46.5586 7.68372 46.3709 8.01188 46.4044C8.18354 46.4223 8.18282 46.2681 8.25855 46.191C8.24989 46.4066 8.31913 46.6286 8.19941 46.8341Z" fill="#E0AB80"/>
<path d="M7.8374 44.2719C7.96001 44.0585 8.17999 43.94 8.34154 43.7651C8.31558 44.2169 8.4115 44.6759 8.26942 45.1219C8.10209 44.8507 8.06315 44.5146 7.8374 44.2719Z" fill="#DDAB7E"/>
<path d="M14.0415 25.4872C11.7617 25.3345 9.9197 24.463 8.82126 22.3718C8.76068 22.2569 8.69721 22.1398 8.69649 22.0035C8.66259 21.925 8.7037 21.915 8.76861 21.9257C9.81584 23.9377 11.5922 24.8156 13.7675 25.0675C15.9961 25.3259 17.9247 24.6057 19.6643 23.2796C19.9023 23.4616 19.6196 23.5673 19.5994 23.7114C18.423 24.7513 17.0599 25.3659 15.4797 25.4886C15.0001 25.4936 14.5212 25.4372 14.0415 25.4872Z" fill="#8F5C4E"/>
<path d="M16.0235 21.5495C16.1143 22.2147 15.8612 22.6722 15.2568 22.9634C14.6091 23.276 13.6823 23.1683 13.233 22.7286C12.8955 22.3981 12.7765 21.795 12.9791 21.3989C13.2215 22.0106 13.7184 22.3068 14.3286 22.3346C14.9986 22.3646 15.6362 22.2069 16.0235 21.5495Z" fill="#DFAA80"/>
<path d="M27.8985 17.0509C27.9432 17.0609 27.9887 17.0702 28.0334 17.0802C28.1156 17.3 28.3579 17.3757 28.4712 17.5769C28.9291 18.3906 28.7164 20.1535 27.5761 20.7737C27.4708 20.8308 27.403 20.8679 27.3835 20.7109C27.7182 19.7688 27.8769 18.796 27.8877 17.7989C27.8906 17.5491 27.8949 17.3 27.8985 17.0509Z" fill="#DFAA81"/>
<path d="M20.0307 18.2221C20.0278 18.6846 19.7162 19.0608 19.3318 19.0651C18.9344 19.0693 18.5962 18.6796 18.5933 18.2121C18.5904 17.7361 18.9178 17.3478 19.3174 17.355C19.722 17.3614 20.0336 17.7404 20.0307 18.2221Z" fill="#684A42"/>
<path d="M9.85986 18.2949C9.86059 17.8195 10.1931 17.4298 10.589 17.4391C10.9821 17.4484 11.3052 17.8467 11.3002 18.317C11.2951 18.7795 10.9843 19.1442 10.5905 19.1485C10.1909 19.1528 9.85914 18.766 9.85986 18.2949Z" fill="#684A42"/>
<path d="M3.00439 17.0166C3.06281 17.8688 3.12556 18.7224 3.32534 19.5575C3.34193 19.6274 3.38016 19.701 3.3102 19.7523C3.24384 19.8016 3.17533 19.7531 3.10825 19.7274C2.59978 19.534 2.45409 19.1079 2.38702 18.6304C2.3084 18.0715 2.34158 17.5412 2.77937 17.1137C2.82048 17.073 2.87385 17.043 2.92434 17.0138C2.94165 17.0045 2.9705 17.0145 3.00439 17.0166Z" fill="#DFAA80"/>
<path d="M13.678 26.3344C14.2665 26.4464 14.7981 26.42 15.3289 26.4214C15.4601 26.4221 15.5914 26.4157 15.7227 26.4164C15.8229 26.4171 15.9527 26.2844 16.0112 26.4072C16.0638 26.5178 15.9845 26.6555 15.895 26.7569C15.6188 27.0681 15.2712 27.2543 14.855 27.1887C14.3581 27.1095 13.947 26.8711 13.678 26.3344Z" fill="#DFAA80"/>
<path d="M15.6253 19.9265C14.8225 19.2748 13.2553 19.8266 12.8759 20.6495C12.7382 20.2184 12.9863 19.7395 13.5106 19.4768C14.2708 19.0957 15.261 19.1656 15.6981 19.7823C15.7493 19.8679 15.7464 19.9265 15.6253 19.9265Z" fill="#FDD9BC"/>
<path d="M19.5994 23.7107C19.5172 23.5515 19.8072 23.4473 19.6644 23.2788C20.2291 22.7464 20.7339 22.1726 21.0549 21.4538C21.184 21.1655 21.1472 21.0185 20.8183 20.9856C20.7736 20.9549 20.7073 20.9357 20.7484 20.8586C21.3246 20.8158 21.5886 20.9592 21.849 21.4546C21.8295 21.4645 21.8014 21.4881 21.792 21.4824C21.3794 21.2197 21.3809 21.2205 21.1746 21.6594C20.801 22.4566 20.2976 23.1575 19.5994 23.7107Z" fill="#8E5B4B"/>
<path d="M8.76857 21.9256C8.74477 21.9513 8.72025 21.9777 8.69645 22.0034C8.62505 21.8928 8.58827 21.6623 8.40868 21.9214C8.34305 21.9335 8.30338 21.9221 8.33511 21.8436C8.60125 21.4232 8.91643 21.2919 9.28642 21.4439C9.1703 21.663 8.58971 21.3903 8.76857 21.9256Z" fill="#9A6751"/>
<path d="M9.40625 19.1021C9.64858 18.8309 9.85918 18.8666 10.1563 19.2292C9.94285 19.2713 9.94285 19.2713 9.40625 19.1021Z" fill="#BB8B6B"/>
<path d="M19.7998 19.1393C19.9772 18.9416 20.1792 18.8981 20.397 18.9273C20.4806 18.9387 20.5744 18.9701 20.565 19.0715C20.5557 19.1721 20.4568 19.1364 20.3941 19.1379C20.1958 19.1422 19.9974 19.1393 19.7998 19.1393Z" fill="#B78869"/>
<path d="M14.0415 25.4872C14.5211 25.3787 15 25.3758 15.4796 25.4886C15 25.575 14.5211 25.5378 14.0415 25.4872Z" fill="#875444"/>
<path d="M15.6252 19.9265C15.6837 19.8951 15.6966 19.8416 15.6981 19.7823C15.7695 19.8559 15.8798 19.9451 15.7781 20.0372C15.6952 20.1121 15.6382 20.0186 15.6252 19.9265Z" fill="#FCCEA9"/>
<path d="M20.749 20.8594C20.7721 20.9015 20.7959 20.9443 20.819 20.9864C20.7187 20.9886 20.6163 21.0243 20.5125 20.9722C20.5673 20.8758 20.6524 20.8558 20.749 20.8594Z" fill="#A47055"/>
<path d="M8.33503 21.8436C8.35955 21.8693 8.38407 21.8957 8.40859 21.9214C8.36532 21.9835 8.3646 22.0784 8.25353 22.1056C8.2016 21.9914 8.27661 21.9193 8.33503 21.8436Z" fill="#AA755A"/>
<path d="M10.8372 66.6138C11.2281 66.8721 11.5829 67.1705 11.8765 67.5359C11.4993 67.568 11.2749 67.3161 11.0362 67.092C10.9641 66.9349 10.8545 66.7929 10.8372 66.6138Z" fill="#C1D0D0"/>
<path d="M24.4214 47.635C25.1563 46.9655 25.6186 46.8078 25.9771 47.0875C25.4744 47.2617 25.0215 47.5429 24.4214 47.635Z" fill="#E1AC81"/>
</g>
<defs>
<clipPath id="clip0_360_2154">
<rect width="31.1667" height="69.4167" fill="white" transform="translate(0.916504 0.083374)"/>
</clipPath>
</defs>
</svg>
