<svg width="68" height="45" viewBox="0 0 68 45" fill="none" xmlns="http://www.w3.org/2000/svg">
<path d="M12.803 39.287C12.0407 39.2676 8.70456 30.8449 8.62775 29.9829C8.28715 26.1618 8.61184 22.2817 9.5933 18.5728C11.4422 11.5877 16.6807 4.46924 23.504 1.86546C29.8905 -0.571889 37.7697 -0.707664 44.098 1.97331C47.2553 3.31127 51.2494 5.6563 53.4804 8.31826C59.4172 15.4022 60.8941 26.0524 58.3051 34.7858C58.0948 35.4953 56.5737 40.4519 55.6198 40.4279C55.6198 40.4279 12.8247 39.2877 12.803 39.287Z" fill="white"/>
<path d="M43.8907 4.93802C41.8921 2.41377 37.2827 1.50563 34.6064 2.31718C32.6811 2.90101 30.6589 4.72 29.2778 6.10335C27.2796 8.10468 26.697 10.3426 23.8337 10.5471C21.1612 10.7375 17.9725 11.1371 16.4642 13.4802C15.3706 15.1793 15.7768 17.5596 15.049 19.3686C14.2235 21.4211 11.7512 22.3882 10.0335 23.4728C5.72673 26.1922 6.09797 34.3034 11.6003 36.4223C13.4174 37.1221 14.5664 37.51 16.4386 37.7897C19.9897 38.32 20.6627 39.8228 23.1858 41.8715C26.8909 44.8799 31.4456 43.2389 35.3159 41.5037C37.3258 40.6026 38.6731 39.8869 40.9902 39.9788C43.2731 40.0696 45.0289 41.2264 47.1924 41.8327C51.7788 43.1187 53.9605 40.6705 55.3551 37.5442C57.8561 31.9374 53.4617 30.217 52.5085 27.0177C51.6551 24.1529 54.1223 22.8719 53.0435 18.9965C52.2855 16.2733 49.1576 15.1518 48.3821 12.4235C47.7731 10.2806 46.1671 7.32416 44.0133 6.54055L43.8907 4.93802Z" fill="#43234F"/>
<path d="M35.4185 12.1676C33.3466 13.0237 31.7665 14.7818 29.4987 15.2597C27.3833 15.7055 24.9421 15.0444 23.5037 17.0764C22.2111 18.902 21.4313 21.1221 20.5193 23.1482C19.9192 24.4812 19.9239 26.2148 19.6531 27.5761C22.2549 27.6664 23.7577 26.5795 26.3514 26.7335C29.9832 26.9488 33.7054 26.7858 37.336 26.5919C40.19 26.4394 44.2671 26.2536 45.2594 23.052C45.7591 21.4406 45.5434 19.5812 45.5469 17.9046C45.5504 16.2513 45.3169 14.6134 44.5166 13.1327C42.7852 9.93037 39.6422 11.349 36.8911 11.754C36.367 11.8304 35.8805 11.9767 35.4185 12.1676Z" fill="#301938"/>
<path d="M51.2083 28.7602C51.6389 30.1719 51.9962 31.6126 52.1743 33.0798C52.3461 34.4953 52.3492 35.9574 51.976 37.342C51.7316 38.2482 51.3069 39.1012 50.6986 39.8181C50.0185 40.6196 49.1286 41.2065 48.1693 41.6212C48.0642 41.6666 48.1549 41.8202 48.2593 41.7752C49.617 41.1886 50.7855 40.2495 51.5171 38.9515C52.1929 37.7535 52.44 36.3632 52.4613 35.0012C52.4955 32.8676 51.9985 30.7417 51.3798 28.7129C51.3468 28.6031 51.1746 28.6496 51.2083 28.7602Z" fill="#663578"/>
<path d="M33.691 15.5911C33.1983 16.9504 31.917 17.6351 30.6104 18.0424C29.3046 18.4497 27.9271 18.6006 26.6369 19.0584C25.4634 19.4747 24.3128 20.1302 23.4143 20.9969C22.4682 21.9093 21.8824 23.0998 21.6279 24.3816C21.6058 24.4937 21.7773 24.5418 21.7998 24.4289C21.9604 23.6208 22.2455 22.8477 22.6913 22.1525C23.1114 21.4977 23.6727 20.9433 24.2992 20.4868C24.9595 20.0053 25.6981 19.6267 26.453 19.3179C27.0465 19.0755 27.6792 18.9316 28.3034 18.7907C30.3618 18.3264 33.0412 17.9059 33.8628 15.638C33.902 15.5298 33.7297 15.4836 33.691 15.5911Z" fill="#43234F"/>
<path d="M17.0542 35.8613C15.2543 35.7907 13.696 34.5505 12.7572 33.0833C12.2936 32.3587 11.9631 31.532 11.8665 30.6739C11.7691 29.8104 11.9126 28.934 12.1815 28.1132C12.7257 26.4528 13.8395 24.9527 15.3268 24.0263C15.9646 23.6295 16.664 23.356 17.3747 23.1205C17.9814 22.9196 18.599 22.7439 19.1797 22.4735C19.7383 22.2132 20.2248 21.8419 20.5949 21.3473C21.0794 20.7003 21.2784 19.9205 21.4603 19.1478C21.7645 17.8567 22.1431 16.4831 23.0799 15.4958C23.9446 14.5853 25.1441 14.2564 26.3463 14.0694C27.1768 13.9402 28.0214 13.9422 28.8566 13.851C29.6988 13.7591 30.5126 13.5441 31.2497 13.1174C31.349 13.06 31.2594 12.906 31.1597 12.9634C30.2294 13.5022 29.1995 13.6609 28.1428 13.7342C27.1959 13.7998 26.2466 13.8529 25.3206 14.0799C24.6476 14.2447 23.9958 14.5182 23.4407 14.9372C22.955 15.3038 22.5675 15.7774 22.2672 16.3043C21.939 16.8795 21.7179 17.5126 21.5352 18.1469C21.3094 18.9294 21.1965 19.7525 20.8718 20.5032C20.5999 21.1316 20.1743 21.6658 19.5991 22.0402C19.0703 22.3842 18.4613 22.5821 17.865 22.7745C17.1974 22.9902 16.5309 23.2055 15.8974 23.51C15.1736 23.8584 14.5114 24.3258 13.9446 24.8953C12.7378 26.1076 11.9006 27.7609 11.6977 29.4628C11.5092 31.0436 12.0736 32.5608 13.0466 33.7936C14.0148 35.0206 15.4587 35.9765 17.0542 36.0389C17.1691 36.044 17.1687 35.8659 17.0542 35.8613Z" fill="#663578"/>
<path d="M43.5542 6.40568C46.9862 6.13413 48.6659 11.7932 46.9676 14.3245C46.6421 14.8098 45.8907 15.4747 45.3825 15.6717C44.3409 16.0756 44.0333 14.5716 43.6772 13.7783C43.1628 12.6323 40.8453 7.63618 42.9397 6.81533L43.5542 6.40568Z" fill="#43234F"/>
<path d="M44.6802 8.12453C45.7385 8.15363 46.2207 9.46405 46.5062 10.2934C46.957 11.6027 47.206 12.9725 47.5749 14.3054C47.7348 14.8826 47.9148 15.4606 48.1762 16.001C48.5855 16.8459 49.0933 17.6253 49.579 18.4264C50.1252 19.3279 50.5364 20.2791 50.7459 21.3156C50.9693 22.4224 50.9553 23.5633 50.9476 24.6871C50.946 24.9121 50.9445 25.1371 50.9445 25.3621C50.9445 25.4769 51.1225 25.4769 51.1225 25.3621C51.1233 24.2453 51.1613 23.1253 51.0337 22.0131C50.9154 20.982 50.6178 19.9785 50.1411 19.0563C49.6872 18.1781 49.0979 17.3778 48.6309 16.5069C48.3209 15.9293 48.0711 15.3381 47.8791 14.7116C47.4725 13.3876 47.2254 12.0201 46.8231 10.6946C46.6493 10.1224 46.4472 9.549 46.1508 9.02724C45.929 8.63621 45.6279 8.25449 45.2093 8.0644C45.0425 7.98876 44.8637 7.95113 44.6806 7.94608C44.565 7.94298 44.5654 8.12143 44.6802 8.12453Z" fill="#663578"/>
<path d="M31.4703 20.8792C31.4703 20.8792 26.4183 21.9716 23.9608 23.4732C21.5033 24.9753 24.7801 41.4964 26.0091 42.8619C26.0091 42.8619 35.0206 45.1828 39.9361 42.8619C39.9361 42.8619 44.8371 39.1164 45.8124 34.4392C46.3714 31.7582 43.3126 27.3967 43.2129 26.7501C42.9398 24.9753 36.5223 20.8792 31.4703 20.8792Z" fill="#904BAB"/>
<path d="M33.2582 28.9433C38.0898 29.0283 40.3681 25.7545 41.1055 24.3921C40.8837 24.2304 40.6482 24.0678 40.4007 23.9064C40.0124 24.9286 38.5863 27.5107 33.9774 28.0227C29.0522 28.5701 26.7724 23.8277 26.2079 22.4203C25.8724 22.5479 25.5438 22.6821 25.23 22.8214C25.8266 24.266 28.1235 28.8533 33.2582 28.9433Z" fill="#B05CD1"/>
<path d="M23.1534 29.2589C24.9111 30.8711 27.5975 32.2029 31.6805 32.2285C37.8505 32.2673 41.4268 28.9462 43.1791 26.6051C43.1073 26.3747 42.9471 26.112 42.7124 25.8292C41.1948 28.0315 37.9486 31.2905 31.9431 31.5066C27.525 31.6656 24.7536 29.5153 23.0708 27.2552C23.0731 27.8786 23.1022 28.5529 23.1534 29.2589Z" fill="#B05CD1"/>
<path d="M37.0627 22.0584L38.1606 18.4211C38.1606 18.4211 36.1127 15.1443 32.8355 15.4174C32.8355 15.4174 31.5386 19.8549 31.2651 20.9473L28.8076 21.5618C28.8076 21.5618 31.2651 26.6821 35.9761 25.6579C35.9761 25.6579 37.9557 24.9752 38.6385 22.859L37.0627 22.0584Z" fill="#FF8F83"/>
<path d="M32.6074 35.0837C32.6074 35.0837 24.9039 35.1924 25.7721 36.0602L27.6167 38.3389C27.6167 38.3389 27.7618 42.2445 28.1233 44.1977C28.1233 44.1977 35.724 45.6082 40.1724 43.4382L40.0277 38.1992C40.0277 38.1992 43.5714 35.017 43.7828 30.9608L42.6978 30.6354C42.6978 30.6354 39.2258 32.8054 37.1648 33.5646C35.1029 34.3246 32.6074 35.0837 32.6074 35.0837Z" fill="white"/>
<path d="M34.5042 34.4822C34.9805 35.1925 35.8402 35.9707 37.1778 35.4738C38.788 34.8756 39.3098 33.3208 39.4758 32.4886C38.6686 32.915 37.8407 33.3157 37.1646 33.5648C36.2805 33.8906 35.3169 34.2165 34.5042 34.4822Z" fill="#FFE8E8"/>
<path d="M30.8089 42.2706C30.4593 42.6057 29.8922 42.5813 29.5427 42.2166C29.1931 41.852 29.1931 41.2844 29.5427 40.9493C29.8922 40.6145 30.4593 40.6385 30.8089 41.0032C31.1588 41.3682 31.1588 41.9358 30.8089 42.2706Z" fill="#FFE8E8"/>
<path d="M33.146 38.1384C32.8721 38.4011 32.4279 38.382 32.1537 38.0961C31.8798 37.8102 31.8798 37.3657 32.1537 37.103C32.4275 36.8404 32.8717 36.8594 33.146 37.1453C33.4202 37.4312 33.4202 37.8758 33.146 38.1384Z" fill="#FFE8E8"/>
<path d="M35.7603 42.7361C35.4865 42.9987 35.0423 42.9797 34.7684 42.6938C34.4945 42.4079 34.4945 41.9633 34.7684 41.7007C35.0423 41.4381 35.4865 41.4571 35.7603 41.743C36.0346 42.0289 36.0346 42.4735 35.7603 42.7361Z" fill="#FFE8E8"/>
<path d="M27.9138 42.6754C27.9736 43.2363 28.043 43.765 28.1229 44.1976C28.1229 44.1976 35.7236 45.6081 40.172 43.438L40.0451 38.85L38.6528 38.3438C38.6532 38.3437 38.5818 44.7228 27.9138 42.6754Z" fill="#FFE8E8"/>
<path d="M38.5459 27.3532C38.5459 27.3532 38.8877 28.6691 38.9815 30.3348C39.0754 32.0006 38.8473 32.5728 38.4757 33.0973C38.104 33.6217 36.4553 33.9748 36.176 33.2901C35.8967 32.6054 36.846 26.4493 38.5459 27.3532Z" fill="#FFA987"/>
<path d="M38.2032 34.3277C38.37 35.0527 37.7901 35.5605 37.2881 35.6952C33.8642 36.613 30.5211 36.4229 29.3965 36.0536C28.2439 35.675 27.4072 35.6342 27.1038 34.5112C26.0145 30.4775 26.6367 26.3383 28.0278 24.8809C29.5466 23.2896 31.6065 22.9253 32.3711 22.8625C33.8111 22.7438 35.0323 23.1336 36.1216 23.5899C36.4304 23.7194 37.1981 23.8905 37.4689 24.0713C38.3479 24.6574 39.4419 25.7076 39.2948 28.2446C39.2782 28.5297 38.8029 28.5441 38.8029 28.5441L38.0752 28.5984C38.0752 28.5984 37.7579 29.7548 37.9305 31.3527C38.1035 32.9506 38.0302 33.5759 38.2032 34.3277Z" fill="#7D2524"/>
<path d="M38.2032 34.3277C38.0306 33.5759 38.1035 32.9505 37.9305 31.3526C37.8568 30.6707 37.8723 30.0698 37.9142 29.6042C37.7668 30.2222 37.4207 32.3 36.8912 32.9738C36.2302 33.8148 34.052 36.7274 27.3975 35.1346C27.8114 35.6707 28.5104 35.7626 29.3957 36.0536C30.5203 36.4229 33.8634 36.6129 37.2873 35.6951C37.7897 35.5605 38.3696 35.0527 38.2032 34.3277Z" fill="#642524"/>
<path d="M44.5257 11.6027C45.7143 12.8581 46.5041 14.4513 46.9425 16.1143C47.3851 17.7941 47.4612 19.5975 47.0503 21.2912C46.9568 21.6772 46.8331 22.0558 46.6845 22.4244C46.6415 22.5311 46.8141 22.5768 46.8564 22.4717C47.4918 20.8975 47.6159 19.1541 47.3929 17.4818C47.1667 15.7869 46.5724 14.1262 45.6251 12.6998C45.3369 12.2653 45.0102 11.8557 44.6518 11.477C44.5726 11.3933 44.447 11.5193 44.5257 11.6027Z" fill="#663578"/>
<path d="M40.3454 6.40585C42.1931 6.97533 45.9576 7.67593 45.3543 13.0379C44.7511 18.3998 43.2929 22.3668 39.2227 21.5157C35.1522 20.6645 31.278 16.5137 33.3728 11.563C35.4672 6.61146 38.8457 5.94344 40.3454 6.40585Z" fill="#FFA987"/>
<path d="M39.0346 15.3694C39.0346 15.3694 39.7282 14.0807 38.5458 13.4608C37.4987 12.9119 36.6794 14.3456 36.6794 14.3456C36.6794 14.3456 37.4654 13.6218 38.3177 13.9872C39.1699 14.3526 39.0346 15.3694 39.0346 15.3694Z" fill="#43234F"/>
<path d="M42.2429 16.5814C42.2429 16.5814 42.6526 15.4549 43.4715 15.8133C44.2908 16.1718 43.4715 17.2979 43.4715 17.2979C43.4715 17.2979 43.7275 16.3762 43.2155 16.2226C42.7038 16.0694 42.2429 16.5814 42.2429 16.5814Z" fill="#43234F"/>
<path d="M38.2291 17.3973C38.2291 17.3973 37.4327 19.3315 39.7312 19.1042C39.7312 19.1038 38.2516 18.8307 38.2291 17.3973Z" fill="#D67983"/>
<path d="M39.5758 11.4279C38.3445 10.8247 36.7594 11.5334 36.0356 13.011C35.3117 14.4887 35.7233 16.1754 36.9546 16.7786C38.1858 17.3818 39.7709 16.6731 40.4948 15.1955C41.2187 13.7178 40.8071 12.0311 39.5758 11.4279ZM40.2616 15.0298C39.6258 16.3278 38.2336 16.9505 37.152 16.4205C36.0705 15.8906 35.7089 14.4091 36.3447 13.1111C36.9805 11.8131 38.4058 11.3007 39.4873 11.8306C40.5689 12.3605 40.8978 13.7318 40.2616 15.0298Z" fill="white"/>
<path d="M44.4594 14.2055C43.4322 13.6628 42.1098 14.3005 41.5058 15.6296C40.9017 16.9586 41.2451 18.4762 42.2723 19.0189C43.2995 19.5616 44.622 18.9239 45.226 17.5948C45.8304 16.2654 45.4871 14.7478 44.4594 14.2055ZM45.032 17.4459C44.5013 18.6135 43.3399 19.1737 42.4376 18.6969C41.5352 18.2202 41.2334 16.8873 41.7641 15.7196C42.2944 14.5519 43.4834 14.0911 44.3861 14.5678C45.2884 15.0442 45.5623 16.2782 45.032 17.4459Z" fill="white"/>
<path d="M41.7994 15.1647C41.7994 15.1647 40.707 17.1447 41.5946 17.827C41.5946 17.827 41.1167 18.5098 40.2974 18.2367C40.2974 18.2367 41.1508 18.066 41.1849 17.7246C41.1849 17.7246 40.2974 16.6667 41.7994 15.1647Z" fill="#D67983"/>
<path d="M36.6132 14.894C36.5185 15.1303 36.0584 15.1679 35.5863 14.9782C35.1138 14.7885 34.8078 14.4433 34.9028 14.2074C34.9975 13.9711 35.4575 13.9335 35.9296 14.1232C36.4018 14.3125 36.7078 14.6578 36.6132 14.894Z" fill="#FF4B22"/>
<path d="M44.9763 18.587C44.8817 18.8233 44.5283 18.9039 44.1873 18.767C43.8463 18.6301 43.6469 18.3275 43.7415 18.0916C43.8366 17.8554 44.1896 17.7751 44.5306 17.912C44.8716 18.0486 45.0714 18.3508 44.9763 18.587Z" fill="#FF4B22"/>
<path d="M40.3638 14.8252C40.3638 14.8252 41.2157 15.0591 41.6765 15.6224L41.8643 15.2639C41.8643 15.2639 41.1334 14.6017 40.5189 14.5505L40.3638 14.8252Z" fill="white"/>
<path d="M44.5101 5.99629C45.2119 7.89986 44.334 8.48059 42.5588 9.50472C41.0126 10.3966 35.7922 11.4591 34.2013 12.2772C33.363 12.7086 32.5487 12.5682 31.6755 11.8676C30.0517 10.5649 32.0053 7.52201 33.0282 6.53978C36.8637 2.85602 43.0837 2.12787 44.5101 5.99629Z" fill="#43234F"/>
<path d="M41.8373 5.84098C40.369 5.11323 38.6431 4.81646 37.0872 5.45111C36.3447 5.75369 35.705 6.25839 35.1976 6.87519C34.6987 7.48191 34.3709 8.1829 34.1032 8.9157C33.8321 9.6578 33.6226 10.434 33.2083 11.1141C32.7296 11.8989 31.9634 12.3531 31.0844 12.5704C30.973 12.5979 31.02 12.7698 31.1317 12.7422C31.8575 12.563 32.531 12.2305 33.0287 11.6615C33.4569 11.1715 33.7099 10.5597 33.9283 9.95457C34.1734 9.27414 34.3841 8.58169 34.7134 7.93501C35.1041 7.16808 35.6887 6.48998 36.406 6.01205C38.0256 4.93323 40.0773 5.16715 41.7477 5.99537C41.8498 6.0458 41.9401 5.89218 41.8373 5.84098Z" fill="#663578"/>
<path d="M16.3876 35.962C14.6567 36.1392 12.8136 35.716 11.3717 34.7318C10.635 34.2291 10.0869 33.5417 9.62252 32.7887C9.18455 32.0788 8.85326 31.3037 8.67093 30.4891C8.33111 28.9719 8.6302 27.4027 9.52942 26.1322C10.0337 25.42 10.7068 24.8381 11.4376 24.3687C12.3574 23.7779 13.3924 23.4171 14.3983 23.0052C16.1548 22.2855 18.0382 21.057 18.484 19.0762C18.7175 18.0373 18.508 16.9616 18.5359 15.9103C18.5627 14.8978 18.8762 13.8784 19.7304 13.2662C20.5753 12.6607 21.6786 12.6257 22.6779 12.63C23.2504 12.6323 23.8222 12.6556 24.3948 12.6277C24.9437 12.6009 25.4907 12.5295 26.028 12.4167C27.0075 12.2111 27.9513 11.8286 28.7431 11.2083C29.5512 10.5752 30.1606 9.7446 30.7014 8.88069C31.2875 7.94423 31.85 7.00079 32.544 6.13765C33.1884 5.33658 33.934 4.61697 34.7909 4.04671C35.2227 3.75926 35.6855 3.5009 36.1785 3.33603C36.6887 3.16534 37.2298 3.10832 37.7655 3.12267C38.8312 3.1506 39.8871 3.50167 40.7817 4.07542C41.5052 4.53977 42.1111 5.18683 42.4855 5.96308C42.5355 6.06666 42.6891 5.97627 42.6391 5.87308C41.7732 4.07891 39.7642 3.04276 37.8284 2.94694C37.3183 2.92172 36.8043 2.97758 36.3112 3.11026C35.8275 3.2406 35.3794 3.47491 34.9531 3.73288C34.1062 4.24495 33.3626 4.91567 32.7132 5.65894C32.0013 6.47437 31.4035 7.3829 30.843 8.30617C30.2952 9.2081 29.7257 10.0972 28.939 10.813C28.1597 11.5225 27.1945 11.9558 26.1781 12.2006C25.0446 12.4737 23.9041 12.4636 22.7469 12.4523C21.7647 12.4426 20.7293 12.4803 19.8537 12.976C19.0453 13.4338 18.586 14.2589 18.4285 15.155C18.2481 16.1807 18.4479 17.2227 18.4068 18.2542C18.3839 18.8241 18.2628 19.3788 18.0045 19.8885C17.7725 20.3467 17.4424 20.7528 17.0863 21.1198C15.5823 22.6696 13.3916 23.0063 11.5889 24.0657C10.1978 24.8835 9.03752 26.1194 8.57007 27.6874C8.12977 29.1639 8.39861 30.74 9.04916 32.1098C9.41226 32.874 9.8964 33.6278 10.4919 34.2322C11.0784 34.8273 11.812 35.2614 12.5797 35.5787C13.7699 36.071 15.1059 36.2711 16.3872 36.14C16.5009 36.1288 16.502 35.9503 16.3876 35.962Z" fill="#663578"/>
<path d="M32.5125 12.0271L36.1155 12.9973L35.9336 13.4399L32.2246 12.3828L32.5125 12.0271Z" fill="white"/>
<path d="M33.7956 13.3683C33.7956 13.3683 32.4809 10.7207 30.805 12.0521C29.1292 13.3835 31.1053 17.1122 33.6982 16.137L33.7956 13.3683Z" fill="#FFA987"/>
<path d="M50.7021 31.4127C50.7021 31.4127 49.6873 33.6352 51.1816 35.8367C51.1816 35.8367 54.1337 35.8859 54.7032 33.3718C54.7036 33.3718 53.3567 31.1691 50.7021 31.4127Z" fill="#FF4B22"/>
<path d="M50.7606 32.099C50.9065 32.8691 51.1144 33.6209 51.4434 34.3339C51.4915 34.4382 51.6451 34.3475 51.5974 34.2439C51.2754 33.5452 51.0756 32.8054 50.9329 32.0517C50.9111 31.9388 50.7393 31.9869 50.7606 32.099Z" fill="#FF6A22"/>
<path d="M51.2416 31.7622C51.5946 32.6602 52.0947 33.5428 52.8527 34.1596C52.9411 34.2313 53.068 34.106 52.9788 34.0335C52.2448 33.4365 51.7556 32.585 51.4135 31.7148C51.372 31.6089 51.1997 31.6551 51.2416 31.7622Z" fill="#FF6A22"/>
<path d="M46.6926 32.1761C46.6926 32.1761 50.0214 33.1809 51.9029 30.6904C54.1385 27.7316 53.4596 23.2565 50.1386 21.4852L46.6926 32.1761Z" fill="#FF4B22"/>
<path d="M51.9033 30.6904C52.3882 30.0483 52.7358 29.3353 52.9492 28.594C51.5717 30.2761 49.2189 29.7842 49.2189 29.7842C47.401 30.3816 47.1318 31.7634 47.095 32.2685C48.0376 32.445 50.4203 32.6537 51.9033 30.6904Z" fill="#D33822"/>
<path d="M47.7009 31.1746L47.9872 33.2647C47.9872 33.2647 47.1679 33.9816 44.9148 33.8792V32.2406L47.7009 31.1746Z" fill="#D1766B"/>
<path d="M47.4684 21.2169C47.4684 21.2169 45.348 20.026 43.4661 21.1327C40.9908 22.589 41.601 24.9806 41.601 24.9806L47.4684 21.2169Z" fill="#FF4B22"/>
<path d="M42.9157 23.0872C41.6282 24.2153 40.2712 26.8206 40.4268 29.4651C40.485 30.4567 41.2224 31.1747 42.3905 31.7299C44.3367 32.6547 47.283 32.7947 48.8386 30.5583C51.3276 26.9805 48.6714 23.0872 47.2714 22.3094C45.8713 21.5316 43.7478 22.3583 42.9157 23.0872Z" fill="#FF8F83"/>
<path d="M48.9007 29.4791C48.9007 29.4791 51.4152 29.3313 50.4 31.1371C50.0722 31.7198 48.0279 32.4677 46.9568 30.7698L48.9007 29.4791Z" fill="#FF8F83"/>
<path d="M44.0232 28.0122C44.0232 28.0122 44.725 27.7597 45.0458 28.3012C45.3666 28.8428 45.0407 29.6004 45.0407 29.6004C45.0407 29.6004 45.9962 28.8905 45.528 28.1232C44.8351 26.9873 44.0232 28.0122 44.0232 28.0122Z" fill="#43234F"/>
<path d="M43.7865 21.3573C43.2554 21.862 45.1458 21.7165 44.6205 23.6674C44.1713 25.3355 48.1088 30.346 50.3312 29.8273C53.6523 29.0526 52.8726 23.9452 51.1013 22.0633C49.3304 20.1811 45.0698 20.138 43.7865 21.3573Z" fill="#FF4B22"/>
<path d="M46.285 33.7135C46.285 33.7135 47.4414 33.1735 47.7382 33.0164C47.9543 32.9019 48.2406 32.9217 48.7623 33.5797C49.3667 34.3423 49.7015 36.4849 49.8377 38.8019C49.9979 41.5287 49.4257 43.3586 49.4257 43.3586C49.4257 43.3586 46.6951 45.1826 39.8679 43.3395L39.9362 40.2675L46.285 33.7135Z" fill="#61C0B7"/>
<path d="M49.8577 39.262C49.8531 39.1114 49.8465 38.9582 49.8372 38.8019C49.7999 38.1657 49.7472 37.5427 49.6785 36.9577C49.3162 36.8397 48.5182 36.7424 47.3087 37.4682C45.6022 38.4923 42.3932 41.6326 41.3691 41.8374C40.9187 41.9274 40.376 41.714 39.9093 41.4464L39.8674 43.3395C46.6946 45.1829 49.4252 43.3585 49.4252 43.3585C49.4252 43.3585 49.713 42.4375 49.8232 40.9293L49.8577 39.262Z" fill="#59B3AA"/>
<path d="M48.1986 32.9653C48.1986 32.9653 48.149 32.5021 47.8929 32.2972C47.8929 32.2972 46.3385 32.8531 45.7756 33.57L46.6116 33.8358L48.1986 32.9653Z" fill="#DDE8B7"/>
<path d="M36.9322 36.1714C36.9322 36.1714 37.1371 35.5569 36.8298 35.1131C36.5226 34.6693 36.3519 35.079 36.4202 35.3862C36.4202 35.3862 35.7033 34.4986 35.3619 34.4303C35.0205 34.3621 35.2595 34.9424 35.635 35.2155C35.635 35.2155 34.884 34.6693 34.7133 34.8741C34.5426 35.079 35.2936 35.5228 35.2936 35.5228C35.2936 35.5228 34.4402 35.2838 34.4402 35.591C34.4402 35.8983 35.1571 36.0007 35.1571 36.0007C35.1571 36.0007 34.5426 36.0348 34.6109 36.3079C34.6792 36.581 35.7716 36.8541 36.386 36.7176C37.0005 36.5806 36.9322 36.1714 36.9322 36.1714Z" fill="#FF8F83"/>
<path d="M37.8196 36.1716C37.8196 36.1716 37.4099 35.7961 37.1368 35.8302C37.1368 35.8302 36.3858 36.274 36.2493 36.9909L36.6589 37.4688L37.8196 36.1716Z" fill="#DDE8B7"/>
<path d="M47.2769 34.3477C46.8102 33.7879 46.4657 33.2801 44.973 33.6308C42.7436 34.1549 40.5103 37.5663 40.5103 37.5663C40.5103 37.5663 38.7692 36.235 38.0523 36.0301C37.3354 35.8253 36.4137 36.9519 36.5161 37.5663C36.6186 38.1808 38.9741 40.8436 40.203 41.3556C41.432 41.8677 45.7333 38.3856 46.5526 37.6688C47.3719 36.9519 48.045 35.269 47.2769 34.3477Z" fill="#61C0B7"/>
<path d="M40.5107 37.5663C40.5107 37.5663 38.7697 36.2349 38.0528 36.0301C37.938 35.9975 37.8181 35.9986 37.6982 36.0266C37.872 36.6546 38.7274 37.3684 39.8679 38.2874L40.5107 37.5663Z" fill="#59B3AA"/>
<path d="M41.3552 26.1881C41.3552 26.1881 41.8192 25.5228 42.1617 25.8514C42.5039 26.18 42.0872 26.7704 42.0872 26.7704C42.0872 26.7704 42.1505 25.7207 41.3552 26.1881Z" fill="#43234F"/>
<path d="M42.9535 26.2202C42.9535 26.2202 42.2117 26.9336 41.5294 26.6163C41.5294 26.6163 41.2698 26.8785 41.5666 27.7013L41.7451 26.9437C41.7451 26.9441 42.4441 27.1031 42.9535 26.2202Z" fill="#D1766B"/>
<path d="M41.5687 28.7042C41.5687 28.7042 43.0261 29.5142 43.4497 29.8284C43.4497 29.8284 42.7352 30.5771 41.8196 30.081C41.1477 29.7163 41.5687 28.7042 41.5687 28.7042Z" fill="white"/>
<path d="M45.8477 30.745C45.7399 30.934 45.4315 30.9611 45.1588 30.8056C44.8861 30.65 44.7522 30.3707 44.8601 30.1822C44.9679 29.9932 45.2763 29.9661 45.549 30.1216C45.8218 30.2772 45.9556 30.5561 45.8477 30.745Z" fill="#FF527E"/>
<path d="M43.2382 22.7091C42.9841 23.1126 42.0507 24.532 42.9604 24.743C43.4834 24.8645 44.1327 24.013 44.426 23.7053C44.7608 23.3546 45.5561 22.4818 45.1421 21.9387C44.8221 21.5182 44.1017 21.9088 43.7514 22.2463L43.2382 22.7091Z" fill="#FF4B22"/>
<path d="M45.4939 22.5766C45.5304 24.1652 46.0467 25.7472 47.0487 26.9905C48.0251 28.2016 49.469 28.9348 51.0316 28.9282C51.082 28.9278 51.1328 28.9262 51.1833 28.9247C51.2981 28.9208 51.2985 28.7424 51.1833 28.7462C49.6339 28.7982 48.2273 28.1112 47.2338 26.9362C46.2174 25.7344 45.7077 24.1365 45.672 22.5766C45.6696 22.4618 45.4916 22.4614 45.4939 22.5766Z" fill="#FF6A22"/>
<path d="M46.1947 22.76C46.3801 23.634 46.8274 24.4483 47.3666 25.1527C47.8938 25.8417 48.5638 26.4783 49.38 26.8038C49.4866 26.8464 49.5328 26.6738 49.4273 26.6319C48.6386 26.3173 47.9954 25.683 47.4873 25.0189C46.969 24.3416 46.545 23.5514 46.3669 22.7127C46.3425 22.6002 46.1706 22.6479 46.1947 22.76Z" fill="#FF6A22"/>
<path d="M51.6791 30.9609C51.6791 30.9609 52.0212 31.1747 51.8075 31.5812C51.6721 31.8388 51.0801 32.2229 50.3958 32.3513C50.3958 32.3513 50.0319 32.4157 49.9893 32.0945C49.9893 32.0945 51.2725 31.4955 51.6791 30.9609Z" fill="#DDE8B7"/>
<path d="M24.3223 24.332C25.2452 24.9779 25.732 25.642 26.651 28.2462C27.57 30.8503 26.8807 32.6778 25.3301 32.9653C23.0258 33.392 20.535 33.1814 19.3095 29.1985C18.084 25.2157 21.2584 22.1875 24.3223 24.332Z" fill="#CF7C5B"/>
<path d="M24.4997 32.3427L24.2498 36.2774L21.0933 35.6249L21.2298 31.8019C21.2298 31.8023 23.5779 31.7286 24.4997 32.3427Z" fill="#CF7C5B"/>
<path d="M23.9877 33.5721C21.0693 33.2649 20.0382 34.2052 19.3791 34.8011C17.8328 36.1984 17.2912 39.263 16.8816 42.9941C16.8816 42.9941 20.8202 45.4559 28.4942 44.2231C28.4942 44.2231 28.2894 39.9217 27.7773 37.8734C27.2649 35.8252 25.1402 33.6931 23.9877 33.5721Z" fill="#FF860C"/>
<path d="M24.6259 44.5666C25.7874 44.5522 27.0769 44.4506 28.4948 44.2229C28.4948 44.2229 28.3947 42.1172 28.1588 40.1512C27.4807 39.7749 26.0469 39.7237 24.4599 39.314C23.0971 38.9622 20.9783 38.6995 20.4798 40.882C20.1698 42.2394 20.3293 43.6157 20.4251 44.2042C21.2498 44.3676 22.2173 44.496 23.326 44.546L24.6259 44.5666Z" fill="#ED750B"/>
<path d="M22.3931 41.078C22.3931 41.078 24.2094 41.5866 25.3856 41.521C25.3856 41.521 26.2871 40.6571 26.8066 40.6389C27.326 40.6206 26.9373 41.1777 26.6107 41.7658C26.6107 41.7658 28.3389 41.1428 29.1229 40.8165C29.9069 40.4899 29.5802 41.7964 28.4041 41.9927C28.4041 41.9927 29.5802 41.862 29.9721 41.7968C30.1854 41.7611 30.3902 42.2014 30.0403 42.5013C29.7478 42.7519 29.3355 42.8233 28.4723 42.9424C28.4723 42.9424 29.5015 43.0894 30.0892 43.0894C30.3794 43.0894 30.4554 43.4021 30.1381 43.5794C29.8122 43.7613 28.9654 43.757 28.4688 43.757C28.4688 43.757 29.5143 43.7788 29.5143 44.171C29.5143 44.2416 29.4185 44.4064 29.1438 44.4759C27.8939 44.7928 23.1647 45.3933 20.4321 44.2144L22.3931 41.078Z" fill="#FFA987"/>
<path d="M20.727 43.7431C20.6831 43.9479 20.6494 44.1349 20.6238 44.292C21.1789 44.5081 21.8066 44.6574 22.4649 44.7552C23.1659 43.7543 23.0635 41.9823 22.9801 41.2239C22.6263 41.1432 22.3923 41.0776 22.3923 41.0776L20.727 43.7431Z" fill="#FF8F83"/>
<path d="M44.6822 41.0782C44.6822 41.0782 42.8659 41.5868 41.6897 41.5212C41.6897 41.5212 40.5845 40.3314 40.0651 40.3132C39.5452 40.295 39.61 41.0084 39.9367 41.5965C39.9367 41.5965 38.7364 41.1434 37.9524 40.8167C37.1684 40.4901 37.495 41.7966 38.6712 41.9929C38.6712 41.9929 37.495 41.8622 37.1032 41.797C36.8899 41.7613 36.685 42.2016 37.035 42.5015C37.3275 42.7521 37.7398 42.8235 38.603 42.9426C38.603 42.9426 37.5742 43.0896 36.9861 43.0896C36.6959 43.0896 36.6199 43.4023 36.9372 43.5796C37.2631 43.7615 38.1099 43.7572 38.6065 43.7572C38.6065 43.7572 37.561 43.779 37.561 44.1712C37.561 44.2418 37.6568 44.4066 37.9311 44.4761C39.181 44.793 43.9102 45.3935 46.6428 44.2146L44.6822 41.0782Z" fill="#FFA987"/>
<path d="M46.3481 43.7431C46.3919 43.9479 46.4257 44.1349 46.4513 44.292C45.8961 44.5081 45.2685 44.6574 44.6102 44.7552C43.9092 43.7543 44.0116 41.9823 44.095 41.2239C44.4492 41.1432 44.6827 41.0776 44.6827 41.0776L46.3481 43.7431Z" fill="#FF8F83"/>
<path d="M16.5049 33.4283C16.5049 33.4283 16.0149 33.8202 15.1328 36.5647C14.8717 37.3771 13.9566 41.1718 16.5049 42.8379C19.1316 44.5553 21.5037 44.6022 21.5037 44.6022C21.5037 44.6022 22.837 43.2852 22.7393 40.2466C22.7393 40.2466 17.2121 38.8721 19.2045 34.7554C19.2045 34.7558 17.0934 33.5265 16.5049 33.4283Z" fill="#904BAB"/>
<path d="M15.4894 37.3984C15.0859 38.3908 14.8792 39.2252 14.8132 39.9277C14.9575 41.0205 15.4134 42.1246 16.5046 42.838C16.8696 43.0765 17.2292 43.2829 17.5788 43.4614C18.6258 38.7166 15.4894 37.3984 15.4894 37.3984Z" fill="#7C4194"/>
<path d="M24.8992 22.0908C25.4365 23.0804 24.4213 23.3197 24.4213 23.3197C24.4213 23.3197 25.1723 23.6611 24.8992 24.2073C24.6261 24.7535 23.9142 24.8567 23.9142 24.8567C23.9142 24.8567 24.5101 24.8761 24.8685 25.695C25.227 26.5143 24.2028 27.1284 24.2028 27.1284C24.2028 27.1284 24.7661 27.0772 24.9197 27.6917C25.0734 28.3062 24.6292 28.5448 24.6292 28.5448C23.7594 27.8065 23.0647 28.229 22.9173 29.1127C22.7186 30.3028 24.3483 30.9992 24.9337 30.6089C24.9337 30.6089 25.7871 31.5803 25.2409 32.263C24.5884 33.0785 24.0803 32.3313 24.0803 32.3313C24.0803 32.3313 24.5582 32.8092 24.1485 33.0823C23.7389 33.3554 23.3292 32.9458 23.3292 32.9458C23.3292 32.9458 24.2168 33.6968 23.3292 34.3113C22.4417 34.9258 21.8272 34.3796 21.8272 34.3796C21.8272 34.3796 22.0359 35.5531 20.7348 35.8134C19.4337 36.0737 18.8541 35.1232 18.8541 35.1232C18.8541 35.1232 17.4226 36.1908 16.0505 35.0573C15.0854 34.2601 15.6316 33.2364 15.6316 33.2364C15.6316 33.2364 12.901 32.8267 14.6074 30.0278C14.6074 30.0278 15.5633 26.3413 17.6112 24.2931C19.6594 22.2444 23.9263 20.2986 24.8992 22.0908Z" fill="#221927"/>
<path d="M29.6163 37.141C29.6163 37.141 33.4117 38.8863 35.6648 38.8863C35.6648 38.8863 36.5931 39.6233 35.7738 40.4426C35.7738 40.4426 31.3577 40.5206 28.1829 39.4965L29.6163 37.141Z" fill="#CF7C5B"/>
<path d="M30.7427 36.6292C30.7427 36.6292 27.0326 34.5328 24.8071 33.9816C22.7778 33.4788 21.4127 36.9915 22.6634 38.3559C23.9144 39.7206 29.1037 40.5213 29.1037 40.5213C29.1037 40.5213 31.05 39.1895 30.7427 36.6292Z" fill="#FF860C"/>
<path d="M29.2933 35.8553C29.1471 35.7804 28.9939 35.7028 28.834 35.6229C28.2273 38.0184 26.9646 40.0624 26.9646 40.0624L27.2109 40.1547C27.3254 40.1803 27.4371 40.2047 27.5453 40.2276C28.5307 39.0929 29.1133 36.6952 29.2933 35.8553Z" fill="#FFE8E8"/>
<path d="M27.2598 34.8794C26.7555 37.084 25.653 39.1904 25.3857 39.6819C25.5863 39.7425 25.7884 39.8003 25.9897 39.8546C26.9223 38.6698 27.5597 36.0796 27.7734 35.1122C27.6039 35.0338 27.4325 34.9558 27.2598 34.8794Z" fill="#FFE8E8"/>
<path d="M35.2736 39.1318C35.2736 39.1318 35.4478 38.508 35.951 38.3125C36.4541 38.1166 36.366 38.5518 36.1376 38.7679C36.1376 38.7679 37.2284 38.4339 37.5496 38.5685C37.8708 38.7031 37.3479 39.0499 36.8835 39.0662C36.8835 39.0662 37.8115 39.034 37.8382 39.2994C37.865 39.5647 36.9945 39.512 36.9945 39.512C36.9945 39.512 37.8351 39.7917 37.6633 40.0465C37.4914 40.301 36.7047 40.1982 36.7047 40.1982C36.7047 40.1982 37.3553 40.4511 37.1458 40.6393C36.9363 40.8274 35.6674 40.7044 35.2348 40.2471C34.8019 39.7897 35.2736 39.1318 35.2736 39.1318Z" fill="#CF7C5B"/>
<path d="M26.9926 27.8566C27.0559 28.0474 26.8499 28.2875 26.5325 28.3927C26.2152 28.4978 25.9068 28.4284 25.8432 28.2375C25.78 28.0466 25.986 27.8065 26.3033 27.7014C26.6206 27.5963 26.9294 27.6657 26.9926 27.8566Z" fill="#FF4B22"/>
<path d="M27.0193 29.4836L26.4048 29.6885C26.4048 29.6885 26.5549 30.3685 27.0705 30.4054L27.0193 29.4836Z" fill="white"/>
<path d="M20.1987 26.4942C20.1987 26.4942 21.7334 25.9119 23.8119 24.266C25.9711 22.5564 25.3655 20.9387 25.1572 19.8645C25.0525 19.3241 23.4139 20.3929 21.946 21.6917L20.1987 26.4942Z" fill="#61C0B7"/>
<path d="M15.0146 31.5997C15.0146 31.5997 12.9306 30.4449 12.2444 28.3485C11.851 27.1475 12.0993 25.3704 12.9969 24.0025C15.6329 19.9859 18.4466 19.8952 21.9461 21.6916C21.9461 21.6916 21.1966 25.1776 19.3481 27.9241C17.5 30.6706 15.5289 32.0579 15.5289 32.0579L15.0146 31.5997Z" fill="white"/>
<path d="M14.6278 22.1174C14.4327 21.8408 13.9951 21.856 13.5753 22.4689C13.111 23.1474 13.3682 23.5896 13.8593 23.5128C14.3504 23.436 14.9455 22.567 14.6278 22.1174Z" fill="#61C0B7"/>
<path d="M14.0578 22.7595C14.9035 23.6032 15.8388 24.3344 16.8734 24.9318C17.927 25.5401 19.0474 26.0266 20.1448 26.5487C20.248 26.598 20.3384 26.4444 20.2348 26.3947C19.1517 25.8792 18.0496 25.3958 17.0061 24.8019C15.9668 24.2103 15.03 23.4771 14.1839 22.633C14.1024 22.5523 13.9764 22.6784 14.0578 22.7595Z" fill="#61C0B7"/>
<path d="M14.4712 31.4607C14.4712 31.4607 15.2653 30.5968 15.474 30.1581L15.9829 30.6337C15.9829 30.6337 15.2862 31.6826 14.8545 31.8355L14.4712 31.4607Z" fill="#221927"/>
<path d="M40.941 32.8097C41.4197 32.7833 41.7871 32.39 41.7615 31.9314C41.7491 31.7061 41.644 31.5071 41.4837 31.3658C41.0667 31.6102 40.5729 31.8934 40.0515 32.1786C40.1477 32.5607 40.5166 32.8334 40.941 32.8097Z" fill="#FFE8E8"/>
<path d="M41.3952 34.9445C41.3952 35.3239 41.0744 35.6315 40.6783 35.6315C40.2822 35.6315 39.9614 35.3239 39.9614 34.9445C39.9614 34.5651 40.2822 34.2574 40.6783 34.2574C41.0744 34.2574 41.3952 34.5651 41.3952 34.9445Z" fill="#FFE8E8"/>
<path d="M32.455 15.8573C32.455 16.218 32.1625 16.5105 31.8017 16.5105C31.4409 16.5105 31.1484 16.218 31.1484 15.8573C31.1484 15.4965 31.4409 15.204 31.8017 15.204C32.1625 15.2036 32.455 15.4965 32.455 15.8573Z" fill="white"/>
<path d="M30.8487 24.3644C32.0175 23.6239 32.7092 25.6753 32.9203 26.481C33.0479 26.9674 33.0871 27.4919 33.1309 27.992C33.1775 28.5269 33.1953 29.0638 33.1965 29.6007C33.1984 30.683 33.1177 31.7646 32.9947 32.8391C32.9362 33.3504 32.8652 33.8605 32.7872 34.3695C32.7701 34.482 32.9416 34.5301 32.9591 34.4168C33.2806 32.317 33.4831 30.1791 33.3144 28.0552C33.2535 27.2887 33.1573 26.5256 32.8935 25.8006C32.6941 25.2532 32.4276 24.6589 31.971 24.2772C31.6048 23.9707 31.1583 23.9575 30.7591 24.2104C30.6621 24.2721 30.7514 24.4261 30.8487 24.3644Z" fill="#A02524"/>
<path d="M30.727 24.3592C31.2872 24.6505 31.4908 25.3007 31.6045 25.8795C31.7255 26.4951 31.7317 27.124 31.7895 27.747C31.8 27.8602 31.9785 27.8614 31.9676 27.747C31.9071 27.0925 31.8947 26.4358 31.7678 25.7887C31.648 25.1789 31.4012 24.5089 30.817 24.2052C30.715 24.1524 30.625 24.3064 30.727 24.3592Z" fill="#A02524"/>
<path d="M29.869 24.235C28.5912 25.0167 28.2401 26.6506 28.192 28.0429C28.1676 28.7427 28.2405 29.4356 28.3425 30.1265C28.4744 31.0179 28.6645 31.9024 28.8841 32.7756C28.9923 33.2062 29.111 33.6345 29.2503 34.0562C29.2863 34.1648 29.4586 34.1182 29.4221 34.0089C29.1482 33.1814 28.9465 32.3291 28.7681 31.4768C28.6055 30.701 28.4636 29.9143 28.3972 29.1237C28.2781 27.705 28.3945 25.9745 29.3884 24.8607C29.5536 24.6753 29.7468 24.5186 29.9586 24.389C30.0568 24.3289 29.9672 24.1745 29.869 24.235Z" fill="#A02524"/>
<path d="M33.0259 23.8082C34.4128 24.6438 34.9109 26.2723 35.1211 27.7872C35.236 28.6154 35.241 29.451 35.2817 30.2851C35.3264 31.1897 35.3717 32.1355 35.1025 33.0118C35.0688 33.122 35.2406 33.1685 35.2744 33.0591C35.5483 32.1669 35.5044 31.2056 35.4602 30.2851C35.4187 29.4177 35.4059 28.5526 35.2864 27.691C35.0715 26.1439 34.5253 24.503 33.1163 23.6542C33.017 23.5949 32.9278 23.7493 33.0259 23.8082Z" fill="#A02524"/>
<path d="M49.3546 34.9468C49.3546 34.9468 49.4927 38.4533 44.6797 40.282C44.6797 40.282 44.3911 43.8435 46.2198 44.7098C46.2198 44.7098 49.8205 44.0495 50.7799 41.5051C52.2563 37.5909 49.3546 34.9468 49.3546 34.9468Z" fill="#904BAB"/>
<path d="M46.2206 44.7097C46.2206 44.7097 47.0515 44.5572 48.0213 44.1169C49.1766 42.5548 51.2093 39.6333 50.9781 38.7088C50.6573 37.4256 48.9842 37.329 48.9842 37.329C48.9842 37.329 49.3845 40.3824 48.1653 41.3448C48.1653 41.3448 46.5255 41.9151 45.7671 44.4063C45.9013 44.527 46.0518 44.6298 46.2206 44.7097Z" fill="#7C4194"/>
<path d="M38.335 30.086C38.335 30.086 37.7577 28.7388 36.9877 29.4603C36.7216 29.7098 36.5873 30.3491 36.8616 30.8157C37.1592 31.3228 37.8904 31.6378 38.191 31.3371L38.335 30.086Z" fill="#FFA987"/>
<path d="M7.72373 38.3149C6.9568 39.2739 7.18684 41.0137 7.76718 41.9971C8.42588 43.114 10.2976 44.1839 11.5522 44.4961C12.8223 44.8123 12.6997 43.8526 13.3782 43.9375C14.2211 44.043 14.2394 44.1152 14.9501 43.3584C15.9816 42.2605 16.1724 40.5288 16.1049 39.0357C16.0692 38.249 15.6518 37.432 15.125 36.8214C14.3441 35.9167 13.159 35.632 12.1892 36.3019C11.4246 36.8303 11.7287 37.7543 10.5455 37.6031C9.39881 37.4564 8.54963 37.2826 7.72373 38.3149Z" fill="#DA1E2D"/>
<path d="M11.8167 37.9033C12.1717 37.3226 12.0557 36.6317 11.9792 36.4812C11.4718 37.0138 11.6033 37.7385 10.5451 37.6031C10.3767 37.5818 10.2146 37.5596 10.0582 37.5406C10.028 37.6562 10.0187 37.7827 10.0369 37.9212C10.0369 37.9212 11.3155 38.723 11.8167 37.9033Z" fill="#951E2D"/>
<path d="M11.1982 37.7403C11.2293 37.1863 9.91419 36.315 9.47816 36.1102C8.74381 35.7653 7.81356 35.7816 7.05322 36.0125C7.18008 36.6347 8.2364 37.6518 8.80549 37.8776C9.54295 38.1701 10.1702 38.0029 10.8809 37.8082L11.1982 37.7403Z" fill="#61C0B7"/>
<path d="M7.07611 36.0056C7.06835 36.0079 7.06098 36.0099 7.05322 36.0122C7.18008 36.6344 8.24416 37.633 8.80549 37.8774C9.89286 38.351 11.2611 37.7466 11.2611 37.7466C10.0112 37.4988 7.88533 36.4335 7.07611 36.0056Z" fill="#4C9991"/>
<path d="M11.4589 37.7943C11.4589 37.7943 10.5333 36.4028 11.0392 34.0806C11.0392 34.0806 10.5698 33.5046 10.0146 34.1167C10.0146 34.1167 10.2001 36.9521 11.3169 37.911C11.3165 37.911 11.4748 37.9351 11.4589 37.7943Z" fill="#61C0B7"/>
<path d="M15.1172 37.9187C14.9159 37.5098 14.2917 36.673 13.7358 36.9477C12.8995 37.3612 14.5466 39.8998 14.9516 39.8199C15.5793 39.6962 15.5048 38.7062 15.1172 37.9187Z" fill="#E35A2D"/>
<path d="M49.7433 40.2494L60.4242 38.664L59.9718 35.6176L49.291 37.203C49.291 37.2026 50.3051 38.9968 49.7433 40.2494Z" fill="white"/>
<path d="M59.9369 35.5919L58.8896 35.7473L59.3371 38.7623L60.3843 38.6069L59.9369 35.5919Z" fill="#FFE8E8"/>
<path d="M50.3988 38.1105C50.4104 38.1892 50.4841 38.2439 50.5629 38.2319L60.2735 36.7908C60.3522 36.7791 60.4069 36.7054 60.3949 36.6267C60.3833 36.5479 60.31 36.4932 60.2308 36.5049L50.5202 37.9464C50.4418 37.958 50.3871 38.0317 50.3988 38.1105Z" fill="#FFE8E8"/>
<path d="M50.5255 38.9673C50.5371 39.0461 50.6108 39.1008 50.6896 39.0891L60.4002 37.6476C60.479 37.6359 60.5337 37.5622 60.5216 37.4835C60.51 37.4047 60.4367 37.35 60.3575 37.3617L50.6469 38.8032C50.5682 38.8148 50.5139 38.8882 50.5255 38.9673Z" fill="#FFE8E8"/>
<path d="M59.8647 39.238C59.8647 39.238 59.8003 39.0529 59.5943 39.0836C59.4093 39.1111 59.3635 39.3125 59.3635 39.3125L49.296 40.8072L49.1901 40.093L59.2576 38.5987C59.2576 38.5987 59.3138 38.3958 59.4884 38.3698C59.6839 38.3407 59.7588 38.5242 59.7588 38.5242C59.907 38.4749 60.17 38.4102 60.2053 38.0661C60.2286 37.8399 60.2274 37.5001 60.1731 37.1052C60.1103 36.711 60.0377 36.3731 59.9248 36.1761C59.7898 35.9406 59.5912 35.8688 59.3654 35.8747C59.3654 35.8747 59.3682 36.069 59.1513 36.1008C58.9554 36.1299 58.8638 35.9487 58.8638 35.9487L48.7963 37.443L48.6904 36.7289L58.7579 35.2346C58.7579 35.2346 58.839 35.4173 59.0454 35.3866C59.2622 35.3544 59.2595 35.1605 59.2595 35.1605L59.2603 35.1659C60.5533 35.0705 60.724 36.2195 60.724 36.2195L60.9575 37.7922C60.9571 37.7918 61.2248 39.0359 59.8647 39.238Z" fill="#FF860C"/>
<path d="M59.1432 43.0059L48.4623 44.5914L48.01 41.5446L58.6908 39.9591C58.6912 39.9595 58.2416 41.9705 59.1432 43.0059Z" fill="white"/>
<path d="M49.0848 41.3564L48.0376 41.5118L48.485 44.5269L49.5323 44.3715L49.0848 41.3564Z" fill="#FFE8E8"/>
<path d="M57.8947 41.1497C57.9063 41.2284 57.852 41.3021 57.7733 41.3138L48.0626 42.7549C47.9839 42.7666 47.9106 42.7122 47.8985 42.6331C47.8869 42.5544 47.9412 42.481 48.02 42.469L57.7306 41.0275C57.8093 41.0162 57.8827 41.0705 57.8947 41.1497Z" fill="#FFE8E8"/>
<path d="M58.0222 42.0063C58.0339 42.0851 57.9795 42.1588 57.9008 42.1704L48.1906 43.612C48.1114 43.6236 48.0381 43.5693 48.0265 43.4902C48.0148 43.4114 48.0691 43.3381 48.1479 43.3261L57.8585 41.8845C57.9369 41.8733 58.0102 41.9276 58.0222 42.0063Z" fill="#FFE8E8"/>
<path d="M49.1646 44.9781C49.1646 44.9781 49.1723 44.7822 49.3787 44.7516C49.5637 44.724 49.6661 44.9036 49.6661 44.9036L59.7337 43.4093L59.6278 42.6952L49.5602 44.1895C49.5602 44.1895 49.4474 44.0114 49.2728 44.0374C49.0773 44.0665 49.0587 44.2639 49.0587 44.2639C48.9023 44.2597 48.6319 44.274 48.4981 43.9552C48.41 43.7457 48.3127 43.4202 48.2498 43.0261C48.1955 42.6308 48.1668 42.2863 48.2176 42.0652C48.2785 41.8006 48.4477 41.6741 48.6653 41.614C48.6653 41.614 48.7188 41.8006 48.9361 41.7684C49.1316 41.7393 49.1669 41.5395 49.1669 41.5395L59.2344 40.0452L59.1285 39.3311L49.061 40.8254C49.061 40.8254 49.0365 41.0236 48.8302 41.0542C48.6133 41.0864 48.5598 40.8998 48.5598 40.8998L48.5606 40.9053C47.2955 41.1896 47.4662 42.3387 47.4662 42.3387L47.6997 43.9113C47.699 43.9117 47.8041 45.1802 49.1646 44.9781Z" fill="#61A7C0"/>
<path d="M5.95168 34.4138C6.06534 34.7451 5.89737 37.2635 5.71155 37.3271C5.5878 37.3694 3.95307 35.8534 3.72148 35.1799L0.130429 24.7256C-0.080992 24.1096 -0.15431 23.5766 0.862449 23.2275C1.95175 22.8531 2.16628 23.3935 2.36063 23.9595L5.95168 34.4138Z" fill="#FFCC0C"/>
<path d="M1.25697 25.2892L0.908447 25.4091L4.21406 35.0249L4.56258 34.9051L1.25697 25.2892Z" fill="#FF9D0C"/>
<path d="M2.16647 24.976L1.81787 25.0956L5.11637 34.7135L5.46496 34.5939L2.16647 24.976Z" fill="#FF9D0C"/>
<path d="M5.95163 34.4138C6.0653 34.7451 5.89732 37.2635 5.71151 37.3272C5.58776 37.3694 3.95303 35.8534 3.72144 35.18C3.72144 35.18 4.65479 34.4352 5.95163 34.4138Z" fill="#FF860C"/>
<path d="M2.62869 24.7397L2.36063 23.96C2.16628 23.394 1.95175 22.8536 0.862449 23.228C-0.15431 23.5771 -0.080992 24.1101 0.130429 24.7261L0.398487 25.5063L2.62869 24.7397Z" fill="#61C0B7"/>
<path d="M2.56634 24.5579L0.335938 25.3241L0.569989 26.0054L2.80039 25.2392L2.56634 24.5579Z" fill="#FF860C"/>
<path d="M5.89892 36.4683C5.36629 36.438 5.1347 36.7065 5.06177 36.8194C5.39151 37.1286 5.66422 37.3442 5.71155 37.3276C5.78099 37.3035 5.8481 36.9361 5.89892 36.4683Z" fill="#43234F"/>
<path d="M66.5844 34.4999L65.8334 26.1277C65.8167 25.9391 65.6484 25.7983 65.4594 25.8154L57.0872 26.5664C56.7636 26.5629 56.5511 26.8531 56.9087 27.1522L66.0394 34.7796C66.3854 35.0682 66.6275 34.7428 66.5844 34.4999ZM64.4594 31.5629L60.3528 28.1325C60.1953 28.001 60.3947 27.921 60.4777 27.9137L64.1579 27.5835C64.241 27.5762 64.3147 27.6379 64.3224 27.7209L64.6526 31.4011C64.6599 31.4842 64.6114 31.6898 64.4594 31.5629Z" fill="#61C0B7"/>
<path d="M59.4934 28.2767L58.9834 28.8873L59.1772 29.0492L59.6872 28.4386L59.4934 28.2767Z" fill="#3D7872"/>
<path d="M58.309 27.2843L57.7988 27.8949L57.9926 28.0568L58.5028 27.4463L58.309 27.2843Z" fill="#3D7872"/>
<path d="M60.6846 29.2735L60.1746 29.8842L60.3684 30.046L60.8784 29.4354L60.6846 29.2735Z" fill="#3D7872"/>
<path d="M65.4406 33.2479L64.9304 33.8584L65.1242 34.0203L65.6344 33.4098L65.4406 33.2479Z" fill="#3D7872"/>
<path d="M64.257 32.2542L63.7468 32.8647L63.9406 33.0267L64.4508 32.4161L64.257 32.2542Z" fill="#3D7872"/>
<path d="M63.0627 31.2597L62.5527 31.8704L62.7466 32.0322L63.2566 31.4216L63.0627 31.2597Z" fill="#3D7872"/>
<path d="M61.877 30.2617L61.3669 30.8723L61.5608 31.0342L62.0709 30.4236L61.877 30.2617Z" fill="#3D7872"/>
<path d="M9.90074 13.2823C9.32195 13.605 9.15475 14.403 9.40885 15.0536C8.98872 14.4953 8.28735 14.1819 7.64339 14.5411C6.84193 14.988 6.56417 16.1149 7.45679 16.935C8.39985 17.8013 11.1623 18.1973 11.1623 18.1973C11.1623 18.1973 12.2229 15.6483 12.0355 14.3813C11.8478 13.1124 10.7022 12.8354 9.90074 13.2823Z" fill="#DA1E2D"/>
<path d="M11.5005 14.1528C11.4644 14.36 11.1602 14.4802 10.8216 14.4213C10.4825 14.3623 10.237 14.1466 10.273 13.9395C10.3091 13.7323 10.6133 13.6121 10.9519 13.6714C11.291 13.73 11.5365 13.9457 11.5005 14.1528Z" fill="#E35A2D"/>
<path d="M56.2168 8.91771C55.5623 8.81219 54.9366 9.33434 54.7326 10.0027C54.7492 9.30447 54.3927 8.62366 53.665 8.50611C52.7592 8.35987 51.8425 9.07171 52.0345 10.2689C52.2374 11.5331 54.1592 13.5566 54.1592 13.5566C54.1592 13.5566 56.5717 12.2139 57.2103 11.1037C57.8499 9.99149 57.1226 9.06396 56.2168 8.91771Z" fill="#DA1E2D"/>
<path d="M56.9207 10.592C56.764 10.7321 56.4509 10.6378 56.2217 10.3814C55.9924 10.1249 55.9334 9.80336 56.0902 9.66332C56.2469 9.52327 56.5599 9.61715 56.7892 9.87396C57.0185 10.1304 57.0774 10.452 56.9207 10.592Z" fill="#E35A2D"/>
<path d="M51.5353 3.1743C50.9875 3.24878 50.6151 3.81709 50.6143 4.39976C50.4584 3.83843 50.0088 3.38184 49.3997 3.46447C48.6417 3.56765 48.0827 4.35786 48.5261 5.26639C48.9947 6.22613 51.0185 7.374 51.0185 7.374C51.0185 7.374 52.6176 5.71794 52.8577 4.67713C53.0986 3.63477 52.2933 3.07111 51.5353 3.1743Z" fill="#DA1E2D"/>
<path d="M52.5067 4.30279C52.4155 4.45253 52.1432 4.45331 51.898 4.30434C51.6529 4.15538 51.5279 3.91331 51.6187 3.76318C51.7099 3.61344 51.9822 3.61267 52.2274 3.76163C52.4729 3.91098 52.5979 4.15305 52.5067 4.30279Z" fill="#E35A2D"/>
<path d="M16.3573 5.75552L16.0132 2.15633L26.8162 1.81262L18.2795 3.48343L16.3573 5.75552Z" fill="#FF860C"/>
<path d="M17.2178 3.0542L16.3574 5.75573L19.0655 4.2626L17.2178 3.0542Z" fill="#FF9D0C"/>
<path d="M26.8165 1.81262L17.218 3.05399L20.3284 6.76065L26.8165 1.81262Z" fill="#FFCC0C"/>
<path d="M26.8162 1.81286L14.5713 0.548218L16.0132 2.15657L26.8162 1.81286Z" fill="#FFCC0C"/>
<path d="M14.5659 6.35458C14.5224 6.35458 14.4794 6.3348 14.4515 6.29678C14.4045 6.23355 14.4177 6.14432 14.4809 6.09738C14.5007 6.08264 14.5201 6.06674 14.538 6.05006C14.5962 5.99691 14.6862 6.0004 14.7393 6.05859C14.7924 6.11639 14.789 6.20678 14.7308 6.25993C14.7055 6.2832 14.6784 6.30531 14.6508 6.32626C14.6252 6.34566 14.5958 6.35458 14.5659 6.35458Z" fill="#43234F"/>
<path d="M5.06958 23.4002C5.04514 23.4002 5.02031 23.394 4.99781 23.3808C4.92992 23.3413 4.90704 23.2536 4.94661 23.1857C4.97492 23.1376 5.00169 23.0875 5.02613 23.0379C5.06066 22.9673 5.14639 22.9378 5.21699 22.9727C5.28759 23.0072 5.31708 23.093 5.28216 23.1636C5.25462 23.2198 5.22475 23.2757 5.19294 23.33C5.16617 23.375 5.11846 23.4002 5.06958 23.4002ZM5.36983 22.5658C5.36208 22.5658 5.35432 22.565 5.34617 22.5638C5.26859 22.551 5.21583 22.4773 5.22902 22.3997C5.23794 22.3451 5.24531 22.2888 5.25113 22.2322C5.25889 22.1538 5.3291 22.0964 5.40708 22.1041C5.48544 22.1119 5.54285 22.1817 5.53509 22.2601C5.52888 22.3229 5.52074 22.3854 5.51065 22.4463C5.49863 22.5161 5.43811 22.5658 5.36983 22.5658ZM5.37759 21.6767C5.30699 21.6767 5.2457 21.6243 5.23639 21.5525C5.22902 21.4967 5.22048 21.4396 5.2104 21.3826C5.19643 21.305 5.24841 21.2309 5.32561 21.2173C5.4032 21.2034 5.47729 21.2554 5.49087 21.3326C5.50173 21.3935 5.51143 21.4551 5.51919 21.5153C5.52927 21.5932 5.47419 21.665 5.39621 21.6751C5.39001 21.6763 5.3838 21.6767 5.37759 21.6767ZM5.16966 20.8108C5.11031 20.8108 5.05484 20.7736 5.03466 20.7142C5.01643 20.6603 4.99665 20.6052 4.9757 20.5505C4.94816 20.4768 4.9854 20.3945 5.0591 20.367C5.13281 20.3395 5.21505 20.3767 5.24259 20.4504C5.26432 20.5082 5.28488 20.566 5.30427 20.6227C5.32988 20.6971 5.28992 20.7782 5.21544 20.8038C5.20031 20.8085 5.18479 20.8108 5.16966 20.8108ZM4.82208 19.9896C4.76971 19.9896 4.71928 19.9608 4.69445 19.9108C4.66846 19.8584 4.64131 19.8064 4.61415 19.7545C4.5773 19.6846 4.60406 19.5985 4.67389 19.5617C4.74333 19.5248 4.82984 19.5516 4.86669 19.6214C4.89501 19.6749 4.92294 19.7289 4.94971 19.7832C4.98501 19.8538 4.9563 19.9391 4.88609 19.9744C4.86514 19.9849 4.84342 19.9896 4.82208 19.9896ZM4.38256 19.2129C4.33523 19.2129 4.28868 19.1893 4.26152 19.1462C4.2301 19.0965 4.19868 19.0469 4.16687 18.998C4.12381 18.9321 4.14282 18.8436 4.20877 18.8006C4.27471 18.7575 4.36316 18.7765 4.40583 18.8424C4.43842 18.8929 4.47101 18.9433 4.50282 18.9945C4.54471 19.0612 4.52454 19.1493 4.45782 19.1912C4.43493 19.2055 4.40855 19.2129 4.38256 19.2129ZM3.8798 18.4759C3.83597 18.4759 3.79291 18.4557 3.76498 18.4177C3.72967 18.3696 3.69437 18.3226 3.65907 18.2761C3.61174 18.2132 3.62377 18.124 3.68661 18.0763C3.74946 18.029 3.83868 18.041 3.8864 18.1038C3.92247 18.1512 3.95855 18.1997 3.99424 18.2485C4.04118 18.3118 4.0276 18.4014 3.96398 18.4479C3.93877 18.4669 3.90929 18.4759 3.8798 18.4759ZM3.32817 17.7741C3.28744 17.7741 3.2467 17.7566 3.21877 17.7229C3.18425 17.6814 3.15011 17.641 3.11636 17.6015L3.10317 17.5859C3.05274 17.5254 3.06127 17.4354 3.12179 17.385C3.18231 17.3346 3.27231 17.3431 3.32274 17.4036L3.33438 17.418C3.36774 17.4568 3.40226 17.4979 3.43756 17.5402C3.488 17.6007 3.47985 17.6907 3.41933 17.7411C3.39295 17.7632 3.36037 17.7741 3.32817 17.7741ZM2.78352 17.0681C2.73813 17.0681 2.69313 17.0463 2.66559 17.006C2.63145 16.956 2.5977 16.9051 2.56473 16.8547C2.52205 16.7888 2.54067 16.7003 2.60701 16.6576C2.67296 16.615 2.76141 16.6336 2.80408 16.6999C2.83589 16.7488 2.86809 16.7973 2.90106 16.8454C2.94528 16.9106 2.9286 16.999 2.86382 17.0436C2.83938 17.0599 2.81106 17.0681 2.78352 17.0681ZM2.3277 16.3019C2.27572 16.3019 2.22568 16.2736 2.20046 16.2243C2.17292 16.1708 2.14576 16.1157 2.11977 16.061C2.08564 15.99 2.11589 15.9047 2.18688 15.8709C2.25788 15.8372 2.34322 15.867 2.37697 15.938C2.4018 15.9904 2.42779 16.0428 2.45417 16.0944C2.48986 16.1646 2.46231 16.2503 2.3921 16.2864C2.37154 16.2969 2.34943 16.3019 2.3277 16.3019ZM1.97779 15.483C1.91883 15.483 1.86335 15.4461 1.84318 15.3872C1.8234 15.3298 1.804 15.2716 1.78615 15.2138C1.76249 15.1385 1.80439 15.0586 1.87965 15.0349C1.9549 15.0113 2.03482 15.0532 2.05848 15.1284C2.07555 15.1835 2.09417 15.239 2.11279 15.2937C2.13839 15.3682 2.09921 15.4492 2.02473 15.4752C2.00883 15.4803 1.99292 15.483 1.97779 15.483ZM1.74969 14.6218C1.68219 14.6218 1.62245 14.5737 1.60965 14.505C1.59879 14.4453 1.58831 14.3848 1.57939 14.3246C1.56736 14.2467 1.62129 14.1741 1.69887 14.1621C1.77684 14.1505 1.84939 14.2036 1.86141 14.2816C1.86995 14.3386 1.87965 14.3964 1.89012 14.453C1.90447 14.5306 1.85327 14.6047 1.77568 14.6191C1.76676 14.621 1.75822 14.6218 1.74969 14.6218ZM1.65891 13.7354C1.58172 13.7354 1.5181 13.6733 1.51654 13.5957C1.51577 13.5573 1.51538 13.5189 1.51538 13.4805C1.51538 13.458 1.51538 13.4355 1.51577 13.4126C1.51654 13.3346 1.58055 13.2718 1.65814 13.2718C1.65891 13.2718 1.6593 13.2718 1.66008 13.2718C1.73883 13.273 1.80167 13.3374 1.8009 13.4161C1.80051 13.4374 1.80051 13.4588 1.80051 13.4801C1.80051 13.5166 1.8009 13.553 1.80167 13.5895C1.80322 13.6683 1.74077 13.7334 1.66202 13.735C1.66085 13.7354 1.65969 13.7354 1.65891 13.7354ZM1.71478 12.8462C1.70779 12.8462 1.70081 12.8459 1.69383 12.8447C1.61585 12.8331 1.56193 12.7609 1.57357 12.6829C1.58249 12.6228 1.59258 12.5619 1.60344 12.5022C1.61741 12.4246 1.69189 12.373 1.76909 12.3873C1.84667 12.4013 1.89788 12.4758 1.88391 12.5534C1.87344 12.61 1.86413 12.6678 1.85559 12.7248C1.84512 12.795 1.78422 12.8462 1.71478 12.8462ZM1.91805 11.9784C1.90331 11.9784 1.88857 11.9761 1.87421 11.9715C1.79934 11.947 1.75822 11.8667 1.78266 11.7919C1.80128 11.7341 1.82146 11.6759 1.84202 11.6185C1.86878 11.5444 1.95064 11.506 2.02434 11.5327C2.09844 11.5595 2.13684 11.641 2.11007 11.715C2.09029 11.7694 2.07167 11.8248 2.05382 11.8795C2.03404 11.94 1.97818 11.9784 1.91805 11.9784ZM2.2602 11.1557C2.23848 11.1557 2.21598 11.1506 2.19542 11.1401C2.1252 11.1041 2.09766 11.0183 2.13335 10.9481C2.16089 10.8946 2.1896 10.8403 2.21908 10.7867C2.2571 10.7177 2.344 10.6929 2.41266 10.7309C2.48171 10.7689 2.50654 10.8554 2.46852 10.9244C2.44059 10.9753 2.41305 11.0269 2.38667 11.0781C2.36223 11.1273 2.31219 11.1557 2.2602 11.1557ZM7.3409 11.0831C7.26215 11.0831 7.19736 11.0191 7.19736 10.9404C7.19736 10.8616 7.26021 10.7976 7.33896 10.7976H7.35448C7.40297 10.7957 7.45146 10.7914 7.49801 10.7852C7.57637 10.7751 7.64775 10.8302 7.65783 10.9082C7.66792 10.9861 7.61322 11.0579 7.53486 11.068C7.47861 11.0754 7.4212 11.0804 7.36301 11.0827C7.36146 11.0827 7.35991 11.0827 7.35797 11.0827L7.3409 11.0831ZM6.64379 10.9493C6.62478 10.9493 6.60577 10.9454 6.58715 10.9376C6.52702 10.9116 6.46845 10.8818 6.41259 10.8492C6.3447 10.8092 6.3222 10.7219 6.36177 10.6541C6.40172 10.5862 6.48901 10.5637 6.55689 10.6036C6.60267 10.6304 6.65077 10.6548 6.70004 10.6762C6.77219 10.7076 6.80556 10.7914 6.77413 10.8635C6.75163 10.9171 6.69888 10.9493 6.64379 10.9493ZM8.18037 10.8248C8.1346 10.8248 8.0896 10.8026 8.06206 10.7619C8.01822 10.6963 8.03529 10.6079 8.10085 10.5641C8.14507 10.5342 8.18813 10.5012 8.22809 10.4663C8.28744 10.4143 8.37744 10.4205 8.42942 10.4799C8.48141 10.5392 8.4752 10.6292 8.41585 10.6812C8.36697 10.7239 8.3146 10.7642 8.26029 10.8007C8.23546 10.817 8.20753 10.8248 8.18037 10.8248ZM2.72455 10.3949C2.69585 10.3949 2.66675 10.3864 2.64192 10.3682C2.57792 10.3224 2.56279 10.2335 2.60856 10.1692C2.64348 10.1203 2.67994 10.0706 2.71641 10.0221C2.76373 9.95928 2.85334 9.94687 2.91619 9.99458C2.97903 10.0419 2.99145 10.1315 2.94412 10.1944C2.90921 10.2405 2.87429 10.2879 2.84093 10.3348C2.813 10.374 2.76916 10.3949 2.72455 10.3949ZM5.97927 10.3755C5.93272 10.3755 5.88694 10.3526 5.8594 10.3107C5.82526 10.2584 5.79268 10.2025 5.76281 10.1451C5.72634 10.0753 5.75311 9.98915 5.82294 9.95269C5.89276 9.91622 5.97888 9.94299 6.01535 10.0128C6.04134 10.0621 6.06927 10.1102 6.09836 10.1552C6.14142 10.2211 6.12242 10.3096 6.05647 10.3523C6.0328 10.3682 6.00604 10.3755 5.97927 10.3755ZM8.71727 10.1319C8.70136 10.1319 8.68546 10.1292 8.66994 10.1238C8.59546 10.0978 8.55666 10.0163 8.58266 9.94183C8.6005 9.89178 8.61485 9.8398 8.6261 9.78782C8.64278 9.71101 8.71843 9.66174 8.79524 9.67803C8.87205 9.69472 8.92132 9.77036 8.90502 9.84717C8.89145 9.91118 8.8736 9.9748 8.85188 10.0361C8.83093 10.0954 8.77584 10.1319 8.71727 10.1319ZM3.28976 9.70558C3.25485 9.70558 3.21994 9.69278 3.19239 9.66717C3.13498 9.61325 3.13149 9.52325 3.18541 9.46545C3.22653 9.42123 3.26843 9.37739 3.3111 9.33394C3.36619 9.27769 3.45657 9.27692 3.51282 9.332C3.56907 9.38709 3.56985 9.47748 3.51476 9.53373C3.47364 9.57562 3.4333 9.61791 3.39373 9.66019C3.36619 9.69045 3.32817 9.70558 3.28976 9.70558ZM5.65884 9.54847C5.59251 9.54847 5.53276 9.50153 5.51919 9.43403C5.50716 9.37429 5.49669 9.31261 5.48777 9.25054C5.47652 9.17256 5.53044 9.10041 5.60841 9.08916C5.68638 9.07791 5.75854 9.13183 5.76979 9.20981C5.77794 9.26683 5.78763 9.32347 5.79888 9.37817C5.8144 9.45536 5.76436 9.53062 5.68716 9.54614C5.67746 9.54769 5.66815 9.54847 5.65884 9.54847ZM8.73783 9.25442C8.67615 9.25442 8.61912 9.21407 8.60089 9.15162C8.58615 9.10041 8.56791 9.04882 8.54697 8.99877C8.51632 8.92623 8.55085 8.84244 8.62339 8.81218C8.69593 8.78153 8.77972 8.81606 8.80998 8.8886C8.8352 8.94873 8.85692 9.01041 8.87477 9.07209C8.89649 9.14774 8.85304 9.22687 8.7774 9.2486C8.76421 9.25287 8.75102 9.25442 8.73783 9.25442ZM3.95545 9.1136C3.91084 9.1136 3.867 9.09265 3.83907 9.05347C3.79329 8.98907 3.80842 8.90024 3.87282 8.85446C3.9217 8.81994 3.97252 8.78502 4.0245 8.75089C4.09045 8.70744 4.17851 8.72567 4.22196 8.79162C4.2654 8.85757 4.24717 8.94563 4.18122 8.98907C4.13234 9.02127 4.08424 9.05425 4.03808 9.08722C4.01286 9.10506 3.98416 9.1136 3.95545 9.1136ZM5.59445 8.6605C5.59251 8.6605 5.59057 8.6605 5.58863 8.6605C5.50988 8.6574 5.44858 8.59106 5.45208 8.51231C5.4544 8.45102 5.45828 8.38934 5.46333 8.32843C5.4641 8.31679 5.46682 8.30554 5.47031 8.29507C5.44315 8.278 5.42143 8.25201 5.41057 8.21904C5.38574 8.14417 5.42608 8.06348 5.50095 8.03865C5.55914 8.01925 5.61772 8.00102 5.67513 7.98356C5.75078 7.96106 5.82992 8.00412 5.85242 8.07938C5.87492 8.15503 5.83186 8.23417 5.7566 8.25667C5.7469 8.25938 5.7372 8.26249 5.72712 8.26559C5.74225 8.29042 5.75 8.3199 5.74729 8.35132C5.74263 8.40835 5.73914 8.46615 5.73681 8.52356C5.73371 8.60037 5.67048 8.6605 5.59445 8.6605ZM4.72199 8.65778C4.66962 8.65778 4.61919 8.62869 4.59437 8.57865C4.55906 8.50804 4.58777 8.4227 4.65837 8.3874C4.71268 8.36024 4.76777 8.33386 4.82286 8.30826C4.89423 8.27529 4.97919 8.30593 5.01216 8.37731C5.04553 8.44869 5.01449 8.53365 4.94311 8.56662C4.89036 8.59106 4.8376 8.61666 4.78561 8.64227C4.76505 8.65274 4.74333 8.65778 4.72199 8.65778ZM8.26999 8.50804C8.23624 8.50804 8.20249 8.49602 8.17533 8.47197C8.13537 8.43628 8.0927 8.40291 8.04848 8.37188C7.98408 8.32688 7.96818 8.23766 8.01357 8.17326C8.05856 8.10887 8.14779 8.09296 8.21218 8.13835C8.26533 8.17559 8.31692 8.21632 8.36503 8.25899C8.42399 8.31136 8.42904 8.40136 8.37667 8.46033C8.34835 8.49214 8.30917 8.50804 8.26999 8.50804ZM7.47706 8.12244C7.46736 8.12244 7.45728 8.12128 7.44719 8.11934C7.39404 8.10809 7.33857 8.09839 7.28232 8.09063C7.20435 8.08016 7.14965 8.00839 7.16012 7.93042C7.1706 7.85244 7.24236 7.79775 7.32034 7.80822C7.38396 7.81676 7.44641 7.82762 7.50693 7.84042C7.58413 7.8571 7.63301 7.93275 7.61671 8.00956C7.60197 8.07667 7.54301 8.12244 7.47706 8.12244ZM6.41181 8.10731C6.34198 8.10731 6.28108 8.05611 6.27099 7.98512C6.25974 7.90714 6.31366 7.83499 6.39164 7.82374C6.45332 7.81482 6.515 7.80745 6.57513 7.80124C6.65349 7.79348 6.72332 7.85089 6.73107 7.92925C6.73883 8.00762 6.68142 8.07744 6.60345 8.0852C6.54758 8.09063 6.48978 8.098 6.43237 8.10615C6.42539 8.10693 6.4184 8.10731 6.41181 8.10731ZM5.72207 7.77913C5.71044 7.77913 5.69841 7.77757 5.68638 7.77447C5.60996 7.75507 5.56419 7.6771 5.58358 7.60107C5.5991 7.54055 5.61617 7.48042 5.63401 7.42262C5.65729 7.34736 5.7372 7.30547 5.81246 7.32874C5.88772 7.35202 5.92962 7.43193 5.90634 7.50719C5.88966 7.56072 5.87414 7.6162 5.85979 7.67206C5.84349 7.73607 5.78569 7.77913 5.72207 7.77913ZM6.06966 6.96254C6.04134 6.96254 6.01302 6.954 5.9878 6.93655C5.92341 6.89116 5.9075 6.80232 5.95289 6.73793C5.98936 6.68595 6.02776 6.63551 6.06733 6.58741C6.11737 6.52651 6.20737 6.51797 6.26789 6.56801C6.32879 6.61806 6.33733 6.70806 6.28728 6.76857C6.25237 6.81125 6.21823 6.85586 6.18604 6.90163C6.15888 6.9412 6.11466 6.96254 6.06966 6.96254ZM13.7204 6.59556C13.6443 6.59556 13.5811 6.53543 13.578 6.45901C13.5749 6.38026 13.6358 6.31392 13.7146 6.31043C13.7731 6.3081 13.8298 6.30384 13.8833 6.29802C13.9617 6.28948 14.0319 6.34612 14.0404 6.42448C14.049 6.50284 13.9923 6.57306 13.914 6.58159C13.8546 6.5878 13.7914 6.59245 13.7266 6.59517C13.7243 6.59556 13.7223 6.59556 13.7204 6.59556ZM13.0081 6.56336C13.0031 6.56336 12.9977 6.56297 12.9926 6.56258C12.9333 6.55599 12.8731 6.54901 12.8122 6.54086C12.7343 6.53077 12.6792 6.45901 12.6893 6.38103C12.6993 6.30306 12.7711 6.24797 12.8491 6.25806C12.9081 6.26582 12.9662 6.2728 13.0233 6.27901C13.1016 6.28754 13.1583 6.35776 13.1497 6.43612C13.142 6.50944 13.0799 6.56336 13.0081 6.56336ZM12.1256 6.4303C12.1171 6.4303 12.1085 6.42952 12.1 6.42797C12.0418 6.4175 11.9828 6.40664 11.9235 6.39539C11.8463 6.38103 11.7951 6.30655 11.8094 6.22897C11.8238 6.15138 11.8983 6.10056 11.9759 6.11492C12.0344 6.12578 12.0926 6.13664 12.1504 6.14711C12.228 6.16108 12.2792 6.23517 12.2656 6.31276C12.2536 6.38181 12.1935 6.4303 12.1256 6.4303ZM6.71129 6.35155C6.66396 6.35155 6.61741 6.32789 6.59026 6.28483C6.54836 6.2181 6.56853 6.13004 6.63526 6.08815C6.68801 6.05517 6.7431 6.02336 6.79935 5.99388C6.86918 5.95742 6.9553 5.98418 6.99176 6.05401C7.02823 6.12384 7.00146 6.20996 6.93163 6.24642C6.88198 6.27241 6.8331 6.30073 6.78655 6.32983C6.76327 6.34457 6.73728 6.35155 6.71129 6.35155ZM11.2489 6.2631C11.24 6.2631 11.2307 6.26233 11.2213 6.26039L11.0464 6.22664C10.9692 6.2119 10.9184 6.13703 10.9331 6.05983C10.9479 5.98263 11.0227 5.93181 11.0999 5.94694L11.2753 5.98108C11.3525 5.99621 11.4029 6.07108 11.3882 6.14828C11.3757 6.21578 11.316 6.2631 11.2489 6.2631ZM10.3714 6.10017C10.3632 6.10017 10.3551 6.0994 10.347 6.09823C10.2888 6.08815 10.2302 6.07845 10.172 6.06914C10.0944 6.05634 10.0417 5.98341 10.0541 5.90543C10.0669 5.82785 10.1398 5.77509 10.2178 5.7875C10.2767 5.7972 10.3361 5.8069 10.3951 5.81699C10.4726 5.83018 10.525 5.90388 10.5114 5.98147C10.4998 6.05091 10.4397 6.10017 10.3714 6.10017ZM7.53447 6.02026C7.46969 6.02026 7.41111 5.97565 7.3956 5.9097C7.37775 5.83289 7.42547 5.75647 7.50228 5.73862C7.56124 5.72505 7.62253 5.71225 7.68421 5.70138C7.7618 5.68742 7.83589 5.73901 7.84986 5.8166C7.86382 5.89418 7.81223 5.96828 7.73464 5.98224C7.67801 5.99233 7.62137 6.00397 7.56706 6.01677C7.5562 6.01871 7.54534 6.02026 7.53447 6.02026ZM9.48808 5.97216C9.48265 5.97216 9.47761 5.97177 9.47217 5.97138C9.4136 5.96479 9.35541 5.95858 9.29722 5.95315C9.21886 5.94578 9.16144 5.87595 9.16882 5.79759C9.17619 5.71923 9.24562 5.66181 9.32437 5.66919C9.38411 5.675 9.44424 5.68121 9.50437 5.68781C9.58273 5.69673 9.63898 5.76694 9.63006 5.8453C9.62153 5.91824 9.55985 5.97216 9.48808 5.97216ZM8.41934 5.91668C8.34214 5.91668 8.27852 5.855 8.27697 5.77742C8.27503 5.69867 8.33748 5.6335 8.41623 5.63156C8.46395 5.63039 8.51166 5.63 8.55977 5.63H8.59895C8.6777 5.63039 8.74132 5.69479 8.74093 5.77354C8.74054 5.8519 8.67653 5.91552 8.59817 5.91552C8.59778 5.91552 8.59778 5.91552 8.5974 5.91552H8.55977C8.51399 5.91552 8.4686 5.91591 8.42322 5.91707C8.42167 5.91668 8.4205 5.91668 8.41934 5.91668Z" fill="#43234F"/>
<path d="M4.55997 24.0245C4.52157 24.0245 4.48316 24.0089 4.45484 23.9783C4.4017 23.9201 4.40519 23.8301 4.46338 23.777C4.48432 23.7576 4.50488 23.7382 4.52506 23.7184C4.58169 23.6633 4.67169 23.6649 4.72678 23.7211C4.78186 23.7777 4.78031 23.8677 4.72406 23.9228C4.70195 23.9442 4.67945 23.9659 4.65618 23.9868C4.62902 24.0121 4.5945 24.0245 4.55997 24.0245Z" fill="#43234F"/>
<path d="M66.2815 16.3134L65.6115 16.6362C64.5125 14.6042 61.9987 13.7748 59.8954 14.7877C57.7921 15.8006 56.8727 18.2829 57.7765 20.4092L57.1066 20.7319C56.9405 20.8119 56.8703 21.0128 56.9502 21.1788L57.5632 22.452C57.6431 22.618 57.844 22.6883 58.0101 22.6083L67.1853 18.1898C67.3514 18.1099 67.4216 17.9086 67.3417 17.743L66.7284 16.4698C66.6485 16.3037 66.4475 16.2335 66.2815 16.3134ZM59.582 19.5394C59.0043 18.3396 59.5381 17.1149 60.738 16.5373C61.9378 15.9596 63.3487 16.2475 63.9264 17.4474L59.582 19.5394Z" fill="#FF860C"/>
<path d="M59.7546 20.934L59.5405 21.0367L59.8641 21.7106L60.0781 21.6079L59.7546 20.934Z" fill="#904BAB"/>
<path d="M58.4412 21.5623L58.2275 21.6649L58.5511 22.3388L58.7648 22.2362L58.4412 21.5623Z" fill="#904BAB"/>
<path d="M61.0693 20.2979L60.8552 20.4006L61.1788 21.0745L61.3929 20.9718L61.0693 20.2979Z" fill="#904BAB"/>
<path d="M66.3173 17.7776L66.1033 17.8804L66.4268 18.5543L66.6408 18.4515L66.3173 17.7776Z" fill="#904BAB"/>
<path d="M65.0072 18.407L64.7932 18.5098L65.1168 19.1837L65.3308 19.0809L65.0072 18.407Z" fill="#904BAB"/>
<path d="M63.6921 19.0386L63.478 19.1414L63.8016 19.8153L64.0156 19.7125L63.6921 19.0386Z" fill="#904BAB"/>
<path d="M62.379 19.6686L62.165 19.7714L62.4887 20.4452L62.7027 20.3424L62.379 19.6686Z" fill="#904BAB"/>
</svg>
