<svg width="609" height="686" viewBox="0 0 609 686" fill="none" xmlns="http://www.w3.org/2000/svg">
<path d="M310.95 489.555C434.446 489.555 534.56 389.441 534.56 265.945C534.56 142.449 434.446 42.335 310.95 42.335C187.454 42.335 87.34 142.449 87.34 265.945C87.34 389.441 187.454 489.555 310.95 489.555Z" fill="#F9F9FC"/>
<path d="M97.5553 271.033C97.7584 213.432 120.697 158.24 161.38 117.463C202.064 76.6855 257.203 53.6209 314.804 53.2856C372.405 52.9503 427.809 75.3714 468.964 115.672C510.12 155.973 533.699 210.894 534.573 268.489C534.573 267.641 534.573 266.793 534.573 265.946C534.573 221.717 521.458 178.482 496.886 141.707C472.314 104.933 437.389 76.2702 396.527 59.3447C355.665 42.4192 310.702 37.9907 267.323 46.6192C223.945 55.2478 184.099 76.5458 152.824 107.82C121.55 139.094 100.252 178.94 91.6236 222.319C82.9951 265.697 87.4235 310.661 104.349 351.522C121.275 392.384 149.937 427.309 186.712 451.881C223.486 476.453 266.721 489.569 310.95 489.569C311.811 489.569 312.646 489.569 313.494 489.569C255.984 488.892 201.059 465.569 160.634 424.658C120.209 383.747 97.5443 328.547 97.5553 271.033Z" fill="#AAA5BA"/>
<path d="M188.735 475.47L158.051 453.712L120.867 506.153L151.551 527.91L188.735 475.47Z" fill="#AAA5BA"/>
<path d="M151.718 462.659C159.897 472.45 168.809 481.605 178.376 490.045L188.711 475.471L158.025 453.715L151.718 462.659Z" fill="#001552"/>
<path d="M170.52 541.347L101.901 492.695L9.15527e-05 636.411L68.6187 685.076L170.52 541.347Z" fill="#3919A4"/>
<path d="M147.52 525.046L45.6141 668.759L68.6134 685.068L170.519 541.354L147.52 525.046Z" fill="#001552"/>
<path d="M310.95 15.6641C172.732 15.6641 60.6691 127.714 60.6691 265.945C60.6691 404.176 172.732 516.239 310.95 516.239C449.168 516.239 561.284 404.176 561.284 265.945C561.284 127.714 449.181 15.6641 310.95 15.6641ZM310.95 489.568C266.722 489.568 223.486 476.453 186.712 451.881C149.937 427.309 121.275 392.384 104.349 351.522C87.4237 310.66 82.9952 265.697 91.6237 222.318C100.252 178.94 121.55 139.094 152.825 107.82C184.099 76.5453 223.945 55.2472 267.323 46.6187C310.702 37.9901 355.665 42.4186 396.527 59.3441C437.389 76.2696 472.314 104.932 496.886 141.707C521.458 178.481 534.573 221.717 534.573 265.945C534.573 325.254 511.013 382.133 469.076 424.07C427.138 466.008 370.259 489.568 310.95 489.568Z" fill="#C0C0DE"/>
<path d="M89.7644 532.722C89.3411 532.719 88.9293 532.584 88.5852 532.338C88.1623 532.023 87.8806 531.555 87.8012 531.034C87.7219 530.513 87.8512 529.982 88.1612 529.555L102.855 509.589C103.173 509.184 103.636 508.918 104.147 508.848C104.657 508.777 105.175 508.908 105.591 509.212C106.007 509.517 106.288 509.97 106.376 510.478C106.464 510.986 106.351 511.508 106.061 511.934L91.3676 531.901C91.1855 532.156 90.9448 532.363 90.6659 532.506C90.387 532.649 90.0778 532.723 89.7644 532.722Z" fill="white"/>
<path d="M14.5077 635.153C14.0834 635.155 13.6696 635.021 13.3285 634.768C12.9065 634.456 12.6251 633.99 12.5456 633.471C12.4662 632.952 12.5952 632.423 12.9045 631.999L75.0309 547.468C75.361 547.097 75.8179 546.864 76.3117 546.813C76.8055 546.762 77.3004 546.898 77.6991 547.193C78.0978 547.489 78.3715 547.923 78.4661 548.411C78.5608 548.898 78.4697 549.403 78.2107 549.826L16.1108 634.358C15.9251 634.607 15.6831 634.809 15.4045 634.947C15.1259 635.085 14.8186 635.156 14.5077 635.153Z" fill="white"/>
<path d="M404.557 21.0567C404.317 21.0523 404.08 21.0075 403.855 20.9242C353.364 1.88734 298.246 -1.19274 245.949 12.1001C245.438 12.2301 244.896 12.1517 244.442 11.8821C243.989 11.6125 243.661 11.1738 243.531 10.6625C243.401 10.1512 243.479 9.60926 243.749 9.15579C244.018 8.70233 244.457 8.37453 244.968 8.24452C298.065 -5.24839 354.023 -2.12214 405.286 17.2011C405.727 17.3612 406.098 17.6724 406.332 18.0796C406.566 18.4868 406.648 18.9636 406.564 19.4255C406.479 19.8875 406.234 20.3047 405.872 20.6033C405.51 20.9019 405.053 21.0625 404.584 21.0567H404.557Z" fill="#E2353F"/>
<path d="M496.256 455.928C495.862 455.928 495.476 455.81 495.149 455.59C494.822 455.37 494.567 455.057 494.418 454.692C494.269 454.327 494.232 453.926 494.311 453.539C494.391 453.153 494.583 452.799 494.865 452.523C506.563 440.983 517.16 428.376 526.518 414.868C526.818 414.434 527.279 414.137 527.798 414.043C528.317 413.948 528.853 414.064 529.287 414.365C529.721 414.665 530.018 415.126 530.112 415.645C530.206 416.164 530.091 416.7 529.79 417.134C520.296 430.838 509.549 443.63 497.687 455.345C497.5 455.533 497.277 455.682 497.031 455.782C496.785 455.882 496.522 455.932 496.256 455.928Z" fill="#E2353F"/>
<path d="M310.95 531.9C302.854 531.9 294.666 531.529 286.624 530.801C286.097 530.753 285.61 530.498 285.271 530.092C284.932 529.686 284.768 529.161 284.815 528.634C284.863 528.107 285.118 527.621 285.524 527.281C285.93 526.942 286.455 526.778 286.982 526.826C294.931 527.541 302.974 527.912 310.95 527.912C366.662 528.06 420.948 510.309 465.809 477.273C466.234 477.011 466.742 476.919 467.232 477.014C467.722 477.11 468.158 477.386 468.453 477.789C468.749 478.191 468.882 478.69 468.827 479.186C468.771 479.682 468.531 480.139 468.154 480.466C422.621 514.019 367.51 532.05 310.95 531.9Z" fill="#E2353F"/>
<path d="M55.5679 385.441C55.1885 385.443 54.8168 385.335 54.4973 385.13C54.1777 384.926 53.9238 384.634 53.7659 384.289C36.637 347.193 27.815 306.804 27.9164 265.945C27.9117 250.765 29.1168 235.608 31.5202 220.619C31.6046 220.092 31.8948 219.62 32.3272 219.307C32.7595 218.994 33.2985 218.865 33.8256 218.95C34.3527 219.034 34.8247 219.324 35.1378 219.757C35.4509 220.189 35.5794 220.728 35.495 221.255C33.1289 236.034 31.9416 250.978 31.9442 265.945C31.8298 306.223 40.5069 346.041 57.3698 382.619C57.4812 382.857 57.5446 383.114 57.5563 383.376C57.568 383.638 57.5277 383.899 57.4378 384.146C57.3479 384.392 57.2102 384.618 57.0325 384.811C56.8548 385.004 56.6407 385.159 56.4026 385.269C56.1389 385.382 55.8549 385.441 55.5679 385.441Z" fill="#E2353F"/>
<path d="M389.254 537.902C388.776 537.899 388.316 537.724 387.957 537.409C387.598 537.095 387.364 536.662 387.298 536.189C387.233 535.716 387.339 535.236 387.598 534.835C387.857 534.434 388.252 534.14 388.711 534.007C406.403 528.884 423.539 522.009 439.866 513.483C440.099 513.348 440.356 513.262 440.623 513.229C440.89 513.197 441.161 513.219 441.419 513.294C441.677 513.369 441.918 513.496 442.125 513.667C442.333 513.837 442.504 514.048 442.628 514.287C442.752 514.526 442.826 514.787 442.846 515.055C442.866 515.323 442.831 515.593 442.744 515.847C442.656 516.101 442.519 516.335 442.338 516.535C442.158 516.734 441.939 516.895 441.695 517.008C425.137 525.679 407.756 532.678 389.81 537.902C389.626 537.928 389.438 537.928 389.254 537.902Z" fill="#E2353F"/>
<path d="M458.668 133.623L556.117 46.4292L585.862 94.6437L458.668 133.623Z" fill="#FFCD4C"/>
<path d="M361.271 127.397L381.225 55.8369L411.698 75.2473L361.271 127.397Z" fill="#E2353F"/>
<path d="M486.213 486.707L517.68 563.354L559.681 521.208L486.213 486.707Z" fill="#E2353F"/>
<path d="M129.049 388.714L24.021 419.042L44.5973 458.618L129.049 388.714Z" fill="#FFCD4C"/>
<path d="M93.5014 192.093L25.797 175.001L44.9424 141.494L93.5014 192.093Z" fill="#E2353F"/>
<path d="M260.695 592.145C267.683 592.145 273.348 586.48 273.348 579.492C273.348 572.504 267.683 566.839 260.695 566.839C253.707 566.839 248.042 572.504 248.042 579.492C248.042 586.48 253.707 592.145 260.695 592.145Z" stroke="#3919A4" stroke-width="2" stroke-miterlimit="10"/>
<path d="M590.939 434.922C592.857 426.841 587.86 418.736 579.78 416.818C571.699 414.901 563.593 419.897 561.676 427.978C559.758 436.059 564.754 444.164 572.835 446.082C580.916 447.999 589.021 443.003 590.939 434.922Z" stroke="#3919A4" stroke-width="2" stroke-miterlimit="10"/>
<path d="M18.9596 355.538C23.1159 355.538 26.4853 352.168 26.4853 348.012C26.4853 343.856 23.1159 340.486 18.9596 340.486C14.8033 340.486 11.434 343.856 11.434 348.012C11.434 352.168 14.8033 355.538 18.9596 355.538Z" fill="#3919A4"/>
<path d="M55.1929 57.3735C60.6672 51.8992 60.6672 43.0236 55.1929 37.5493C49.7186 32.075 40.843 32.075 35.3687 37.5493C29.8943 43.0236 29.8944 51.8992 35.3687 57.3735C40.843 62.8479 49.7186 62.8479 55.1929 57.3735Z" stroke="#3919A4" stroke-width="2" stroke-miterlimit="10"/>
<path d="M343.782 568.892C343.782 570.111 343.42 571.302 342.743 572.315C342.066 573.328 341.104 574.118 339.978 574.584C338.853 575.051 337.614 575.173 336.419 574.935C335.224 574.697 334.126 574.111 333.264 573.249C332.403 572.387 331.816 571.289 331.578 570.094C331.34 568.899 331.462 567.661 331.929 566.535C332.395 565.409 333.185 564.447 334.198 563.77C335.211 563.093 336.402 562.731 337.621 562.731C339.255 562.731 340.822 563.381 341.977 564.536C343.133 565.691 343.782 567.258 343.782 568.892Z" fill="#3919A4"/>
<path d="M479.138 7.46225C479.138 8.54451 478.817 9.60246 478.216 10.5023C477.615 11.4022 476.76 12.1035 475.76 12.5177C474.76 12.9319 473.66 13.0402 472.599 12.8291C471.537 12.618 470.562 12.0968 469.797 11.3315C469.032 10.5663 468.51 9.59124 468.299 8.52978C468.088 7.46832 468.196 6.36808 468.611 5.3682C469.025 4.36833 469.726 3.51372 470.626 2.91245C471.526 2.31118 472.584 1.99025 473.666 1.99025C474.385 1.9885 475.098 2.12885 475.762 2.40322C476.427 2.6776 477.031 3.08059 477.539 3.58906C478.048 4.09753 478.451 4.70146 478.725 5.36614C478.999 6.03082 479.14 6.74316 479.138 7.46225Z" fill="#3919A4"/>
<path d="M383.278 511.615L280.702 523.924L261.212 476.743L244.796 514.689L237.403 511.734L235.548 510.992L152.474 477.763L160.689 439.34C160.689 439.34 345.836 406.521 350.446 413.702C355.057 420.883 383.278 511.615 383.278 511.615Z" fill="#3919A4"/>
<path d="M359.561 437.935C355.335 425.468 351.824 415.809 350.446 413.663C345.835 406.481 160.688 439.3 160.688 439.3C160.688 439.3 302.616 446.587 359.561 437.935Z" fill="#001552"/>
<path d="M252.917 467.839L237.402 511.735L235.547 510.993L251.036 467.177C251.123 466.927 251.307 466.723 251.545 466.609C251.784 466.494 252.058 466.48 252.308 466.567C252.557 466.655 252.761 466.839 252.876 467.077C252.99 467.316 253.005 467.59 252.917 467.839Z" fill="#001552"/>
<path d="M233.679 495.001C233.609 495.013 233.537 495.013 233.467 495.001C233.211 494.943 232.988 494.787 232.847 494.567C232.705 494.346 232.657 494.078 232.712 493.821L237.151 473.643C237.211 473.385 237.369 473.162 237.592 473.021C237.815 472.88 238.085 472.832 238.343 472.887C238.6 472.947 238.823 473.106 238.964 473.329C239.106 473.552 239.154 473.822 239.098 474.08L234.646 494.179C234.609 494.408 234.491 494.617 234.314 494.767C234.136 494.918 233.912 495 233.679 495.001Z" fill="#001552"/>
<path d="M263.769 150.556C263.769 150.556 291.977 161.831 305.319 170.549C318.661 179.268 340.708 208.509 340.708 208.509L296.601 222.355L263.769 150.556Z" fill="black"/>
<path d="M169.406 172.603C169.406 172.603 132.983 193.63 126.836 200.811C120.688 207.992 148.366 315.697 152.99 333.133C157.614 350.569 160.688 439.3 160.688 439.3C160.688 439.3 306.855 434.173 359.68 416.776C359.68 416.776 343.264 374.723 338.654 352.146C334.043 329.569 303.781 220.858 299.674 209.569C295.567 198.281 273.52 153.67 263.768 150.596C254.017 147.522 209.446 155.207 201.204 159.314C192.963 163.422 169.406 172.603 169.406 172.603Z" fill="#0E0E0E"/>
<path d="M273.003 277.233C273.003 277.233 184.232 296.975 146.26 306.78C149.333 319.128 151.851 328.853 152.99 333.133C154.13 337.412 155.084 345.322 155.971 355.259C194.01 342.659 293.513 296.207 293.513 296.207L273.003 277.233Z" fill="#3D0B34"/>
<path d="M169.406 172.603C169.406 172.603 164.795 175.253 158.595 179.003C160.715 185.482 170.811 209.092 203.934 204.057C239.707 198.625 238.488 161.58 235.375 151.709C220.801 153.749 205.656 157.009 201.205 159.274C192.95 163.368 169.406 172.603 169.406 172.603Z" fill="#EAADA9"/>
<path d="M201.444 216.498C196.725 216.527 192.016 216.083 187.386 215.173C187.128 215.116 186.903 214.957 186.762 214.734C186.62 214.51 186.573 214.239 186.631 213.981C186.689 213.723 186.847 213.498 187.071 213.356C187.294 213.215 187.565 213.168 187.823 213.226C188.128 213.292 218.416 219.851 232.222 202.547C235.19 198.876 237.783 194.917 239.96 190.728C240.011 190.6 240.089 190.484 240.187 190.388C240.286 190.291 240.404 190.216 240.533 190.168C240.663 190.119 240.801 190.098 240.939 190.106C241.077 190.114 241.211 190.151 241.334 190.213C241.457 190.276 241.566 190.364 241.653 190.471C241.74 190.578 241.804 190.703 241.841 190.836C241.877 190.969 241.885 191.109 241.865 191.245C241.844 191.382 241.796 191.513 241.722 191.629C239.487 195.94 236.824 200.015 233.772 203.792C225.399 214.206 211.778 216.498 201.444 216.498Z" fill="white"/>
<path d="M244.437 183.335C244.341 183.354 244.242 183.354 244.146 183.335C244.021 183.299 243.904 183.238 243.803 183.156C243.702 183.074 243.618 182.973 243.556 182.858C243.494 182.743 243.456 182.617 243.444 182.488C243.431 182.358 243.445 182.227 243.483 182.103C244.611 178.763 245.153 175.253 245.087 171.729C245.065 171.594 245.071 171.457 245.104 171.325C245.138 171.193 245.198 171.069 245.281 170.961C245.364 170.854 245.469 170.764 245.588 170.698C245.707 170.633 245.839 170.592 245.974 170.58C246.11 170.567 246.247 170.582 246.376 170.624C246.505 170.667 246.625 170.735 246.727 170.825C246.829 170.916 246.911 171.026 246.968 171.15C247.026 171.273 247.057 171.407 247.061 171.543C247.18 175.323 246.615 179.094 245.391 182.673C245.32 182.868 245.19 183.037 245.019 183.155C244.849 183.274 244.645 183.337 244.437 183.335Z" fill="white"/>
<path d="M301.212 212.577C301.012 212.58 300.816 212.524 300.649 212.415C300.481 212.306 300.35 212.151 300.271 211.967C294.733 195.843 275.932 164.773 275.746 164.468C275.672 164.357 275.622 164.232 275.598 164.1C275.573 163.969 275.576 163.834 275.605 163.703C275.634 163.573 275.689 163.45 275.767 163.341C275.844 163.232 275.943 163.14 276.058 163.071C276.172 163.001 276.299 162.956 276.431 162.936C276.563 162.917 276.698 162.924 276.827 162.958C276.956 162.992 277.078 163.052 277.183 163.134C277.289 163.216 277.377 163.318 277.442 163.435C277.628 163.753 296.534 195.008 302.152 211.331C302.236 211.581 302.218 211.853 302.101 212.089C301.985 212.325 301.779 212.506 301.529 212.59C301.424 212.605 301.316 212.6 301.212 212.577Z" fill="#3D0B34"/>
<path d="M123.431 63.375C123.431 63.375 119.589 63.5472 117.787 68.7675C115.985 73.9878 115.005 86.6012 116.846 92.9344C118.688 99.2676 130.096 119.539 130.096 119.539L129.115 87.2372L123.431 63.375Z" fill="#591808"/>
<path d="M128.598 99.3471C128.598 99.3471 120.649 94.2329 117.999 101.997C115.349 109.761 121.271 125.7 132.957 128.496C132.918 128.496 135.395 112.888 128.598 99.3471Z" fill="#FE656D"/>
<path d="M213.235 94.3526C213.235 94.3526 219.41 86.9197 223.716 92.3122C228.022 97.7047 226.445 116.877 212.295 121.858L213.235 94.3526Z" fill="#FE656D"/>
<path d="M199.934 140.553C199.934 140.553 207.698 154.981 219.172 162.745C219.172 162.745 197.721 188.277 173.289 189.019C173.289 189.019 165.525 170.47 164.015 161.195C164.041 161.262 194.753 148.37 199.934 140.553Z" fill="#EAADA9"/>
<path d="M198.078 163.116C201.256 158.782 203.704 153.958 205.326 148.834C203.354 146.191 201.552 143.425 199.933 140.553C194.753 148.317 164.041 161.262 164.041 161.262C164.997 166.031 166.326 170.718 168.015 175.279C177.687 173.159 193.547 168.92 198.078 163.116Z" fill="#FE656D"/>
<path d="M213.871 71.4175C215.196 87.913 215.859 110.106 214.812 116.664C213.169 126.906 202.742 150.755 191.453 159.923C182.444 167.25 177.396 168.377 175.846 168.496C174.295 168.615 149.638 164.415 140.867 149.125C136.018 140.619 133.448 135.359 132.414 129.927C132.414 129.927 127.711 94.233 126.717 89.715C125.723 85.1969 119.681 62.0105 135.991 51.517C152.301 41.0235 184.524 43.4481 192.341 45.2898C200.158 47.1314 208.24 47.7409 211.049 52.7492C211.115 52.9082 211.195 53.0539 211.274 53.2791C212.242 55.7435 213.169 62.7789 213.871 71.4175Z" fill="#EAADA9"/>
<path d="M208.758 69.0196C208.758 69.0196 209.566 75.4853 210.44 79.6191C211.316 85.3781 211.869 91.1816 212.096 97.0023C212.255 100.407 212.52 113.577 214.084 114.227C215.647 114.876 217.608 94.0477 217.621 90.6161C217.635 87.1845 220.417 65.853 220.417 65.853L208.758 69.0196Z" fill="#360700"/>
<path d="M182.709 136.539C182.483 137.263 182.209 137.971 181.887 138.658C180.496 141.534 177.25 146.33 170.771 146.25C168.633 146.314 166.522 145.756 164.694 144.644C162.867 143.532 161.402 141.912 160.476 139.983C160.137 139.325 159.871 138.632 159.682 137.917C159.682 137.917 171.752 139.838 182.709 136.539Z" fill="#E2353F"/>
<path d="M188.221 104.25C188.446 107.231 187.532 109.748 186.167 109.854C184.802 109.96 183.517 107.615 183.265 104.634C183.014 101.653 183.954 99.1353 185.319 99.0294C186.684 98.9234 187.982 101.255 188.221 104.25Z" fill="#591808"/>
<path d="M159.682 137.917C159.871 138.632 160.137 139.325 160.476 139.983C160.667 140.371 160.879 140.747 161.112 141.11L162.901 140.301C167.605 140.845 175.793 141.242 181.887 138.658C182.209 137.971 182.483 137.263 182.709 136.539C171.752 139.838 159.682 137.917 159.682 137.917Z" fill="white"/>
<path d="M158.224 106.582C158.462 109.563 157.535 112.08 156.17 112.186C154.806 112.292 153.52 109.947 153.269 106.966C153.017 103.985 153.958 101.467 155.322 101.361C156.687 101.255 157.999 103.587 158.224 106.582Z" fill="#591808"/>
<path d="M166.929 125.025C168.496 125.475 170.121 125.689 171.751 125.661C174.136 125.541 177.793 124.958 177.793 124.958C177.793 124.958 173.593 127.489 171.513 127.37C169.433 127.251 166.929 125.025 166.929 125.025Z" fill="#FE656D"/>
<path d="M193.944 89.6885C193.799 89.588 193.648 89.4952 193.494 89.4102C192.496 88.7196 191.354 88.2664 190.155 88.0853C188.905 87.856 187.628 87.8113 186.365 87.9528H186.167C185.032 88.0274 183.918 88.287 182.868 88.7213H182.695C181.521 89.0186 180.459 89.649 179.635 90.5364C179.615 90.5678 179.604 90.6041 179.604 90.6412C179.603 90.6783 179.613 90.7148 179.633 90.7466C179.652 90.7783 179.68 90.804 179.713 90.8207C179.746 90.8374 179.783 90.8445 179.82 90.8412C180.322 90.7195 180.807 90.5371 181.264 90.298C181.781 90.086 182.285 89.8607 182.788 89.6752C183.923 89.2441 185.107 88.9548 186.312 88.814C187.649 88.6348 189.009 88.7663 190.287 89.1983C191.4 89.5162 192.394 90.1257 193.48 90.5232C193.584 90.5425 193.691 90.5287 193.787 90.4838C193.882 90.4388 193.961 90.365 194.013 90.2727C194.064 90.1805 194.085 90.0744 194.073 89.9696C194.06 89.8647 194.015 89.7664 193.944 89.6885Z" fill="#591808"/>
<path d="M147.412 91.8347C147.553 91.7213 147.699 91.6152 147.85 91.5167C148.784 90.7439 149.879 90.1914 151.056 89.9003C152.276 89.5572 153.539 89.3964 154.806 89.4233H155.018C156.152 89.4034 157.283 89.5598 158.37 89.887H158.542C159.749 90.0596 160.878 90.5851 161.788 91.3975C161.81 91.427 161.824 91.4621 161.827 91.4989C161.83 91.5356 161.823 91.5726 161.807 91.6056C161.79 91.6386 161.765 91.6664 161.734 91.6858C161.702 91.7052 161.666 91.7154 161.629 91.7154C161.119 91.6441 160.62 91.506 160.145 91.3047C159.615 91.1457 159.098 90.9735 158.568 90.8277C157.397 90.5062 156.192 90.3283 154.978 90.2978C154.479 90.2715 153.979 90.2715 153.481 90.2978C152.631 90.4587 151.798 90.6937 150.99 91C149.903 91.4239 148.989 92.1129 147.929 92.5634C147.492 92.8284 147.055 92.1527 147.412 91.8347Z" fill="#591808"/>
<path d="M129.923 118.691C129.923 118.691 129.619 126.919 131.686 127.171C133.753 127.423 131.54 94.3124 131.54 94.3124C131.54 94.3124 134.442 97.9427 135.369 95.8493C136.296 93.7559 133.329 80.5463 133.329 80.5463C133.329 80.5463 142.961 74.2793 152.805 72.4509C162.649 70.6225 190.924 71.55 198.489 72.2257C206.054 72.9014 221.238 68.2509 230.897 62.3549C239.059 57.3334 245.551 37.34 247.843 28.3702C247.931 28.0407 247.923 27.6929 247.82 27.3677C247.717 27.0425 247.523 26.7536 247.262 26.5349C247 26.3163 246.681 26.1771 246.343 26.1337C246.004 26.0903 245.661 26.1445 245.352 26.2901C241.762 27.9727 236.263 30.5166 234.09 31.3911C224.233 35.3659 201.112 36.3463 202.093 35.2731C203.073 34.1999 203.67 32.4643 202.636 32.1595C201.603 31.8548 183.928 34.8094 169.513 34.7167C169.513 34.7167 147.466 33.7627 137.953 38.824C128.44 43.8852 120.41 59.4003 122.954 69.8143C125.109 79.7247 126.517 89.7826 127.168 99.9036C127.115 102.249 129.923 118.691 129.923 118.691Z" fill="#591808"/>
<path d="M179.874 64.7798C171.752 64.7798 165.392 64.4618 164.822 64.4353C164.692 64.4303 164.565 64.3994 164.447 64.3445C164.329 64.2896 164.223 64.2118 164.135 64.1156C164.048 64.0194 163.98 63.9068 163.937 63.7843C163.893 63.6617 163.874 63.5318 163.882 63.4019C163.895 63.1395 164.011 62.8928 164.204 62.7146C164.397 62.5364 164.652 62.4407 164.915 62.4479C165.22 62.4479 195.389 63.9451 209.512 60.434L211.381 59.9438C211.625 59.8979 211.878 59.9455 212.089 60.0771C212.301 60.2087 212.455 60.4147 212.521 60.6545C212.588 60.8943 212.562 61.1503 212.449 61.372C212.336 61.5937 212.144 61.7649 211.911 61.8517L209.989 62.3552C202.133 64.3161 189.705 64.7798 179.874 64.7798Z" fill="white"/>
<path d="M220.337 57.9959C220.145 57.9957 219.957 57.9391 219.797 57.8331C219.637 57.7271 219.512 57.5764 219.436 57.3997C219.381 57.2798 219.35 57.1502 219.346 57.0183C219.342 56.8865 219.363 56.755 219.41 56.6317C219.457 56.5084 219.528 56.3956 219.619 56.3C219.71 56.2044 219.819 56.1278 219.94 56.0748C222.786 54.8887 225.5 53.4054 228.035 51.6495C228.137 51.5681 228.254 51.5079 228.38 51.4724C228.506 51.4369 228.637 51.4269 228.767 51.443C228.896 51.459 229.022 51.5008 229.135 51.5658C229.248 51.6309 229.347 51.7179 229.426 51.8217C229.564 52.0255 229.623 52.2728 229.592 52.5169C229.56 52.761 229.44 52.9851 229.254 53.1467C226.613 55.0464 223.769 56.6462 220.774 57.9165C220.635 57.9717 220.487 57.9988 220.337 57.9959Z" fill="white"/>
<path d="M341.185 209.914C341.185 209.914 329.79 207.661 330.705 197.698C330.705 197.698 334.096 196.094 335.329 196.744C336.561 197.393 348.578 199.95 350.738 200.917C352.897 201.884 358.144 209.596 358.144 209.596C358.144 209.596 343.994 211.53 341.185 209.914Z" fill="#EAADA9"/>
<path d="M608.425 205.091H268.552V367.846H608.425V205.091Z" fill="#FF7731"/>
<path d="M399.429 197.473C399.429 197.473 404.305 194.915 407.379 196.148C410.453 197.38 411.221 202.56 410.704 205.117C410.188 207.675 404.808 223.07 400.966 221.533C397.124 219.997 396.607 208.456 396.607 208.456L399.429 197.473Z" fill="#EAADA9"/>
<path d="M384.047 196.969C384.047 196.969 390.671 192.093 393.785 192.093C396.899 192.093 399.946 197.989 400.41 199.526C400.873 201.063 397.853 221.586 397.336 223.64C396.819 225.694 393.745 230.053 391.44 230.053C389.134 230.053 384.259 221.321 384.259 218.513C384.259 215.704 384.047 196.969 384.047 196.969Z" fill="#EAADA9"/>
<path d="M367.631 198.837C367.631 198.837 373.275 191.842 376.905 191.577C380.536 191.312 382.536 195.432 384.086 196.969C385.637 198.506 383.821 211.835 383.57 215.691C383.318 219.546 379.727 233.63 376.388 234.664C373.05 235.697 368.956 231.842 368.691 229.019C368.426 226.197 366.637 208.509 366.637 208.509L367.631 198.837Z" fill="#EAADA9"/>
<path d="M353.52 215.399C353.52 215.399 350.963 201.739 351.732 198.837C352.5 195.935 357.628 193.882 360.702 193.882C363.775 193.882 367.631 198.837 367.631 198.837C367.631 198.837 367.379 217.386 366.306 221.798C365.233 226.21 360.662 228.489 359.125 227.906C357.588 227.323 354.594 224.13 353.52 215.399Z" fill="#EAADA9"/>
<path d="M363.908 287.482C363.903 287.983 363.767 288.47 363.498 288.942C363.23 289.388 362.604 289.91 361.622 290.507C360.639 291.104 359.552 291.674 358.359 292.216C357.166 292.732 356.014 293.182 354.902 293.567C353.79 293.925 352.97 294.102 352.442 294.096C352.073 294.093 351.638 293.996 351.139 293.806C350.639 293.643 350.14 293.427 349.641 293.158C349.142 292.889 348.684 292.581 348.265 292.234C347.872 291.887 347.585 291.554 347.404 291.235C347.3 291.05 347.198 290.679 347.098 290.124C347.025 289.569 346.952 288.922 346.88 288.182C346.835 287.443 346.79 286.664 346.745 285.845C346.701 285 346.656 284.208 346.611 283.469C346.592 282.703 346.572 282.03 346.552 281.45C346.558 280.869 346.562 280.447 346.564 280.183C346.574 279.207 346.612 278.086 346.677 276.82C346.769 275.554 346.914 274.289 347.111 273.024C347.309 271.733 347.585 270.508 347.939 269.351C348.321 268.167 348.819 267.169 349.434 266.357C349.621 266.122 349.993 265.875 350.55 265.616C351.106 265.358 351.755 265.114 352.497 264.884C353.264 264.654 354.084 264.438 354.957 264.235C355.83 264.033 356.663 263.87 357.456 263.746C358.276 263.596 359.016 263.484 359.676 263.412C360.337 263.313 360.839 263.265 361.182 263.268C361.578 263.272 361.946 263.368 362.287 263.557C362.655 263.719 362.956 263.946 363.191 264.239C363.452 264.531 363.646 264.863 363.775 265.234C363.93 265.579 364.005 265.949 364.001 266.345C363.998 266.688 363.942 266.977 363.834 267.214C363.752 267.451 363.618 267.713 363.43 268.001C363.163 268.342 362.605 268.745 361.756 269.212C360.907 269.678 359.978 270.144 358.971 270.609C357.99 271.048 357.036 271.447 356.109 271.807C355.208 272.168 354.572 272.425 354.201 272.58C354.089 273.186 353.964 273.805 353.826 274.437C353.715 275.043 353.629 275.662 353.57 276.295C354.392 275.881 355.32 275.494 356.353 275.135C357.385 274.776 358.363 274.601 359.287 274.61C361.16 274.629 362.088 275.562 362.07 277.409C362.065 277.857 361.969 278.252 361.781 278.593C361.619 278.935 361.392 279.236 361.099 279.497C360.832 279.758 360.513 279.993 360.142 280.2C359.797 280.381 359.452 280.563 359.107 280.744C358.258 281.184 357.37 281.571 356.443 281.905C355.516 282.212 354.59 282.52 353.663 282.827C353.608 283.038 353.553 283.275 353.498 283.538C353.443 283.775 353.414 284.012 353.411 284.249C353.408 284.619 353.43 284.989 353.479 285.359C353.529 285.728 353.578 286.098 353.627 286.468C353.944 286.366 354.447 286.199 355.136 285.969C355.851 285.738 356.592 285.508 357.359 285.279C358.127 285.049 358.868 284.858 359.582 284.707C360.296 284.529 360.825 284.442 361.168 284.446C361.564 284.45 361.932 284.546 362.273 284.734C362.615 284.896 362.903 285.123 363.137 285.416C363.372 285.682 363.554 286 363.682 286.371C363.837 286.742 363.912 287.112 363.908 287.482ZM376.857 294.934C376.408 294.93 376.054 294.715 375.795 294.29C375.535 293.892 375.341 293.428 375.215 292.899C375.088 292.37 375.001 291.841 374.954 291.313C374.933 290.759 374.924 290.336 374.927 290.046C374.935 289.254 374.982 288.463 375.069 287.672C375.183 286.882 375.296 286.091 375.41 285.301C375.549 284.51 375.663 283.72 375.75 282.929C375.863 282.139 375.924 281.347 375.932 280.556C375.935 280.239 375.925 279.896 375.903 279.526C375.88 279.157 375.818 278.813 375.715 278.495C375.639 278.152 375.497 277.873 375.288 277.66C375.079 277.447 374.803 277.338 374.46 277.335C374.223 277.332 373.957 277.528 373.663 277.921C373.369 278.287 373.087 278.72 372.818 279.218C372.576 279.691 372.36 280.177 372.17 280.677C372.007 281.15 371.925 281.505 371.922 281.743C371.916 282.323 371.91 282.917 371.904 283.524C371.925 284.105 371.932 284.699 371.926 285.305L371.903 287.601C371.872 288.076 371.828 288.564 371.77 289.064C371.712 289.565 371.628 290.053 371.518 290.526C371.434 291.001 371.31 291.461 371.148 291.908C370.985 292.329 370.77 292.709 370.503 293.05C370.262 293.364 369.969 293.625 369.624 293.833C369.279 294.04 368.869 294.142 368.394 294.137C367.866 294.132 367.433 293.956 367.093 293.609C366.753 293.263 366.481 292.825 366.275 292.295C366.069 291.739 365.917 291.13 365.818 290.47C365.746 289.783 365.686 289.122 365.64 288.489C365.62 287.829 365.613 287.235 365.618 286.707C365.65 286.153 365.668 285.718 365.671 285.401L365.69 283.541C365.7 282.538 365.683 281.549 365.64 280.572C365.623 279.595 365.62 278.619 365.63 277.642C365.635 277.115 365.642 276.442 365.65 275.624C365.684 274.806 365.798 274.016 365.99 273.252C366.183 272.462 366.493 271.793 366.921 271.243C367.349 270.693 367.971 270.422 368.789 270.43C369.159 270.434 369.487 270.556 369.775 270.796C370.063 271.037 370.311 271.329 370.519 271.675C370.753 272.02 370.934 272.391 371.062 272.788C371.216 273.186 371.331 273.53 371.408 273.821C371.675 273.454 371.982 273.101 372.329 272.761C372.702 272.422 373.114 272.123 373.565 271.863C374.016 271.604 374.519 271.398 375.075 271.245C375.631 271.092 376.265 271.019 376.977 271.027C378.323 271.04 379.362 271.38 380.094 272.047C380.853 272.688 381.399 273.499 381.732 274.478C382.092 275.432 382.306 276.463 382.374 277.572C382.443 278.681 382.472 279.684 382.463 280.582C382.459 281.03 382.412 281.703 382.324 282.599C382.236 283.469 382.095 284.444 381.899 285.524C381.73 286.578 381.495 287.671 381.193 288.802C380.892 289.908 380.539 290.92 380.134 291.84C379.729 292.759 379.246 293.507 378.686 294.082C378.153 294.657 377.543 294.941 376.857 294.934ZM398.429 279.237C398.059 279.26 397.743 279.23 397.48 279.148C397.217 279.04 396.954 278.932 396.691 278.824C396.455 278.716 396.218 278.621 395.982 278.54C395.745 278.432 395.482 278.39 395.191 278.413C394.663 278.434 394.187 278.575 393.762 278.834C393.364 279.094 392.991 279.42 392.644 279.813C392.323 280.205 392.042 280.651 391.799 281.15C391.557 281.623 391.368 282.096 391.231 282.569C391.149 282.885 391.078 283.373 391.018 284.032C390.986 284.665 390.966 285.351 390.958 286.09C390.924 286.855 390.904 287.58 390.897 288.266C390.89 288.952 390.858 289.493 390.801 289.888C390.771 290.31 390.7 290.811 390.589 291.39C390.477 291.943 390.301 292.469 390.058 292.968C389.842 293.467 389.548 293.887 389.175 294.226C388.802 294.565 388.325 294.732 387.745 294.726C387.296 294.722 386.902 294.586 386.561 294.319C386.247 294.052 385.974 293.706 385.74 293.281C385.534 292.831 385.354 292.314 385.202 291.732C385.076 291.15 384.976 290.556 384.903 289.948C384.83 289.314 384.77 288.68 384.724 288.046C384.704 287.412 384.683 286.819 384.663 286.264C384.668 285.684 384.674 285.156 384.678 284.681C384.71 284.206 384.727 283.824 384.729 283.533C384.712 282.61 384.669 281.686 384.599 280.761C384.556 279.811 384.539 278.874 384.548 277.95C384.554 277.37 384.586 276.724 384.646 276.012C384.706 275.3 384.858 274.642 385.102 274.037C385.345 273.406 385.694 272.882 386.146 272.464C386.626 272.047 387.274 271.842 388.092 271.85C388.541 271.855 388.922 272.004 389.236 272.297C389.549 272.591 389.797 272.949 389.977 273.373C390.184 273.798 390.338 274.248 390.439 274.724C390.539 275.2 390.601 275.636 390.623 276.032C391.267 275.009 391.988 274.185 392.786 273.56C393.584 272.908 394.616 272.562 395.884 272.522C396.517 272.502 397.137 272.574 397.742 272.738C398.374 272.877 398.939 273.12 399.437 273.468C399.961 273.79 400.379 274.216 400.691 274.747C401.028 275.278 401.207 275.9 401.226 276.613C401.27 277.458 401.013 278.102 400.455 278.545C399.896 278.988 399.221 279.219 398.429 279.237ZM409.154 295.297C407.808 295.283 406.638 294.915 405.642 294.193C404.646 293.47 403.811 292.552 403.136 291.436C402.461 290.321 401.959 289.089 401.629 287.74C401.3 286.365 401.142 285.017 401.155 283.698C401.169 282.299 401.355 280.863 401.713 279.389C402.071 277.888 402.612 276.534 403.337 275.328C404.062 274.095 404.982 273.101 406.098 272.347C407.214 271.566 408.537 271.184 410.068 271.199C411.546 271.214 412.795 271.635 413.816 272.464C414.863 273.266 415.698 274.277 416.319 275.497C416.94 276.691 417.376 278.002 417.625 279.429C417.875 280.857 417.954 282.203 417.862 283.469C417.769 284.867 417.53 286.276 417.147 287.697C416.789 289.119 416.262 290.393 415.565 291.521C414.867 292.649 413.987 293.564 412.925 294.266C411.862 294.968 410.605 295.311 409.154 295.297ZM409.729 277.41C409.333 277.406 408.975 277.614 408.654 278.033C408.359 278.452 408.103 278.964 407.886 279.569C407.695 280.174 407.544 280.819 407.431 281.504C407.319 282.163 407.261 282.743 407.256 283.244C407.249 283.877 407.295 284.564 407.393 285.304C407.518 286.044 407.683 286.732 407.887 287.367C408.092 287.976 408.338 288.493 408.624 288.918C408.937 289.317 409.291 289.519 409.687 289.523C410.109 289.527 410.467 289.333 410.761 288.94C411.082 288.547 411.338 288.048 411.528 287.443C411.719 286.838 411.858 286.18 411.944 285.468C412.031 284.73 412.077 284.044 412.083 283.411C412.089 282.831 412.043 282.197 411.944 281.51C411.846 280.796 411.694 280.135 411.489 279.526C411.31 278.917 411.064 278.413 410.752 278.014C410.466 277.616 410.124 277.414 409.729 277.41ZM427.414 270.343C427.4 271.768 427.32 273.206 427.173 274.656C427.053 276.08 426.986 277.517 426.972 278.968C426.953 280.842 426.987 282.716 427.074 284.59C427.187 286.465 427.234 288.352 427.215 290.252C427.21 290.727 427.179 291.268 427.12 291.874C427.061 292.454 426.924 292.994 426.708 293.493C426.518 293.993 426.224 294.412 425.824 294.751C425.425 295.09 424.896 295.256 424.236 295.25C423.603 295.243 423.052 294.921 422.583 294.283C422.141 293.672 421.766 292.889 421.459 291.936C421.178 290.957 420.938 289.873 420.739 288.683C420.566 287.494 420.433 286.345 420.338 285.235C420.27 284.1 420.215 283.07 420.171 282.146C420.154 281.196 420.148 280.497 420.152 280.048C420.157 279.547 420.178 278.821 420.214 277.872C420.276 276.922 420.379 275.894 420.522 274.787C420.665 273.68 420.848 272.56 421.07 271.428C421.319 270.269 421.633 269.23 422.012 268.31C422.39 267.364 422.834 266.603 423.341 266.028C423.874 265.426 424.498 265.129 425.21 265.136C425.791 265.142 426.224 265.344 426.51 265.743C426.823 266.115 427.043 266.579 427.169 267.135C427.296 267.664 427.369 268.232 427.39 268.839C427.41 269.42 427.418 269.921 427.414 270.343ZM437.824 270.448C437.81 271.872 437.729 273.31 437.583 274.76C437.463 276.184 437.396 277.621 437.381 279.072C437.363 280.946 437.397 282.82 437.483 284.694C437.597 286.569 437.644 288.456 437.625 290.356C437.62 290.831 437.588 291.372 437.529 291.978C437.471 292.558 437.333 293.098 437.117 293.597C436.928 294.097 436.633 294.516 436.234 294.855C435.835 295.194 435.305 295.36 434.646 295.354C434.012 295.347 433.461 295.025 432.993 294.387C432.55 293.776 432.175 292.994 431.868 292.04C431.588 291.061 431.348 289.977 431.149 288.787C430.976 287.598 430.842 286.449 430.748 285.34C430.68 284.204 430.624 283.174 430.581 282.25C430.564 281.3 430.558 280.601 430.562 280.152C430.567 279.651 430.588 278.925 430.623 277.976C430.686 277.026 430.788 275.998 430.931 274.891C431.074 273.784 431.257 272.665 431.48 271.532C431.729 270.373 432.042 269.334 432.421 268.414C432.8 267.468 433.243 266.707 433.75 266.132C434.284 265.53 434.907 265.233 435.62 265.24C436.2 265.246 436.633 265.448 436.92 265.847C437.233 266.219 437.452 266.683 437.579 267.239C437.705 267.768 437.779 268.336 437.799 268.943C437.82 269.524 437.828 270.025 437.824 270.448ZM461.36 295.779C460.912 295.775 460.558 295.56 460.298 295.135C460.038 294.737 459.845 294.273 459.718 293.744C459.592 293.215 459.505 292.686 459.457 292.158C459.436 291.604 459.427 291.181 459.43 290.891C459.438 290.099 459.486 289.308 459.573 288.517C459.686 287.727 459.8 286.936 459.913 286.146C460.053 285.355 460.166 284.565 460.253 283.774C460.367 282.984 460.428 282.193 460.435 281.401C460.439 281.084 460.429 280.741 460.406 280.371C460.384 280.002 460.321 279.658 460.219 279.34C460.143 278.997 460.001 278.718 459.792 278.505C459.583 278.292 459.307 278.183 458.964 278.18C458.726 278.178 458.46 278.373 458.166 278.766C457.872 279.132 457.591 279.565 457.322 280.064C457.08 280.536 456.864 281.022 456.674 281.522C456.511 281.995 456.428 282.35 456.426 282.588C456.42 283.168 456.414 283.762 456.408 284.369C456.428 284.95 456.436 285.544 456.43 286.151L456.407 288.446C456.376 288.921 456.331 289.409 456.273 289.909C456.215 290.41 456.131 290.898 456.021 291.372C455.937 291.846 455.814 292.306 455.651 292.753C455.489 293.174 455.274 293.554 455.006 293.895C454.766 294.209 454.473 294.47 454.128 294.678C453.782 294.885 453.372 294.987 452.897 294.982C452.37 294.977 451.936 294.801 451.596 294.454C451.257 294.108 450.984 293.67 450.778 293.14C450.573 292.584 450.421 291.975 450.322 291.315C450.249 290.628 450.19 289.967 450.143 289.334C450.124 288.674 450.116 288.08 450.122 287.552C450.154 286.998 450.171 286.563 450.174 286.246L450.193 284.386C450.203 283.383 450.187 282.394 450.143 281.417C450.127 280.44 450.123 279.464 450.133 278.487C450.138 277.96 450.145 277.287 450.153 276.469C450.188 275.651 450.301 274.861 450.494 274.097C450.686 273.307 450.997 272.638 451.424 272.088C451.852 271.538 452.475 271.267 453.293 271.275C453.662 271.279 453.991 271.401 454.279 271.641C454.567 271.882 454.814 272.174 455.022 272.52C455.256 272.865 455.437 273.236 455.565 273.633C455.72 274.031 455.835 274.375 455.911 274.666C456.179 274.299 456.486 273.946 456.832 273.606C457.205 273.267 457.617 272.968 458.068 272.708C458.519 272.449 459.023 272.243 459.579 272.09C460.134 271.937 460.768 271.864 461.481 271.872C462.827 271.885 463.866 272.225 464.598 272.892C465.357 273.533 465.903 274.344 466.236 275.323C466.596 276.277 466.81 277.308 466.878 278.417C466.946 279.526 466.976 280.529 466.967 281.427C466.962 281.875 466.916 282.548 466.828 283.444C466.74 284.314 466.598 285.289 466.403 286.369C466.234 287.423 465.998 288.516 465.697 289.647C465.396 290.753 465.042 291.765 464.637 292.685C464.232 293.604 463.75 294.352 463.19 294.927C462.656 295.502 462.047 295.786 461.36 295.779ZM476.559 295.971C475.213 295.957 474.042 295.589 473.047 294.867C472.051 294.144 471.216 293.226 470.541 292.11C469.866 290.995 469.364 289.763 469.034 288.414C468.705 287.039 468.547 285.691 468.56 284.372C468.574 282.973 468.76 281.537 469.118 280.063C469.476 278.562 470.017 277.208 470.742 276.002C471.467 274.769 472.387 273.775 473.503 273.021C474.619 272.241 475.942 271.858 477.473 271.873C478.95 271.888 480.2 272.31 481.221 273.138C482.268 273.94 483.102 274.951 483.724 276.171C484.345 277.365 484.781 278.676 485.03 280.103C485.28 281.531 485.359 282.877 485.267 284.143C485.174 285.541 484.935 286.95 484.552 288.371C484.194 289.793 483.667 291.067 482.97 292.195C482.272 293.323 481.392 294.238 480.33 294.94C479.267 295.642 478.01 295.985 476.559 295.971ZM477.134 278.084C476.738 278.081 476.379 278.288 476.059 278.707C475.764 279.126 475.508 279.638 475.291 280.243C475.1 280.848 474.949 281.493 474.836 282.178C474.724 282.837 474.666 283.417 474.661 283.918C474.654 284.551 474.7 285.238 474.798 285.978C474.923 286.718 475.088 287.406 475.292 288.041C475.497 288.65 475.743 289.167 476.029 289.592C476.342 289.991 476.696 290.193 477.092 290.197C477.514 290.201 477.872 290.007 478.166 289.614C478.487 289.221 478.742 288.722 478.933 288.117C479.124 287.512 479.263 286.854 479.349 286.142C479.435 285.404 479.482 284.719 479.488 284.085C479.494 283.505 479.448 282.871 479.349 282.184C479.25 281.47 479.099 280.809 478.894 280.2C478.715 279.591 478.469 279.087 478.157 278.688C477.87 278.29 477.529 278.088 477.134 278.084ZM506.884 295.641C506.039 295.632 505.278 295.176 504.601 294.272C503.951 293.368 503.381 292.294 502.892 291.049C502.403 289.777 501.994 288.48 501.664 287.157C501.361 285.835 501.134 284.737 500.985 283.865C500.768 284.39 500.471 285.034 500.094 285.795C499.744 286.557 499.327 287.358 498.843 288.198C498.386 289.037 497.889 289.89 497.353 290.756C496.817 291.595 496.255 292.354 495.668 293.035C495.107 293.715 494.534 294.264 493.949 294.68C493.391 295.097 492.848 295.302 492.32 295.297C491.608 295.29 490.978 294.941 490.43 294.249C489.91 293.558 489.47 292.656 489.112 291.544C488.753 290.432 488.449 289.202 488.199 287.854C487.975 286.506 487.803 285.158 487.685 283.811C487.566 282.464 487.487 281.21 487.445 280.048C487.404 278.887 487.387 277.95 487.394 277.237C487.401 276.577 487.434 275.944 487.492 275.338C487.578 274.732 487.715 274.192 487.904 273.719C488.12 273.246 488.414 272.88 488.786 272.62C489.185 272.333 489.701 272.193 490.334 272.2C490.941 272.206 491.453 272.435 491.871 272.888C492.315 273.341 492.679 273.938 492.962 274.68C493.245 275.396 493.474 276.216 493.65 277.141C493.825 278.04 493.961 278.965 494.057 279.916C494.154 280.841 494.21 281.752 494.228 282.649C494.272 283.521 494.304 284.273 494.324 284.907C494.488 284.354 494.719 283.683 495.017 282.895C495.315 282.08 495.641 281.225 495.993 280.331C496.345 279.411 496.723 278.505 497.128 277.612C497.559 276.719 497.976 275.918 498.379 275.209C498.809 274.501 499.223 273.925 499.624 273.48C500.024 273.036 500.409 272.815 500.778 272.819L500.818 272.819C501.293 272.824 501.752 273.053 502.196 273.506C502.641 273.959 503.07 274.544 503.485 275.26C503.9 275.977 504.288 276.799 504.648 277.726C505.008 278.627 505.342 279.554 505.649 280.507C505.957 281.434 506.225 282.347 506.453 283.247C506.682 284.12 506.872 284.874 507.024 285.509C507.058 284.744 507.107 283.886 507.169 282.937C507.231 281.961 507.334 280.986 507.475 280.011C507.643 279.036 507.851 278.088 508.097 277.167C508.371 276.246 508.695 275.431 509.072 274.723C509.449 273.987 509.903 273.411 510.435 272.995C510.994 272.551 511.629 272.334 512.342 272.341C513.08 272.348 513.619 272.617 513.956 273.148C514.321 273.654 514.499 274.275 514.492 275.014C514.484 275.806 514.368 276.86 514.144 278.178C513.946 279.495 513.668 280.93 513.309 282.484C512.951 284.011 512.526 285.564 512.035 287.142C511.571 288.694 511.056 290.101 510.489 291.362C509.922 292.623 509.331 293.66 508.716 294.471C508.101 295.257 507.49 295.647 506.884 295.641ZM524.034 278.712C524.03 279.134 523.998 279.714 523.938 280.453C523.878 281.164 523.791 281.942 523.677 282.785C523.563 283.602 523.396 284.445 523.177 285.314C522.983 286.156 522.751 286.932 522.48 287.642C522.21 288.326 521.887 288.89 521.513 289.335C521.14 289.753 520.716 289.96 520.241 289.955C519.66 289.95 519.162 289.667 518.745 289.109C518.355 288.525 518.019 287.796 517.738 286.922C517.483 286.022 517.281 285.031 517.134 283.947C516.986 282.864 516.878 281.807 516.809 280.777C516.741 279.721 516.698 278.757 516.68 277.886C516.689 276.989 516.696 276.303 516.701 275.828C516.705 275.353 516.711 274.759 516.718 274.047C516.726 273.308 516.76 272.53 516.821 271.713C516.908 270.895 517.022 270.092 517.162 269.301C517.328 268.485 517.56 267.748 517.857 267.092C518.154 266.435 518.541 265.911 519.02 265.52C519.5 265.102 520.095 264.897 520.808 264.904C521.441 264.911 521.953 265.193 522.343 265.751C522.76 266.283 523.083 266.985 523.312 267.859C523.567 268.706 523.742 269.657 523.837 270.714C523.959 271.771 524.027 272.814 524.043 273.843C524.086 274.846 524.09 275.783 524.055 276.654C524.046 277.524 524.039 278.21 524.034 278.712ZM523.132 293.745C523.127 294.193 523.018 294.588 522.803 294.929C522.589 295.244 522.309 295.505 521.964 295.712C521.619 295.946 521.248 296.114 520.851 296.216C520.454 296.317 520.058 296.366 519.662 296.362C519.081 296.356 518.529 296.193 518.004 295.871C517.479 295.575 517.22 295.097 517.227 294.438C517.231 294.042 517.34 293.687 517.554 293.372C517.795 293.032 518.088 292.744 518.434 292.51C518.779 292.276 519.15 292.095 519.548 291.967C519.971 291.839 520.368 291.777 520.737 291.781C521.344 291.787 521.896 291.951 522.395 292.273C522.893 292.568 523.139 293.059 523.132 293.745Z" fill="#F9F9FC"/>
<path d="M76.5686 267.999C76.5686 267.999 78.3705 282.189 92.7196 283.514C107.069 284.839 107.599 263.163 107.599 263.163C107.599 263.163 88.3606 257.015 76.5686 267.999Z" fill="#3D0B34"/>
<path d="M141.027 258.764C138.973 257.744 114.7 225.64 101.014 248.164C97.0439 255.024 93.5853 262.167 90.6658 269.536C90.6658 269.536 78.1054 297.359 76.0915 304.925C74.8923 309.033 74.3161 313.298 74.3823 317.578L144.485 292.961L144.829 282.361C144.829 282.361 143.067 259.797 141.027 258.764Z" fill="#EAADA9"/>
<path d="M126.837 200.811C126.837 200.811 89.394 237.22 76.5686 267.999C76.5686 267.999 112.474 258.181 144.79 283.567C144.79 283.567 152.991 244.918 150.937 233.63C148.884 222.341 126.837 200.811 126.837 200.811Z" fill="black"/>
<path d="M146.83 276.889C146.669 276.892 146.511 276.856 146.367 276.784C146.224 276.712 146.1 276.606 146.006 276.476C145.912 276.346 145.852 276.195 145.829 276.036C145.806 275.877 145.822 275.716 145.876 275.564C145.955 275.299 153.348 249.556 152.686 234.849C152.675 234.587 152.768 234.332 152.944 234.139C153.12 233.945 153.365 233.829 153.627 233.815C153.757 233.808 153.887 233.827 154.009 233.871C154.132 233.914 154.244 233.982 154.34 234.069C154.437 234.157 154.514 234.263 154.569 234.381C154.624 234.499 154.655 234.626 154.66 234.756C155.349 249.794 148.102 275.048 147.784 276.107C147.736 276.326 147.616 276.522 147.443 276.664C147.27 276.806 147.054 276.885 146.83 276.889Z" fill="#3D0B34"/>
<path d="M150.248 264.209C150.025 264.207 149.81 264.127 149.638 263.984C149.45 263.824 149.328 263.599 149.299 263.353C149.269 263.107 149.334 262.859 149.479 262.659L157.681 252.404C157.757 252.289 157.856 252.192 157.972 252.118C158.088 252.043 158.218 251.994 158.354 251.973C158.49 251.951 158.629 251.958 158.762 251.993C158.895 252.028 159.019 252.091 159.127 252.176C159.234 252.262 159.323 252.369 159.387 252.491C159.451 252.612 159.49 252.746 159.5 252.883C159.509 253.021 159.491 253.158 159.444 253.288C159.398 253.418 159.325 253.536 159.231 253.636L151.03 263.905C150.928 264.008 150.806 264.088 150.672 264.141C150.537 264.194 150.392 264.217 150.248 264.209Z" fill="#3D0B34"/>
<path d="M74.342 317.578C74.342 317.578 86.6506 328.866 93.5006 330.907C100.351 332.947 201.536 317.578 255.223 296.763L251.115 272.49C251.115 272.49 187.518 280.692 176.243 281.367C164.968 282.043 123.921 281.712 105.465 291.291C87.0084 300.87 74.342 311.417 74.342 317.578Z" fill="#EAADA9"/>
<path d="M82.0535 307.495C81.7798 307.494 81.5177 307.385 81.3248 307.19C81.1387 307.004 81.0341 306.752 81.0341 306.488C81.0341 306.225 81.1387 305.972 81.3248 305.786C81.5367 305.574 103.769 284.587 137.224 282.573C137.354 282.565 137.485 282.583 137.609 282.626C137.732 282.669 137.846 282.735 137.944 282.822C138.042 282.909 138.122 283.014 138.179 283.131C138.236 283.249 138.269 283.377 138.277 283.507C138.285 283.638 138.267 283.768 138.224 283.892C138.182 284.016 138.115 284.129 138.028 284.227C137.942 284.325 137.836 284.405 137.719 284.462C137.601 284.519 137.474 284.553 137.343 284.56C104.644 286.521 82.9147 307.005 82.6894 307.217C82.5192 307.385 82.2926 307.484 82.0535 307.495Z" fill="#FE656D"/>
<path d="M250.095 272.649C250.095 272.649 257.024 263.295 262.576 259.135C268.127 254.975 277.15 242.507 278.475 238.347C279.8 234.186 279.8 232.106 281.602 231.722C283.404 231.338 286.796 233.444 287.485 236.571C288.174 239.698 285.762 246.27 285.06 249.052C284.641 250.664 284.766 252.369 285.418 253.901C285.418 253.901 316.607 248.35 324.225 246.614C331.844 244.879 339.475 243.501 341.211 245.581C342.947 247.661 343.291 249.741 341.211 251.132C339.131 252.523 317.998 259.082 317.998 259.082C317.998 259.082 321.456 265.322 320.423 267.402C319.214 269.38 317.821 271.239 316.262 272.954C316.262 272.954 319.721 276.412 317.998 279.579C316.892 281.517 315.361 283.18 313.52 284.441C313.52 284.441 313.52 290.682 311.095 292.762C308.671 294.842 306.59 295.531 298.972 296.922C291.354 298.313 260.549 297.611 254.255 297.267C247.962 296.922 250.095 272.649 250.095 272.649Z" fill="#EAADA9"/>
</svg>
