<svg width="151" height="185" viewBox="0 0 151 185" fill="none" xmlns="http://www.w3.org/2000/svg">
<g filter="url(#filter0_d_28_2543)">
<circle cx="75.5" cy="71.5" r="71.5" fill="white"/>
</g>
<path d="M89.0935 18.3726C88.9244 19.3741 88.468 20.3049 87.7798 21.0519C87.0916 21.7989 86.2013 22.3299 85.217 22.5804C84.2327 22.8309 83.1968 22.7901 82.2352 22.4629C81.2737 22.1357 80.4279 21.5363 79.8006 20.7374C79.1734 19.9386 78.7917 18.9747 78.7019 17.963C78.6122 16.9513 78.8182 15.9353 79.295 15.0385C79.7719 14.1417 80.4989 13.4027 81.3878 12.9114C82.2767 12.42 83.2893 12.1975 84.3023 12.2707C85.7447 12.4493 87.0579 13.1911 87.9555 14.3342C88.8531 15.4773 89.2621 16.929 89.0935 18.3726Z" fill="#7C3212"/>
<path d="M88.5696 22.0132C86.7056 24.5763 84.6085 23.819 81.725 23.6151C78.8416 23.4113 77.3562 25.1588 77.5455 21.9841C77.7348 18.8094 77.3125 14.9794 80.196 14.9939C84.3901 15.0376 90.9288 18.7511 88.5696 22.0132Z" fill="#5AA5FF"/>
<path d="M79.1036 51.7943L79.4676 46.6245L72.3901 46.7556L71.8804 51.2701L79.1036 51.7943Z" fill="#F4B67D"/>
<path d="M87.0404 37.2605C87.0404 37.2605 85.9045 49.4787 75.6523 48.6487C68.997 48.0953 67.1039 40.3624 67.1039 40.3624C66.3052 40.1348 65.6083 39.641 65.1289 38.9629C64.6494 38.2848 64.4163 37.4632 64.468 36.6343C64.468 33.4742 65.764 32.5713 66.4922 33.7217C66.7414 31.117 67.3643 28.5617 68.3417 26.1345C68.3417 26.1345 82.3365 25.9889 84.2297 25.9452C86.1229 25.9015 87.0404 37.2605 87.0404 37.2605Z" fill="#FFC384"/>
<path d="M86.1812 38.0324C86.1812 38.0324 86.6326 36.1975 87.8996 36.183C89.1666 36.1684 89.3558 37.8722 88.5112 39.8237C87.6666 41.7751 85.8753 42.1392 85.5986 41.7314C85.6646 40.4816 85.8599 39.242 86.1812 38.0324Z" fill="#FFC384"/>
<path d="M73.2931 26.3384C73.2931 26.3384 79.2493 27.5034 81.1716 26.7316C83.0939 25.9597 84.8269 28.2898 85.1909 29.0762C85.555 29.8626 84.1132 32.5567 85.4093 33.3285C86.7054 34.1004 86.1229 37.3916 85.8754 39.0663C86.3851 36.445 88.1181 35.0615 88.8608 37.2605C91.4093 27.7655 90.8704 20.7608 82.9628 17.688C75.0552 14.6153 67.5407 17.3385 65.4874 22.3045C63.8126 26.3238 63.0554 33.9547 64.5263 35.8042C64.6222 35.2165 64.7634 34.6371 64.9486 34.0712C65.3563 33.1538 66.4049 34.0712 66.5651 35.1197C66.7253 36.1683 66.9146 37.7119 66.9146 37.7119C67.0173 36.2465 67.2021 34.7879 67.468 33.3431C67.7447 32.4547 69.6961 30.4305 69.4339 29.2509C69.1718 28.0713 71.4728 25.1151 73.2931 26.3384Z" fill="#934016"/>
<path d="M53.4875 67.595C53.4875 67.595 50.0944 77.5705 49.0167 81.9539C47.9391 86.3374 56.8224 99.6187 56.8224 99.6187L58.934 93.2547L56.0214 83.6724L61.1184 69.2843L53.4875 67.595Z" fill="#F4B67D"/>
<path d="M98.807 70.8279C98.807 70.8279 100.744 81.1821 101.195 85.682C101.647 90.1819 91.0014 102.051 91.0014 102.051L89.8218 95.4537L94.0305 86.381L91.0159 71.4104L98.807 70.8279Z" fill="#F4B67D"/>
<path d="M39.682 103.754C39.682 103.754 48.6818 102.866 52.6284 102.895C56.5749 102.924 91.6276 103.754 91.6276 103.754C91.6276 103.754 108.04 99.7933 113.472 100.07C98.312 113.555 84.0113 122.992 75.2736 120.079C66.5359 117.167 39.682 103.754 39.682 103.754Z" fill="#073B66"/>
<path d="M80.5015 52.1001C80.5015 52.1001 90.6955 56.4689 94.3653 59.7456C98.0352 63.0222 100.817 75.6482 100.948 77.7744C96.5789 77.7744 90.6518 78.2841 90.6518 78.2841C90.5792 81.3402 90.1391 84.3766 89.3411 87.3276C88.0742 91.6965 61.1475 87.9538 61.1475 87.9538L61.0309 76.0851L50.0215 73.6677C50.0215 73.6677 54.201 61.3329 57.3029 58.1291C59.3271 56.0612 70.4094 51.7797 70.4094 51.7797L70.9338 48.6924L80.2685 49.3623L80.5015 52.1001Z" fill="#FF7731"/>
<path d="M52.8206 77.3988L50.7649 106.218L96.2311 109.461L98.2868 80.6419L52.8206 77.3988Z" fill="#F4F4F4"/>
<path d="M86.1811 120.735C86.1811 120.735 73.0745 118.259 69.1425 114.415C65.2106 110.57 48.4779 101.701 39.4635 102.852C30.4491 104.002 28.7452 109.987 38.4295 117.327C45.507 121.914 63.1863 121.696 67.3222 121.944C71.6955 122.585 76.0137 123.559 80.2394 124.856L86.1811 120.735Z" fill="#F4B67D"/>
<path d="M51.0991 104.745C46.8613 103.288 39.9585 101.526 36.7547 101.934C27.7403 103.084 28.7743 109.987 38.4586 117.327C39.326 117.865 40.2427 118.318 41.1964 118.681C41.9973 112.492 44.1235 106.769 51.0991 104.745Z" fill="#073B66"/>
<path d="M67.4242 124.623C67.4242 124.623 76.1619 121.157 78.8997 117.531C81.6375 113.905 91.0452 104.861 101.137 102.968C111.229 101.075 116.909 98.1623 119.676 100.842C122.443 103.521 117.506 113.191 108.404 117.458C99.3023 121.725 85.453 123.997 80.2395 125.599C75.026 127.201 71.1086 128.511 69.0698 130.157C67.031 131.802 59.8079 132.938 58.7157 130.317C57.6234 127.696 62.2253 124.142 67.4242 124.623Z" fill="#F4B67D"/>
<path d="M119.676 100.842C116.923 98.104 111.244 100.842 101.152 102.852C100.246 103.035 99.3516 103.268 98.472 103.551C101.229 104.756 103.607 106.688 105.352 109.14C107.096 111.592 108.141 114.472 108.375 117.473C117.491 113.249 122.399 103.652 119.676 100.842Z" fill="#073B66"/>
<path opacity="0.4" d="M6.9314 151.875L26.8349 148.369C31.1583 147.607 54.3233 153.681 66.5681 157.941C78.8129 162.201 96.9211 166.718 103.137 166.73C109.354 166.741 121.85 164.936 121.85 164.936C121.85 164.936 106.973 169.253 96.4609 169.409C85.9486 169.565 45.8182 155.605 32.9416 152.543C27.6346 151.295 6.9314 151.875 6.9314 151.875Z" fill="url(#paint0_linear_28_2543)"/>
<defs>
<filter id="filter0_d_28_2543" x="0" y="0" width="151" height="151" filterUnits="userSpaceOnUse" color-interpolation-filters="sRGB">
<feFlood flood-opacity="0" result="BackgroundImageFix"/>
<feColorMatrix in="SourceAlpha" type="matrix" values="0 0 0 0 0 0 0 0 0 0 0 0 0 0 0 0 0 0 127 0" result="hardAlpha"/>
<feOffset dy="4"/>
<feGaussianBlur stdDeviation="2"/>
<feComposite in2="hardAlpha" operator="out"/>
<feColorMatrix type="matrix" values="0 0 0 0 0.6125 0 0 0 0 0.6125 0 0 0 0 0.6125 0 0 0 0.25 0"/>
<feBlend mode="normal" in2="BackgroundImageFix" result="effect1_dropShadow_28_2543"/>
<feBlend mode="normal" in="SourceGraphic" in2="effect1_dropShadow_28_2543" result="shape"/>
</filter>
<linearGradient id="paint0_linear_28_2543" x1="67.3646" y1="175.316" x2="61.5405" y2="142.255" gradientUnits="userSpaceOnUse">
<stop stop-color="#EBEBEB"/>
<stop offset="0.18" stop-color="#F4F4F4"/>
<stop offset="0.5" stop-color="#FCFCFC"/>
<stop offset="1" stop-color="white"/>
</linearGradient>
</defs>
</svg>
